<svg width="76" height="20" viewBox="0 0 76 20" fill="none" xmlns="http://www.w3.org/2000/svg">
<mask id="path-1-outside-1_33_120" maskUnits="userSpaceOnUse" x="-0.665527" y="-0.984009" width="77" height="21" fill="black">
<rect fill="white" x="-0.665527" y="-0.984009" width="77" height="21"/>
<path d="M9.8321 4.26399C8.0881 4.26399 6.8241 4.75199 6.0401 5.72799C5.2721 6.68799 4.8881 8.00799 4.8881 9.68799C4.8881 10.504 4.9841 11.248 5.1761 11.92C5.3681 12.576 5.6561 13.144 6.0401 13.624C6.4241 14.104 6.9041 14.48 7.4801 14.752C8.0561 15.008 8.7281 15.136 9.4961 15.136C9.9121 15.136 10.2641 15.128 10.5521 15.112C10.8561 15.096 11.1201 15.064 11.3441 15.016V9.23199H15.0881V17.464C14.6401 17.64 13.9201 17.824 12.9281 18.016C11.9361 18.224 10.7121 18.328 9.2561 18.328C8.0081 18.328 6.8721 18.136 5.8481 17.752C4.8401 17.368 3.9761 16.808 3.2561 16.072C2.5361 15.336 1.9761 14.432 1.5761 13.36C1.1921 12.288 1.0001 11.064 1.0001 9.68799C1.0001 8.29599 1.2161 7.06399 1.6481 5.99199C2.0801 4.91999 2.6721 4.01599 3.4241 3.27999C4.1761 2.52799 5.0561 1.95999 6.0641 1.57599C7.0881 1.19199 8.1761 0.99999 9.3281 0.99999C10.1121 0.99999 10.8161 1.05599 11.4401 1.16799C12.0801 1.26399 12.6241 1.38399 13.0721 1.52799C13.5361 1.65599 13.9121 1.79199 14.2001 1.93599C14.5041 2.07999 14.7201 2.19199 14.8481 2.27199L13.7681 5.27199C13.2561 4.99999 12.6641 4.76799 11.9921 4.57599C11.3361 4.36799 10.6161 4.26399 9.8321 4.26399ZM22.9157 9.68799C22.9157 10.504 23.0117 11.24 23.2037 11.896C23.4117 12.552 23.6997 13.12 24.0677 13.6C24.4517 14.064 24.9157 14.424 25.4597 14.68C26.0037 14.936 26.6277 15.064 27.3317 15.064C28.0197 15.064 28.6357 14.936 29.1797 14.68C29.7397 14.424 30.2037 14.064 30.5717 13.6C30.9557 13.12 31.2437 12.552 31.4357 11.896C31.6437 11.24 31.7477 10.504 31.7477 9.68799C31.7477 8.87199 31.6437 8.13599 31.4357 7.47999C31.2437 6.80799 30.9557 6.23999 30.5717 5.77599C30.2037 5.29599 29.7397 4.92799 29.1797 4.67199C28.6357 4.41599 28.0197 4.28799 27.3317 4.28799C26.6277 4.28799 26.0037 4.42399 25.4597 4.69599C24.9157 4.95199 24.4517 5.31999 24.0677 5.79999C23.6997 6.26399 23.4117 6.83199 23.2037 7.50399C23.0117 8.15999 22.9157 8.88799 22.9157 9.68799ZM35.6117 9.68799C35.6117 11.112 35.3957 12.368 34.9637 13.456C34.5477 14.528 33.9717 15.432 33.2357 16.168C32.4997 16.888 31.6197 17.432 30.5957 17.8C29.5877 18.168 28.4997 18.352 27.3317 18.352C26.1957 18.352 25.1237 18.168 24.1157 17.8C23.1077 17.432 22.2277 16.888 21.4757 16.168C20.7237 15.432 20.1317 14.528 19.6997 13.456C19.2677 12.368 19.0517 11.112 19.0517 9.68799C19.0517 8.26399 19.2757 7.01599 19.7237 5.94399C20.1717 4.85599 20.7717 3.94399 21.5237 3.20799C22.2917 2.47199 23.1717 1.91999 24.1637 1.55199C25.1717 1.18399 26.2277 0.99999 27.3317 0.99999C28.4677 0.99999 29.5397 1.18399 30.5477 1.55199C31.5557 1.91999 32.4357 2.47199 33.1877 3.20799C33.9397 3.94399 34.5317 4.85599 34.9637 5.94399C35.3957 7.01599 35.6117 8.26399 35.6117 9.68799ZM43.0766 9.68799C43.0766 10.504 43.1726 11.24 43.3646 11.896C43.5726 12.552 43.8606 13.12 44.2286 13.6C44.6126 14.064 45.0766 14.424 45.6206 14.68C46.1646 14.936 46.7886 15.064 47.4926 15.064C48.1806 15.064 48.7966 14.936 49.3406 14.68C49.9006 14.424 50.3646 14.064 50.7326 13.6C51.1166 13.12 51.4046 12.552 51.5966 11.896C51.8046 11.24 51.9086 10.504 51.9086 9.68799C51.9086 8.87199 51.8046 8.13599 51.5966 7.47999C51.4046 6.80799 51.1166 6.23999 50.7326 5.77599C50.3646 5.29599 49.9006 4.92799 49.3406 4.67199C48.7966 4.41599 48.1806 4.28799 47.4926 4.28799C46.7886 4.28799 46.1646 4.42399 45.6206 4.69599C45.0766 4.95199 44.6126 5.31999 44.2286 5.79999C43.8606 6.26399 43.5726 6.83199 43.3646 7.50399C43.1726 8.15999 43.0766 8.88799 43.0766 9.68799ZM55.7726 9.68799C55.7726 11.112 55.5566 12.368 55.1246 13.456C54.7086 14.528 54.1326 15.432 53.3966 16.168C52.6606 16.888 51.7806 17.432 50.7566 17.8C49.7486 18.168 48.6606 18.352 47.4926 18.352C46.3566 18.352 45.2846 18.168 44.2766 17.8C43.2686 17.432 42.3886 16.888 41.6366 16.168C40.8846 15.432 40.2926 14.528 39.8606 13.456C39.4286 12.368 39.2126 11.112 39.2126 9.68799C39.2126 8.26399 39.4366 7.01599 39.8846 5.94399C40.3326 4.85599 40.9326 3.94399 41.6846 3.20799C42.4526 2.47199 43.3326 1.91999 44.3246 1.55199C45.3326 1.18399 46.3886 0.99999 47.4926 0.99999C48.6286 0.99999 49.7006 1.18399 50.7086 1.55199C51.7166 1.91999 52.5966 2.47199 53.3486 3.20799C54.1006 3.94399 54.6926 4.85599 55.1246 5.94399C55.5566 7.01599 55.7726 8.26399 55.7726 9.68799ZM63.8375 14.968C64.0135 14.984 64.2135 15 64.4375 15.016C64.6775 15.016 64.9575 15.016 65.2775 15.016C67.1495 15.016 68.5335 14.544 69.4295 13.6C70.3415 12.656 70.7975 11.352 70.7975 9.68799C70.7975 7.94399 70.3655 6.62399 69.5015 5.72799C68.6375 4.83199 67.2695 4.38399 65.3975 4.38399C65.1415 4.38399 64.8775 4.39199 64.6055 4.40799C64.3335 4.40799 64.0775 4.42399 63.8375 4.45599V14.968ZM74.6615 9.68799C74.6615 11.128 74.4375 12.384 73.9895 13.456C73.5415 14.528 72.9015 15.416 72.0695 16.12C71.2535 16.824 70.2535 17.352 69.0695 17.704C67.8855 18.056 66.5575 18.232 65.0855 18.232C64.4135 18.232 63.6295 18.2 62.7335 18.136C61.8375 18.088 60.9575 17.976 60.0935 17.8V1.59999C60.9575 1.43999 61.8535 1.33599 62.7815 1.28799C63.7255 1.22399 64.5335 1.19199 65.2055 1.19199C66.6295 1.19199 67.9175 1.35199 69.0695 1.67199C70.2375 1.99199 71.2375 2.49599 72.0695 3.18399C72.9015 3.87199 73.5415 4.75199 73.9895 5.82399C74.4375 6.89599 74.6615 8.18399 74.6615 9.68799Z"/>
</mask>
<path d="M9.8321 4.26399C8.0881 4.26399 6.8241 4.75199 6.0401 5.72799C5.2721 6.68799 4.8881 8.00799 4.8881 9.68799C4.8881 10.504 4.9841 11.248 5.1761 11.92C5.3681 12.576 5.6561 13.144 6.0401 13.624C6.4241 14.104 6.9041 14.48 7.4801 14.752C8.0561 15.008 8.7281 15.136 9.4961 15.136C9.9121 15.136 10.2641 15.128 10.5521 15.112C10.8561 15.096 11.1201 15.064 11.3441 15.016V9.23199H15.0881V17.464C14.6401 17.64 13.9201 17.824 12.9281 18.016C11.9361 18.224 10.7121 18.328 9.2561 18.328C8.0081 18.328 6.8721 18.136 5.8481 17.752C4.8401 17.368 3.9761 16.808 3.2561 16.072C2.5361 15.336 1.9761 14.432 1.5761 13.36C1.1921 12.288 1.0001 11.064 1.0001 9.68799C1.0001 8.29599 1.2161 7.06399 1.6481 5.99199C2.0801 4.91999 2.6721 4.01599 3.4241 3.27999C4.1761 2.52799 5.0561 1.95999 6.0641 1.57599C7.0881 1.19199 8.1761 0.99999 9.3281 0.99999C10.1121 0.99999 10.8161 1.05599 11.4401 1.16799C12.0801 1.26399 12.6241 1.38399 13.0721 1.52799C13.5361 1.65599 13.9121 1.79199 14.2001 1.93599C14.5041 2.07999 14.7201 2.19199 14.8481 2.27199L13.7681 5.27199C13.2561 4.99999 12.6641 4.76799 11.9921 4.57599C11.3361 4.36799 10.6161 4.26399 9.8321 4.26399ZM22.9157 9.68799C22.9157 10.504 23.0117 11.24 23.2037 11.896C23.4117 12.552 23.6997 13.12 24.0677 13.6C24.4517 14.064 24.9157 14.424 25.4597 14.68C26.0037 14.936 26.6277 15.064 27.3317 15.064C28.0197 15.064 28.6357 14.936 29.1797 14.68C29.7397 14.424 30.2037 14.064 30.5717 13.6C30.9557 13.12 31.2437 12.552 31.4357 11.896C31.6437 11.24 31.7477 10.504 31.7477 9.68799C31.7477 8.87199 31.6437 8.13599 31.4357 7.47999C31.2437 6.80799 30.9557 6.23999 30.5717 5.77599C30.2037 5.29599 29.7397 4.92799 29.1797 4.67199C28.6357 4.41599 28.0197 4.28799 27.3317 4.28799C26.6277 4.28799 26.0037 4.42399 25.4597 4.69599C24.9157 4.95199 24.4517 5.31999 24.0677 5.79999C23.6997 6.26399 23.4117 6.83199 23.2037 7.50399C23.0117 8.15999 22.9157 8.88799 22.9157 9.68799ZM35.6117 9.68799C35.6117 11.112 35.3957 12.368 34.9637 13.456C34.5477 14.528 33.9717 15.432 33.2357 16.168C32.4997 16.888 31.6197 17.432 30.5957 17.8C29.5877 18.168 28.4997 18.352 27.3317 18.352C26.1957 18.352 25.1237 18.168 24.1157 17.8C23.1077 17.432 22.2277 16.888 21.4757 16.168C20.7237 15.432 20.1317 14.528 19.6997 13.456C19.2677 12.368 19.0517 11.112 19.0517 9.68799C19.0517 8.26399 19.2757 7.01599 19.7237 5.94399C20.1717 4.85599 20.7717 3.94399 21.5237 3.20799C22.2917 2.47199 23.1717 1.91999 24.1637 1.55199C25.1717 1.18399 26.2277 0.99999 27.3317 0.99999C28.4677 0.99999 29.5397 1.18399 30.5477 1.55199C31.5557 1.91999 32.4357 2.47199 33.1877 3.20799C33.9397 3.94399 34.5317 4.85599 34.9637 5.94399C35.3957 7.01599 35.6117 8.26399 35.6117 9.68799ZM43.0766 9.68799C43.0766 10.504 43.1726 11.24 43.3646 11.896C43.5726 12.552 43.8606 13.12 44.2286 13.6C44.6126 14.064 45.0766 14.424 45.6206 14.68C46.1646 14.936 46.7886 15.064 47.4926 15.064C48.1806 15.064 48.7966 14.936 49.3406 14.68C49.9006 14.424 50.3646 14.064 50.7326 13.6C51.1166 13.12 51.4046 12.552 51.5966 11.896C51.8046 11.24 51.9086 10.504 51.9086 9.68799C51.9086 8.87199 51.8046 8.13599 51.5966 7.47999C51.4046 6.80799 51.1166 6.23999 50.7326 5.77599C50.3646 5.29599 49.9006 4.92799 49.3406 4.67199C48.7966 4.41599 48.1806 4.28799 47.4926 4.28799C46.7886 4.28799 46.1646 4.42399 45.6206 4.69599C45.0766 4.95199 44.6126 5.31999 44.2286 5.79999C43.8606 6.26399 43.5726 6.83199 43.3646 7.50399C43.1726 8.15999 43.0766 8.88799 43.0766 9.68799ZM55.7726 9.68799C55.7726 11.112 55.5566 12.368 55.1246 13.456C54.7086 14.528 54.1326 15.432 53.3966 16.168C52.6606 16.888 51.7806 17.432 50.7566 17.8C49.7486 18.168 48.6606 18.352 47.4926 18.352C46.3566 18.352 45.2846 18.168 44.2766 17.8C43.2686 17.432 42.3886 16.888 41.6366 16.168C40.8846 15.432 40.2926 14.528 39.8606 13.456C39.4286 12.368 39.2126 11.112 39.2126 9.68799C39.2126 8.26399 39.4366 7.01599 39.8846 5.94399C40.3326 4.85599 40.9326 3.94399 41.6846 3.20799C42.4526 2.47199 43.3326 1.91999 44.3246 1.55199C45.3326 1.18399 46.3886 0.99999 47.4926 0.99999C48.6286 0.99999 49.7006 1.18399 50.7086 1.55199C51.7166 1.91999 52.5966 2.47199 53.3486 3.20799C54.1006 3.94399 54.6926 4.85599 55.1246 5.94399C55.5566 7.01599 55.7726 8.26399 55.7726 9.68799ZM63.8375 14.968C64.0135 14.984 64.2135 15 64.4375 15.016C64.6775 15.016 64.9575 15.016 65.2775 15.016C67.1495 15.016 68.5335 14.544 69.4295 13.6C70.3415 12.656 70.7975 11.352 70.7975 9.68799C70.7975 7.94399 70.3655 6.62399 69.5015 5.72799C68.6375 4.83199 67.2695 4.38399 65.3975 4.38399C65.1415 4.38399 64.8775 4.39199 64.6055 4.40799C64.3335 4.40799 64.0775 4.42399 63.8375 4.45599V14.968ZM74.6615 9.68799C74.6615 11.128 74.4375 12.384 73.9895 13.456C73.5415 14.528 72.9015 15.416 72.0695 16.12C71.2535 16.824 70.2535 17.352 69.0695 17.704C67.8855 18.056 66.5575 18.232 65.0855 18.232C64.4135 18.232 63.6295 18.2 62.7335 18.136C61.8375 18.088 60.9575 17.976 60.0935 17.8V1.59999C60.9575 1.43999 61.8535 1.33599 62.7815 1.28799C63.7255 1.22399 64.5335 1.19199 65.2055 1.19199C66.6295 1.19199 67.9175 1.35199 69.0695 1.67199C70.2375 1.99199 71.2375 2.49599 72.0695 3.18399C72.9015 3.87199 73.5415 4.75199 73.9895 5.82399C74.4375 6.89599 74.6615 8.18399 74.6615 9.68799Z" fill="url(#paint0_linear_33_120)"/>
<path d="M6.0401 5.72799L5.26048 5.10174L5.25923 5.1033L6.0401 5.72799ZM5.1761 11.92L4.21455 12.1947L4.21636 12.2009L5.1761 11.92ZM6.0401 13.624L6.82097 12.9993V12.9993L6.0401 13.624ZM7.4801 14.752L7.05309 15.6562L7.06347 15.6611L7.07396 15.6658L7.4801 14.752ZM10.5521 15.112L10.4995 14.1134L10.4966 14.1135L10.5521 15.112ZM11.3441 15.016L11.5536 15.9938L12.3441 15.8244V15.016H11.3441ZM11.3441 9.23199V8.23199H10.3441V9.23199H11.3441ZM15.0881 9.23199H16.0881V8.23199H15.0881V9.23199ZM15.0881 17.464L15.4538 18.3947L16.0881 18.1455V17.464H15.0881ZM12.9281 18.016L12.7381 17.0342L12.7305 17.0357L12.7229 17.0373L12.9281 18.016ZM5.8481 17.752L5.4921 18.6865L5.49697 18.6883L5.8481 17.752ZM3.2561 16.072L2.54126 16.7713V16.7713L3.2561 16.072ZM1.5761 13.36L0.634593 13.6972L0.639196 13.7096L1.5761 13.36ZM1.6481 5.99199L0.72058 5.61821H0.72058L1.6481 5.99199ZM3.4241 3.27999L4.1236 3.9947L4.13121 3.9871L3.4241 3.27999ZM6.0641 1.57599L5.71297 0.639648L5.7081 0.641502L6.0641 1.57599ZM11.4401 1.16799L11.2634 2.15226L11.2776 2.1548L11.2918 2.15693L11.4401 1.16799ZM13.0721 1.52799L12.7661 2.48002L12.786 2.48642L12.8062 2.49198L13.0721 1.52799ZM14.2001 1.93599L13.7529 2.83042L13.7624 2.83517L13.772 2.83973L14.2001 1.93599ZM14.8481 2.27199L15.789 2.61071L16.0623 1.8516L15.3781 1.42399L14.8481 2.27199ZM13.7681 5.27199L13.2989 6.15511L14.3181 6.69653L14.709 5.61071L13.7681 5.27199ZM11.9921 4.57599L11.6899 5.52922L11.7036 5.53357L11.7174 5.53752L11.9921 4.57599ZM9.8321 4.26399V3.26399C7.91061 3.26399 6.30102 3.80637 5.26048 5.10174L6.0401 5.72799L6.81972 6.35424C7.34718 5.69761 8.26559 5.26399 9.8321 5.26399V4.26399ZM6.0401 5.72799L5.25923 5.1033C4.3052 6.29583 3.8881 7.8635 3.8881 9.68799H4.8881H5.8881C5.8881 8.15248 6.239 7.08015 6.82097 6.35269L6.0401 5.72799ZM4.8881 9.68799H3.8881C3.8881 10.5818 3.9932 11.4199 4.21457 12.1947L5.1761 11.92L6.13762 11.6453C5.975 11.0761 5.8881 10.4262 5.8881 9.68799H4.8881ZM5.1761 11.92L4.21636 12.2009C4.44089 12.968 4.78511 13.656 5.25923 14.2487L6.0401 13.624L6.82097 12.9993C6.52709 12.632 6.29531 12.1839 6.13584 11.6391L5.1761 11.92ZM6.0401 13.624L5.25923 14.2487C5.74185 14.852 6.34454 15.3216 7.05309 15.6562L7.4801 14.752L7.90711 13.8477C7.46366 13.6383 7.10634 13.356 6.82097 12.9993L6.0401 13.624ZM7.4801 14.752L7.07396 15.6658C7.80256 15.9896 8.61805 16.136 9.4961 16.136V15.136V14.136C8.83814 14.136 8.30964 14.0264 7.88624 13.8382L7.4801 14.752ZM9.4961 15.136V16.136C9.92329 16.136 10.295 16.1278 10.6076 16.1105L10.5521 15.112L10.4966 14.1135C10.2332 14.1282 9.90091 14.136 9.4961 14.136V15.136ZM10.5521 15.112L10.6047 16.1106C10.9454 16.0927 11.2643 16.0558 11.5536 15.9938L11.3441 15.016L11.1346 14.0382C10.9759 14.0722 10.7668 14.0993 10.4995 14.1134L10.5521 15.112ZM11.3441 15.016H12.3441V9.23199H11.3441H10.3441V15.016H11.3441ZM11.3441 9.23199V10.232H15.0881V9.23199V8.23199H11.3441V9.23199ZM15.0881 9.23199H14.0881V17.464H15.0881H16.0881V9.23199H15.0881ZM15.0881 17.464L14.7224 16.5332C14.3647 16.6738 13.7205 16.8441 12.7381 17.0342L12.9281 18.016L13.1181 18.9978C14.1197 18.8039 14.9155 18.6062 15.4538 18.3947L15.0881 17.464ZM12.9281 18.016L12.7229 17.0373C11.8206 17.2265 10.6703 17.328 9.2561 17.328V18.328V19.328C10.7539 19.328 12.0516 19.2215 13.1333 18.9947L12.9281 18.016ZM9.2561 18.328V17.328C8.11128 17.328 7.09628 17.1521 6.19922 16.8157L5.8481 17.752L5.49697 18.6883C6.64792 19.1199 7.90492 19.328 9.2561 19.328V18.328ZM5.8481 17.752L6.20409 16.8175C5.32472 16.4825 4.58492 16.0003 3.97093 15.3727L3.2561 16.072L2.54126 16.7713C3.36727 17.6157 4.35548 18.2535 5.4921 18.6865L5.8481 17.752ZM3.2561 16.072L3.97093 15.3727C3.35891 14.7471 2.86966 13.9662 2.513 13.0104L1.5761 13.36L0.639196 13.7096C1.08254 14.8977 1.71329 15.9249 2.54126 16.7713L3.2561 16.072ZM1.5761 13.36L2.51752 13.0228C2.17941 12.0789 2.0001 10.9723 2.0001 9.68799H1.0001H9.84669e-05C9.84669e-05 11.1557 0.204788 12.4971 0.634675 13.6972L1.5761 13.36ZM1.0001 9.68799H2.0001C2.0001 8.39853 2.2002 7.29737 2.57562 6.36577L1.6481 5.99199L0.72058 5.61821C0.232002 6.83061 9.84669e-05 8.19345 9.84669e-05 9.68799H1.0001ZM1.6481 5.99199L2.57562 6.36577C2.96109 5.40923 3.47966 4.62486 4.12356 3.99466L3.4241 3.27999L2.72464 2.56532C1.86454 3.40712 1.19911 4.43075 0.72058 5.61821L1.6481 5.99199ZM3.4241 3.27999L4.13121 3.9871C4.78205 3.33625 5.54191 2.84502 6.42009 2.51048L6.0641 1.57599L5.7081 0.641502C4.57028 1.07496 3.57015 1.71973 2.71699 2.57288L3.4241 3.27999ZM6.0641 1.57599L6.41522 2.51232C7.32104 2.17264 8.28954 1.99999 9.3281 1.99999V0.99999V-9.53674e-06C8.06266 -9.53674e-06 6.85515 0.211344 5.71298 0.63966L6.0641 1.57599ZM9.3281 0.99999V1.99999C10.0661 1.99999 10.7095 2.05284 11.2634 2.15226L11.4401 1.16799L11.6168 0.18372C10.9227 0.059145 10.1581 -9.53674e-06 9.3281 -9.53674e-06V0.99999ZM11.4401 1.16799L11.2918 2.15693C11.8966 2.24765 12.3846 2.3574 12.7661 2.48002L13.0721 1.52799L13.3781 0.575962C12.8636 0.41058 12.2636 0.280327 11.5884 0.179054L11.4401 1.16799ZM13.0721 1.52799L12.8062 2.49198C13.2351 2.6103 13.5438 2.72587 13.7529 2.83042L14.2001 1.93599L14.6473 1.04156C14.2804 0.858109 13.8371 0.701675 13.338 0.563997L13.0721 1.52799ZM14.2001 1.93599L13.772 2.83973C14.0728 2.9822 14.2433 3.07321 14.3181 3.11999L14.8481 2.27199L15.3781 1.42399C15.1969 1.31077 14.9354 1.17778 14.6282 1.03225L14.2001 1.93599ZM14.8481 2.27199L13.9072 1.93327L12.8272 4.93327L13.7681 5.27199L14.709 5.61071L15.789 2.61071L14.8481 2.27199ZM13.7681 5.27199L14.2373 4.38888C13.6523 4.07811 12.993 3.82193 12.2668 3.61447L11.9921 4.57599L11.7174 5.53752C12.3352 5.71405 12.8599 5.92187 13.2989 6.15511L13.7681 5.27199ZM11.9921 4.57599L12.2943 3.62276C11.5281 3.37979 10.7046 3.26399 9.8321 3.26399V4.26399V5.26399C10.5276 5.26399 11.1441 5.35619 11.6899 5.52922L11.9921 4.57599ZM23.2037 11.896L22.2439 12.1769L22.2471 12.1876L22.2504 12.1982L23.2037 11.896ZM24.0677 13.6L23.2741 14.2084L23.2854 14.2232L23.2973 14.2376L24.0677 13.6ZM25.4597 14.68L25.8855 13.7752V13.7752L25.4597 14.68ZM29.1797 14.68L28.7639 13.7705L28.7539 13.7752L29.1797 14.68ZM30.5717 13.6L29.7908 12.9753L29.7882 12.9786L30.5717 13.6ZM31.4357 11.896L30.4824 11.5937L30.4791 11.6044L30.4759 11.6151L31.4357 11.896ZM31.4357 7.47999L30.4741 7.75471L30.4781 7.76853L30.4824 7.78224L31.4357 7.47999ZM30.5717 5.77599L29.7781 6.38442L29.7894 6.39921L29.8013 6.41356L30.5717 5.77599ZM29.1797 4.67199L28.7538 5.57686L28.7639 5.58146L29.1797 4.67199ZM25.4597 4.69599L25.8855 5.60081L25.8962 5.59574L25.9069 5.59042L25.4597 4.69599ZM24.0677 5.79999L23.2868 5.17529L23.2842 5.1786L24.0677 5.79999ZM23.2037 7.50399L22.2484 7.20831L22.2461 7.21568L22.2439 7.22309L23.2037 7.50399ZM34.9637 13.456L34.0342 13.0869L34.0314 13.0942L34.9637 13.456ZM33.2357 16.168L33.935 16.8829L33.9428 16.8751L33.2357 16.168ZM30.5957 17.8L30.2575 16.8589L30.2527 16.8606L30.5957 17.8ZM21.4757 16.168L20.7762 16.8827L20.7841 16.8903L21.4757 16.168ZM19.6997 13.456L18.7702 13.825L18.7721 13.8298L19.6997 13.456ZM19.7237 5.94399L20.6463 6.32959L20.6483 6.32474L19.7237 5.94399ZM21.5237 3.20799L20.8317 2.48596L20.8242 2.49332L21.5237 3.20799ZM24.1637 1.55199L23.8207 0.612619L23.8159 0.614424L24.1637 1.55199ZM30.5477 1.55199L30.8906 0.612633V0.612633L30.5477 1.55199ZM33.1877 3.20799L33.8871 2.49332H33.8871L33.1877 3.20799ZM34.9637 5.94399L34.0342 6.31303L34.0361 6.31777L34.9637 5.94399ZM22.9157 9.68799H21.9157C21.9157 10.5813 22.0206 11.414 22.2439 12.1769L23.2037 11.896L24.1634 11.6151C24.0027 11.066 23.9157 10.4267 23.9157 9.68799H22.9157ZM23.2037 11.896L22.2504 12.1982C22.4887 12.9497 22.8265 13.6246 23.2741 14.2084L24.0677 13.6L24.8613 12.9916C24.5728 12.6153 24.3346 12.1542 24.1569 11.5937L23.2037 11.896ZM24.0677 13.6L23.2973 14.2376C23.7749 14.8147 24.3565 15.266 25.0339 15.5848L25.4597 14.68L25.8855 13.7752C25.4748 13.5819 25.1284 13.3133 24.8381 12.9624L24.0677 13.6ZM25.4597 14.68L25.0339 15.5848C25.732 15.9133 26.5054 16.064 27.3317 16.064V15.064V14.064C26.7499 14.064 26.2754 13.9587 25.8855 13.7752L25.4597 14.68ZM27.3317 15.064V16.064C28.1456 16.064 28.9103 15.9119 29.6055 15.5848L29.1797 14.68L28.7539 13.7752C28.361 13.96 27.8937 14.064 27.3317 14.064V15.064ZM29.1797 14.68L29.5954 15.5895C30.2931 15.2705 30.8851 14.8141 31.3552 14.2214L30.5717 13.6L29.7882 12.9786C29.5222 13.3139 29.1862 13.5775 28.7639 13.7705L29.1797 14.68ZM30.5717 13.6L31.3525 14.2247C31.8267 13.632 32.1709 12.944 32.3954 12.1769L31.4357 11.896L30.4759 11.6151C30.3165 12.1599 30.0847 12.608 29.7908 12.9753L30.5717 13.6ZM31.4357 11.896L32.3889 12.1982C32.633 11.4283 32.7477 10.588 32.7477 9.68799H31.7477H30.7477C30.7477 10.4199 30.6543 11.0517 30.4824 11.5937L31.4357 11.896ZM31.7477 9.68799H32.7477C32.7477 8.78793 32.633 7.94769 32.3889 7.17775L31.4357 7.47999L30.4824 7.78224C30.6543 8.32429 30.7477 8.95605 30.7477 9.68799H31.7477ZM31.4357 7.47999L32.3972 7.20527C32.1733 6.42154 31.8272 5.72458 31.3421 5.13842L30.5717 5.77599L29.8013 6.41356C30.0842 6.7554 30.3141 7.19444 30.4741 7.75471L31.4357 7.47999ZM30.5717 5.77599L31.3653 5.16756C30.896 4.55542 30.3013 4.0852 29.5954 3.76252L29.1797 4.67199L28.7639 5.58146C29.178 5.77078 29.5114 6.03656 29.7781 6.38442L30.5717 5.77599ZM29.1797 4.67199L29.6055 3.76717C28.9103 3.44003 28.1456 3.28799 27.3317 3.28799V4.28799V5.28799C27.8937 5.28799 28.361 5.39195 28.7539 5.57681L29.1797 4.67199ZM27.3317 4.28799V3.28799C26.4969 3.28799 25.7156 3.44996 25.0124 3.80156L25.4597 4.69599L25.9069 5.59042C26.2917 5.39802 26.7584 5.28799 27.3317 5.28799V4.28799ZM25.4597 4.69599L25.0339 3.79117C24.3485 4.1137 23.764 4.5788 23.2868 5.1753L24.0677 5.79999L24.8485 6.42469C25.1393 6.06119 25.4828 5.79029 25.8855 5.60081L25.4597 4.69599ZM24.0677 5.79999L23.2842 5.1786C22.8263 5.75595 22.4863 6.43977 22.2484 7.20831L23.2037 7.50399L24.1589 7.79967C24.3371 7.22421 24.5731 6.77203 24.8512 6.42139L24.0677 5.79999ZM23.2037 7.50399L22.2439 7.22309C22.0211 7.98431 21.9157 8.80867 21.9157 9.68799H22.9157H23.9157C23.9157 8.96731 24.0022 8.33567 24.1634 7.78489L23.2037 7.50399ZM35.6117 9.68799H34.6117C34.6117 11.0122 34.4107 12.1388 34.0342 13.087L34.9637 13.456L35.8931 13.825C36.3806 12.5972 36.6117 11.2118 36.6117 9.68799H35.6117ZM34.9637 13.456L34.0314 13.0942C33.6604 14.0504 33.1565 14.833 32.5286 15.4609L33.2357 16.168L33.9428 16.8751C34.7868 16.031 35.435 15.0056 35.8959 13.8178L34.9637 13.456ZM33.2357 16.168L32.5364 15.4532C31.9089 16.067 31.1541 16.5367 30.2575 16.8589L30.5957 17.8L30.9339 18.7411C32.0852 18.3273 33.0904 17.709 33.935 16.8828L33.2357 16.168ZM30.5957 17.8L30.2527 16.8606C29.3639 17.1851 28.393 17.352 27.3317 17.352V18.352V19.352C28.6063 19.352 29.8114 19.1509 30.9386 18.7393L30.5957 17.8ZM27.3317 18.352V17.352C26.3057 17.352 25.3504 17.1862 24.4586 16.8606L24.1157 17.8L23.7727 18.7393C24.8969 19.1498 26.0856 19.352 27.3317 19.352V18.352ZM24.1157 17.8L24.4586 16.8606C23.5765 16.5386 22.8162 16.067 22.1672 15.4457L21.4757 16.168L20.7841 16.8903C21.6391 17.709 22.6388 18.3254 23.7727 18.7393L24.1157 17.8ZM21.4757 16.168L22.1751 15.4533C21.5312 14.8231 21.0127 14.0388 20.6272 13.0822L19.6997 13.456L18.7721 13.8298C19.2507 15.0172 19.9161 16.0409 20.7762 16.8827L21.4757 16.168ZM19.6997 13.456L20.6291 13.087C20.2526 12.1388 20.0517 11.0122 20.0517 9.68799H19.0517H18.0517C18.0517 11.2118 18.2827 12.5972 18.7702 13.825L19.6997 13.456ZM19.0517 9.68799H20.0517C20.0517 8.36733 20.2595 7.25523 20.6463 6.32958L19.7237 5.94399L18.801 5.5584C18.2918 6.77676 18.0517 8.16065 18.0517 9.68799H19.0517ZM19.7237 5.94399L20.6483 6.32474C21.0508 5.34733 21.5789 4.55316 22.2231 3.92266L21.5237 3.20799L20.8242 2.49332C19.9644 3.33482 19.2925 4.36466 18.799 5.56324L19.7237 5.94399ZM21.5237 3.20799L22.2156 3.92998C22.8854 3.28809 23.6484 2.80972 24.5115 2.48956L24.1637 1.55199L23.8159 0.614424C22.6949 1.03026 21.698 1.65589 20.8318 2.486L21.5237 3.20799ZM24.1637 1.55199L24.5066 2.49135C25.4015 2.16462 26.3412 1.99999 27.3317 1.99999V0.99999V-9.53674e-06C26.1141 -9.53674e-06 24.9418 0.203358 23.8207 0.612633L24.1637 1.55199ZM27.3317 0.99999V1.99999C28.3576 1.99999 29.3129 2.16577 30.2047 2.49135L30.5477 1.55199L30.8906 0.612633C29.7664 0.202209 28.5777 -9.53674e-06 27.3317 -9.53674e-06V0.99999ZM30.5477 1.55199L30.2047 2.49135C31.082 2.81162 31.8398 3.28804 32.4882 3.92266L33.1877 3.20799L33.8871 2.49332C33.0315 1.65594 32.0293 1.02836 30.8906 0.612633L30.5477 1.55199ZM33.1877 3.20799L32.4882 3.92266C33.1295 4.55031 33.648 5.34035 34.0342 6.31302L34.9637 5.94399L35.8931 5.57496C35.4153 4.37163 34.7498 3.33767 33.8871 2.49332L33.1877 3.20799ZM34.9637 5.94399L34.0361 6.31777C34.4106 7.24689 34.6117 8.36327 34.6117 9.68799H35.6117H36.6117C36.6117 8.16471 36.3808 6.78509 35.8912 5.57022L34.9637 5.94399ZM43.3646 11.896L42.4049 12.1769L42.408 12.1876L42.4114 12.1982L43.3646 11.896ZM44.2286 13.6L43.435 14.2084L43.4463 14.2232L43.4582 14.2376L44.2286 13.6ZM45.6206 14.68L46.0464 13.7752V13.7752L45.6206 14.68ZM49.3406 14.68L48.9248 13.7705L48.9148 13.7752L49.3406 14.68ZM50.7326 13.6L49.9517 12.9753L49.9491 12.9786L50.7326 13.6ZM51.5966 11.896L50.6434 11.5937L50.64 11.6044L50.6369 11.6151L51.5966 11.896ZM51.5966 7.47999L50.6351 7.75471L50.639 7.76853L50.6434 7.78224L51.5966 7.47999ZM50.7326 5.77599L49.939 6.38442L49.9503 6.39921L49.9622 6.41356L50.7326 5.77599ZM49.3406 4.67199L48.9148 5.57686L48.9248 5.58146L49.3406 4.67199ZM45.6206 4.69599L46.0464 5.60081L46.0572 5.59574L46.0678 5.59042L45.6206 4.69599ZM44.2286 5.79999L43.4477 5.17529L43.4451 5.1786L44.2286 5.79999ZM43.3646 7.50399L42.4093 7.20831L42.407 7.21568L42.4049 7.22309L43.3646 7.50399ZM55.1246 13.456L54.1952 13.0869L54.1923 13.0942L55.1246 13.456ZM53.3966 16.168L54.0959 16.8829L54.1037 16.8751L53.3966 16.168ZM50.7566 17.8L50.4184 16.8589L50.4137 16.8606L50.7566 17.8ZM41.6366 16.168L40.9371 16.8827L40.945 16.8903L41.6366 16.168ZM39.8606 13.456L38.9312 13.825L38.9331 13.8298L39.8606 13.456ZM39.8846 5.94399L40.8073 6.32959L40.8093 6.32474L39.8846 5.94399ZM41.6846 3.20799L40.9927 2.48596L40.9851 2.49332L41.6846 3.20799ZM44.3246 1.55199L43.9817 0.612619L43.9768 0.614424L44.3246 1.55199ZM50.7086 1.55199L51.0515 0.612633V0.612633L50.7086 1.55199ZM53.3486 3.20799L54.0481 2.49332V2.49332L53.3486 3.20799ZM55.1246 5.94399L54.1952 6.31303L54.1971 6.31777L55.1246 5.94399ZM43.0766 9.68799H42.0766C42.0766 10.5813 42.1816 11.414 42.4049 12.1769L43.3646 11.896L44.3243 11.6151C44.1636 11.066 44.0766 10.4267 44.0766 9.68799H43.0766ZM43.3646 11.896L42.4114 12.1982C42.6497 12.9497 42.9874 13.6246 43.435 14.2084L44.2286 13.6L45.0222 12.9916C44.7338 12.6153 44.4956 12.1542 44.3178 11.5937L43.3646 11.896ZM44.2286 13.6L43.4582 14.2376C43.9358 14.8147 44.5174 15.266 45.1948 15.5848L45.6206 14.68L46.0464 13.7752C45.6358 13.5819 45.2894 13.3133 44.999 12.9624L44.2286 13.6ZM45.6206 14.68L45.1948 15.5848C45.8929 15.9133 46.6664 16.064 47.4926 16.064V15.064V14.064C46.9108 14.064 46.4363 13.9587 46.0464 13.7752L45.6206 14.68ZM47.4926 15.064V16.064C48.3066 16.064 49.0712 15.9119 49.7664 15.5848L49.3406 14.68L48.9148 13.7752C48.522 13.96 48.0546 14.064 47.4926 14.064V15.064ZM49.3406 14.68L49.7564 15.5895C50.4541 15.2705 51.046 14.8141 51.5161 14.2214L50.7326 13.6L49.9491 12.9786C49.6832 13.3139 49.3471 13.5775 48.9248 13.7705L49.3406 14.68ZM50.7326 13.6L51.5135 14.2247C51.9876 13.632 52.3318 12.944 52.5563 12.1769L51.5966 11.896L50.6369 11.6151C50.4774 12.1599 50.2456 12.608 49.9517 12.9753L50.7326 13.6ZM51.5966 11.896L52.5498 12.1982C52.794 11.4283 52.9086 10.588 52.9086 9.68799H51.9086H50.9086C50.9086 10.4199 50.8152 11.0517 50.6434 11.5937L51.5966 11.896ZM51.9086 9.68799H52.9086C52.9086 8.78793 52.794 7.94769 52.5498 7.17775L51.5966 7.47999L50.6434 7.78224C50.8152 8.32429 50.9086 8.95605 50.9086 9.68799H51.9086ZM51.5966 7.47999L52.5581 7.20527C52.3342 6.42154 51.9881 5.72458 51.503 5.13842L50.7326 5.77599L49.9622 6.41356C50.2451 6.7554 50.475 7.19444 50.6351 7.75471L51.5966 7.47999ZM50.7326 5.77599L51.5262 5.16756C51.0569 4.55542 50.4622 4.0852 49.7564 3.76252L49.3406 4.67199L48.9248 5.58146C49.339 5.77078 49.6723 6.03656 49.939 6.38442L50.7326 5.77599ZM49.3406 4.67199L49.7664 3.76717C49.0712 3.44003 48.3066 3.28799 47.4926 3.28799V4.28799V5.28799C48.0546 5.28799 48.522 5.39195 48.9148 5.57681L49.3406 4.67199ZM47.4926 4.28799V3.28799C46.6578 3.28799 45.8766 3.44996 45.1734 3.80156L45.6206 4.69599L46.0678 5.59042C46.4526 5.39802 46.9194 5.28799 47.4926 5.28799V4.28799ZM45.6206 4.69599L45.1948 3.79117C44.5094 4.1137 43.9249 4.5788 43.4477 5.1753L44.2286 5.79999L45.0095 6.42469C45.3003 6.06119 45.6438 5.79029 46.0464 5.60081L45.6206 4.69599ZM44.2286 5.79999L43.4451 5.1786C42.9872 5.75595 42.6472 6.43977 42.4093 7.20831L43.3646 7.50399L44.3199 7.79967C44.498 7.22421 44.734 6.77203 45.0121 6.42139L44.2286 5.79999ZM43.3646 7.50399L42.4049 7.22309C42.1821 7.98431 42.0766 8.80867 42.0766 9.68799H43.0766H44.0766C44.0766 8.96731 44.1631 8.33567 44.3243 7.78489L43.3646 7.50399ZM55.7726 9.68799H54.7726C54.7726 11.0122 54.5717 12.1388 54.1952 13.087L55.1246 13.456L56.054 13.825C56.5415 12.5972 56.7726 11.2118 56.7726 9.68799H55.7726ZM55.1246 13.456L54.1923 13.0942C53.8213 14.0504 53.3174 14.833 52.6895 15.4609L53.3966 16.168L54.1037 16.8751C54.9478 16.031 55.5959 15.0056 56.0569 13.8178L55.1246 13.456ZM53.3966 16.168L52.6973 15.4532C52.0698 16.067 51.315 16.5367 50.4184 16.8589L50.7566 17.8L51.0948 18.7411C52.2462 18.3273 53.2514 17.709 54.0959 16.8828L53.3966 16.168ZM50.7566 17.8L50.4137 16.8606C49.5249 17.1851 48.554 17.352 47.4926 17.352V18.352V19.352C48.7672 19.352 49.9723 19.1509 51.0995 18.7393L50.7566 17.8ZM47.4926 18.352V17.352C46.4667 17.352 45.5113 17.1862 44.6195 16.8606L44.2766 17.8L43.9337 18.7393C45.0579 19.1498 46.2465 19.352 47.4926 19.352V18.352ZM44.2766 17.8L44.6195 16.8606C43.7374 16.5386 42.9771 16.067 42.3282 15.4457L41.6366 16.168L40.945 16.8903C41.8001 17.709 42.7998 18.3254 43.9337 18.7393L44.2766 17.8ZM41.6366 16.168L42.3361 15.4533C41.6922 14.8231 41.1736 14.0388 40.7881 13.0822L39.8606 13.456L38.9331 13.8298C39.4116 15.0172 40.077 16.0409 40.9371 16.8827L41.6366 16.168ZM39.8606 13.456L40.79 13.087C40.4135 12.1388 40.2126 11.0122 40.2126 9.68799H39.2126H38.2126C38.2126 11.2118 38.4437 12.5972 38.9312 13.825L39.8606 13.456ZM39.2126 9.68799H40.2126C40.2126 8.36733 40.4204 7.25523 40.8073 6.32958L39.8846 5.94399L38.9619 5.5584C38.4528 6.77676 38.2126 8.16065 38.2126 9.68799H39.2126ZM39.8846 5.94399L40.8093 6.32474C41.2117 5.34733 41.7399 4.55316 42.3841 3.92266L41.6846 3.20799L40.9851 2.49332C40.1253 3.33482 39.4535 4.36466 38.9599 5.56324L39.8846 5.94399ZM41.6846 3.20799L42.3765 3.92998C43.0463 3.28809 43.8093 2.80972 44.6724 2.48956L44.3246 1.55199L43.9768 0.614424C42.8559 1.03026 41.8589 1.65589 40.9927 2.486L41.6846 3.20799ZM44.3246 1.55199L44.6675 2.49135C45.5625 2.16462 46.5022 1.99999 47.4926 1.99999V0.99999V-9.53674e-06C46.275 -9.53674e-06 45.1027 0.203358 43.9817 0.612633L44.3246 1.55199ZM47.4926 0.99999V1.99999C48.5185 1.99999 49.4739 2.16577 50.3657 2.49135L50.7086 1.55199L51.0515 0.612633C49.9273 0.202209 48.7387 -9.53674e-06 47.4926 -9.53674e-06V0.99999ZM50.7086 1.55199L50.3657 2.49135C51.2429 2.81162 52.0007 3.28804 52.6491 3.92266L53.3486 3.20799L54.0481 2.49332C53.1925 1.65594 52.1903 1.02836 51.0515 0.612633L50.7086 1.55199ZM53.3486 3.20799L52.6491 3.92266C53.2904 4.55031 53.809 5.34035 54.1952 6.31302L55.1246 5.94399L56.054 5.57496C55.5762 4.37163 54.9108 3.33767 54.0481 2.49332L53.3486 3.20799ZM55.1246 5.94399L54.1971 6.31777C54.5715 7.24689 54.7726 8.36327 54.7726 9.68799H55.7726H56.7726C56.7726 8.16471 56.5417 6.78509 56.0521 5.57022L55.1246 5.94399ZM63.8375 14.968H62.8375V15.8812L63.747 15.9639L63.8375 14.968ZM64.4375 15.016L64.3663 16.0135L64.4019 16.016H64.4375V15.016ZM69.4295 13.6L68.7103 12.9052L68.7042 12.9116L69.4295 13.6ZM69.5015 5.72799L70.2214 5.03386V5.03385L69.5015 5.72799ZM64.6055 4.40799V5.40799H64.6349L64.6643 5.40627L64.6055 4.40799ZM63.8375 4.45599L63.7054 3.46476L62.8375 3.58048V4.45599H63.8375ZM73.9895 13.456L73.0669 13.0704V13.0704L73.9895 13.456ZM72.0695 16.12L71.4236 15.3566L71.4163 15.3628L72.0695 16.12ZM69.0695 17.704L69.3545 18.6625V18.6625L69.0695 17.704ZM62.7335 18.136L62.8048 17.1385L62.7959 17.1379L62.787 17.1374L62.7335 18.136ZM60.0935 17.8H59.0935V18.6168L59.8939 18.7799L60.0935 17.8ZM60.0935 1.59999L59.9114 0.616709L59.0935 0.768173V1.59999H60.0935ZM62.7815 1.28799L62.8332 2.28666L62.8412 2.28624L62.8492 2.2857L62.7815 1.28799ZM69.0695 1.67199L68.8019 2.63551L68.8053 2.63645L69.0695 1.67199ZM72.0695 3.18399L72.7068 2.41335V2.41334L72.0695 3.18399ZM73.9895 5.82399L73.0669 6.20958V6.20958L73.9895 5.82399ZM63.8375 14.968L63.747 15.9639C63.9309 15.9806 64.1375 15.9971 64.3663 16.0135L64.4375 15.016L64.5088 14.0185C64.2896 14.0029 64.0962 13.9874 63.9281 13.9721L63.8375 14.968ZM64.4375 15.016V16.016C64.438 16.016 64.4385 16.016 64.4389 16.016C64.4394 16.016 64.4399 16.016 64.4403 16.016C64.4408 16.016 64.4413 16.016 64.4418 16.016C64.4422 16.016 64.4427 16.016 64.4432 16.016C64.4436 16.016 64.4441 16.016 64.4446 16.016C64.445 16.016 64.4455 16.016 64.446 16.016C64.4465 16.016 64.4469 16.016 64.4474 16.016C64.4479 16.016 64.4483 16.016 64.4488 16.016C64.4493 16.016 64.4498 16.016 64.4502 16.016C64.4507 16.016 64.4512 16.016 64.4516 16.016C64.4521 16.016 64.4526 16.016 64.4531 16.016C64.4535 16.016 64.454 16.016 64.4545 16.016C64.4549 16.016 64.4554 16.016 64.4559 16.016C64.4564 16.016 64.4568 16.016 64.4573 16.016C64.4578 16.016 64.4583 16.016 64.4587 16.016C64.4592 16.016 64.4597 16.016 64.4602 16.016C64.4606 16.016 64.4611 16.016 64.4616 16.016C64.462 16.016 64.4625 16.016 64.463 16.016C64.4635 16.016 64.4639 16.016 64.4644 16.016C64.4649 16.016 64.4654 16.016 64.4658 16.016C64.4663 16.016 64.4668 16.016 64.4673 16.016C64.4677 16.016 64.4682 16.016 64.4687 16.016C64.4692 16.016 64.4696 16.016 64.4701 16.016C64.4706 16.016 64.4711 16.016 64.4715 16.016C64.472 16.016 64.4725 16.016 64.473 16.016C64.4734 16.016 64.4739 16.016 64.4744 16.016C64.4749 16.016 64.4754 16.016 64.4758 16.016C64.4763 16.016 64.4768 16.016 64.4773 16.016C64.4777 16.016 64.4782 16.016 64.4787 16.016C64.4792 16.016 64.4797 16.016 64.4801 16.016C64.4806 16.016 64.4811 16.016 64.4816 16.016C64.482 16.016 64.4825 16.016 64.483 16.016C64.4835 16.016 64.484 16.016 64.4844 16.016C64.4849 16.016 64.4854 16.016 64.4859 16.016C64.4864 16.016 64.4868 16.016 64.4873 16.016C64.4878 16.016 64.4883 16.016 64.4888 16.016C64.4892 16.016 64.4897 16.016 64.4902 16.016C64.4907 16.016 64.4911 16.016 64.4916 16.016C64.4921 16.016 64.4926 16.016 64.4931 16.016C64.4936 16.016 64.494 16.016 64.4945 16.016C64.495 16.016 64.4955 16.016 64.496 16.016C64.4964 16.016 64.4969 16.016 64.4974 16.016C64.4979 16.016 64.4984 16.016 64.4988 16.016C64.4993 16.016 64.4998 16.016 64.5003 16.016C64.5008 16.016 64.5013 16.016 64.5017 16.016C64.5022 16.016 64.5027 16.016 64.5032 16.016C64.5037 16.016 64.5042 16.016 64.5046 16.016C64.5051 16.016 64.5056 16.016 64.5061 16.016C64.5066 16.016 64.5071 16.016 64.5075 16.016C64.508 16.016 64.5085 16.016 64.509 16.016C64.5095 16.016 64.51 16.016 64.5104 16.016C64.5109 16.016 64.5114 16.016 64.5119 16.016C64.5124 16.016 64.5129 16.016 64.5134 16.016C64.5138 16.016 64.5143 16.016 64.5148 16.016C64.5153 16.016 64.5158 16.016 64.5163 16.016C64.5167 16.016 64.5172 16.016 64.5177 16.016C64.5182 16.016 64.5187 16.016 64.5192 16.016C64.5197 16.016 64.5201 16.016 64.5206 16.016C64.5211 16.016 64.5216 16.016 64.5221 16.016C64.5226 16.016 64.5231 16.016 64.5236 16.016C64.524 16.016 64.5245 16.016 64.525 16.016C64.5255 16.016 64.526 16.016 64.5265 16.016C64.527 16.016 64.5275 16.016 64.5279 16.016C64.5284 16.016 64.5289 16.016 64.5294 16.016C64.5299 16.016 64.5304 16.016 64.5309 16.016C64.5314 16.016 64.5319 16.016 64.5323 16.016C64.5328 16.016 64.5333 16.016 64.5338 16.016C64.5343 16.016 64.5348 16.016 64.5353 16.016C64.5358 16.016 64.5363 16.016 64.5367 16.016C64.5372 16.016 64.5377 16.016 64.5382 16.016C64.5387 16.016 64.5392 16.016 64.5397 16.016C64.5402 16.016 64.5407 16.016 64.5412 16.016C64.5416 16.016 64.5421 16.016 64.5426 16.016C64.5431 16.016 64.5436 16.016 64.5441 16.016C64.5446 16.016 64.5451 16.016 64.5456 16.016C64.5461 16.016 64.5466 16.016 64.5471 16.016C64.5475 16.016 64.548 16.016 64.5485 16.016C64.549 16.016 64.5495 16.016 64.55 16.016C64.5505 16.016 64.551 16.016 64.5515 16.016C64.552 16.016 64.5525 16.016 64.553 16.016C64.5535 16.016 64.5539 16.016 64.5544 16.016C64.5549 16.016 64.5554 16.016 64.5559 16.016C64.5564 16.016 64.5569 16.016 64.5574 16.016C64.5579 16.016 64.5584 16.016 64.5589 16.016C64.5594 16.016 64.5599 16.016 64.5604 16.016C64.5609 16.016 64.5614 16.016 64.5619 16.016C64.5624 16.016 64.5629 16.016 64.5633 16.016C64.5638 16.016 64.5643 16.016 64.5648 16.016C64.5653 16.016 64.5658 16.016 64.5663 16.016C64.5668 16.016 64.5673 16.016 64.5678 16.016C64.5683 16.016 64.5688 16.016 64.5693 16.016C64.5698 16.016 64.5703 16.016 64.5708 16.016C64.5713 16.016 64.5718 16.016 64.5723 16.016C64.5728 16.016 64.5733 16.016 64.5738 16.016C64.5743 16.016 64.5748 16.016 64.5753 16.016C64.5758 16.016 64.5763 16.016 64.5768 16.016C64.5773 16.016 64.5778 16.016 64.5782 16.016C64.5787 16.016 64.5792 16.016 64.5797 16.016C64.5802 16.016 64.5807 16.016 64.5812 16.016C64.5817 16.016 64.5822 16.016 64.5827 16.016C64.5832 16.016 64.5837 16.016 64.5842 16.016C64.5847 16.016 64.5852 16.016 64.5857 16.016C64.5862 16.016 64.5867 16.016 64.5872 16.016C64.5877 16.016 64.5882 16.016 64.5887 16.016C64.5892 16.016 64.5897 16.016 64.5902 16.016C64.5907 16.016 64.5912 16.016 64.5917 16.016C64.5922 16.016 64.5927 16.016 64.5932 16.016C64.5937 16.016 64.5942 16.016 64.5947 16.016C64.5953 16.016 64.5957 16.016 64.5963 16.016C64.5968 16.016 64.5973 16.016 64.5978 16.016C64.5983 16.016 64.5988 16.016 64.5993 16.016C64.5998 16.016 64.6003 16.016 64.6008 16.016C64.6013 16.016 64.6018 16.016 64.6023 16.016C64.6028 16.016 64.6033 16.016 64.6038 16.016C64.6043 16.016 64.6048 16.016 64.6053 16.016C64.6058 16.016 64.6063 16.016 64.6068 16.016C64.6073 16.016 64.6078 16.016 64.6083 16.016C64.6088 16.016 64.6093 16.016 64.6098 16.016C64.6104 16.016 64.6109 16.016 64.6114 16.016C64.6119 16.016 64.6124 16.016 64.6129 16.016C64.6134 16.016 64.6139 16.016 64.6144 16.016C64.6149 16.016 64.6154 16.016 64.6159 16.016C64.6164 16.016 64.6169 16.016 64.6174 16.016C64.6179 16.016 64.6184 16.016 64.6189 16.016C64.6195 16.016 64.62 16.016 64.6205 16.016C64.621 16.016 64.6215 16.016 64.622 16.016C64.6225 16.016 64.623 16.016 64.6235 16.016C64.624 16.016 64.6245 16.016 64.625 16.016C64.6255 16.016 64.6261 16.016 64.6266 16.016C64.6271 16.016 64.6276 16.016 64.6281 16.016C64.6286 16.016 64.6291 16.016 64.6296 16.016C64.6301 16.016 64.6306 16.016 64.6311 16.016C64.6316 16.016 64.6322 16.016 64.6327 16.016C64.6332 16.016 64.6337 16.016 64.6342 16.016C64.6347 16.016 64.6352 16.016 64.6357 16.016C64.6362 16.016 64.6367 16.016 64.6373 16.016C64.6378 16.016 64.6383 16.016 64.6388 16.016C64.6393 16.016 64.6398 16.016 64.6403 16.016C64.6408 16.016 64.6413 16.016 64.6418 16.016C64.6424 16.016 64.6429 16.016 64.6434 16.016C64.6439 16.016 64.6444 16.016 64.6449 16.016C64.6454 16.016 64.6459 16.016 64.6465 16.016C64.647 16.016 64.6475 16.016 64.648 16.016C64.6485 16.016 64.649 16.016 64.6495 16.016C64.65 16.016 64.6506 16.016 64.6511 16.016C64.6516 16.016 64.6521 16.016 64.6526 16.016C64.6531 16.016 64.6536 16.016 64.6541 16.016C64.6547 16.016 64.6552 16.016 64.6557 16.016C64.6562 16.016 64.6567 16.016 64.6572 16.016C64.6577 16.016 64.6583 16.016 64.6588 16.016C64.6593 16.016 64.6598 16.016 64.6603 16.016C64.6608 16.016 64.6613 16.016 64.6619 16.016C64.6624 16.016 64.6629 16.016 64.6634 16.016C64.6639 16.016 64.6644 16.016 64.665 16.016C64.6655 16.016 64.666 16.016 64.6665 16.016C64.667 16.016 64.6675 16.016 64.6681 16.016C64.6686 16.016 64.6691 16.016 64.6696 16.016C64.6701 16.016 64.6706 16.016 64.6712 16.016C64.6717 16.016 64.6722 16.016 64.6727 16.016C64.6732 16.016 64.6737 16.016 64.6743 16.016C64.6748 16.016 64.6753 16.016 64.6758 16.016C64.6763 16.016 64.6768 16.016 64.6774 16.016C64.6779 16.016 64.6784 16.016 64.6789 16.016C64.6794 16.016 64.68 16.016 64.6805 16.016C64.681 16.016 64.6815 16.016 64.682 16.016C64.6825 16.016 64.6831 16.016 64.6836 16.016C64.6841 16.016 64.6846 16.016 64.6851 16.016C64.6857 16.016 64.6862 16.016 64.6867 16.016C64.6872 16.016 64.6877 16.016 64.6883 16.016C64.6888 16.016 64.6893 16.016 64.6898 16.016C64.6903 16.016 64.6909 16.016 64.6914 16.016C64.6919 16.016 64.6924 16.016 64.693 16.016C64.6935 16.016 64.694 16.016 64.6945 16.016C64.695 16.016 64.6956 16.016 64.6961 16.016C64.6966 16.016 64.6971 16.016 64.6976 16.016C64.6982 16.016 64.6987 16.016 64.6992 16.016C64.6997 16.016 64.7003 16.016 64.7008 16.016C64.7013 16.016 64.7018 16.016 64.7024 16.016C64.7029 16.016 64.7034 16.016 64.7039 16.016C64.7044 16.016 64.705 16.016 64.7055 16.016C64.706 16.016 64.7065 16.016 64.7071 16.016C64.7076 16.016 64.7081 16.016 64.7086 16.016C64.7092 16.016 64.7097 16.016 64.7102 16.016C64.7107 16.016 64.7113 16.016 64.7118 16.016C64.7123 16.016 64.7128 16.016 64.7134 16.016C64.7139 16.016 64.7144 16.016 64.7149 16.016C64.7155 16.016 64.716 16.016 64.7165 16.016C64.717 16.016 64.7176 16.016 64.7181 16.016C64.7186 16.016 64.7191 16.016 64.7197 16.016C64.7202 16.016 64.7207 16.016 64.7212 16.016C64.7218 16.016 64.7223 16.016 64.7228 16.016C64.7234 16.016 64.7239 16.016 64.7244 16.016C64.7249 16.016 64.7255 16.016 64.726 16.016C64.7265 16.016 64.7271 16.016 64.7276 16.016C64.7281 16.016 64.7286 16.016 64.7292 16.016C64.7297 16.016 64.7302 16.016 64.7307 16.016C64.7313 16.016 64.7318 16.016 64.7323 16.016C64.7329 16.016 64.7334 16.016 64.7339 16.016C64.7345 16.016 64.735 16.016 64.7355 16.016C64.736 16.016 64.7366 16.016 64.7371 16.016C64.7376 16.016 64.7382 16.016 64.7387 16.016C64.7392 16.016 64.7397 16.016 64.7403 16.016C64.7408 16.016 64.7413 16.016 64.7419 16.016C64.7424 16.016 64.7429 16.016 64.7435 16.016C64.744 16.016 64.7445 16.016 64.7451 16.016C64.7456 16.016 64.7461 16.016 64.7467 16.016C64.7472 16.016 64.7477 16.016 64.7482 16.016C64.7488 16.016 64.7493 16.016 64.7498 16.016C64.7504 16.016 64.7509 16.016 64.7514 16.016C64.752 16.016 64.7525 16.016 64.753 16.016C64.7536 16.016 64.7541 16.016 64.7546 16.016C64.7552 16.016 64.7557 16.016 64.7562 16.016C64.7568 16.016 64.7573 16.016 64.7578 16.016C64.7584 16.016 64.7589 16.016 64.7594 16.016C64.76 16.016 64.7605 16.016 64.761 16.016C64.7616 16.016 64.7621 16.016 64.7626 16.016C64.7632 16.016 64.7637 16.016 64.7642 16.016C64.7648 16.016 64.7653 16.016 64.7659 16.016C64.7664 16.016 64.7669 16.016 64.7675 16.016C64.768 16.016 64.7685 16.016 64.7691 16.016C64.7696 16.016 64.7701 16.016 64.7707 16.016C64.7712 16.016 64.7717 16.016 64.7723 16.016C64.7728 16.016 64.7734 16.016 64.7739 16.016C64.7744 16.016 64.775 16.016 64.7755 16.016C64.776 16.016 64.7766 16.016 64.7771 16.016C64.7776 16.016 64.7782 16.016 64.7787 16.016C64.7793 16.016 64.7798 16.016 64.7803 16.016C64.7809 16.016 64.7814 16.016 64.782 16.016C64.7825 16.016 64.783 16.016 64.7836 16.016C64.7841 16.016 64.7847 16.016 64.7852 16.016C64.7857 16.016 64.7863 16.016 64.7868 16.016C64.7873 16.016 64.7879 16.016 64.7884 16.016C64.789 16.016 64.7895 16.016 64.79 16.016C64.7906 16.016 64.7911 16.016 64.7917 16.016C64.7922 16.016 64.7927 16.016 64.7933 16.016C64.7938 16.016 64.7944 16.016 64.7949 16.016C64.7954 16.016 64.796 16.016 64.7965 16.016C64.7971 16.016 64.7976 16.016 64.7981 16.016C64.7987 16.016 64.7992 16.016 64.7998 16.016C64.8003 16.016 64.8009 16.016 64.8014 16.016C64.8019 16.016 64.8025 16.016 64.803 16.016C64.8036 16.016 64.8041 16.016 64.8047 16.016C64.8052 16.016 64.8057 16.016 64.8063 16.016C64.8068 16.016 64.8074 16.016 64.8079 16.016C64.8085 16.016 64.809 16.016 64.8095 16.016C64.8101 16.016 64.8106 16.016 64.8112 16.016C64.8117 16.016 64.8123 16.016 64.8128 16.016C64.8133 16.016 64.8139 16.016 64.8144 16.016C64.815 16.016 64.8155 16.016 64.8161 16.016C64.8166 16.016 64.8172 16.016 64.8177 16.016C64.8183 16.016 64.8188 16.016 64.8193 16.016C64.8199 16.016 64.8204 16.016 64.821 16.016C64.8215 16.016 64.8221 16.016 64.8226 16.016C64.8232 16.016 64.8237 16.016 64.8243 16.016C64.8248 16.016 64.8253 16.016 64.8259 16.016C64.8264 16.016 64.827 16.016 64.8275 16.016C64.8281 16.016 64.8286 16.016 64.8292 16.016C64.8297 16.016 64.8303 16.016 64.8308 16.016C64.8314 16.016 64.8319 16.016 64.8325 16.016C64.833 16.016 64.8336 16.016 64.8341 16.016C64.8347 16.016 64.8352 16.016 64.8357 16.016C64.8363 16.016 64.8368 16.016 64.8374 16.016C64.8379 16.016 64.8385 16.016 64.839 16.016C64.8396 16.016 64.8401 16.016 64.8407 16.016C64.8412 16.016 64.8418 16.016 64.8423 16.016C64.8429 16.016 64.8434 16.016 64.844 16.016C64.8445 16.016 64.8451 16.016 64.8456 16.016C64.8462 16.016 64.8467 16.016 64.8473 16.016C64.8478 16.016 64.8484 16.016 64.8489 16.016C64.8495 16.016 64.85 16.016 64.8506 16.016C64.8511 16.016 64.8517 16.016 64.8522 16.016C64.8528 16.016 64.8533 16.016 64.8539 16.016C64.8545 16.016 64.855 16.016 64.8556 16.016C64.8561 16.016 64.8567 16.016 64.8572 16.016C64.8578 16.016 64.8583 16.016 64.8589 16.016C64.8594 16.016 64.86 16.016 64.8605 16.016C64.8611 16.016 64.8616 16.016 64.8622 16.016C64.8627 16.016 64.8633 16.016 64.8639 16.016C64.8644 16.016 64.865 16.016 64.8655 16.016C64.8661 16.016 64.8666 16.016 64.8672 16.016C64.8677 16.016 64.8683 16.016 64.8688 16.016C64.8694 16.016 64.8699 16.016 64.8705 16.016C64.8711 16.016 64.8716 16.016 64.8722 16.016C64.8727 16.016 64.8733 16.016 64.8738 16.016C64.8744 16.016 64.8749 16.016 64.8755 16.016C64.8761 16.016 64.8766 16.016 64.8772 16.016C64.8777 16.016 64.8783 16.016 64.8788 16.016C64.8794 16.016 64.8799 16.016 64.8805 16.016C64.8811 16.016 64.8816 16.016 64.8822 16.016C64.8827 16.016 64.8833 16.016 64.8838 16.016C64.8844 16.016 64.885 16.016 64.8855 16.016C64.8861 16.016 64.8866 16.016 64.8872 16.016C64.8877 16.016 64.8883 16.016 64.8889 16.016C64.8894 16.016 64.89 16.016 64.8905 16.016C64.8911 16.016 64.8917 16.016 64.8922 16.016C64.8928 16.016 64.8933 16.016 64.8939 16.016C64.8945 16.016 64.895 16.016 64.8956 16.016C64.8961 16.016 64.8967 16.016 64.8972 16.016C64.8978 16.016 64.8984 16.016 64.8989 16.016C64.8995 16.016 64.9 16.016 64.9006 16.016C64.9012 16.016 64.9017 16.016 64.9023 16.016C64.9028 16.016 64.9034 16.016 64.904 16.016C64.9045 16.016 64.9051 16.016 64.9057 16.016C64.9062 16.016 64.9068 16.016 64.9073 16.016C64.9079 16.016 64.9085 16.016 64.909 16.016C64.9096 16.016 64.9101 16.016 64.9107 16.016C64.9113 16.016 64.9118 16.016 64.9124 16.016C64.913 16.016 64.9135 16.016 64.9141 16.016C64.9146 16.016 64.9152 16.016 64.9158 16.016C64.9163 16.016 64.9169 16.016 64.9175 16.016C64.918 16.016 64.9186 16.016 64.9192 16.016C64.9197 16.016 64.9203 16.016 64.9208 16.016C64.9214 16.016 64.922 16.016 64.9225 16.016C64.9231 16.016 64.9237 16.016 64.9242 16.016C64.9248 16.016 64.9254 16.016 64.9259 16.016C64.9265 16.016 64.9271 16.016 64.9276 16.016C64.9282 16.016 64.9287 16.016 64.9293 16.016C64.9299 16.016 64.9305 16.016 64.931 16.016C64.9316 16.016 64.9321 16.016 64.9327 16.016C64.9333 16.016 64.9338 16.016 64.9344 16.016C64.935 16.016 64.9355 16.016 64.9361 16.016C64.9367 16.016 64.9372 16.016 64.9378 16.016C64.9384 16.016 64.9389 16.016 64.9395 16.016C64.9401 16.016 64.9406 16.016 64.9412 16.016C64.9418 16.016 64.9424 16.016 64.9429 16.016C64.9435 16.016 64.9441 16.016 64.9446 16.016C64.9452 16.016 64.9458 16.016 64.9463 16.016C64.9469 16.016 64.9475 16.016 64.948 16.016C64.9486 16.016 64.9492 16.016 64.9497 16.016C64.9503 16.016 64.9509 16.016 64.9514 16.016C64.952 16.016 64.9526 16.016 64.9532 16.016C64.9537 16.016 64.9543 16.016 64.9549 16.016C64.9554 16.016 64.956 16.016 64.9566 16.016C64.9571 16.016 64.9577 16.016 64.9583 16.016C64.9589 16.016 64.9594 16.016 64.96 16.016C64.9606 16.016 64.9611 16.016 64.9617 16.016C64.9623 16.016 64.9629 16.016 64.9634 16.016C64.964 16.016 64.9646 16.016 64.9651 16.016C64.9657 16.016 64.9663 16.016 64.9669 16.016C64.9674 16.016 64.968 16.016 64.9686 16.016C64.9691 16.016 64.9697 16.016 64.9703 16.016C64.9709 16.016 64.9714 16.016 64.972 16.016C64.9726 16.016 64.9732 16.016 64.9737 16.016C64.9743 16.016 64.9749 16.016 64.9755 16.016C64.976 16.016 64.9766 16.016 64.9772 16.016C64.9778 16.016 64.9783 16.016 64.9789 16.016C64.9795 16.016 64.98 16.016 64.9806 16.016C64.9812 16.016 64.9818 16.016 64.9823 16.016C64.9829 16.016 64.9835 16.016 64.9841 16.016C64.9846 16.016 64.9852 16.016 64.9858 16.016C64.9864 16.016 64.9869 16.016 64.9875 16.016C64.9881 16.016 64.9887 16.016 64.9893 16.016C64.9898 16.016 64.9904 16.016 64.991 16.016C64.9916 16.016 64.9921 16.016 64.9927 16.016C64.9933 16.016 64.9939 16.016 64.9944 16.016C64.995 16.016 64.9956 16.016 64.9962 16.016C64.9967 16.016 64.9973 16.016 64.9979 16.016C64.9985 16.016 64.9991 16.016 64.9996 16.016C65.0002 16.016 65.0008 16.016 65.0014 16.016C65.002 16.016 65.0025 16.016 65.0031 16.016C65.0037 16.016 65.0043 16.016 65.0048 16.016C65.0054 16.016 65.006 16.016 65.0066 16.016C65.0072 16.016 65.0077 16.016 65.0083 16.016C65.0089 16.016 65.0095 16.016 65.0101 16.016C65.0106 16.016 65.0112 16.016 65.0118 16.016C65.0124 16.016 65.013 16.016 65.0135 16.016C65.0141 16.016 65.0147 16.016 65.0153 16.016C65.0159 16.016 65.0164 16.016 65.017 16.016C65.0176 16.016 65.0182 16.016 65.0188 16.016C65.0193 16.016 65.0199 16.016 65.0205 16.016C65.0211 16.016 65.0217 16.016 65.0223 16.016C65.0228 16.016 65.0234 16.016 65.024 16.016C65.0246 16.016 65.0252 16.016 65.0258 16.016C65.0263 16.016 65.0269 16.016 65.0275 16.016C65.0281 16.016 65.0287 16.016 65.0293 16.016C65.0298 16.016 65.0304 16.016 65.031 16.016C65.0316 16.016 65.0322 16.016 65.0328 16.016C65.0333 16.016 65.0339 16.016 65.0345 16.016C65.0351 16.016 65.0357 16.016 65.0363 16.016C65.0368 16.016 65.0374 16.016 65.038 16.016C65.0386 16.016 65.0392 16.016 65.0398 16.016C65.0404 16.016 65.0409 16.016 65.0415 16.016C65.0421 16.016 65.0427 16.016 65.0433 16.016C65.0439 16.016 65.0444 16.016 65.045 16.016C65.0456 16.016 65.0462 16.016 65.0468 16.016C65.0474 16.016 65.048 16.016 65.0486 16.016C65.0491 16.016 65.0497 16.016 65.0503 16.016C65.0509 16.016 65.0515 16.016 65.0521 16.016C65.0527 16.016 65.0532 16.016 65.0538 16.016C65.0544 16.016 65.055 16.016 65.0556 16.016C65.0562 16.016 65.0568 16.016 65.0574 16.016C65.058 16.016 65.0585 16.016 65.0591 16.016C65.0597 16.016 65.0603 16.016 65.0609 16.016C65.0615 16.016 65.0621 16.016 65.0627 16.016C65.0632 16.016 65.0638 16.016 65.0644 16.016C65.065 16.016 65.0656 16.016 65.0662 16.016C65.0668 16.016 65.0674 16.016 65.068 16.016C65.0686 16.016 65.0691 16.016 65.0697 16.016C65.0703 16.016 65.0709 16.016 65.0715 16.016C65.0721 16.016 65.0727 16.016 65.0733 16.016C65.0739 16.016 65.0745 16.016 65.0751 16.016C65.0756 16.016 65.0762 16.016 65.0768 16.016C65.0774 16.016 65.078 16.016 65.0786 16.016C65.0792 16.016 65.0798 16.016 65.0804 16.016C65.081 16.016 65.0816 16.016 65.0822 16.016C65.0827 16.016 65.0833 16.016 65.0839 16.016C65.0845 16.016 65.0851 16.016 65.0857 16.016C65.0863 16.016 65.0869 16.016 65.0875 16.016C65.0881 16.016 65.0887 16.016 65.0893 16.016C65.0899 16.016 65.0905 16.016 65.091 16.016C65.0916 16.016 65.0922 16.016 65.0928 16.016C65.0934 16.016 65.094 16.016 65.0946 16.016C65.0952 16.016 65.0958 16.016 65.0964 16.016C65.097 16.016 65.0976 16.016 65.0982 16.016C65.0988 16.016 65.0994 16.016 65.1 16.016C65.1006 16.016 65.1012 16.016 65.1018 16.016C65.1023 16.016 65.1029 16.016 65.1035 16.016C65.1041 16.016 65.1047 16.016 65.1053 16.016C65.1059 16.016 65.1065 16.016 65.1071 16.016C65.1077 16.016 65.1083 16.016 65.1089 16.016C65.1095 16.016 65.1101 16.016 65.1107 16.016C65.1113 16.016 65.1119 16.016 65.1125 16.016C65.1131 16.016 65.1137 16.016 65.1143 16.016C65.1149 16.016 65.1155 16.016 65.1161 16.016C65.1167 16.016 65.1173 16.016 65.1179 16.016C65.1185 16.016 65.1191 16.016 65.1197 16.016C65.1203 16.016 65.1209 16.016 65.1215 16.016C65.1221 16.016 65.1227 16.016 65.1233 16.016C65.1239 16.016 65.1245 16.016 65.1251 16.016C65.1257 16.016 65.1263 16.016 65.1269 16.016C65.1275 16.016 65.1281 16.016 65.1287 16.016C65.1293 16.016 65.1299 16.016 65.1305 16.016C65.1311 16.016 65.1317 16.016 65.1323 16.016C65.1329 16.016 65.1335 16.016 65.1341 16.016C65.1347 16.016 65.1353 16.016 65.1359 16.016C65.1365 16.016 65.1371 16.016 65.1377 16.016C65.1383 16.016 65.1389 16.016 65.1395 16.016C65.1401 16.016 65.1407 16.016 65.1413 16.016C65.1419 16.016 65.1425 16.016 65.1431 16.016C65.1437 16.016 65.1443 16.016 65.1449 16.016C65.1455 16.016 65.1461 16.016 65.1467 16.016C65.1473 16.016 65.1479 16.016 65.1485 16.016C65.1491 16.016 65.1497 16.016 65.1503 16.016C65.1509 16.016 65.1516 16.016 65.1522 16.016C65.1528 16.016 65.1534 16.016 65.154 16.016C65.1546 16.016 65.1552 16.016 65.1558 16.016C65.1564 16.016 65.157 16.016 65.1576 16.016C65.1582 16.016 65.1588 16.016 65.1594 16.016C65.16 16.016 65.1606 16.016 65.1612 16.016C65.1618 16.016 65.1624 16.016 65.163 16.016C65.1637 16.016 65.1643 16.016 65.1649 16.016C65.1655 16.016 65.1661 16.016 65.1667 16.016C65.1673 16.016 65.1679 16.016 65.1685 16.016C65.1691 16.016 65.1697 16.016 65.1703 16.016C65.1709 16.016 65.1715 16.016 65.1721 16.016C65.1728 16.016 65.1734 16.016 65.174 16.016C65.1746 16.016 65.1752 16.016 65.1758 16.016C65.1764 16.016 65.177 16.016 65.1776 16.016C65.1782 16.016 65.1788 16.016 65.1794 16.016C65.1801 16.016 65.1807 16.016 65.1813 16.016C65.1819 16.016 65.1825 16.016 65.1831 16.016C65.1837 16.016 65.1843 16.016 65.1849 16.016C65.1855 16.016 65.1861 16.016 65.1868 16.016C65.1874 16.016 65.188 16.016 65.1886 16.016C65.1892 16.016 65.1898 16.016 65.1904 16.016C65.191 16.016 65.1916 16.016 65.1923 16.016C65.1929 16.016 65.1935 16.016 65.1941 16.016C65.1947 16.016 65.1953 16.016 65.1959 16.016C65.1965 16.016 65.1971 16.016 65.1978 16.016C65.1984 16.016 65.199 16.016 65.1996 16.016C65.2002 16.016 65.2008 16.016 65.2014 16.016C65.202 16.016 65.2027 16.016 65.2033 16.016C65.2039 16.016 65.2045 16.016 65.2051 16.016C65.2057 16.016 65.2063 16.016 65.2069 16.016C65.2076 16.016 65.2082 16.016 65.2088 16.016C65.2094 16.016 65.21 16.016 65.2106 16.016C65.2112 16.016 65.2119 16.016 65.2125 16.016C65.2131 16.016 65.2137 16.016 65.2143 16.016C65.2149 16.016 65.2155 16.016 65.2162 16.016C65.2168 16.016 65.2174 16.016 65.218 16.016C65.2186 16.016 65.2192 16.016 65.2198 16.016C65.2205 16.016 65.2211 16.016 65.2217 16.016C65.2223 16.016 65.2229 16.016 65.2235 16.016C65.2242 16.016 65.2248 16.016 65.2254 16.016C65.226 16.016 65.2266 16.016 65.2272 16.016C65.2279 16.016 65.2285 16.016 65.2291 16.016C65.2297 16.016 65.2303 16.016 65.2309 16.016C65.2316 16.016 65.2322 16.016 65.2328 16.016C65.2334 16.016 65.234 16.016 65.2346 16.016C65.2353 16.016 65.2359 16.016 65.2365 16.016C65.2371 16.016 65.2377 16.016 65.2384 16.016C65.239 16.016 65.2396 16.016 65.2402 16.016C65.2408 16.016 65.2415 16.016 65.2421 16.016C65.2427 16.016 65.2433 16.016 65.2439 16.016C65.2446 16.016 65.2452 16.016 65.2458 16.016C65.2464 16.016 65.247 16.016 65.2477 16.016C65.2483 16.016 65.2489 16.016 65.2495 16.016C65.2501 16.016 65.2508 16.016 65.2514 16.016C65.252 16.016 65.2526 16.016 65.2532 16.016C65.2539 16.016 65.2545 16.016 65.2551 16.016C65.2557 16.016 65.2563 16.016 65.257 16.016C65.2576 16.016 65.2582 16.016 65.2588 16.016C65.2595 16.016 65.2601 16.016 65.2607 16.016C65.2613 16.016 65.2619 16.016 65.2626 16.016C65.2632 16.016 65.2638 16.016 65.2644 16.016C65.2651 16.016 65.2657 16.016 65.2663 16.016C65.2669 16.016 65.2675 16.016 65.2682 16.016C65.2688 16.016 65.2694 16.016 65.27 16.016C65.2707 16.016 65.2713 16.016 65.2719 16.016C65.2725 16.016 65.2732 16.016 65.2738 16.016C65.2744 16.016 65.275 16.016 65.2757 16.016C65.2763 16.016 65.2769 16.016 65.2775 16.016V15.016V14.016C65.2769 14.016 65.2763 14.016 65.2757 14.016C65.275 14.016 65.2744 14.016 65.2738 14.016C65.2732 14.016 65.2725 14.016 65.2719 14.016C65.2713 14.016 65.2707 14.016 65.27 14.016C65.2694 14.016 65.2688 14.016 65.2682 14.016C65.2675 14.016 65.2669 14.016 65.2663 14.016C65.2657 14.016 65.2651 14.016 65.2644 14.016C65.2638 14.016 65.2632 14.016 65.2626 14.016C65.2619 14.016 65.2613 14.016 65.2607 14.016C65.2601 14.016 65.2595 14.016 65.2588 14.016C65.2582 14.016 65.2576 14.016 65.257 14.016C65.2563 14.016 65.2557 14.016 65.2551 14.016C65.2545 14.016 65.2539 14.016 65.2532 14.016C65.2526 14.016 65.252 14.016 65.2514 14.016C65.2508 14.016 65.2501 14.016 65.2495 14.016C65.2489 14.016 65.2483 14.016 65.2477 14.016C65.247 14.016 65.2464 14.016 65.2458 14.016C65.2452 14.016 65.2446 14.016 65.2439 14.016C65.2433 14.016 65.2427 14.016 65.2421 14.016C65.2415 14.016 65.2408 14.016 65.2402 14.016C65.2396 14.016 65.239 14.016 65.2384 14.016C65.2377 14.016 65.2371 14.016 65.2365 14.016C65.2359 14.016 65.2353 14.016 65.2346 14.016C65.234 14.016 65.2334 14.016 65.2328 14.016C65.2322 14.016 65.2316 14.016 65.2309 14.016C65.2303 14.016 65.2297 14.016 65.2291 14.016C65.2285 14.016 65.2279 14.016 65.2272 14.016C65.2266 14.016 65.226 14.016 65.2254 14.016C65.2248 14.016 65.2242 14.016 65.2235 14.016C65.2229 14.016 65.2223 14.016 65.2217 14.016C65.2211 14.016 65.2205 14.016 65.2198 14.016C65.2192 14.016 65.2186 14.016 65.218 14.016C65.2174 14.016 65.2168 14.016 65.2162 14.016C65.2155 14.016 65.2149 14.016 65.2143 14.016C65.2137 14.016 65.2131 14.016 65.2125 14.016C65.2119 14.016 65.2112 14.016 65.2106 14.016C65.21 14.016 65.2094 14.016 65.2088 14.016C65.2082 14.016 65.2076 14.016 65.2069 14.016C65.2063 14.016 65.2057 14.016 65.2051 14.016C65.2045 14.016 65.2039 14.016 65.2033 14.016C65.2027 14.016 65.202 14.016 65.2014 14.016C65.2008 14.016 65.2002 14.016 65.1996 14.016C65.199 14.016 65.1984 14.016 65.1978 14.016C65.1971 14.016 65.1965 14.016 65.1959 14.016C65.1953 14.016 65.1947 14.016 65.1941 14.016C65.1935 14.016 65.1929 14.016 65.1923 14.016C65.1916 14.016 65.191 14.016 65.1904 14.016C65.1898 14.016 65.1892 14.016 65.1886 14.016C65.188 14.016 65.1874 14.016 65.1868 14.016C65.1861 14.016 65.1855 14.016 65.1849 14.016C65.1843 14.016 65.1837 14.016 65.1831 14.016C65.1825 14.016 65.1819 14.016 65.1813 14.016C65.1807 14.016 65.1801 14.016 65.1794 14.016C65.1788 14.016 65.1782 14.016 65.1776 14.016C65.177 14.016 65.1764 14.016 65.1758 14.016C65.1752 14.016 65.1746 14.016 65.174 14.016C65.1734 14.016 65.1728 14.016 65.1721 14.016C65.1715 14.016 65.1709 14.016 65.1703 14.016C65.1697 14.016 65.1691 14.016 65.1685 14.016C65.1679 14.016 65.1673 14.016 65.1667 14.016C65.1661 14.016 65.1655 14.016 65.1649 14.016C65.1643 14.016 65.1637 14.016 65.163 14.016C65.1624 14.016 65.1618 14.016 65.1612 14.016C65.1606 14.016 65.16 14.016 65.1594 14.016C65.1588 14.016 65.1582 14.016 65.1576 14.016C65.157 14.016 65.1564 14.016 65.1558 14.016C65.1552 14.016 65.1546 14.016 65.154 14.016C65.1534 14.016 65.1528 14.016 65.1522 14.016C65.1516 14.016 65.1509 14.016 65.1503 14.016C65.1497 14.016 65.1491 14.016 65.1485 14.016C65.1479 14.016 65.1473 14.016 65.1467 14.016C65.1461 14.016 65.1455 14.016 65.1449 14.016C65.1443 14.016 65.1437 14.016 65.1431 14.016C65.1425 14.016 65.1419 14.016 65.1413 14.016C65.1407 14.016 65.1401 14.016 65.1395 14.016C65.1389 14.016 65.1383 14.016 65.1377 14.016C65.1371 14.016 65.1365 14.016 65.1359 14.016C65.1353 14.016 65.1347 14.016 65.1341 14.016C65.1335 14.016 65.1329 14.016 65.1323 14.016C65.1317 14.016 65.1311 14.016 65.1305 14.016C65.1299 14.016 65.1293 14.016 65.1287 14.016C65.1281 14.016 65.1275 14.016 65.1269 14.016C65.1263 14.016 65.1257 14.016 65.1251 14.016C65.1245 14.016 65.1239 14.016 65.1233 14.016C65.1227 14.016 65.1221 14.016 65.1215 14.016C65.1209 14.016 65.1203 14.016 65.1197 14.016C65.1191 14.016 65.1185 14.016 65.1179 14.016C65.1173 14.016 65.1167 14.016 65.1161 14.016C65.1155 14.016 65.1149 14.016 65.1143 14.016C65.1137 14.016 65.1131 14.016 65.1125 14.016C65.1119 14.016 65.1113 14.016 65.1107 14.016C65.1101 14.016 65.1095 14.016 65.1089 14.016C65.1083 14.016 65.1077 14.016 65.1071 14.016C65.1065 14.016 65.1059 14.016 65.1053 14.016C65.1047 14.016 65.1041 14.016 65.1035 14.016C65.1029 14.016 65.1023 14.016 65.1018 14.016C65.1012 14.016 65.1006 14.016 65.1 14.016C65.0994 14.016 65.0988 14.016 65.0982 14.016C65.0976 14.016 65.097 14.016 65.0964 14.016C65.0958 14.016 65.0952 14.016 65.0946 14.016C65.094 14.016 65.0934 14.016 65.0928 14.016C65.0922 14.016 65.0916 14.016 65.091 14.016C65.0905 14.016 65.0899 14.016 65.0893 14.016C65.0887 14.016 65.0881 14.016 65.0875 14.016C65.0869 14.016 65.0863 14.016 65.0857 14.016C65.0851 14.016 65.0845 14.016 65.0839 14.016C65.0833 14.016 65.0827 14.016 65.0822 14.016C65.0816 14.016 65.081 14.016 65.0804 14.016C65.0798 14.016 65.0792 14.016 65.0786 14.016C65.078 14.016 65.0774 14.016 65.0768 14.016C65.0762 14.016 65.0756 14.016 65.0751 14.016C65.0745 14.016 65.0739 14.016 65.0733 14.016C65.0727 14.016 65.0721 14.016 65.0715 14.016C65.0709 14.016 65.0703 14.016 65.0697 14.016C65.0691 14.016 65.0686 14.016 65.068 14.016C65.0674 14.016 65.0668 14.016 65.0662 14.016C65.0656 14.016 65.065 14.016 65.0644 14.016C65.0638 14.016 65.0632 14.016 65.0627 14.016C65.0621 14.016 65.0615 14.016 65.0609 14.016C65.0603 14.016 65.0597 14.016 65.0591 14.016C65.0585 14.016 65.058 14.016 65.0574 14.016C65.0568 14.016 65.0562 14.016 65.0556 14.016C65.055 14.016 65.0544 14.016 65.0538 14.016C65.0532 14.016 65.0527 14.016 65.0521 14.016C65.0515 14.016 65.0509 14.016 65.0503 14.016C65.0497 14.016 65.0491 14.016 65.0486 14.016C65.048 14.016 65.0474 14.016 65.0468 14.016C65.0462 14.016 65.0456 14.016 65.045 14.016C65.0444 14.016 65.0439 14.016 65.0433 14.016C65.0427 14.016 65.0421 14.016 65.0415 14.016C65.0409 14.016 65.0404 14.016 65.0398 14.016C65.0392 14.016 65.0386 14.016 65.038 14.016C65.0374 14.016 65.0368 14.016 65.0363 14.016C65.0357 14.016 65.0351 14.016 65.0345 14.016C65.0339 14.016 65.0333 14.016 65.0328 14.016C65.0322 14.016 65.0316 14.016 65.031 14.016C65.0304 14.016 65.0298 14.016 65.0293 14.016C65.0287 14.016 65.0281 14.016 65.0275 14.016C65.0269 14.016 65.0263 14.016 65.0258 14.016C65.0252 14.016 65.0246 14.016 65.024 14.016C65.0234 14.016 65.0228 14.016 65.0223 14.016C65.0217 14.016 65.0211 14.016 65.0205 14.016C65.0199 14.016 65.0193 14.016 65.0188 14.016C65.0182 14.016 65.0176 14.016 65.017 14.016C65.0164 14.016 65.0159 14.016 65.0153 14.016C65.0147 14.016 65.0141 14.016 65.0135 14.016C65.013 14.016 65.0124 14.016 65.0118 14.016C65.0112 14.016 65.0106 14.016 65.0101 14.016C65.0095 14.016 65.0089 14.016 65.0083 14.016C65.0077 14.016 65.0072 14.016 65.0066 14.016C65.006 14.016 65.0054 14.016 65.0048 14.016C65.0043 14.016 65.0037 14.016 65.0031 14.016C65.0025 14.016 65.002 14.016 65.0014 14.016C65.0008 14.016 65.0002 14.016 64.9996 14.016C64.9991 14.016 64.9985 14.016 64.9979 14.016C64.9973 14.016 64.9967 14.016 64.9962 14.016C64.9956 14.016 64.995 14.016 64.9944 14.016C64.9939 14.016 64.9933 14.016 64.9927 14.016C64.9921 14.016 64.9916 14.016 64.991 14.016C64.9904 14.016 64.9898 14.016 64.9893 14.016C64.9887 14.016 64.9881 14.016 64.9875 14.016C64.9869 14.016 64.9864 14.016 64.9858 14.016C64.9852 14.016 64.9846 14.016 64.9841 14.016C64.9835 14.016 64.9829 14.016 64.9823 14.016C64.9818 14.016 64.9812 14.016 64.9806 14.016C64.98 14.016 64.9795 14.016 64.9789 14.016C64.9783 14.016 64.9778 14.016 64.9772 14.016C64.9766 14.016 64.976 14.016 64.9755 14.016C64.9749 14.016 64.9743 14.016 64.9737 14.016C64.9732 14.016 64.9726 14.016 64.972 14.016C64.9714 14.016 64.9709 14.016 64.9703 14.016C64.9697 14.016 64.9691 14.016 64.9686 14.016C64.968 14.016 64.9674 14.016 64.9669 14.016C64.9663 14.016 64.9657 14.016 64.9651 14.016C64.9646 14.016 64.964 14.016 64.9634 14.016C64.9629 14.016 64.9623 14.016 64.9617 14.016C64.9611 14.016 64.9606 14.016 64.96 14.016C64.9594 14.016 64.9589 14.016 64.9583 14.016C64.9577 14.016 64.9571 14.016 64.9566 14.016C64.956 14.016 64.9554 14.016 64.9549 14.016C64.9543 14.016 64.9537 14.016 64.9532 14.016C64.9526 14.016 64.952 14.016 64.9514 14.016C64.9509 14.016 64.9503 14.016 64.9497 14.016C64.9492 14.016 64.9486 14.016 64.948 14.016C64.9475 14.016 64.9469 14.016 64.9463 14.016C64.9458 14.016 64.9452 14.016 64.9446 14.016C64.9441 14.016 64.9435 14.016 64.9429 14.016C64.9424 14.016 64.9418 14.016 64.9412 14.016C64.9406 14.016 64.9401 14.016 64.9395 14.016C64.9389 14.016 64.9384 14.016 64.9378 14.016C64.9372 14.016 64.9367 14.016 64.9361 14.016C64.9355 14.016 64.935 14.016 64.9344 14.016C64.9338 14.016 64.9333 14.016 64.9327 14.016C64.9321 14.016 64.9316 14.016 64.931 14.016C64.9305 14.016 64.9299 14.016 64.9293 14.016C64.9287 14.016 64.9282 14.016 64.9276 14.016C64.9271 14.016 64.9265 14.016 64.9259 14.016C64.9254 14.016 64.9248 14.016 64.9242 14.016C64.9237 14.016 64.9231 14.016 64.9225 14.016C64.922 14.016 64.9214 14.016 64.9208 14.016C64.9203 14.016 64.9197 14.016 64.9192 14.016C64.9186 14.016 64.918 14.016 64.9175 14.016C64.9169 14.016 64.9163 14.016 64.9158 14.016C64.9152 14.016 64.9146 14.016 64.9141 14.016C64.9135 14.016 64.913 14.016 64.9124 14.016C64.9118 14.016 64.9113 14.016 64.9107 14.016C64.9101 14.016 64.9096 14.016 64.909 14.016C64.9085 14.016 64.9079 14.016 64.9073 14.016C64.9068 14.016 64.9062 14.016 64.9057 14.016C64.9051 14.016 64.9045 14.016 64.904 14.016C64.9034 14.016 64.9028 14.016 64.9023 14.016C64.9017 14.016 64.9012 14.016 64.9006 14.016C64.9 14.016 64.8995 14.016 64.8989 14.016C64.8984 14.016 64.8978 14.016 64.8972 14.016C64.8967 14.016 64.8961 14.016 64.8956 14.016C64.895 14.016 64.8945 14.016 64.8939 14.016C64.8933 14.016 64.8928 14.016 64.8922 14.016C64.8917 14.016 64.8911 14.016 64.8905 14.016C64.89 14.016 64.8894 14.016 64.8889 14.016C64.8883 14.016 64.8877 14.016 64.8872 14.016C64.8866 14.016 64.8861 14.016 64.8855 14.016C64.885 14.016 64.8844 14.016 64.8838 14.016C64.8833 14.016 64.8827 14.016 64.8822 14.016C64.8816 14.016 64.8811 14.016 64.8805 14.016C64.8799 14.016 64.8794 14.016 64.8788 14.016C64.8783 14.016 64.8777 14.016 64.8772 14.016C64.8766 14.016 64.8761 14.016 64.8755 14.016C64.8749 14.016 64.8744 14.016 64.8738 14.016C64.8733 14.016 64.8727 14.016 64.8722 14.016C64.8716 14.016 64.8711 14.016 64.8705 14.016C64.8699 14.016 64.8694 14.016 64.8688 14.016C64.8683 14.016 64.8677 14.016 64.8672 14.016C64.8666 14.016 64.8661 14.016 64.8655 14.016C64.865 14.016 64.8644 14.016 64.8639 14.016C64.8633 14.016 64.8627 14.016 64.8622 14.016C64.8616 14.016 64.8611 14.016 64.8605 14.016C64.86 14.016 64.8594 14.016 64.8589 14.016C64.8583 14.016 64.8578 14.016 64.8572 14.016C64.8567 14.016 64.8561 14.016 64.8556 14.016C64.855 14.016 64.8545 14.016 64.8539 14.016C64.8533 14.016 64.8528 14.016 64.8522 14.016C64.8517 14.016 64.8511 14.016 64.8506 14.016C64.85 14.016 64.8495 14.016 64.8489 14.016C64.8484 14.016 64.8478 14.016 64.8473 14.016C64.8467 14.016 64.8462 14.016 64.8456 14.016C64.8451 14.016 64.8445 14.016 64.844 14.016C64.8434 14.016 64.8429 14.016 64.8423 14.016C64.8418 14.016 64.8412 14.016 64.8407 14.016C64.8401 14.016 64.8396 14.016 64.839 14.016C64.8385 14.016 64.8379 14.016 64.8374 14.016C64.8368 14.016 64.8363 14.016 64.8357 14.016C64.8352 14.016 64.8347 14.016 64.8341 14.016C64.8336 14.016 64.833 14.016 64.8325 14.016C64.8319 14.016 64.8314 14.016 64.8308 14.016C64.8303 14.016 64.8297 14.016 64.8292 14.016C64.8286 14.016 64.8281 14.016 64.8275 14.016C64.827 14.016 64.8264 14.016 64.8259 14.016C64.8253 14.016 64.8248 14.016 64.8243 14.016C64.8237 14.016 64.8232 14.016 64.8226 14.016C64.8221 14.016 64.8215 14.016 64.821 14.016C64.8204 14.016 64.8199 14.016 64.8193 14.016C64.8188 14.016 64.8183 14.016 64.8177 14.016C64.8172 14.016 64.8166 14.016 64.8161 14.016C64.8155 14.016 64.815 14.016 64.8144 14.016C64.8139 14.016 64.8133 14.016 64.8128 14.016C64.8123 14.016 64.8117 14.016 64.8112 14.016C64.8106 14.016 64.8101 14.016 64.8095 14.016C64.809 14.016 64.8085 14.016 64.8079 14.016C64.8074 14.016 64.8068 14.016 64.8063 14.016C64.8057 14.016 64.8052 14.016 64.8047 14.016C64.8041 14.016 64.8036 14.016 64.803 14.016C64.8025 14.016 64.8019 14.016 64.8014 14.016C64.8009 14.016 64.8003 14.016 64.7998 14.016C64.7992 14.016 64.7987 14.016 64.7981 14.016C64.7976 14.016 64.7971 14.016 64.7965 14.016C64.796 14.016 64.7954 14.016 64.7949 14.016C64.7944 14.016 64.7938 14.016 64.7933 14.016C64.7927 14.016 64.7922 14.016 64.7917 14.016C64.7911 14.016 64.7906 14.016 64.79 14.016C64.7895 14.016 64.789 14.016 64.7884 14.016C64.7879 14.016 64.7873 14.016 64.7868 14.016C64.7863 14.016 64.7857 14.016 64.7852 14.016C64.7847 14.016 64.7841 14.016 64.7836 14.016C64.783 14.016 64.7825 14.016 64.782 14.016C64.7814 14.016 64.7809 14.016 64.7803 14.016C64.7798 14.016 64.7793 14.016 64.7787 14.016C64.7782 14.016 64.7776 14.016 64.7771 14.016C64.7766 14.016 64.776 14.016 64.7755 14.016C64.775 14.016 64.7744 14.016 64.7739 14.016C64.7734 14.016 64.7728 14.016 64.7723 14.016C64.7717 14.016 64.7712 14.016 64.7707 14.016C64.7701 14.016 64.7696 14.016 64.7691 14.016C64.7685 14.016 64.768 14.016 64.7675 14.016C64.7669 14.016 64.7664 14.016 64.7659 14.016C64.7653 14.016 64.7648 14.016 64.7642 14.016C64.7637 14.016 64.7632 14.016 64.7626 14.016C64.7621 14.016 64.7616 14.016 64.761 14.016C64.7605 14.016 64.76 14.016 64.7594 14.016C64.7589 14.016 64.7584 14.016 64.7578 14.016C64.7573 14.016 64.7568 14.016 64.7562 14.016C64.7557 14.016 64.7552 14.016 64.7546 14.016C64.7541 14.016 64.7536 14.016 64.753 14.016C64.7525 14.016 64.752 14.016 64.7514 14.016C64.7509 14.016 64.7504 14.016 64.7498 14.016C64.7493 14.016 64.7488 14.016 64.7482 14.016C64.7477 14.016 64.7472 14.016 64.7467 14.016C64.7461 14.016 64.7456 14.016 64.7451 14.016C64.7445 14.016 64.744 14.016 64.7435 14.016C64.7429 14.016 64.7424 14.016 64.7419 14.016C64.7413 14.016 64.7408 14.016 64.7403 14.016C64.7397 14.016 64.7392 14.016 64.7387 14.016C64.7382 14.016 64.7376 14.016 64.7371 14.016C64.7366 14.016 64.736 14.016 64.7355 14.016C64.735 14.016 64.7345 14.016 64.7339 14.016C64.7334 14.016 64.7329 14.016 64.7323 14.016C64.7318 14.016 64.7313 14.016 64.7307 14.016C64.7302 14.016 64.7297 14.016 64.7292 14.016C64.7286 14.016 64.7281 14.016 64.7276 14.016C64.7271 14.016 64.7265 14.016 64.726 14.016C64.7255 14.016 64.7249 14.016 64.7244 14.016C64.7239 14.016 64.7234 14.016 64.7228 14.016C64.7223 14.016 64.7218 14.016 64.7212 14.016C64.7207 14.016 64.7202 14.016 64.7197 14.016C64.7191 14.016 64.7186 14.016 64.7181 14.016C64.7176 14.016 64.717 14.016 64.7165 14.016C64.716 14.016 64.7155 14.016 64.7149 14.016C64.7144 14.016 64.7139 14.016 64.7134 14.016C64.7128 14.016 64.7123 14.016 64.7118 14.016C64.7113 14.016 64.7107 14.016 64.7102 14.016C64.7097 14.016 64.7092 14.016 64.7086 14.016C64.7081 14.016 64.7076 14.016 64.7071 14.016C64.7065 14.016 64.706 14.016 64.7055 14.016C64.705 14.016 64.7044 14.016 64.7039 14.016C64.7034 14.016 64.7029 14.016 64.7024 14.016C64.7018 14.016 64.7013 14.016 64.7008 14.016C64.7003 14.016 64.6997 14.016 64.6992 14.016C64.6987 14.016 64.6982 14.016 64.6976 14.016C64.6971 14.016 64.6966 14.016 64.6961 14.016C64.6956 14.016 64.695 14.016 64.6945 14.016C64.694 14.016 64.6935 14.016 64.693 14.016C64.6924 14.016 64.6919 14.016 64.6914 14.016C64.6909 14.016 64.6903 14.016 64.6898 14.016C64.6893 14.016 64.6888 14.016 64.6883 14.016C64.6877 14.016 64.6872 14.016 64.6867 14.016C64.6862 14.016 64.6857 14.016 64.6851 14.016C64.6846 14.016 64.6841 14.016 64.6836 14.016C64.6831 14.016 64.6825 14.016 64.682 14.016C64.6815 14.016 64.681 14.016 64.6805 14.016C64.68 14.016 64.6794 14.016 64.6789 14.016C64.6784 14.016 64.6779 14.016 64.6774 14.016C64.6768 14.016 64.6763 14.016 64.6758 14.016C64.6753 14.016 64.6748 14.016 64.6743 14.016C64.6737 14.016 64.6732 14.016 64.6727 14.016C64.6722 14.016 64.6717 14.016 64.6712 14.016C64.6706 14.016 64.6701 14.016 64.6696 14.016C64.6691 14.016 64.6686 14.016 64.6681 14.016C64.6675 14.016 64.667 14.016 64.6665 14.016C64.666 14.016 64.6655 14.016 64.665 14.016C64.6644 14.016 64.6639 14.016 64.6634 14.016C64.6629 14.016 64.6624 14.016 64.6619 14.016C64.6613 14.016 64.6608 14.016 64.6603 14.016C64.6598 14.016 64.6593 14.016 64.6588 14.016C64.6583 14.016 64.6577 14.016 64.6572 14.016C64.6567 14.016 64.6562 14.016 64.6557 14.016C64.6552 14.016 64.6547 14.016 64.6541 14.016C64.6536 14.016 64.6531 14.016 64.6526 14.016C64.6521 14.016 64.6516 14.016 64.6511 14.016C64.6506 14.016 64.65 14.016 64.6495 14.016C64.649 14.016 64.6485 14.016 64.648 14.016C64.6475 14.016 64.647 14.016 64.6465 14.016C64.6459 14.016 64.6454 14.016 64.6449 14.016C64.6444 14.016 64.6439 14.016 64.6434 14.016C64.6429 14.016 64.6424 14.016 64.6418 14.016C64.6413 14.016 64.6408 14.016 64.6403 14.016C64.6398 14.016 64.6393 14.016 64.6388 14.016C64.6383 14.016 64.6378 14.016 64.6373 14.016C64.6367 14.016 64.6362 14.016 64.6357 14.016C64.6352 14.016 64.6347 14.016 64.6342 14.016C64.6337 14.016 64.6332 14.016 64.6327 14.016C64.6322 14.016 64.6316 14.016 64.6311 14.016C64.6306 14.016 64.6301 14.016 64.6296 14.016C64.6291 14.016 64.6286 14.016 64.6281 14.016C64.6276 14.016 64.6271 14.016 64.6266 14.016C64.6261 14.016 64.6255 14.016 64.625 14.016C64.6245 14.016 64.624 14.016 64.6235 14.016C64.623 14.016 64.6225 14.016 64.622 14.016C64.6215 14.016 64.621 14.016 64.6205 14.016C64.62 14.016 64.6195 14.016 64.6189 14.016C64.6184 14.016 64.6179 14.016 64.6174 14.016C64.6169 14.016 64.6164 14.016 64.6159 14.016C64.6154 14.016 64.6149 14.016 64.6144 14.016C64.6139 14.016 64.6134 14.016 64.6129 14.016C64.6124 14.016 64.6119 14.016 64.6114 14.016C64.6109 14.016 64.6104 14.016 64.6098 14.016C64.6093 14.016 64.6088 14.016 64.6083 14.016C64.6078 14.016 64.6073 14.016 64.6068 14.016C64.6063 14.016 64.6058 14.016 64.6053 14.016C64.6048 14.016 64.6043 14.016 64.6038 14.016C64.6033 14.016 64.6028 14.016 64.6023 14.016C64.6018 14.016 64.6013 14.016 64.6008 14.016C64.6003 14.016 64.5998 14.016 64.5993 14.016C64.5988 14.016 64.5983 14.016 64.5978 14.016C64.5973 14.016 64.5968 14.016 64.5963 14.016C64.5957 14.016 64.5953 14.016 64.5947 14.016C64.5942 14.016 64.5937 14.016 64.5932 14.016C64.5927 14.016 64.5922 14.016 64.5917 14.016C64.5912 14.016 64.5907 14.016 64.5902 14.016C64.5897 14.016 64.5892 14.016 64.5887 14.016C64.5882 14.016 64.5877 14.016 64.5872 14.016C64.5867 14.016 64.5862 14.016 64.5857 14.016C64.5852 14.016 64.5847 14.016 64.5842 14.016C64.5837 14.016 64.5832 14.016 64.5827 14.016C64.5822 14.016 64.5817 14.016 64.5812 14.016C64.5807 14.016 64.5802 14.016 64.5797 14.016C64.5792 14.016 64.5787 14.016 64.5782 14.016C64.5778 14.016 64.5773 14.016 64.5768 14.016C64.5763 14.016 64.5758 14.016 64.5753 14.016C64.5748 14.016 64.5743 14.016 64.5738 14.016C64.5733 14.016 64.5728 14.016 64.5723 14.016C64.5718 14.016 64.5713 14.016 64.5708 14.016C64.5703 14.016 64.5698 14.016 64.5693 14.016C64.5688 14.016 64.5683 14.016 64.5678 14.016C64.5673 14.016 64.5668 14.016 64.5663 14.016C64.5658 14.016 64.5653 14.016 64.5648 14.016C64.5643 14.016 64.5638 14.016 64.5633 14.016C64.5629 14.016 64.5624 14.016 64.5619 14.016C64.5614 14.016 64.5609 14.016 64.5604 14.016C64.5599 14.016 64.5594 14.016 64.5589 14.016C64.5584 14.016 64.5579 14.016 64.5574 14.016C64.5569 14.016 64.5564 14.016 64.5559 14.016C64.5554 14.016 64.5549 14.016 64.5544 14.016C64.5539 14.016 64.5535 14.016 64.553 14.016C64.5525 14.016 64.552 14.016 64.5515 14.016C64.551 14.016 64.5505 14.016 64.55 14.016C64.5495 14.016 64.549 14.016 64.5485 14.016C64.548 14.016 64.5475 14.016 64.5471 14.016C64.5466 14.016 64.5461 14.016 64.5456 14.016C64.5451 14.016 64.5446 14.016 64.5441 14.016C64.5436 14.016 64.5431 14.016 64.5426 14.016C64.5421 14.016 64.5416 14.016 64.5412 14.016C64.5407 14.016 64.5402 14.016 64.5397 14.016C64.5392 14.016 64.5387 14.016 64.5382 14.016C64.5377 14.016 64.5372 14.016 64.5367 14.016C64.5363 14.016 64.5358 14.016 64.5353 14.016C64.5348 14.016 64.5343 14.016 64.5338 14.016C64.5333 14.016 64.5328 14.016 64.5323 14.016C64.5319 14.016 64.5314 14.016 64.5309 14.016C64.5304 14.016 64.5299 14.016 64.5294 14.016C64.5289 14.016 64.5284 14.016 64.5279 14.016C64.5275 14.016 64.527 14.016 64.5265 14.016C64.526 14.016 64.5255 14.016 64.525 14.016C64.5245 14.016 64.524 14.016 64.5236 14.016C64.5231 14.016 64.5226 14.016 64.5221 14.016C64.5216 14.016 64.5211 14.016 64.5206 14.016C64.5201 14.016 64.5197 14.016 64.5192 14.016C64.5187 14.016 64.5182 14.016 64.5177 14.016C64.5172 14.016 64.5167 14.016 64.5163 14.016C64.5158 14.016 64.5153 14.016 64.5148 14.016C64.5143 14.016 64.5138 14.016 64.5134 14.016C64.5129 14.016 64.5124 14.016 64.5119 14.016C64.5114 14.016 64.5109 14.016 64.5104 14.016C64.51 14.016 64.5095 14.016 64.509 14.016C64.5085 14.016 64.508 14.016 64.5075 14.016C64.5071 14.016 64.5066 14.016 64.5061 14.016C64.5056 14.016 64.5051 14.016 64.5046 14.016C64.5042 14.016 64.5037 14.016 64.5032 14.016C64.5027 14.016 64.5022 14.016 64.5017 14.016C64.5013 14.016 64.5008 14.016 64.5003 14.016C64.4998 14.016 64.4993 14.016 64.4988 14.016C64.4984 14.016 64.4979 14.016 64.4974 14.016C64.4969 14.016 64.4964 14.016 64.496 14.016C64.4955 14.016 64.495 14.016 64.4945 14.016C64.494 14.016 64.4936 14.016 64.4931 14.016C64.4926 14.016 64.4921 14.016 64.4916 14.016C64.4911 14.016 64.4907 14.016 64.4902 14.016C64.4897 14.016 64.4892 14.016 64.4888 14.016C64.4883 14.016 64.4878 14.016 64.4873 14.016C64.4868 14.016 64.4864 14.016 64.4859 14.016C64.4854 14.016 64.4849 14.016 64.4844 14.016C64.484 14.016 64.4835 14.016 64.483 14.016C64.4825 14.016 64.482 14.016 64.4816 14.016C64.4811 14.016 64.4806 14.016 64.4801 14.016C64.4797 14.016 64.4792 14.016 64.4787 14.016C64.4782 14.016 64.4777 14.016 64.4773 14.016C64.4768 14.016 64.4763 14.016 64.4758 14.016C64.4754 14.016 64.4749 14.016 64.4744 14.016C64.4739 14.016 64.4734 14.016 64.473 14.016C64.4725 14.016 64.472 14.016 64.4715 14.016C64.4711 14.016 64.4706 14.016 64.4701 14.016C64.4696 14.016 64.4692 14.016 64.4687 14.016C64.4682 14.016 64.4677 14.016 64.4673 14.016C64.4668 14.016 64.4663 14.016 64.4658 14.016C64.4654 14.016 64.4649 14.016 64.4644 14.016C64.4639 14.016 64.4635 14.016 64.463 14.016C64.4625 14.016 64.462 14.016 64.4616 14.016C64.4611 14.016 64.4606 14.016 64.4602 14.016C64.4597 14.016 64.4592 14.016 64.4587 14.016C64.4583 14.016 64.4578 14.016 64.4573 14.016C64.4568 14.016 64.4564 14.016 64.4559 14.016C64.4554 14.016 64.4549 14.016 64.4545 14.016C64.454 14.016 64.4535 14.016 64.4531 14.016C64.4526 14.016 64.4521 14.016 64.4516 14.016C64.4512 14.016 64.4507 14.016 64.4502 14.016C64.4498 14.016 64.4493 14.016 64.4488 14.016C64.4483 14.016 64.4479 14.016 64.4474 14.016C64.4469 14.016 64.4465 14.016 64.446 14.016C64.4455 14.016 64.445 14.016 64.4446 14.016C64.4441 14.016 64.4436 14.016 64.4432 14.016C64.4427 14.016 64.4422 14.016 64.4418 14.016C64.4413 14.016 64.4408 14.016 64.4403 14.016C64.4399 14.016 64.4394 14.016 64.4389 14.016C64.4385 14.016 64.438 14.016 64.4375 14.016V15.016ZM65.2775 15.016V16.016C67.302 16.016 69 15.5051 70.1548 14.2884L69.4295 13.6L68.7042 12.9116C68.0671 13.5829 66.997 14.016 65.2775 14.016V15.016ZM69.4295 13.6L70.1487 14.2948C71.2857 13.118 71.7975 11.5387 71.7975 9.68799H70.7975H69.7975C69.7975 11.1653 69.3974 12.194 68.7103 12.9052L69.4295 13.6ZM70.7975 9.68799H71.7975C71.7975 7.78987 71.3266 6.18006 70.2214 5.03386L69.5015 5.72799L68.7817 6.42213C69.4044 7.06792 69.7975 8.09812 69.7975 9.68799H70.7975ZM69.5015 5.72799L70.2214 5.03385C69.0918 3.86247 67.4052 3.38399 65.3975 3.38399V4.38399V5.38399C67.1339 5.38399 68.1832 5.80151 68.7817 6.42213L69.5015 5.72799ZM65.3975 4.38399V3.38399C65.1207 3.38399 64.8371 3.39264 64.5468 3.40972L64.6055 4.40799L64.6643 5.40627C64.9179 5.39134 65.1623 5.38399 65.3975 5.38399V4.38399ZM64.6055 4.40799V3.40799C64.2946 3.40799 63.9941 3.42626 63.7054 3.46476L63.8375 4.45599L63.9697 5.44722C64.1609 5.42172 64.3724 5.40799 64.6055 5.40799V4.40799ZM63.8375 4.45599H62.8375V14.968H63.8375H64.8375V4.45599H63.8375ZM74.6615 9.68799H73.6615C73.6615 11.0263 73.4532 12.146 73.0669 13.0704L73.9895 13.456L74.9122 13.8416C75.4219 12.622 75.6615 11.2297 75.6615 9.68799H74.6615ZM73.9895 13.456L73.0669 13.0704C72.6758 14.0062 72.1268 14.7616 71.4236 15.3566L72.0695 16.12L72.7155 16.8834C73.6763 16.0704 74.4073 15.0497 74.9122 13.8416L73.9895 13.456ZM72.0695 16.12L71.4163 15.3628C70.722 15.9618 69.8527 16.4279 68.7846 16.7455L69.0695 17.704L69.3545 18.6625C70.6544 18.2761 71.7851 17.6861 72.7228 16.8771L72.0695 16.12ZM69.0695 17.704L68.7846 16.7455C67.7088 17.0653 66.4789 17.232 65.0855 17.232V18.232V19.232C66.6361 19.232 68.0623 19.0467 69.3545 18.6625L69.0695 17.704ZM65.0855 18.232V17.232C64.4437 17.232 63.6844 17.2014 62.8048 17.1385L62.7335 18.136L62.6623 19.1334C63.5747 19.1986 64.3834 19.232 65.0855 19.232V18.232ZM62.7335 18.136L62.787 17.1374C61.9393 17.092 61.1081 16.9861 60.2931 16.8201L60.0935 17.8L59.8939 18.7799C60.8069 18.9659 61.7358 19.084 62.68 19.1346L62.7335 18.136ZM60.0935 17.8H61.0935V1.59999H60.0935H59.0935V17.8H60.0935ZM60.0935 1.59999L60.2756 2.58327C61.0941 2.43169 61.9465 2.33252 62.8332 2.28666L62.7815 1.28799L62.7299 0.289326C61.7606 0.33946 60.8209 0.448288 59.9114 0.616709L60.0935 1.59999ZM62.7815 1.28799L62.8492 2.2857C63.7789 2.22266 64.5631 2.19199 65.2055 2.19199V1.19199V0.19199C64.504 0.19199 63.6721 0.225315 62.7139 0.290281L62.7815 1.28799ZM65.2055 1.19199V2.19199C66.5558 2.19199 67.7518 2.34381 68.8019 2.63551L69.0695 1.67199L69.3372 0.708471C68.0833 0.36017 66.7033 0.19199 65.2055 0.19199V1.19199ZM69.0695 1.67199L68.8053 2.63645C69.8533 2.92358 70.7221 3.36735 71.4323 3.95464L72.0695 3.18399L72.7068 2.41334C71.753 1.62463 70.6217 1.0604 69.3338 0.707531L69.0695 1.67199ZM72.0695 3.18399L71.4323 3.95464C72.1299 4.53154 72.6765 5.27549 73.0669 6.20958L73.9895 5.82399L74.9122 5.4384C74.4066 4.22849 73.6731 3.21244 72.7068 2.41335L72.0695 3.18399ZM73.9895 5.82399L73.0669 6.20958C73.4512 7.12922 73.6615 8.27914 73.6615 9.68799H74.6615H75.6615C75.6615 8.08885 75.4239 6.66276 74.9122 5.4384L73.9895 5.82399Z" fill="url(#paint1_linear_33_120)" mask="url(#path-1-outside-1_33_120)"/>
<defs>
<linearGradient id="paint0_linear_33_120" x1="38.3345" y1="9.01599" x2="40.1598" y2="20.4028" gradientUnits="userSpaceOnUse">
<stop stop-color="#FF66FC"/>
<stop offset="1" stop-color="#A743E3"/>
</linearGradient>
<linearGradient id="paint1_linear_33_120" x1="37.8345" y1="-4.98401" x2="37.8345" y2="23.016" gradientUnits="userSpaceOnUse">
<stop stop-color="#E666A8"/>
<stop offset="1" stop-color="#5E108D"/>
</linearGradient>
</defs>
</svg>
