<svg width="61" height="20" viewBox="0 0 61 20" fill="none" xmlns="http://www.w3.org/2000/svg">
<mask id="path-1-outside-1_33_121" maskUnits="userSpaceOnUse" x="-0.554932" y="-0.984009" width="61" height="21" fill="black">
<rect fill="white" x="-0.554932" y="-0.984009" width="61" height="21"/>
<path d="M5.94591 1.38399C6.23391 1.91199 6.56191 2.56799 6.92991 3.35199C7.31391 4.11999 7.70591 4.95999 8.10591 5.87199C8.52191 6.76799 8.92991 7.68799 9.32991 8.63199C9.72991 9.57599 10.1059 10.464 10.4579 11.296C10.8099 10.464 11.1859 9.57599 11.5859 8.63199C11.9859 7.68799 12.3859 6.76799 12.7859 5.87199C13.2019 4.95999 13.5939 4.11999 13.9619 3.35199C14.3459 2.56799 14.6819 1.91199 14.9699 1.38399H18.3779C18.5379 2.48799 18.6819 3.72799 18.8099 5.10399C18.9539 6.46399 19.0739 7.88799 19.1699 9.37599C19.2819 10.848 19.3779 12.328 19.4579 13.816C19.5539 15.304 19.6339 16.704 19.6979 18.016H16.0499C16.0019 16.4 15.9379 14.64 15.8579 12.736C15.7779 10.832 15.6579 8.91199 15.4979 6.97599C15.2099 7.64799 14.8899 8.39199 14.5379 9.20799C14.1859 10.024 13.8339 10.84 13.4819 11.656C13.1459 12.472 12.8179 13.256 12.4979 14.008C12.1779 14.744 11.9059 15.376 11.6819 15.904H9.06591C8.84191 15.376 8.56991 14.744 8.24991 14.008C7.92991 13.256 7.59391 12.472 7.24191 11.656C6.90591 10.84 6.56191 10.024 6.20991 9.20799C5.85791 8.39199 5.53791 7.64799 5.24991 6.97599C5.08991 8.91199 4.96991 10.832 4.88991 12.736C4.80991 14.64 4.74591 16.4 4.69791 18.016H1.04991C1.11391 16.704 1.18591 15.304 1.26591 13.816C1.36191 12.328 1.45791 10.848 1.55391 9.37599C1.66591 7.88799 1.78591 6.46399 1.91391 5.10399C2.05791 3.72799 2.20991 2.48799 2.36991 1.38399H5.94591ZM24.269 1.38399H28.013V18.016H24.269V1.38399ZM37.5987 15.16C38.1267 15.16 38.5587 15.12 38.8947 15.04C39.2467 14.944 39.5267 14.824 39.7347 14.68C39.9427 14.52 40.0867 14.336 40.1667 14.128C40.2467 13.92 40.2867 13.688 40.2867 13.432C40.2867 12.888 40.0307 12.44 39.5187 12.088C39.0067 11.72 38.1267 11.328 36.8787 10.912C36.3347 10.72 35.7907 10.504 35.2467 10.264C34.7027 10.008 34.2147 9.69599 33.7827 9.32799C33.3507 8.94399 32.9987 8.48799 32.7267 7.95999C32.4547 7.41599 32.3187 6.75999 32.3187 5.99199C32.3187 5.22399 32.4627 4.53599 32.7507 3.92799C33.0387 3.30399 33.4467 2.77599 33.9747 2.34399C34.5027 1.91199 35.1427 1.58399 35.8947 1.35999C36.6467 1.11999 37.4947 0.99999 38.4387 0.99999C39.5587 0.99999 40.5267 1.11999 41.3427 1.35999C42.1587 1.59999 42.8307 1.86399 43.3587 2.15199L42.2787 5.10399C41.8147 4.86399 41.2947 4.65599 40.7187 4.47999C40.1587 4.28799 39.4787 4.19199 38.6787 4.19199C37.7827 4.19199 37.1347 4.31999 36.7347 4.57599C36.3507 4.81599 36.1587 5.19199 36.1587 5.70399C36.1587 6.00799 36.2307 6.26399 36.3747 6.47199C36.5187 6.67999 36.7187 6.87199 36.9747 7.04799C37.2467 7.20799 37.5507 7.35999 37.8867 7.50399C38.2387 7.63199 38.6227 7.76799 39.0387 7.91199C39.9027 8.23199 40.6547 8.55199 41.2947 8.87199C41.9347 9.17599 42.4627 9.53599 42.8787 9.95199C43.3107 10.368 43.6307 10.856 43.8387 11.416C44.0467 11.976 44.1507 12.656 44.1507 13.456C44.1507 15.008 43.6067 16.216 42.5187 17.08C41.4307 17.928 39.7907 18.352 37.5987 18.352C36.8627 18.352 36.1987 18.304 35.6067 18.208C35.0147 18.128 34.4867 18.024 34.0227 17.896C33.5747 17.768 33.1827 17.632 32.8467 17.488C32.5267 17.344 32.2547 17.208 32.0307 17.08L33.0867 14.104C33.5827 14.376 34.1907 14.624 34.9107 14.848C35.6467 15.056 36.5427 15.16 37.5987 15.16ZM52.7675 15.16C53.2955 15.16 53.7275 15.12 54.0635 15.04C54.4155 14.944 54.6955 14.824 54.9035 14.68C55.1115 14.52 55.2555 14.336 55.3355 14.128C55.4155 13.92 55.4555 13.688 55.4555 13.432C55.4555 12.888 55.1995 12.44 54.6875 12.088C54.1755 11.72 53.2955 11.328 52.0475 10.912C51.5035 10.72 50.9595 10.504 50.4155 10.264C49.8715 10.008 49.3835 9.69599 48.9515 9.32799C48.5195 8.94399 48.1675 8.48799 47.8955 7.95999C47.6235 7.41599 47.4875 6.75999 47.4875 5.99199C47.4875 5.22399 47.6315 4.53599 47.9195 3.92799C48.2075 3.30399 48.6155 2.77599 49.1435 2.34399C49.6715 1.91199 50.3115 1.58399 51.0635 1.35999C51.8155 1.11999 52.6635 0.99999 53.6075 0.99999C54.7275 0.99999 55.6955 1.11999 56.5115 1.35999C57.3275 1.59999 57.9995 1.86399 58.5275 2.15199L57.4475 5.10399C56.9835 4.86399 56.4635 4.65599 55.8875 4.47999C55.3275 4.28799 54.6475 4.19199 53.8475 4.19199C52.9515 4.19199 52.3035 4.31999 51.9035 4.57599C51.5195 4.81599 51.3275 5.19199 51.3275 5.70399C51.3275 6.00799 51.3995 6.26399 51.5435 6.47199C51.6875 6.67999 51.8875 6.87199 52.1435 7.04799C52.4155 7.20799 52.7195 7.35999 53.0555 7.50399C53.4075 7.63199 53.7915 7.76799 54.2075 7.91199C55.0715 8.23199 55.8235 8.55199 56.4635 8.87199C57.1035 9.17599 57.6315 9.53599 58.0475 9.95199C58.4795 10.368 58.7995 10.856 59.0075 11.416C59.2155 11.976 59.3195 12.656 59.3195 13.456C59.3195 15.008 58.7755 16.216 57.6875 17.08C56.5995 17.928 54.9595 18.352 52.7675 18.352C52.0315 18.352 51.3675 18.304 50.7755 18.208C50.1835 18.128 49.6555 18.024 49.1915 17.896C48.7435 17.768 48.3515 17.632 48.0155 17.488C47.6955 17.344 47.4235 17.208 47.1995 17.08L48.2555 14.104C48.7515 14.376 49.3595 14.624 50.0795 14.848C50.8155 15.056 51.7115 15.16 52.7675 15.16Z"/>
</mask>
<path d="M5.94591 1.38399C6.23391 1.91199 6.56191 2.56799 6.92991 3.35199C7.31391 4.11999 7.70591 4.95999 8.10591 5.87199C8.52191 6.76799 8.92991 7.68799 9.32991 8.63199C9.72991 9.57599 10.1059 10.464 10.4579 11.296C10.8099 10.464 11.1859 9.57599 11.5859 8.63199C11.9859 7.68799 12.3859 6.76799 12.7859 5.87199C13.2019 4.95999 13.5939 4.11999 13.9619 3.35199C14.3459 2.56799 14.6819 1.91199 14.9699 1.38399H18.3779C18.5379 2.48799 18.6819 3.72799 18.8099 5.10399C18.9539 6.46399 19.0739 7.88799 19.1699 9.37599C19.2819 10.848 19.3779 12.328 19.4579 13.816C19.5539 15.304 19.6339 16.704 19.6979 18.016H16.0499C16.0019 16.4 15.9379 14.64 15.8579 12.736C15.7779 10.832 15.6579 8.91199 15.4979 6.97599C15.2099 7.64799 14.8899 8.39199 14.5379 9.20799C14.1859 10.024 13.8339 10.84 13.4819 11.656C13.1459 12.472 12.8179 13.256 12.4979 14.008C12.1779 14.744 11.9059 15.376 11.6819 15.904H9.06591C8.84191 15.376 8.56991 14.744 8.24991 14.008C7.92991 13.256 7.59391 12.472 7.24191 11.656C6.90591 10.84 6.56191 10.024 6.20991 9.20799C5.85791 8.39199 5.53791 7.64799 5.24991 6.97599C5.08991 8.91199 4.96991 10.832 4.88991 12.736C4.80991 14.64 4.74591 16.4 4.69791 18.016H1.04991C1.11391 16.704 1.18591 15.304 1.26591 13.816C1.36191 12.328 1.45791 10.848 1.55391 9.37599C1.66591 7.88799 1.78591 6.46399 1.91391 5.10399C2.05791 3.72799 2.20991 2.48799 2.36991 1.38399H5.94591ZM24.269 1.38399H28.013V18.016H24.269V1.38399ZM37.5987 15.16C38.1267 15.16 38.5587 15.12 38.8947 15.04C39.2467 14.944 39.5267 14.824 39.7347 14.68C39.9427 14.52 40.0867 14.336 40.1667 14.128C40.2467 13.92 40.2867 13.688 40.2867 13.432C40.2867 12.888 40.0307 12.44 39.5187 12.088C39.0067 11.72 38.1267 11.328 36.8787 10.912C36.3347 10.72 35.7907 10.504 35.2467 10.264C34.7027 10.008 34.2147 9.69599 33.7827 9.32799C33.3507 8.94399 32.9987 8.48799 32.7267 7.95999C32.4547 7.41599 32.3187 6.75999 32.3187 5.99199C32.3187 5.22399 32.4627 4.53599 32.7507 3.92799C33.0387 3.30399 33.4467 2.77599 33.9747 2.34399C34.5027 1.91199 35.1427 1.58399 35.8947 1.35999C36.6467 1.11999 37.4947 0.99999 38.4387 0.99999C39.5587 0.99999 40.5267 1.11999 41.3427 1.35999C42.1587 1.59999 42.8307 1.86399 43.3587 2.15199L42.2787 5.10399C41.8147 4.86399 41.2947 4.65599 40.7187 4.47999C40.1587 4.28799 39.4787 4.19199 38.6787 4.19199C37.7827 4.19199 37.1347 4.31999 36.7347 4.57599C36.3507 4.81599 36.1587 5.19199 36.1587 5.70399C36.1587 6.00799 36.2307 6.26399 36.3747 6.47199C36.5187 6.67999 36.7187 6.87199 36.9747 7.04799C37.2467 7.20799 37.5507 7.35999 37.8867 7.50399C38.2387 7.63199 38.6227 7.76799 39.0387 7.91199C39.9027 8.23199 40.6547 8.55199 41.2947 8.87199C41.9347 9.17599 42.4627 9.53599 42.8787 9.95199C43.3107 10.368 43.6307 10.856 43.8387 11.416C44.0467 11.976 44.1507 12.656 44.1507 13.456C44.1507 15.008 43.6067 16.216 42.5187 17.08C41.4307 17.928 39.7907 18.352 37.5987 18.352C36.8627 18.352 36.1987 18.304 35.6067 18.208C35.0147 18.128 34.4867 18.024 34.0227 17.896C33.5747 17.768 33.1827 17.632 32.8467 17.488C32.5267 17.344 32.2547 17.208 32.0307 17.08L33.0867 14.104C33.5827 14.376 34.1907 14.624 34.9107 14.848C35.6467 15.056 36.5427 15.16 37.5987 15.16ZM52.7675 15.16C53.2955 15.16 53.7275 15.12 54.0635 15.04C54.4155 14.944 54.6955 14.824 54.9035 14.68C55.1115 14.52 55.2555 14.336 55.3355 14.128C55.4155 13.92 55.4555 13.688 55.4555 13.432C55.4555 12.888 55.1995 12.44 54.6875 12.088C54.1755 11.72 53.2955 11.328 52.0475 10.912C51.5035 10.72 50.9595 10.504 50.4155 10.264C49.8715 10.008 49.3835 9.69599 48.9515 9.32799C48.5195 8.94399 48.1675 8.48799 47.8955 7.95999C47.6235 7.41599 47.4875 6.75999 47.4875 5.99199C47.4875 5.22399 47.6315 4.53599 47.9195 3.92799C48.2075 3.30399 48.6155 2.77599 49.1435 2.34399C49.6715 1.91199 50.3115 1.58399 51.0635 1.35999C51.8155 1.11999 52.6635 0.99999 53.6075 0.99999C54.7275 0.99999 55.6955 1.11999 56.5115 1.35999C57.3275 1.59999 57.9995 1.86399 58.5275 2.15199L57.4475 5.10399C56.9835 4.86399 56.4635 4.65599 55.8875 4.47999C55.3275 4.28799 54.6475 4.19199 53.8475 4.19199C52.9515 4.19199 52.3035 4.31999 51.9035 4.57599C51.5195 4.81599 51.3275 5.19199 51.3275 5.70399C51.3275 6.00799 51.3995 6.26399 51.5435 6.47199C51.6875 6.67999 51.8875 6.87199 52.1435 7.04799C52.4155 7.20799 52.7195 7.35999 53.0555 7.50399C53.4075 7.63199 53.7915 7.76799 54.2075 7.91199C55.0715 8.23199 55.8235 8.55199 56.4635 8.87199C57.1035 9.17599 57.6315 9.53599 58.0475 9.95199C58.4795 10.368 58.7995 10.856 59.0075 11.416C59.2155 11.976 59.3195 12.656 59.3195 13.456C59.3195 15.008 58.7755 16.216 57.6875 17.08C56.5995 17.928 54.9595 18.352 52.7675 18.352C52.0315 18.352 51.3675 18.304 50.7755 18.208C50.1835 18.128 49.6555 18.024 49.1915 17.896C48.7435 17.768 48.3515 17.632 48.0155 17.488C47.6955 17.344 47.4235 17.208 47.1995 17.08L48.2555 14.104C48.7515 14.376 49.3595 14.624 50.0795 14.848C50.8155 15.056 51.7115 15.16 52.7675 15.16Z" fill="url(#paint0_linear_33_121)"/>
<path d="M5.94591 1.38399L6.82381 0.905138L6.53955 0.383991H5.94591V1.38399ZM6.92991 3.35199L6.02468 3.7769L6.02994 3.78812L6.03549 3.7992L6.92991 3.35199ZM8.10591 5.87199L7.19012 6.27365L7.19441 6.28342L7.1989 6.2931L8.10591 5.87199ZM9.32991 8.63199L10.2507 8.24184V8.24184L9.32991 8.63199ZM10.4579 11.296L9.53695 11.6856L10.4579 13.8625L11.3789 11.6856L10.4579 11.296ZM11.5859 8.63199L10.6652 8.24184L10.6652 8.24184L11.5859 8.63199ZM12.7859 5.87199L11.8761 5.45697L11.8728 5.46434L12.7859 5.87199ZM13.9619 3.35199L13.0638 2.91211L13.0601 2.91987L13.9619 3.35199ZM14.9699 1.38399V0.383991H14.3763L14.092 0.905138L14.9699 1.38399ZM18.3779 1.38399L19.3676 1.24056L19.2434 0.383991H18.3779V1.38399ZM18.8099 5.10399L17.8141 5.19662L17.8155 5.20928L18.8099 5.10399ZM19.1699 9.37599L18.1719 9.44038L18.1728 9.45186L19.1699 9.37599ZM19.4579 13.816L18.4593 13.8697L18.46 13.8804L19.4579 13.816ZM19.6979 18.016V19.016H20.7479L20.6967 17.9673L19.6979 18.016ZM16.0499 18.016L15.0504 18.0457L15.0792 19.016H16.0499V18.016ZM15.8579 12.736L16.857 12.694L15.8579 12.736ZM15.4979 6.97599L16.4945 6.89363L14.5788 6.58207L15.4979 6.97599ZM13.4819 11.656L12.5637 11.2599L12.5604 11.2675L12.5572 11.2752L13.4819 11.656ZM12.4979 14.008L13.415 14.4067L13.4181 14.3995L12.4979 14.008ZM11.6819 15.904V16.904H12.3439L12.6025 16.2945L11.6819 15.904ZM9.06591 15.904L8.14533 16.2945L8.40389 16.904H9.06591V15.904ZM8.24991 14.008L7.32973 14.3996L7.33284 14.4067L8.24991 14.008ZM7.24191 11.656L6.31723 12.0367L6.3204 12.0444L6.3237 12.0521L7.24191 11.656ZM6.20991 9.20799L5.2917 9.60408V9.60408L6.20991 9.20799ZM5.24991 6.97599L6.16906 6.58207L4.25331 6.89363L5.24991 6.97599ZM4.88991 12.736L5.88903 12.778V12.778L4.88991 12.736ZM4.69791 18.016V19.016H5.66865L5.69747 18.0457L4.69791 18.016ZM1.04991 18.016L0.0511006 17.9673L-5.66244e-05 19.016H1.04991V18.016ZM1.26591 13.816L0.26793 13.7516L0.267355 13.7623L1.26591 13.816ZM1.55391 9.37599L0.556684 9.30093L0.556033 9.31091L1.55391 9.37599ZM1.91391 5.10399L0.91929 4.9999L0.918313 5.01029L1.91391 5.10399ZM2.36991 1.38399V0.383991H1.50439L1.38025 1.24056L2.36991 1.38399ZM5.94591 1.38399L5.06802 1.86284C5.34319 2.36733 5.66187 3.00397 6.02468 3.7769L6.92991 3.35199L7.83515 2.92708C7.46195 2.13201 7.12463 1.45665 6.82381 0.905138L5.94591 1.38399ZM6.92991 3.35199L6.03549 3.7992C6.41092 4.55006 6.79583 5.37465 7.19012 6.27365L8.10591 5.87199L9.0217 5.47033C8.616 4.54533 8.21691 3.68992 7.82434 2.90478L6.92991 3.35199ZM8.10591 5.87199L7.1989 6.2931C7.60997 7.17848 8.0134 8.08815 8.40916 9.02214L9.32991 8.63199L10.2507 8.24184C9.84643 7.28783 9.43385 6.3575 9.01292 5.45088L8.10591 5.87199ZM9.32991 8.63199L8.40916 9.02214C8.8091 9.96599 9.18503 10.8538 9.53695 11.6856L10.4579 11.296L11.3789 10.9064C11.0268 10.0742 10.6507 9.18599 10.2507 8.24184L9.32991 8.63199ZM10.4579 11.296L11.3789 11.6856C11.7308 10.8538 12.1067 9.96599 12.5067 9.02214L11.5859 8.63199L10.6652 8.24184C10.2651 9.18599 9.88903 10.0742 9.53695 10.9064L10.4579 11.296ZM11.5859 8.63199L12.5067 9.02214C12.9043 8.08374 13.3018 7.16958 13.6991 6.27964L12.7859 5.87199L11.8728 5.46434C11.4701 6.3664 11.0675 7.29224 10.6652 8.24184L11.5859 8.63199ZM12.7859 5.87199L13.6957 6.287C14.1096 5.37976 14.4989 4.54555 14.8637 3.78411L13.9619 3.35199L13.0601 2.91987C12.689 3.69444 12.2943 4.54023 11.8761 5.45698L12.7859 5.87199ZM13.9619 3.35199L14.86 3.79186C15.2401 3.01571 15.5692 2.3737 15.8478 1.86284L14.9699 1.38399L14.092 0.905138C13.7947 1.45028 13.4517 2.12027 13.0639 2.91212L13.9619 3.35199ZM14.9699 1.38399V2.38399H18.3779V1.38399V0.383991H14.9699V1.38399ZM18.3779 1.38399L17.3883 1.52742C17.5453 2.61113 17.6874 3.83378 17.8142 5.19661L18.8099 5.10399L19.8056 5.01137C19.6764 3.6222 19.5305 2.36485 19.3676 1.24056L18.3779 1.38399ZM18.8099 5.10399L17.8155 5.20928C17.9579 6.55452 18.0768 7.96483 18.172 9.44037L19.1699 9.37599L20.1678 9.31161C20.071 7.81115 19.9499 6.37346 19.8044 4.9987L18.8099 5.10399ZM19.1699 9.37599L18.1728 9.45186C18.2842 10.9164 18.3797 12.389 18.4594 13.8697L19.4579 13.816L20.4565 13.7623C20.3761 12.267 20.2796 10.7796 20.167 9.30012L19.1699 9.37599ZM19.4579 13.816L18.46 13.8804C18.5557 15.3638 18.6354 16.7586 18.6991 18.0647L19.6979 18.016L20.6967 17.9673C20.6324 16.6494 20.5521 15.2441 20.4558 13.7516L19.4579 13.816ZM19.6979 18.016V17.016H16.0499V18.016V19.016H19.6979V18.016ZM16.0499 18.016L17.0495 17.9863C17.0013 16.3656 16.9372 14.6014 16.857 12.694L15.8579 12.736L14.8588 12.778C14.9387 14.6786 15.0025 16.4344 15.0504 18.0457L16.0499 18.016ZM15.8579 12.736L16.857 12.694C16.7765 10.7763 16.6556 8.84281 16.4945 6.89363L15.4979 6.97599L14.5013 7.05835C14.6602 8.98117 14.7794 10.8877 14.8588 12.778L15.8579 12.736ZM15.4979 6.97599L14.5788 6.58207C14.2911 7.25321 13.9715 7.99648 13.6197 8.8119L14.5379 9.20799L15.4561 9.60408C15.8084 8.78751 16.1287 8.04277 16.4171 7.36991L15.4979 6.97599ZM14.5379 9.20799L13.6197 8.8119C13.619 8.81349 13.6183 8.81509 13.6176 8.81668C13.617 8.81827 13.6163 8.81987 13.6156 8.82146C13.6149 8.82306 13.6142 8.82465 13.6135 8.82624C13.6128 8.82784 13.6121 8.82943 13.6115 8.83102C13.6108 8.83262 13.6101 8.83421 13.6094 8.83581C13.6087 8.8374 13.608 8.83899 13.6073 8.84059C13.6066 8.84218 13.606 8.84377 13.6053 8.84537C13.6046 8.84696 13.6039 8.84856 13.6032 8.85015C13.6025 8.85174 13.6018 8.85334 13.6011 8.85493C13.6005 8.85652 13.5998 8.85812 13.5991 8.85971C13.5984 8.86131 13.5977 8.8629 13.597 8.86449C13.5963 8.86609 13.5956 8.86768 13.595 8.86927C13.5943 8.87087 13.5936 8.87246 13.5929 8.87406C13.5922 8.87565 13.5915 8.87724 13.5908 8.87884C13.5901 8.88043 13.5895 8.88202 13.5888 8.88362C13.5881 8.88521 13.5874 8.88681 13.5867 8.8884C13.586 8.88999 13.5853 8.89159 13.5846 8.89318C13.584 8.89477 13.5833 8.89637 13.5826 8.89796C13.5819 8.89956 13.5812 8.90115 13.5805 8.90274C13.5798 8.90434 13.5791 8.90593 13.5785 8.90752C13.5778 8.90912 13.5771 8.91071 13.5764 8.91231C13.5757 8.9139 13.575 8.91549 13.5743 8.91709C13.5736 8.91868 13.573 8.92027 13.5723 8.92187C13.5716 8.92346 13.5709 8.92506 13.5702 8.92665C13.5695 8.92824 13.5688 8.92984 13.5681 8.93143C13.5675 8.93302 13.5668 8.93462 13.5661 8.93621C13.5654 8.93781 13.5647 8.9394 13.564 8.94099C13.5633 8.94259 13.5626 8.94418 13.562 8.94577C13.5613 8.94737 13.5606 8.94896 13.5599 8.95056C13.5592 8.95215 13.5585 8.95374 13.5578 8.95534C13.5571 8.95693 13.5565 8.95852 13.5558 8.96012C13.5551 8.96171 13.5544 8.96331 13.5537 8.9649C13.553 8.96649 13.5523 8.96809 13.5516 8.96968C13.551 8.97127 13.5503 8.97287 13.5496 8.97446C13.5489 8.97606 13.5482 8.97765 13.5475 8.97924C13.5468 8.98084 13.5461 8.98243 13.5455 8.98403C13.5448 8.98562 13.5441 8.98721 13.5434 8.98881C13.5427 8.9904 13.542 8.99199 13.5413 8.99359C13.5406 8.99518 13.54 8.99677 13.5393 8.99837C13.5386 8.99996 13.5379 9.00156 13.5372 9.00315C13.5365 9.00474 13.5358 9.00634 13.5351 9.00793C13.5345 9.00952 13.5338 9.01112 13.5331 9.01271C13.5324 9.01431 13.5317 9.0159 13.531 9.01749C13.5303 9.01909 13.5296 9.02068 13.529 9.02227C13.5283 9.02387 13.5276 9.02546 13.5269 9.02706C13.5262 9.02865 13.5255 9.03024 13.5248 9.03184C13.5241 9.03343 13.5235 9.03502 13.5228 9.03662C13.5221 9.03821 13.5214 9.03981 13.5207 9.0414C13.52 9.04299 13.5193 9.04459 13.5186 9.04618C13.518 9.04777 13.5173 9.04937 13.5166 9.05096C13.5159 9.05256 13.5152 9.05415 13.5145 9.05574C13.5138 9.05734 13.5131 9.05893 13.5125 9.06052C13.5118 9.06212 13.5111 9.06371 13.5104 9.06531C13.5097 9.0669 13.509 9.06849 13.5083 9.07009C13.5076 9.07168 13.507 9.07327 13.5063 9.07487C13.5056 9.07646 13.5049 9.07806 13.5042 9.07965C13.5035 9.08124 13.5028 9.08284 13.5021 9.08443C13.5015 9.08602 13.5008 9.08762 13.5001 9.08921C13.4994 9.09081 13.4987 9.0924 13.498 9.09399C13.4973 9.09559 13.4966 9.09718 13.496 9.09877C13.4953 9.10037 13.4946 9.10196 13.4939 9.10356C13.4932 9.10515 13.4925 9.10674 13.4918 9.10834C13.4911 9.10993 13.4905 9.11152 13.4898 9.11312C13.4891 9.11471 13.4884 9.11631 13.4877 9.1179C13.487 9.11949 13.4863 9.12109 13.4856 9.12268C13.485 9.12427 13.4843 9.12587 13.4836 9.12746C13.4829 9.12906 13.4822 9.13065 13.4815 9.13224C13.4808 9.13384 13.4801 9.13543 13.4795 9.13702C13.4788 9.13862 13.4781 9.14021 13.4774 9.14181C13.4767 9.1434 13.476 9.14499 13.4753 9.14659C13.4746 9.14818 13.474 9.14977 13.4733 9.15137C13.4726 9.15296 13.4719 9.15456 13.4712 9.15615C13.4705 9.15774 13.4698 9.15934 13.4691 9.16093C13.4685 9.16252 13.4678 9.16412 13.4671 9.16571C13.4664 9.16731 13.4657 9.1689 13.465 9.17049C13.4643 9.17209 13.4636 9.17368 13.463 9.17527C13.4623 9.17687 13.4616 9.17846 13.4609 9.18006C13.4602 9.18165 13.4595 9.18324 13.4588 9.18484C13.4581 9.18643 13.4575 9.18802 13.4568 9.18962C13.4561 9.19121 13.4554 9.19281 13.4547 9.1944C13.454 9.19599 13.4533 9.19759 13.4526 9.19918C13.452 9.20077 13.4513 9.20237 13.4506 9.20396C13.4499 9.20556 13.4492 9.20715 13.4485 9.20874C13.4478 9.21034 13.4471 9.21193 13.4465 9.21352C13.4458 9.21512 13.4451 9.21671 13.4444 9.21831C13.4437 9.2199 13.443 9.22149 13.4423 9.22309C13.4416 9.22468 13.441 9.22627 13.4403 9.22787C13.4396 9.22946 13.4389 9.23106 13.4382 9.23265C13.4375 9.23424 13.4368 9.23584 13.4361 9.23743C13.4355 9.23902 13.4348 9.24062 13.4341 9.24221C13.4334 9.24381 13.4327 9.2454 13.432 9.24699C13.4313 9.24859 13.4306 9.25018 13.43 9.25177C13.4293 9.25337 13.4286 9.25496 13.4279 9.25656C13.4272 9.25815 13.4265 9.25974 13.4258 9.26134C13.4251 9.26293 13.4245 9.26452 13.4238 9.26612C13.4231 9.26771 13.4224 9.26931 13.4217 9.2709C13.421 9.27249 13.4203 9.27409 13.4196 9.27568C13.419 9.27727 13.4183 9.27887 13.4176 9.28046C13.4169 9.28206 13.4162 9.28365 13.4155 9.28524C13.4148 9.28684 13.4141 9.28843 13.4135 9.29002C13.4128 9.29162 13.4121 9.29321 13.4114 9.29481C13.4107 9.2964 13.41 9.29799 13.4093 9.29959C13.4086 9.30118 13.408 9.30277 13.4073 9.30437C13.4066 9.30596 13.4059 9.30756 13.4052 9.30915C13.4045 9.31074 13.4038 9.31234 13.4031 9.31393C13.4025 9.31552 13.4018 9.31712 13.4011 9.31871C13.4004 9.32031 13.3997 9.3219 13.399 9.32349C13.3983 9.32509 13.3976 9.32668 13.397 9.32827C13.3963 9.32987 13.3956 9.33146 13.3949 9.33306C13.3942 9.33465 13.3935 9.33624 13.3928 9.33784C13.3921 9.33943 13.3915 9.34102 13.3908 9.34262C13.3901 9.34421 13.3894 9.34581 13.3887 9.3474C13.388 9.34899 13.3873 9.35059 13.3866 9.35218C13.386 9.35377 13.3853 9.35537 13.3846 9.35696C13.3839 9.35856 13.3832 9.36015 13.3825 9.36174C13.3818 9.36334 13.3811 9.36493 13.3805 9.36652C13.3798 9.36812 13.3791 9.36971 13.3784 9.37131C13.3777 9.3729 13.377 9.37449 13.3763 9.37609C13.3756 9.37768 13.375 9.37927 13.3743 9.38087C13.3736 9.38246 13.3729 9.38406 13.3722 9.38565C13.3715 9.38724 13.3708 9.38884 13.3701 9.39043C13.3695 9.39202 13.3688 9.39362 13.3681 9.39521C13.3674 9.39681 13.3667 9.3984 13.366 9.39999C13.3653 9.40159 13.3646 9.40318 13.364 9.40477C13.3633 9.40637 13.3626 9.40796 13.3619 9.40956C13.3612 9.41115 13.3605 9.41274 13.3598 9.41434C13.3591 9.41593 13.3585 9.41752 13.3578 9.41912C13.3571 9.42071 13.3564 9.42231 13.3557 9.4239C13.355 9.42549 13.3543 9.42709 13.3536 9.42868C13.353 9.43027 13.3523 9.43187 13.3516 9.43346C13.3509 9.43506 13.3502 9.43665 13.3495 9.43824C13.3488 9.43984 13.3481 9.44143 13.3475 9.44302C13.3468 9.44462 13.3461 9.44621 13.3454 9.44781C13.3447 9.4494 13.344 9.45099 13.3433 9.45259C13.3426 9.45418 13.342 9.45577 13.3413 9.45737C13.3406 9.45896 13.3399 9.46056 13.3392 9.46215C13.3385 9.46374 13.3378 9.46534 13.3371 9.46693C13.3365 9.46852 13.3358 9.47012 13.3351 9.47171C13.3344 9.47331 13.3337 9.4749 13.333 9.47649C13.3323 9.47809 13.3316 9.47968 13.331 9.48127C13.3303 9.48287 13.3296 9.48446 13.3289 9.48606C13.3282 9.48765 13.3275 9.48924 13.3268 9.49084C13.3261 9.49243 13.3255 9.49402 13.3248 9.49562C13.3241 9.49721 13.3234 9.49881 13.3227 9.5004C13.322 9.50199 13.3213 9.50359 13.3206 9.50518C13.32 9.50677 13.3193 9.50837 13.3186 9.50996C13.3179 9.51156 13.3172 9.51315 13.3165 9.51474C13.3158 9.51634 13.3151 9.51793 13.3145 9.51952C13.3138 9.52112 13.3131 9.52271 13.3124 9.52431C13.3117 9.5259 13.311 9.52749 13.3103 9.52909C13.3096 9.53068 13.309 9.53227 13.3083 9.53387C13.3076 9.53546 13.3069 9.53706 13.3062 9.53865C13.3055 9.54024 13.3048 9.54184 13.3041 9.54343C13.3035 9.54502 13.3028 9.54662 13.3021 9.54821C13.3014 9.54981 13.3007 9.5514 13.3 9.55299C13.2993 9.55459 13.2986 9.55618 13.298 9.55777C13.2973 9.55937 13.2966 9.56096 13.2959 9.56256C13.2952 9.56415 13.2945 9.56574 13.2938 9.56734C13.2931 9.56893 13.2925 9.57052 13.2918 9.57212C13.2911 9.57371 13.2904 9.57531 13.2897 9.5769C13.289 9.57849 13.2883 9.58009 13.2876 9.58168C13.287 9.58327 13.2863 9.58487 13.2856 9.58646C13.2849 9.58806 13.2842 9.58965 13.2835 9.59124C13.2828 9.59284 13.2821 9.59443 13.2815 9.59602C13.2808 9.59762 13.2801 9.59921 13.2794 9.60081C13.2787 9.6024 13.278 9.60399 13.2773 9.60559C13.2766 9.60718 13.276 9.60877 13.2753 9.61037C13.2746 9.61196 13.2739 9.61356 13.2732 9.61515C13.2725 9.61674 13.2718 9.61834 13.2711 9.61993C13.2705 9.62152 13.2698 9.62312 13.2691 9.62471C13.2684 9.62631 13.2677 9.6279 13.267 9.62949C13.2663 9.63109 13.2656 9.63268 13.265 9.63427C13.2643 9.63587 13.2636 9.63746 13.2629 9.63906C13.2622 9.64065 13.2615 9.64224 13.2608 9.64384C13.2601 9.64543 13.2595 9.64702 13.2588 9.64862C13.2581 9.65021 13.2574 9.65181 13.2567 9.6534C13.256 9.65499 13.2553 9.65659 13.2546 9.65818C13.254 9.65977 13.2533 9.66137 13.2526 9.66296C13.2519 9.66456 13.2512 9.66615 13.2505 9.66774C13.2498 9.66934 13.2491 9.67093 13.2485 9.67252C13.2478 9.67412 13.2471 9.67571 13.2464 9.67731C13.2457 9.6789 13.245 9.68049 13.2443 9.68209C13.2436 9.68368 13.243 9.68527 13.2423 9.68687C13.2416 9.68846 13.2409 9.69006 13.2402 9.69165C13.2395 9.69324 13.2388 9.69484 13.2381 9.69643C13.2375 9.69802 13.2368 9.69962 13.2361 9.70121C13.2354 9.70281 13.2347 9.7044 13.234 9.70599C13.2333 9.70759 13.2326 9.70918 13.232 9.71077C13.2313 9.71237 13.2306 9.71396 13.2299 9.71556C13.2292 9.71715 13.2285 9.71874 13.2278 9.72034C13.2271 9.72193 13.2265 9.72352 13.2258 9.72512C13.2251 9.72671 13.2244 9.72831 13.2237 9.7299C13.223 9.73149 13.2223 9.73309 13.2216 9.73468C13.221 9.73627 13.2203 9.73787 13.2196 9.73946C13.2189 9.74106 13.2182 9.74265 13.2175 9.74424C13.2168 9.74584 13.2161 9.74743 13.2155 9.74902C13.2148 9.75062 13.2141 9.75221 13.2134 9.75381C13.2127 9.7554 13.212 9.75699 13.2113 9.75859C13.2106 9.76018 13.21 9.76177 13.2093 9.76337C13.2086 9.76496 13.2079 9.76656 13.2072 9.76815C13.2065 9.76974 13.2058 9.77134 13.2051 9.77293C13.2045 9.77452 13.2038 9.77612 13.2031 9.77771C13.2024 9.77931 13.2017 9.7809 13.201 9.78249C13.2003 9.78409 13.1996 9.78568 13.199 9.78727C13.1983 9.78887 13.1976 9.79046 13.1969 9.79206C13.1962 9.79365 13.1955 9.79524 13.1948 9.79684C13.1941 9.79843 13.1935 9.80002 13.1928 9.80162C13.1921 9.80321 13.1914 9.80481 13.1907 9.8064C13.19 9.80799 13.1893 9.80959 13.1886 9.81118C13.188 9.81277 13.1873 9.81437 13.1866 9.81596C13.1859 9.81756 13.1852 9.81915 13.1845 9.82074C13.1838 9.82234 13.1831 9.82393 13.1825 9.82552C13.1818 9.82712 13.1811 9.82871 13.1804 9.83031C13.1797 9.8319 13.179 9.83349 13.1783 9.83509C13.1776 9.83668 13.177 9.83827 13.1763 9.83987C13.1756 9.84146 13.1749 9.84306 13.1742 9.84465C13.1735 9.84624 13.1728 9.84784 13.1721 9.84943C13.1715 9.85102 13.1708 9.85262 13.1701 9.85421C13.1694 9.85581 13.1687 9.8574 13.168 9.85899C13.1673 9.86059 13.1666 9.86218 13.166 9.86377C13.1653 9.86537 13.1646 9.86696 13.1639 9.86856C13.1632 9.87015 13.1625 9.87174 13.1618 9.87334C13.1611 9.87493 13.1605 9.87652 13.1598 9.87812C13.1591 9.87971 13.1584 9.88131 13.1577 9.8829C13.157 9.88449 13.1563 9.88609 13.1556 9.88768C13.155 9.88927 13.1543 9.89087 13.1536 9.89246C13.1529 9.89406 13.1522 9.89565 13.1515 9.89724C13.1508 9.89884 13.1501 9.90043 13.1495 9.90202C13.1488 9.90362 13.1481 9.90521 13.1474 9.90681C13.1467 9.9084 13.146 9.90999 13.1453 9.91159C13.1446 9.91318 13.144 9.91477 13.1433 9.91637C13.1426 9.91796 13.1419 9.91956 13.1412 9.92115C13.1405 9.92274 13.1398 9.92434 13.1391 9.92593C13.1385 9.92752 13.1378 9.92912 13.1371 9.93071C13.1364 9.93231 13.1357 9.9339 13.135 9.93549C13.1343 9.93709 13.1336 9.93868 13.133 9.94027C13.1323 9.94187 13.1316 9.94346 13.1309 9.94506C13.1302 9.94665 13.1295 9.94824 13.1288 9.94984C13.1281 9.95143 13.1275 9.95302 13.1268 9.95462C13.1261 9.95621 13.1254 9.95781 13.1247 9.9594C13.124 9.96099 13.1233 9.96259 13.1226 9.96418C13.122 9.96577 13.1213 9.96737 13.1206 9.96896C13.1199 9.97056 13.1192 9.97215 13.1185 9.97374C13.1178 9.97534 13.1171 9.97693 13.1165 9.97852C13.1158 9.98012 13.1151 9.98171 13.1144 9.98331C13.1137 9.9849 13.113 9.98649 13.1123 9.98809C13.1116 9.98968 13.111 9.99127 13.1103 9.99287C13.1096 9.99446 13.1089 9.99606 13.1082 9.99765C13.1075 9.99924 13.1068 10.0008 13.1061 10.0024C13.1055 10.004 13.1048 10.0056 13.1041 10.0072C13.1034 10.0088 13.1027 10.0104 13.102 10.012C13.1013 10.0136 13.1006 10.0152 13.1 10.0168C13.0993 10.0184 13.0986 10.02 13.0979 10.0216C13.0972 10.0231 13.0965 10.0247 13.0958 10.0263C13.0951 10.0279 13.0945 10.0295 13.0938 10.0311C13.0931 10.0327 13.0924 10.0343 13.0917 10.0359C13.091 10.0375 13.0903 10.0391 13.0896 10.0407C13.089 10.0423 13.0883 10.0439 13.0876 10.0455C13.0869 10.0471 13.0862 10.0486 13.0855 10.0502C13.0848 10.0518 13.0841 10.0534 13.0835 10.055C13.0828 10.0566 13.0821 10.0582 13.0814 10.0598C13.0807 10.0614 13.08 10.063 13.0793 10.0646C13.0786 10.0662 13.078 10.0678 13.0773 10.0694C13.0766 10.071 13.0759 10.0726 13.0752 10.0742C13.0745 10.0757 13.0738 10.0773 13.0731 10.0789C13.0725 10.0805 13.0718 10.0821 13.0711 10.0837C13.0704 10.0853 13.0697 10.0869 13.069 10.0885C13.0683 10.0901 13.0676 10.0917 13.067 10.0933C13.0663 10.0949 13.0656 10.0965 13.0649 10.0981C13.0642 10.0996 13.0635 10.1012 13.0628 10.1028C13.0621 10.1044 13.0615 10.106 13.0608 10.1076C13.0601 10.1092 13.0594 10.1108 13.0587 10.1124C13.058 10.114 13.0573 10.1156 13.0566 10.1172C13.056 10.1188 13.0553 10.1204 13.0546 10.122C13.0539 10.1236 13.0532 10.1251 13.0525 10.1267C13.0518 10.1283 13.0511 10.1299 13.0505 10.1315C13.0498 10.1331 13.0491 10.1347 13.0484 10.1363C13.0477 10.1379 13.047 10.1395 13.0463 10.1411C13.0456 10.1427 13.045 10.1443 13.0443 10.1459C13.0436 10.1475 13.0429 10.1491 13.0422 10.1507C13.0415 10.1522 13.0408 10.1538 13.0401 10.1554C13.0395 10.157 13.0388 10.1586 13.0381 10.1602C13.0374 10.1618 13.0367 10.1634 13.036 10.165C13.0353 10.1666 13.0346 10.1682 13.034 10.1698C13.0333 10.1714 13.0326 10.173 13.0319 10.1746C13.0312 10.1761 13.0305 10.1777 13.0298 10.1793C13.0291 10.1809 13.0285 10.1825 13.0278 10.1841C13.0271 10.1857 13.0264 10.1873 13.0257 10.1889C13.025 10.1905 13.0243 10.1921 13.0236 10.1937C13.023 10.1953 13.0223 10.1969 13.0216 10.1985C13.0209 10.2001 13.0202 10.2016 13.0195 10.2032C13.0188 10.2048 13.0181 10.2064 13.0175 10.208C13.0168 10.2096 13.0161 10.2112 13.0154 10.2128C13.0147 10.2144 13.014 10.216 13.0133 10.2176C13.0126 10.2192 13.012 10.2208 13.0113 10.2224C13.0106 10.224 13.0099 10.2256 13.0092 10.2271C13.0085 10.2287 13.0078 10.2303 13.0071 10.2319C13.0065 10.2335 13.0058 10.2351 13.0051 10.2367C13.0044 10.2383 13.0037 10.2399 13.003 10.2415C13.0023 10.2431 13.0016 10.2447 13.001 10.2463C13.0003 10.2479 12.9996 10.2495 12.9989 10.2511C12.9982 10.2526 12.9975 10.2542 12.9968 10.2558C12.9961 10.2574 12.9955 10.259 12.9948 10.2606C12.9941 10.2622 12.9934 10.2638 12.9927 10.2654C12.992 10.267 12.9913 10.2686 12.9906 10.2702C12.99 10.2718 12.9893 10.2734 12.9886 10.275C12.9879 10.2766 12.9872 10.2781 12.9865 10.2797C12.9858 10.2813 12.9851 10.2829 12.9845 10.2845C12.9838 10.2861 12.9831 10.2877 12.9824 10.2893C12.9817 10.2909 12.981 10.2925 12.9803 10.2941C12.9796 10.2957 12.979 10.2973 12.9783 10.2989C12.9776 10.3005 12.9769 10.3021 12.9762 10.3036C12.9755 10.3052 12.9748 10.3068 12.9741 10.3084C12.9735 10.31 12.9728 10.3116 12.9721 10.3132C12.9714 10.3148 12.9707 10.3164 12.97 10.318C12.9693 10.3196 12.9686 10.3212 12.968 10.3228C12.9673 10.3244 12.9666 10.326 12.9659 10.3276C12.9652 10.3291 12.9645 10.3307 12.9638 10.3323C12.9631 10.3339 12.9625 10.3355 12.9618 10.3371C12.9611 10.3387 12.9604 10.3403 12.9597 10.3419C12.959 10.3435 12.9583 10.3451 12.9576 10.3467C12.957 10.3483 12.9563 10.3499 12.9556 10.3515C12.9549 10.3531 12.9542 10.3546 12.9535 10.3562C12.9528 10.3578 12.9521 10.3594 12.9515 10.361C12.9508 10.3626 12.9501 10.3642 12.9494 10.3658C12.9487 10.3674 12.948 10.369 12.9473 10.3706C12.9466 10.3722 12.946 10.3738 12.9453 10.3754C12.9446 10.377 12.9439 10.3786 12.9432 10.3801C12.9425 10.3817 12.9418 10.3833 12.9411 10.3849C12.9405 10.3865 12.9398 10.3881 12.9391 10.3897C12.9384 10.3913 12.9377 10.3929 12.937 10.3945C12.9363 10.3961 12.9356 10.3977 12.935 10.3993C12.9343 10.4009 12.9336 10.4025 12.9329 10.4041C12.9322 10.4056 12.9315 10.4072 12.9308 10.4088C12.9301 10.4104 12.9295 10.412 12.9288 10.4136C12.9281 10.4152 12.9274 10.4168 12.9267 10.4184C12.926 10.42 12.9253 10.4216 12.9246 10.4232C12.924 10.4248 12.9233 10.4264 12.9226 10.428C12.9219 10.4296 12.9212 10.4311 12.9205 10.4327C12.9198 10.4343 12.9191 10.4359 12.9185 10.4375C12.9178 10.4391 12.9171 10.4407 12.9164 10.4423C12.9157 10.4439 12.915 10.4455 12.9143 10.4471C12.9136 10.4487 12.913 10.4503 12.9123 10.4519C12.9116 10.4535 12.9109 10.4551 12.9102 10.4566C12.9095 10.4582 12.9088 10.4598 12.9081 10.4614C12.9075 10.463 12.9068 10.4646 12.9061 10.4662C12.9054 10.4678 12.9047 10.4694 12.904 10.471C12.9033 10.4726 12.9026 10.4742 12.902 10.4758C12.9013 10.4774 12.9006 10.479 12.8999 10.4806C12.8992 10.4821 12.8985 10.4837 12.8978 10.4853C12.8971 10.4869 12.8965 10.4885 12.8958 10.4901C12.8951 10.4917 12.8944 10.4933 12.8937 10.4949C12.893 10.4965 12.8923 10.4981 12.8916 10.4997C12.891 10.5013 12.8903 10.5029 12.8896 10.5045C12.8889 10.5061 12.8882 10.5076 12.8875 10.5092C12.8868 10.5108 12.8861 10.5124 12.8855 10.514C12.8848 10.5156 12.8841 10.5172 12.8834 10.5188C12.8827 10.5204 12.882 10.522 12.8813 10.5236C12.8806 10.5252 12.88 10.5268 12.8793 10.5284C12.8786 10.53 12.8779 10.5316 12.8772 10.5331C12.8765 10.5347 12.8758 10.5363 12.8751 10.5379C12.8745 10.5395 12.8738 10.5411 12.8731 10.5427C12.8724 10.5443 12.8717 10.5459 12.871 10.5475C12.8703 10.5491 12.8696 10.5507 12.869 10.5523C12.8683 10.5539 12.8676 10.5555 12.8669 10.5571C12.8662 10.5586 12.8655 10.5602 12.8648 10.5618C12.8641 10.5634 12.8635 10.565 12.8628 10.5666C12.8621 10.5682 12.8614 10.5698 12.8607 10.5714C12.86 10.573 12.8593 10.5746 12.8586 10.5762C12.858 10.5778 12.8573 10.5794 12.8566 10.581C12.8559 10.5826 12.8552 10.5841 12.8545 10.5857C12.8538 10.5873 12.8531 10.5889 12.8525 10.5905C12.8518 10.5921 12.8511 10.5937 12.8504 10.5953C12.8497 10.5969 12.849 10.5985 12.8483 10.6001C12.8476 10.6017 12.847 10.6033 12.8463 10.6049C12.8456 10.6065 12.8449 10.6081 12.8442 10.6096C12.8435 10.6112 12.8428 10.6128 12.8421 10.6144C12.8415 10.616 12.8408 10.6176 12.8401 10.6192C12.8394 10.6208 12.8387 10.6224 12.838 10.624C12.8373 10.6256 12.8366 10.6272 12.836 10.6288C12.8353 10.6304 12.8346 10.632 12.8339 10.6336C12.8332 10.6351 12.8325 10.6367 12.8318 10.6383C12.8311 10.6399 12.8305 10.6415 12.8298 10.6431C12.8291 10.6447 12.8284 10.6463 12.8277 10.6479C12.827 10.6495 12.8263 10.6511 12.8256 10.6527C12.825 10.6543 12.8243 10.6559 12.8236 10.6575C12.8229 10.6591 12.8222 10.6606 12.8215 10.6622C12.8208 10.6638 12.8201 10.6654 12.8195 10.667C12.8188 10.6686 12.8181 10.6702 12.8174 10.6718C12.8167 10.6734 12.816 10.675 12.8153 10.6766C12.8146 10.6782 12.814 10.6798 12.8133 10.6814C12.8126 10.683 12.8119 10.6846 12.8112 10.6861C12.8105 10.6877 12.8098 10.6893 12.8091 10.6909C12.8085 10.6925 12.8078 10.6941 12.8071 10.6957C12.8064 10.6973 12.8057 10.6989 12.805 10.7005C12.8043 10.7021 12.8036 10.7037 12.803 10.7053C12.8023 10.7069 12.8016 10.7085 12.8009 10.7101C12.8002 10.7116 12.7995 10.7132 12.7988 10.7148C12.7981 10.7164 12.7975 10.718 12.7968 10.7196C12.7961 10.7212 12.7954 10.7228 12.7947 10.7244C12.794 10.726 12.7933 10.7276 12.7926 10.7292C12.792 10.7308 12.7913 10.7324 12.7906 10.734C12.7899 10.7356 12.7892 10.7372 12.7885 10.7387C12.7878 10.7403 12.7871 10.7419 12.7865 10.7435C12.7858 10.7451 12.7851 10.7467 12.7844 10.7483C12.7837 10.7499 12.783 10.7515 12.7823 10.7531C12.7816 10.7547 12.781 10.7563 12.7803 10.7579C12.7796 10.7595 12.7789 10.7611 12.7782 10.7626C12.7775 10.7642 12.7768 10.7658 12.7761 10.7674C12.7755 10.769 12.7748 10.7706 12.7741 10.7722C12.7734 10.7738 12.7727 10.7754 12.772 10.777C12.7713 10.7786 12.7706 10.7802 12.77 10.7818C12.7693 10.7834 12.7686 10.785 12.7679 10.7866C12.7672 10.7881 12.7665 10.7897 12.7658 10.7913C12.7651 10.7929 12.7645 10.7945 12.7638 10.7961C12.7631 10.7977 12.7624 10.7993 12.7617 10.8009C12.761 10.8025 12.7603 10.8041 12.7596 10.8057C12.759 10.8073 12.7583 10.8089 12.7576 10.8105C12.7569 10.8121 12.7562 10.8137 12.7555 10.8152C12.7548 10.8168 12.7541 10.8184 12.7535 10.82C12.7528 10.8216 12.7521 10.8232 12.7514 10.8248C12.7507 10.8264 12.75 10.828 12.7493 10.8296C12.7486 10.8312 12.748 10.8328 12.7473 10.8344C12.7466 10.836 12.7459 10.8376 12.7452 10.8391C12.7445 10.8407 12.7438 10.8423 12.7431 10.8439C12.7425 10.8455 12.7418 10.8471 12.7411 10.8487C12.7404 10.8503 12.7397 10.8519 12.739 10.8535C12.7383 10.8551 12.7376 10.8567 12.737 10.8583C12.7363 10.8599 12.7356 10.8615 12.7349 10.8631C12.7342 10.8646 12.7335 10.8662 12.7328 10.8678C12.7321 10.8694 12.7315 10.871 12.7308 10.8726C12.7301 10.8742 12.7294 10.8758 12.7287 10.8774C12.728 10.879 12.7273 10.8806 12.7266 10.8822C12.726 10.8838 12.7253 10.8854 12.7246 10.887C12.7239 10.8886 12.7232 10.8902 12.7225 10.8917C12.7218 10.8933 12.7211 10.8949 12.7205 10.8965C12.7198 10.8981 12.7191 10.8997 12.7184 10.9013C12.7177 10.9029 12.717 10.9045 12.7163 10.9061C12.7156 10.9077 12.715 10.9093 12.7143 10.9109C12.7136 10.9125 12.7129 10.9141 12.7122 10.9156C12.7115 10.9172 12.7108 10.9188 12.7101 10.9204C12.7095 10.922 12.7088 10.9236 12.7081 10.9252C12.7074 10.9268 12.7067 10.9284 12.706 10.93C12.7053 10.9316 12.7046 10.9332 12.704 10.9348C12.7033 10.9364 12.7026 10.938 12.7019 10.9396C12.7012 10.9411 12.7005 10.9427 12.6998 10.9443C12.6991 10.9459 12.6985 10.9475 12.6978 10.9491C12.6971 10.9507 12.6964 10.9523 12.6957 10.9539C12.695 10.9555 12.6943 10.9571 12.6936 10.9587C12.693 10.9603 12.6923 10.9619 12.6916 10.9635C12.6909 10.9651 12.6902 10.9667 12.6895 10.9682C12.6888 10.9698 12.6881 10.9714 12.6875 10.973C12.6868 10.9746 12.6861 10.9762 12.6854 10.9778C12.6847 10.9794 12.684 10.981 12.6833 10.9826C12.6826 10.9842 12.682 10.9858 12.6813 10.9874C12.6806 10.989 12.6799 10.9906 12.6792 10.9921C12.6785 10.9937 12.6778 10.9953 12.6771 10.9969C12.6765 10.9985 12.6758 11.0001 12.6751 11.0017C12.6744 11.0033 12.6737 11.0049 12.673 11.0065C12.6723 11.0081 12.6716 11.0097 12.671 11.0113C12.6703 11.0129 12.6696 11.0145 12.6689 11.0161C12.6682 11.0177 12.6675 11.0192 12.6668 11.0208C12.6661 11.0224 12.6655 11.024 12.6648 11.0256C12.6641 11.0272 12.6634 11.0288 12.6627 11.0304C12.662 11.032 12.6613 11.0336 12.6606 11.0352C12.66 11.0368 12.6593 11.0384 12.6586 11.04C12.6579 11.0416 12.6572 11.0431 12.6565 11.0447C12.6558 11.0463 12.6551 11.0479 12.6545 11.0495C12.6538 11.0511 12.6531 11.0527 12.6524 11.0543C12.6517 11.0559 12.651 11.0575 12.6503 11.0591C12.6496 11.0607 12.649 11.0623 12.6483 11.0639C12.6476 11.0655 12.6469 11.0671 12.6462 11.0686C12.6455 11.0702 12.6448 11.0718 12.6441 11.0734C12.6435 11.075 12.6428 11.0766 12.6421 11.0782C12.6414 11.0798 12.6407 11.0814 12.64 11.083C12.6393 11.0846 12.6386 11.0862 12.638 11.0878C12.6373 11.0894 12.6366 11.091 12.6359 11.0926C12.6352 11.0942 12.6345 11.0957 12.6338 11.0973C12.6331 11.0989 12.6325 11.1005 12.6318 11.1021C12.6311 11.1037 12.6304 11.1053 12.6297 11.1069C12.629 11.1085 12.6283 11.1101 12.6276 11.1117C12.627 11.1133 12.6263 11.1149 12.6256 11.1165C12.6249 11.1181 12.6242 11.1196 12.6235 11.1212C12.6228 11.1228 12.6221 11.1244 12.6215 11.126C12.6208 11.1276 12.6201 11.1292 12.6194 11.1308C12.6187 11.1324 12.618 11.134 12.6173 11.1356C12.6166 11.1372 12.616 11.1388 12.6153 11.1404C12.6146 11.142 12.6139 11.1436 12.6132 11.1451C12.6125 11.1467 12.6118 11.1483 12.6111 11.1499C12.6105 11.1515 12.6098 11.1531 12.6091 11.1547C12.6084 11.1563 12.6077 11.1579 12.607 11.1595C12.6063 11.1611 12.6056 11.1627 12.605 11.1643C12.6043 11.1659 12.6036 11.1675 12.6029 11.1691C12.6022 11.1707 12.6015 11.1722 12.6008 11.1738C12.6001 11.1754 12.5995 11.177 12.5988 11.1786C12.5981 11.1802 12.5974 11.1818 12.5967 11.1834C12.596 11.185 12.5953 11.1866 12.5946 11.1882C12.594 11.1898 12.5933 11.1914 12.5926 11.193C12.5919 11.1946 12.5912 11.1961 12.5905 11.1977C12.5898 11.1993 12.5891 11.2009 12.5885 11.2025C12.5878 11.2041 12.5871 11.2057 12.5864 11.2073C12.5857 11.2089 12.585 11.2105 12.5843 11.2121C12.5836 11.2137 12.583 11.2153 12.5823 11.2169C12.5816 11.2185 12.5809 11.2201 12.5802 11.2216C12.5795 11.2232 12.5788 11.2248 12.5781 11.2264C12.5775 11.228 12.5768 11.2296 12.5761 11.2312C12.5754 11.2328 12.5747 11.2344 12.574 11.236C12.5733 11.2376 12.5726 11.2392 12.572 11.2408C12.5713 11.2424 12.5706 11.244 12.5699 11.2456C12.5692 11.2472 12.5685 11.2487 12.5678 11.2503C12.5671 11.2519 12.5665 11.2535 12.5658 11.2551C12.5651 11.2567 12.5644 11.2583 12.5637 11.2599L13.4819 11.656L14.4001 12.0521C14.4008 12.0505 14.4015 12.0489 14.4022 12.0473C14.4029 12.0457 14.4036 12.0441 14.4042 12.0425C14.4049 12.0409 14.4056 12.0393 14.4063 12.0377C14.407 12.0361 14.4077 12.0346 14.4084 12.033C14.4091 12.0314 14.4097 12.0298 14.4104 12.0282C14.4111 12.0266 14.4118 12.025 14.4125 12.0234C14.4132 12.0218 14.4139 12.0202 14.4146 12.0186C14.4152 12.017 14.4159 12.0154 14.4166 12.0138C14.4173 12.0122 14.418 12.0106 14.4187 12.0091C14.4194 12.0075 14.4201 12.0059 14.4207 12.0043C14.4214 12.0027 14.4221 12.0011 14.4228 11.9995C14.4235 11.9979 14.4242 11.9963 14.4249 11.9947C14.4256 11.9931 14.4262 11.9915 14.4269 11.9899C14.4276 11.9883 14.4283 11.9867 14.429 11.9851C14.4297 11.9836 14.4304 11.982 14.4311 11.9804C14.4317 11.9788 14.4324 11.9772 14.4331 11.9756C14.4338 11.974 14.4345 11.9724 14.4352 11.9708C14.4359 11.9692 14.4366 11.9676 14.4372 11.966C14.4379 11.9644 14.4386 11.9628 14.4393 11.9612C14.44 11.9596 14.4407 11.958 14.4414 11.9565C14.4421 11.9549 14.4427 11.9533 14.4434 11.9517C14.4441 11.9501 14.4448 11.9485 14.4455 11.9469C14.4462 11.9453 14.4469 11.9437 14.4476 11.9421C14.4482 11.9405 14.4489 11.9389 14.4496 11.9373C14.4503 11.9357 14.451 11.9341 14.4517 11.9326C14.4524 11.931 14.4531 11.9294 14.4537 11.9278C14.4544 11.9262 14.4551 11.9246 14.4558 11.923C14.4565 11.9214 14.4572 11.9198 14.4579 11.9182C14.4586 11.9166 14.4592 11.915 14.4599 11.9134C14.4606 11.9118 14.4613 11.9102 14.462 11.9086C14.4627 11.9071 14.4634 11.9055 14.4641 11.9039C14.4647 11.9023 14.4654 11.9007 14.4661 11.8991C14.4668 11.8975 14.4675 11.8959 14.4682 11.8943C14.4689 11.8927 14.4696 11.8911 14.4702 11.8895C14.4709 11.8879 14.4716 11.8863 14.4723 11.8847C14.473 11.8831 14.4737 11.8815 14.4744 11.88C14.4751 11.8784 14.4757 11.8768 14.4764 11.8752C14.4771 11.8736 14.4778 11.872 14.4785 11.8704C14.4792 11.8688 14.4799 11.8672 14.4806 11.8656C14.4812 11.864 14.4819 11.8624 14.4826 11.8608C14.4833 11.8592 14.484 11.8576 14.4847 11.8561C14.4854 11.8545 14.4861 11.8529 14.4867 11.8513C14.4874 11.8497 14.4881 11.8481 14.4888 11.8465C14.4895 11.8449 14.4902 11.8433 14.4909 11.8417C14.4916 11.8401 14.4922 11.8385 14.4929 11.8369C14.4936 11.8353 14.4943 11.8337 14.495 11.8321C14.4957 11.8306 14.4964 11.829 14.4971 11.8274C14.4977 11.8258 14.4984 11.8242 14.4991 11.8226C14.4998 11.821 14.5005 11.8194 14.5012 11.8178C14.5019 11.8162 14.5026 11.8146 14.5032 11.813C14.5039 11.8114 14.5046 11.8098 14.5053 11.8082C14.506 11.8066 14.5067 11.805 14.5074 11.8035C14.5081 11.8019 14.5087 11.8003 14.5094 11.7987C14.5101 11.7971 14.5108 11.7955 14.5115 11.7939C14.5122 11.7923 14.5129 11.7907 14.5136 11.7891C14.5142 11.7875 14.5149 11.7859 14.5156 11.7843C14.5163 11.7827 14.517 11.7811 14.5177 11.7796C14.5184 11.778 14.5191 11.7764 14.5197 11.7748C14.5204 11.7732 14.5211 11.7716 14.5218 11.77C14.5225 11.7684 14.5232 11.7668 14.5239 11.7652C14.5246 11.7636 14.5252 11.762 14.5259 11.7604C14.5266 11.7588 14.5273 11.7572 14.528 11.7556C14.5287 11.7541 14.5294 11.7525 14.5301 11.7509C14.5307 11.7493 14.5314 11.7477 14.5321 11.7461C14.5328 11.7445 14.5335 11.7429 14.5342 11.7413C14.5349 11.7397 14.5356 11.7381 14.5362 11.7365C14.5369 11.7349 14.5376 11.7333 14.5383 11.7317C14.539 11.7301 14.5397 11.7285 14.5404 11.727C14.5411 11.7254 14.5417 11.7238 14.5424 11.7222C14.5431 11.7206 14.5438 11.719 14.5445 11.7174C14.5452 11.7158 14.5459 11.7142 14.5466 11.7126C14.5472 11.711 14.5479 11.7094 14.5486 11.7078C14.5493 11.7062 14.55 11.7046 14.5507 11.7031C14.5514 11.7015 14.5521 11.6999 14.5527 11.6983C14.5534 11.6967 14.5541 11.6951 14.5548 11.6935C14.5555 11.6919 14.5562 11.6903 14.5569 11.6887C14.5576 11.6871 14.5582 11.6855 14.5589 11.6839C14.5596 11.6823 14.5603 11.6807 14.561 11.6791C14.5617 11.6776 14.5624 11.676 14.5631 11.6744C14.5637 11.6728 14.5644 11.6712 14.5651 11.6696C14.5658 11.668 14.5665 11.6664 14.5672 11.6648C14.5679 11.6632 14.5686 11.6616 14.5692 11.66C14.5699 11.6584 14.5706 11.6568 14.5713 11.6552C14.572 11.6536 14.5727 11.6521 14.5734 11.6505C14.5741 11.6489 14.5747 11.6473 14.5754 11.6457C14.5761 11.6441 14.5768 11.6425 14.5775 11.6409C14.5782 11.6393 14.5789 11.6377 14.5796 11.6361C14.5802 11.6345 14.5809 11.6329 14.5816 11.6313C14.5823 11.6297 14.583 11.6281 14.5837 11.6266C14.5844 11.625 14.5851 11.6234 14.5857 11.6218C14.5864 11.6202 14.5871 11.6186 14.5878 11.617C14.5885 11.6154 14.5892 11.6138 14.5899 11.6122C14.5906 11.6106 14.5912 11.609 14.5919 11.6074C14.5926 11.6058 14.5933 11.6042 14.594 11.6026C14.5947 11.6011 14.5954 11.5995 14.5961 11.5979C14.5967 11.5963 14.5974 11.5947 14.5981 11.5931C14.5988 11.5915 14.5995 11.5899 14.6002 11.5883C14.6009 11.5867 14.6016 11.5851 14.6022 11.5835C14.6029 11.5819 14.6036 11.5803 14.6043 11.5787C14.605 11.5771 14.6057 11.5756 14.6064 11.574C14.6071 11.5724 14.6077 11.5708 14.6084 11.5692C14.6091 11.5676 14.6098 11.566 14.6105 11.5644C14.6112 11.5628 14.6119 11.5612 14.6126 11.5596C14.6132 11.558 14.6139 11.5564 14.6146 11.5548C14.6153 11.5532 14.616 11.5516 14.6167 11.5501C14.6174 11.5485 14.6181 11.5469 14.6187 11.5453C14.6194 11.5437 14.6201 11.5421 14.6208 11.5405C14.6215 11.5389 14.6222 11.5373 14.6229 11.5357C14.6236 11.5341 14.6242 11.5325 14.6249 11.5309C14.6256 11.5293 14.6263 11.5277 14.627 11.5261C14.6277 11.5246 14.6284 11.523 14.6291 11.5214C14.6297 11.5198 14.6304 11.5182 14.6311 11.5166C14.6318 11.515 14.6325 11.5134 14.6332 11.5118C14.6339 11.5102 14.6346 11.5086 14.6352 11.507C14.6359 11.5054 14.6366 11.5038 14.6373 11.5022C14.638 11.5006 14.6387 11.4991 14.6394 11.4975C14.6401 11.4959 14.6407 11.4943 14.6414 11.4927C14.6421 11.4911 14.6428 11.4895 14.6435 11.4879C14.6442 11.4863 14.6449 11.4847 14.6456 11.4831C14.6462 11.4815 14.6469 11.4799 14.6476 11.4783C14.6483 11.4767 14.649 11.4751 14.6497 11.4736C14.6504 11.472 14.6511 11.4704 14.6517 11.4688C14.6524 11.4672 14.6531 11.4656 14.6538 11.464C14.6545 11.4624 14.6552 11.4608 14.6559 11.4592C14.6566 11.4576 14.6572 11.456 14.6579 11.4544C14.6586 11.4528 14.6593 11.4512 14.66 11.4496C14.6607 11.4481 14.6614 11.4465 14.6621 11.4449C14.6627 11.4433 14.6634 11.4417 14.6641 11.4401C14.6648 11.4385 14.6655 11.4369 14.6662 11.4353C14.6669 11.4337 14.6676 11.4321 14.6682 11.4305C14.6689 11.4289 14.6696 11.4273 14.6703 11.4257C14.671 11.4241 14.6717 11.4226 14.6724 11.421C14.6731 11.4194 14.6737 11.4178 14.6744 11.4162C14.6751 11.4146 14.6758 11.413 14.6765 11.4114C14.6772 11.4098 14.6779 11.4082 14.6786 11.4066C14.6792 11.405 14.6799 11.4034 14.6806 11.4018C14.6813 11.4002 14.682 11.3986 14.6827 11.3971C14.6834 11.3955 14.6841 11.3939 14.6847 11.3923C14.6854 11.3907 14.6861 11.3891 14.6868 11.3875C14.6875 11.3859 14.6882 11.3843 14.6889 11.3827C14.6896 11.3811 14.6902 11.3795 14.6909 11.3779C14.6916 11.3763 14.6923 11.3747 14.693 11.3731C14.6937 11.3716 14.6944 11.37 14.6951 11.3684C14.6957 11.3668 14.6964 11.3652 14.6971 11.3636C14.6978 11.362 14.6985 11.3604 14.6992 11.3588C14.6999 11.3572 14.7006 11.3556 14.7012 11.354C14.7019 11.3524 14.7026 11.3508 14.7033 11.3492C14.704 11.3476 14.7047 11.3461 14.7054 11.3445C14.7061 11.3429 14.7067 11.3413 14.7074 11.3397C14.7081 11.3381 14.7088 11.3365 14.7095 11.3349C14.7102 11.3333 14.7109 11.3317 14.7116 11.3301C14.7122 11.3285 14.7129 11.3269 14.7136 11.3253C14.7143 11.3237 14.715 11.3221 14.7157 11.3206C14.7164 11.319 14.7171 11.3174 14.7177 11.3158C14.7184 11.3142 14.7191 11.3126 14.7198 11.311C14.7205 11.3094 14.7212 11.3078 14.7219 11.3062C14.7226 11.3046 14.7232 11.303 14.7239 11.3014C14.7246 11.2998 14.7253 11.2982 14.726 11.2966C14.7267 11.2951 14.7274 11.2935 14.7281 11.2919C14.7287 11.2903 14.7294 11.2887 14.7301 11.2871C14.7308 11.2855 14.7315 11.2839 14.7322 11.2823C14.7329 11.2807 14.7336 11.2791 14.7342 11.2775C14.7349 11.2759 14.7356 11.2743 14.7363 11.2727C14.737 11.2711 14.7377 11.2696 14.7384 11.268C14.7391 11.2664 14.7397 11.2648 14.7404 11.2632C14.7411 11.2616 14.7418 11.26 14.7425 11.2584C14.7432 11.2568 14.7439 11.2552 14.7446 11.2536C14.7452 11.252 14.7459 11.2504 14.7466 11.2488C14.7473 11.2472 14.748 11.2456 14.7487 11.2441C14.7494 11.2425 14.7501 11.2409 14.7507 11.2393C14.7514 11.2377 14.7521 11.2361 14.7528 11.2345C14.7535 11.2329 14.7542 11.2313 14.7549 11.2297C14.7556 11.2281 14.7562 11.2265 14.7569 11.2249C14.7576 11.2233 14.7583 11.2217 14.759 11.2201C14.7597 11.2186 14.7604 11.217 14.7611 11.2154C14.7617 11.2138 14.7624 11.2122 14.7631 11.2106C14.7638 11.209 14.7645 11.2074 14.7652 11.2058C14.7659 11.2042 14.7666 11.2026 14.7672 11.201C14.7679 11.1994 14.7686 11.1978 14.7693 11.1962C14.77 11.1946 14.7707 11.1931 14.7714 11.1915C14.7721 11.1899 14.7727 11.1883 14.7734 11.1867C14.7741 11.1851 14.7748 11.1835 14.7755 11.1819C14.7762 11.1803 14.7769 11.1787 14.7776 11.1771C14.7782 11.1755 14.7789 11.1739 14.7796 11.1723C14.7803 11.1707 14.781 11.1691 14.7817 11.1676C14.7824 11.166 14.7831 11.1644 14.7837 11.1628C14.7844 11.1612 14.7851 11.1596 14.7858 11.158C14.7865 11.1564 14.7872 11.1548 14.7879 11.1532C14.7886 11.1516 14.7892 11.15 14.7899 11.1484C14.7906 11.1468 14.7913 11.1452 14.792 11.1436C14.7927 11.1421 14.7934 11.1405 14.7941 11.1389C14.7947 11.1373 14.7954 11.1357 14.7961 11.1341C14.7968 11.1325 14.7975 11.1309 14.7982 11.1293C14.7989 11.1277 14.7996 11.1261 14.8002 11.1245C14.8009 11.1229 14.8016 11.1213 14.8023 11.1197C14.803 11.1181 14.8037 11.1166 14.8044 11.115C14.8051 11.1134 14.8057 11.1118 14.8064 11.1102C14.8071 11.1086 14.8078 11.107 14.8085 11.1054C14.8092 11.1038 14.8099 11.1022 14.8106 11.1006C14.8112 11.099 14.8119 11.0974 14.8126 11.0958C14.8133 11.0942 14.814 11.0926 14.8147 11.0911C14.8154 11.0895 14.8161 11.0879 14.8167 11.0863C14.8174 11.0847 14.8181 11.0831 14.8188 11.0815C14.8195 11.0799 14.8202 11.0783 14.8209 11.0767C14.8216 11.0751 14.8222 11.0735 14.8229 11.0719C14.8236 11.0703 14.8243 11.0687 14.825 11.0671C14.8257 11.0656 14.8264 11.064 14.8271 11.0624C14.8277 11.0608 14.8284 11.0592 14.8291 11.0576C14.8298 11.056 14.8305 11.0544 14.8312 11.0528C14.8319 11.0512 14.8326 11.0496 14.8332 11.048C14.8339 11.0464 14.8346 11.0448 14.8353 11.0432C14.836 11.0416 14.8367 11.0401 14.8374 11.0385C14.8381 11.0369 14.8387 11.0353 14.8394 11.0337C14.8401 11.0321 14.8408 11.0305 14.8415 11.0289C14.8422 11.0273 14.8429 11.0257 14.8436 11.0241C14.8442 11.0225 14.8449 11.0209 14.8456 11.0193C14.8463 11.0177 14.847 11.0161 14.8477 11.0146C14.8484 11.013 14.8491 11.0114 14.8497 11.0098C14.8504 11.0082 14.8511 11.0066 14.8518 11.005C14.8525 11.0034 14.8532 11.0018 14.8539 11.0002C14.8546 10.9986 14.8552 10.997 14.8559 10.9954C14.8566 10.9938 14.8573 10.9922 14.858 10.9906C14.8587 10.9891 14.8594 10.9875 14.8601 10.9859C14.8607 10.9843 14.8614 10.9827 14.8621 10.9811C14.8628 10.9795 14.8635 10.9779 14.8642 10.9763C14.8649 10.9747 14.8656 10.9731 14.8662 10.9715C14.8669 10.9699 14.8676 10.9683 14.8683 10.9667C14.869 10.9651 14.8697 10.9636 14.8704 10.962C14.8711 10.9604 14.8717 10.9588 14.8724 10.9572C14.8731 10.9556 14.8738 10.954 14.8745 10.9524C14.8752 10.9508 14.8759 10.9492 14.8766 10.9476C14.8772 10.946 14.8779 10.9444 14.8786 10.9428C14.8793 10.9412 14.88 10.9396 14.8807 10.9381C14.8814 10.9365 14.8821 10.9349 14.8827 10.9333C14.8834 10.9317 14.8841 10.9301 14.8848 10.9285C14.8855 10.9269 14.8862 10.9253 14.8869 10.9237C14.8876 10.9221 14.8882 10.9205 14.8889 10.9189C14.8896 10.9173 14.8903 10.9157 14.891 10.9141C14.8917 10.9126 14.8924 10.911 14.8931 10.9094C14.8937 10.9078 14.8944 10.9062 14.8951 10.9046C14.8958 10.903 14.8965 10.9014 14.8972 10.8998C14.8979 10.8982 14.8986 10.8966 14.8992 10.895C14.8999 10.8934 14.9006 10.8918 14.9013 10.8902C14.902 10.8886 14.9027 10.8871 14.9034 10.8855C14.9041 10.8839 14.9047 10.8823 14.9054 10.8807C14.9061 10.8791 14.9068 10.8775 14.9075 10.8759C14.9082 10.8743 14.9089 10.8727 14.9096 10.8711C14.9102 10.8695 14.9109 10.8679 14.9116 10.8663C14.9123 10.8647 14.913 10.8631 14.9137 10.8616C14.9144 10.86 14.9151 10.8584 14.9157 10.8568C14.9164 10.8552 14.9171 10.8536 14.9178 10.852C14.9185 10.8504 14.9192 10.8488 14.9199 10.8472C14.9206 10.8456 14.9212 10.844 14.9219 10.8424C14.9226 10.8408 14.9233 10.8392 14.924 10.8376C14.9247 10.8361 14.9254 10.8345 14.9261 10.8329C14.9267 10.8313 14.9274 10.8297 14.9281 10.8281C14.9288 10.8265 14.9295 10.8249 14.9302 10.8233C14.9309 10.8217 14.9316 10.8201 14.9323 10.8185C14.9329 10.8169 14.9336 10.8153 14.9343 10.8137C14.935 10.8121 14.9357 10.8106 14.9364 10.809C14.9371 10.8074 14.9377 10.8058 14.9384 10.8042C14.9391 10.8026 14.9398 10.801 14.9405 10.7994C14.9412 10.7978 14.9419 10.7962 14.9426 10.7946C14.9432 10.793 14.9439 10.7914 14.9446 10.7898C14.9453 10.7882 14.946 10.7866 14.9467 10.7851C14.9474 10.7835 14.9481 10.7819 14.9487 10.7803C14.9494 10.7787 14.9501 10.7771 14.9508 10.7755C14.9515 10.7739 14.9522 10.7723 14.9529 10.7707C14.9536 10.7691 14.9542 10.7675 14.9549 10.7659C14.9556 10.7643 14.9563 10.7627 14.957 10.7611C14.9577 10.7596 14.9584 10.758 14.9591 10.7564C14.9597 10.7548 14.9604 10.7532 14.9611 10.7516C14.9618 10.75 14.9625 10.7484 14.9632 10.7468C14.9639 10.7452 14.9646 10.7436 14.9653 10.742C14.9659 10.7404 14.9666 10.7388 14.9673 10.7372C14.968 10.7356 14.9687 10.7341 14.9694 10.7325C14.9701 10.7309 14.9707 10.7293 14.9714 10.7277C14.9721 10.7261 14.9728 10.7245 14.9735 10.7229C14.9742 10.7213 14.9749 10.7197 14.9756 10.7181C14.9762 10.7165 14.9769 10.7149 14.9776 10.7133C14.9783 10.7117 14.979 10.7101 14.9797 10.7086C14.9804 10.707 14.9811 10.7054 14.9817 10.7038C14.9824 10.7022 14.9831 10.7006 14.9838 10.699C14.9845 10.6974 14.9852 10.6958 14.9859 10.6942C14.9866 10.6926 14.9872 10.691 14.9879 10.6894C14.9886 10.6878 14.9893 10.6862 14.99 10.6846C14.9907 10.6831 14.9914 10.6815 14.9921 10.6799C14.9927 10.6783 14.9934 10.6767 14.9941 10.6751C14.9948 10.6735 14.9955 10.6719 14.9962 10.6703C14.9969 10.6687 14.9976 10.6671 14.9983 10.6655C14.9989 10.6639 14.9996 10.6623 15.0003 10.6607C15.001 10.6591 15.0017 10.6576 15.0024 10.656C15.0031 10.6544 15.0037 10.6528 15.0044 10.6512C15.0051 10.6496 15.0058 10.648 15.0065 10.6464C15.0072 10.6448 15.0079 10.6432 15.0086 10.6416C15.0092 10.64 15.0099 10.6384 15.0106 10.6368C15.0113 10.6352 15.012 10.6336 15.0127 10.6321C15.0134 10.6305 15.0141 10.6289 15.0147 10.6273C15.0154 10.6257 15.0161 10.6241 15.0168 10.6225C15.0175 10.6209 15.0182 10.6193 15.0189 10.6177C15.0196 10.6161 15.0202 10.6145 15.0209 10.6129C15.0216 10.6113 15.0223 10.6097 15.023 10.6081C15.0237 10.6066 15.0244 10.605 15.0251 10.6034C15.0257 10.6018 15.0264 10.6002 15.0271 10.5986C15.0278 10.597 15.0285 10.5954 15.0292 10.5938C15.0299 10.5922 15.0306 10.5906 15.0312 10.589C15.0319 10.5874 15.0326 10.5858 15.0333 10.5842C15.034 10.5826 15.0347 10.5811 15.0354 10.5795C15.0361 10.5779 15.0367 10.5763 15.0374 10.5747C15.0381 10.5731 15.0388 10.5715 15.0395 10.5699C15.0402 10.5683 15.0409 10.5667 15.0416 10.5651C15.0422 10.5635 15.0429 10.5619 15.0436 10.5603C15.0443 10.5587 15.045 10.5571 15.0457 10.5556C15.0464 10.554 15.0471 10.5524 15.0477 10.5508C15.0484 10.5492 15.0491 10.5476 15.0498 10.546C15.0505 10.5444 15.0512 10.5428 15.0519 10.5412C15.0526 10.5396 15.0532 10.538 15.0539 10.5364C15.0546 10.5348 15.0553 10.5332 15.056 10.5316C15.0567 10.5301 15.0574 10.5285 15.0581 10.5269C15.0587 10.5253 15.0594 10.5237 15.0601 10.5221C15.0608 10.5205 15.0615 10.5189 15.0622 10.5173C15.0629 10.5157 15.0636 10.5141 15.0642 10.5125C15.0649 10.5109 15.0656 10.5093 15.0663 10.5077C15.067 10.5061 15.0677 10.5046 15.0684 10.503C15.0691 10.5014 15.0697 10.4998 15.0704 10.4982C15.0711 10.4966 15.0718 10.495 15.0725 10.4934C15.0732 10.4918 15.0739 10.4902 15.0746 10.4886C15.0752 10.487 15.0759 10.4854 15.0766 10.4838C15.0773 10.4822 15.078 10.4806 15.0787 10.4791C15.0794 10.4775 15.0801 10.4759 15.0807 10.4743C15.0814 10.4727 15.0821 10.4711 15.0828 10.4695C15.0835 10.4679 15.0842 10.4663 15.0849 10.4647C15.0856 10.4631 15.0862 10.4615 15.0869 10.4599C15.0876 10.4583 15.0883 10.4567 15.089 10.4551C15.0897 10.4536 15.0904 10.452 15.0911 10.4504C15.0917 10.4488 15.0924 10.4472 15.0931 10.4456C15.0938 10.444 15.0945 10.4424 15.0952 10.4408C15.0959 10.4392 15.0966 10.4376 15.0972 10.436C15.0979 10.4344 15.0986 10.4328 15.0993 10.4312C15.1 10.4296 15.1007 10.4281 15.1014 10.4265C15.1021 10.4249 15.1027 10.4233 15.1034 10.4217C15.1041 10.4201 15.1048 10.4185 15.1055 10.4169C15.1062 10.4153 15.1069 10.4137 15.1076 10.4121C15.1082 10.4105 15.1089 10.4089 15.1096 10.4073C15.1103 10.4057 15.111 10.4041 15.1117 10.4026C15.1124 10.401 15.1131 10.3994 15.1137 10.3978C15.1144 10.3962 15.1151 10.3946 15.1158 10.393C15.1165 10.3914 15.1172 10.3898 15.1179 10.3882C15.1186 10.3866 15.1192 10.385 15.1199 10.3834C15.1206 10.3818 15.1213 10.3802 15.122 10.3786C15.1227 10.3771 15.1234 10.3755 15.1241 10.3739C15.1248 10.3723 15.1254 10.3707 15.1261 10.3691C15.1268 10.3675 15.1275 10.3659 15.1282 10.3643C15.1289 10.3627 15.1296 10.3611 15.1302 10.3595C15.1309 10.3579 15.1316 10.3563 15.1323 10.3547C15.133 10.3531 15.1337 10.3516 15.1344 10.35C15.1351 10.3484 15.1357 10.3468 15.1364 10.3452C15.1371 10.3436 15.1378 10.342 15.1385 10.3404C15.1392 10.3388 15.1399 10.3372 15.1406 10.3356C15.1412 10.334 15.1419 10.3324 15.1426 10.3308C15.1433 10.3292 15.144 10.3276 15.1447 10.3261C15.1454 10.3245 15.1461 10.3229 15.1467 10.3213C15.1474 10.3197 15.1481 10.3181 15.1488 10.3165C15.1495 10.3149 15.1502 10.3133 15.1509 10.3117C15.1516 10.3101 15.1522 10.3085 15.1529 10.3069C15.1536 10.3053 15.1543 10.3037 15.155 10.3021C15.1557 10.3006 15.1564 10.299 15.1571 10.2974C15.1578 10.2958 15.1584 10.2942 15.1591 10.2926C15.1598 10.291 15.1605 10.2894 15.1612 10.2878C15.1619 10.2862 15.1626 10.2846 15.1632 10.283C15.1639 10.2814 15.1646 10.2798 15.1653 10.2782C15.166 10.2766 15.1667 10.2751 15.1674 10.2735C15.1681 10.2719 15.1687 10.2703 15.1694 10.2687C15.1701 10.2671 15.1708 10.2655 15.1715 10.2639C15.1722 10.2623 15.1729 10.2607 15.1736 10.2591C15.1742 10.2575 15.1749 10.2559 15.1756 10.2543C15.1763 10.2527 15.177 10.2511 15.1777 10.2496C15.1784 10.248 15.1791 10.2464 15.1797 10.2448C15.1804 10.2432 15.1811 10.2416 15.1818 10.24C15.1825 10.2384 15.1832 10.2368 15.1839 10.2352C15.1846 10.2336 15.1852 10.232 15.1859 10.2304C15.1866 10.2288 15.1873 10.2272 15.188 10.2256C15.1887 10.2241 15.1894 10.2225 15.1901 10.2209C15.1908 10.2193 15.1914 10.2177 15.1921 10.2161C15.1928 10.2145 15.1935 10.2129 15.1942 10.2113C15.1949 10.2097 15.1956 10.2081 15.1962 10.2065C15.1969 10.2049 15.1976 10.2033 15.1983 10.2017C15.199 10.2001 15.1997 10.1986 15.2004 10.197C15.2011 10.1954 15.2017 10.1938 15.2024 10.1922C15.2031 10.1906 15.2038 10.189 15.2045 10.1874C15.2052 10.1858 15.2059 10.1842 15.2066 10.1826C15.2072 10.181 15.2079 10.1794 15.2086 10.1778C15.2093 10.1762 15.21 10.1746 15.2107 10.1731C15.2114 10.1715 15.2121 10.1699 15.2127 10.1683C15.2134 10.1667 15.2141 10.1651 15.2148 10.1635C15.2155 10.1619 15.2162 10.1603 15.2169 10.1587C15.2176 10.1571 15.2182 10.1555 15.2189 10.1539C15.2196 10.1523 15.2203 10.1507 15.221 10.1491C15.2217 10.1476 15.2224 10.146 15.2231 10.1444C15.2238 10.1428 15.2244 10.1412 15.2251 10.1396C15.2258 10.138 15.2265 10.1364 15.2272 10.1348C15.2279 10.1332 15.2286 10.1316 15.2292 10.13C15.2299 10.1284 15.2306 10.1268 15.2313 10.1252C15.232 10.1236 15.2327 10.1221 15.2334 10.1205C15.2341 10.1189 15.2347 10.1173 15.2354 10.1157C15.2361 10.1141 15.2368 10.1125 15.2375 10.1109C15.2382 10.1093 15.2389 10.1077 15.2396 10.1061C15.2402 10.1045 15.2409 10.1029 15.2416 10.1013C15.2423 10.0997 15.243 10.0981 15.2437 10.0966C15.2444 10.095 15.2451 10.0934 15.2457 10.0918C15.2464 10.0902 15.2471 10.0886 15.2478 10.087C15.2485 10.0854 15.2492 10.0838 15.2499 10.0822C15.2506 10.0806 15.2512 10.079 15.2519 10.0774C15.2526 10.0758 15.2533 10.0742 15.254 10.0726C15.2547 10.0711 15.2554 10.0695 15.2561 10.0679C15.2568 10.0663 15.2574 10.0647 15.2581 10.0631C15.2588 10.0615 15.2595 10.0599 15.2602 10.0583C15.2609 10.0567 15.2616 10.0551 15.2622 10.0535C15.2629 10.0519 15.2636 10.0503 15.2643 10.0487C15.265 10.0471 15.2657 10.0456 15.2664 10.044C15.2671 10.0424 15.2677 10.0408 15.2684 10.0392C15.2691 10.0376 15.2698 10.036 15.2705 10.0344C15.2712 10.0328 15.2719 10.0312 15.2726 10.0296C15.2732 10.028 15.2739 10.0264 15.2746 10.0248C15.2753 10.0232 15.276 10.0216 15.2767 10.0201C15.2774 10.0185 15.2781 10.0169 15.2787 10.0153C15.2794 10.0137 15.2801 10.0121 15.2808 10.0105C15.2815 10.0089 15.2822 10.0073 15.2829 10.0057C15.2836 10.0041 15.2843 10.0025 15.2849 10.0009C15.2856 9.99933 15.2863 9.99774 15.287 9.99614C15.2877 9.99455 15.2884 9.99296 15.2891 9.99136C15.2898 9.98977 15.2904 9.98818 15.2911 9.98658C15.2918 9.98499 15.2925 9.98339 15.2932 9.9818C15.2939 9.98021 15.2946 9.97861 15.2952 9.97702C15.2959 9.97543 15.2966 9.97383 15.2973 9.97224C15.298 9.97064 15.2987 9.96905 15.2994 9.96746C15.3001 9.96586 15.3007 9.96427 15.3014 9.96268C15.3021 9.96108 15.3028 9.95949 15.3035 9.95789C15.3042 9.9563 15.3049 9.95471 15.3056 9.95311C15.3062 9.95152 15.3069 9.94993 15.3076 9.94833C15.3083 9.94674 15.309 9.94514 15.3097 9.94355C15.3104 9.94196 15.3111 9.94036 15.3117 9.93877C15.3124 9.93718 15.3131 9.93558 15.3138 9.93399C15.3145 9.93239 15.3152 9.9308 15.3159 9.92921C15.3166 9.92761 15.3173 9.92602 15.3179 9.92443C15.3186 9.92283 15.3193 9.92124 15.32 9.91964C15.3207 9.91805 15.3214 9.91646 15.3221 9.91486C15.3228 9.91327 15.3234 9.91168 15.3241 9.91008C15.3248 9.90849 15.3255 9.90689 15.3262 9.9053C15.3269 9.90371 15.3276 9.90211 15.3282 9.90052C15.3289 9.89893 15.3296 9.89733 15.3303 9.89574C15.331 9.89415 15.3317 9.89255 15.3324 9.89096C15.3331 9.88936 15.3337 9.88777 15.3344 9.88618C15.3351 9.88458 15.3358 9.88299 15.3365 9.88139C15.3372 9.8798 15.3379 9.87821 15.3386 9.87661C15.3392 9.87502 15.3399 9.87343 15.3406 9.87183C15.3413 9.87024 15.342 9.86864 15.3427 9.86705C15.3434 9.86546 15.3441 9.86386 15.3447 9.86227C15.3454 9.86068 15.3461 9.85908 15.3468 9.85749C15.3475 9.8559 15.3482 9.8543 15.3489 9.85271C15.3496 9.85111 15.3503 9.84952 15.3509 9.84793C15.3516 9.84633 15.3523 9.84474 15.353 9.84314C15.3537 9.84155 15.3544 9.83996 15.3551 9.83836C15.3558 9.83677 15.3564 9.83518 15.3571 9.83358C15.3578 9.83199 15.3585 9.83039 15.3592 9.8288C15.3599 9.82721 15.3606 9.82561 15.3612 9.82402C15.3619 9.82243 15.3626 9.82083 15.3633 9.81924C15.364 9.81765 15.3647 9.81605 15.3654 9.81446C15.3661 9.81286 15.3667 9.81127 15.3674 9.80968C15.3681 9.80808 15.3688 9.80649 15.3695 9.80489C15.3702 9.8033 15.3709 9.80171 15.3716 9.80011C15.3722 9.79852 15.3729 9.79693 15.3736 9.79533C15.3743 9.79374 15.375 9.79214 15.3757 9.79055C15.3764 9.78896 15.3771 9.78736 15.3777 9.78577C15.3784 9.78418 15.3791 9.78258 15.3798 9.78099C15.3805 9.7794 15.3812 9.7778 15.3819 9.77621C15.3826 9.77461 15.3833 9.77302 15.3839 9.77143C15.3846 9.76983 15.3853 9.76824 15.386 9.76664C15.3867 9.76505 15.3874 9.76346 15.3881 9.76186C15.3888 9.76027 15.3894 9.75868 15.3901 9.75708C15.3908 9.75549 15.3915 9.75389 15.3922 9.7523C15.3929 9.75071 15.3936 9.74911 15.3942 9.74752C15.3949 9.74593 15.3956 9.74433 15.3963 9.74274C15.397 9.74115 15.3977 9.73955 15.3984 9.73796C15.3991 9.73636 15.3997 9.73477 15.4004 9.73318C15.4011 9.73158 15.4018 9.72999 15.4025 9.72839C15.4032 9.7268 15.4039 9.72521 15.4046 9.72361C15.4052 9.72202 15.4059 9.72043 15.4066 9.71883C15.4073 9.71724 15.408 9.71564 15.4087 9.71405C15.4094 9.71246 15.4101 9.71086 15.4107 9.70927C15.4114 9.70768 15.4121 9.70608 15.4128 9.70449C15.4135 9.7029 15.4142 9.7013 15.4149 9.69971C15.4156 9.69811 15.4163 9.69652 15.4169 9.69493C15.4176 9.69333 15.4183 9.69174 15.419 9.69014C15.4197 9.68855 15.4204 9.68696 15.4211 9.68536C15.4218 9.68377 15.4224 9.68218 15.4231 9.68058C15.4238 9.67899 15.4245 9.67739 15.4252 9.6758C15.4259 9.67421 15.4266 9.67261 15.4272 9.67102C15.4279 9.66943 15.4286 9.66783 15.4293 9.66624C15.43 9.66465 15.4307 9.66305 15.4314 9.66146C15.4321 9.65986 15.4327 9.65827 15.4334 9.65668C15.4341 9.65508 15.4348 9.65349 15.4355 9.65189C15.4362 9.6503 15.4369 9.64871 15.4376 9.64711C15.4382 9.64552 15.4389 9.64393 15.4396 9.64233C15.4403 9.64074 15.441 9.63914 15.4417 9.63755C15.4424 9.63596 15.4431 9.63436 15.4437 9.63277C15.4444 9.63118 15.4451 9.62958 15.4458 9.62799C15.4465 9.62639 15.4472 9.6248 15.4479 9.62321C15.4486 9.62161 15.4492 9.62002 15.4499 9.61843C15.4506 9.61683 15.4513 9.61524 15.452 9.61364C15.4527 9.61205 15.4534 9.61046 15.4541 9.60886C15.4548 9.60727 15.4554 9.60568 15.4561 9.60408L14.5379 9.20799ZM13.4819 11.656L12.5572 11.2752C12.2226 12.0879 11.8961 12.8683 11.5778 13.6164L12.4979 14.008L13.4181 14.3995C13.7397 13.6437 14.0692 12.8561 14.4066 12.0367L13.4819 11.656ZM12.4979 14.008L11.5808 13.6093C11.2601 14.347 10.9868 14.9819 10.7613 15.5134L11.6819 15.904L12.6025 16.2945C12.825 15.7701 13.0957 15.141 13.415 14.4067L12.4979 14.008ZM11.6819 15.904V14.904H9.06591V15.904V16.904H11.6819V15.904ZM9.06591 15.904L9.9865 15.5134C9.76098 14.9819 9.48774 14.347 9.16698 13.6093L8.24991 14.008L7.33284 14.4067C7.65209 15.141 7.92284 15.7701 8.14533 16.2945L9.06591 15.904ZM8.24991 14.008L9.17007 13.6164C8.84937 12.8628 8.51272 12.0773 8.16012 11.2599L7.24191 11.656L6.3237 12.0521C6.67511 12.8667 7.01046 13.6492 7.32976 14.3995L8.24991 14.008ZM7.24191 11.656L8.16659 11.2752C7.82846 10.4541 7.48231 9.63296 7.12812 8.8119L6.20991 9.20799L5.2917 9.60408C5.64152 10.415 5.98336 11.2259 6.31723 12.0367L7.24191 11.656ZM6.20991 9.20799L7.12812 8.8119C6.77637 7.99648 6.45669 7.25321 6.16906 6.58207L5.24991 6.97599L4.33077 7.36991C4.61914 8.04277 4.93945 8.78751 5.2917 9.60408L6.20991 9.20799ZM5.24991 6.97599L4.25331 6.89363C4.09222 8.84281 3.97137 10.7763 3.89079 12.694L4.88991 12.736L5.88903 12.778C5.96845 10.8877 6.0876 8.98117 6.24652 7.05836L5.24991 6.97599ZM4.88991 12.736L3.89079 12.694C3.81065 14.6014 3.74649 16.3656 3.69835 17.9863L4.69791 18.016L5.69747 18.0457C5.74533 16.4344 5.80917 14.6786 5.88903 12.778L4.88991 12.736ZM4.69791 18.016V17.016H1.04991V18.016V19.016H4.69791V18.016ZM1.04991 18.016L2.04873 18.0647C2.11263 16.7546 2.18455 15.3562 2.26447 13.8697L1.26591 13.816L0.267355 13.7623C0.187278 15.2517 0.115191 16.6534 0.0511006 17.9673L1.04991 18.016ZM1.26591 13.816L2.26384 13.8804C2.35982 12.3926 2.45581 10.9128 2.55179 9.44107L1.55391 9.37599L0.556033 9.31091C0.460017 10.7831 0.364002 12.2634 0.267988 13.7516L1.26591 13.816ZM1.55391 9.37599L2.55109 9.45105C2.66267 7.96871 2.78215 6.55095 2.90951 5.19769L1.91391 5.10399L0.918313 5.01029C0.789678 6.37703 0.66916 7.80728 0.556734 9.30093L1.55391 9.37599ZM1.91391 5.10399L2.90848 5.20807C3.05142 3.84225 3.20185 2.61568 3.35957 1.52742L2.36991 1.38399L1.38025 1.24056C1.21797 2.3603 1.06441 3.61373 0.919344 4.99991L1.91391 5.10399ZM2.36991 1.38399V2.38399H5.94591V1.38399V0.383991H2.36991V1.38399ZM24.269 1.38399V0.383991H23.269V1.38399H24.269ZM28.013 1.38399H29.013V0.383991H28.013V1.38399ZM28.013 18.016V19.016H29.013V18.016H28.013ZM24.269 18.016H23.269V19.016H24.269V18.016ZM24.269 1.38399V2.38399H28.013V1.38399V0.383991H24.269V1.38399ZM28.013 1.38399H27.013V18.016H28.013H29.013V1.38399H28.013ZM28.013 18.016V17.016H24.269V18.016V19.016H28.013V18.016ZM24.269 18.016H25.269V1.38399H24.269H23.269V18.016H24.269ZM38.8947 15.04L39.1263 16.0128L39.1422 16.009L39.1578 16.0048L38.8947 15.04ZM39.7347 14.68L40.3039 15.5022L40.3246 15.4879L40.3444 15.4726L39.7347 14.68ZM40.1667 14.128L41.1001 14.487V14.487L40.1667 14.128ZM39.5187 12.088L38.9351 12.9L38.9436 12.9061L38.9522 12.912L39.5187 12.088ZM36.8787 10.912L36.5459 11.855L36.5542 11.8579L36.5625 11.8607L36.8787 10.912ZM35.2467 10.264L34.8209 11.1688L34.8319 11.174L34.8431 11.1789L35.2467 10.264ZM33.7827 9.32799L33.1184 10.0754L33.1262 10.0824L33.1343 10.0892L33.7827 9.32799ZM32.7267 7.95999L31.8322 8.40724L31.8377 8.41795L32.7267 7.95999ZM32.7507 3.92799L33.6545 4.3561L33.6587 4.34705L32.7507 3.92799ZM33.9747 2.34399L33.3415 1.57003V1.57003L33.9747 2.34399ZM35.8947 1.35999L36.1802 2.31838L36.1895 2.3156L36.1988 2.31265L35.8947 1.35999ZM41.3427 1.35999L41.0606 2.31936V2.31936L41.3427 1.35999ZM43.3587 2.15199L44.2978 2.49557L44.5938 1.68659L43.8376 1.2741L43.3587 2.15199ZM42.2787 5.10399L41.8193 5.99221L42.8278 6.51382L43.2178 5.44757L42.2787 5.10399ZM40.7187 4.47999L40.3944 5.42594L40.4104 5.43141L40.4265 5.43634L40.7187 4.47999ZM36.7347 4.57599L37.2648 5.42404L37.2738 5.41826L36.7347 4.57599ZM36.3747 6.47199L37.1969 5.90278V5.90278L36.3747 6.47199ZM36.9747 7.04799L36.4082 7.87203L36.4373 7.89203L36.4677 7.90993L36.9747 7.04799ZM37.8867 7.50399L37.4928 8.42314L37.5186 8.43419L37.545 8.44378L37.8867 7.50399ZM39.0387 7.91199L39.386 6.97424L39.376 6.97051L39.3658 6.967L39.0387 7.91199ZM41.2947 8.87199L40.8475 9.76642L40.8565 9.77094L40.8657 9.77527L41.2947 8.87199ZM42.8787 9.95199L42.1716 10.6591L42.1783 10.6658L42.1851 10.6723L42.8787 9.95199ZM42.5187 17.08L43.1335 17.8688L43.1406 17.8631L42.5187 17.08ZM35.6067 18.208L35.7668 17.2209L35.7537 17.2188L35.7406 17.217L35.6067 18.208ZM34.0227 17.896L33.748 18.8576L33.7568 18.86L34.0227 17.896ZM32.8467 17.488L32.4364 18.3999L32.4445 18.4036L32.4528 18.4071L32.8467 17.488ZM32.0307 17.08L31.0883 16.7456L30.8087 17.5335L31.5346 17.9482L32.0307 17.08ZM33.0867 14.104L33.5676 13.2272L32.5373 12.6622L32.1443 13.7696L33.0867 14.104ZM34.9107 14.848L34.6137 15.8028L34.6262 15.8067L34.6388 15.8103L34.9107 14.848ZM37.5987 15.16V16.16C38.1683 16.16 38.6858 16.1177 39.1263 16.0128L38.8947 15.04L38.6631 14.0672C38.4317 14.1223 38.0851 14.16 37.5987 14.16V15.16ZM38.8947 15.04L39.1578 16.0048C39.5751 15.891 39.9714 15.7324 40.3039 15.5022L39.7347 14.68L39.1655 13.8578C39.0821 13.9156 38.9184 13.997 38.6316 14.0752L38.8947 15.04ZM39.7347 14.68L40.3444 15.4726C40.6719 15.2207 40.9432 14.8949 41.1001 14.487L40.1667 14.128L39.2334 13.769C39.2303 13.7771 39.2135 13.8193 39.125 13.8874L39.7347 14.68ZM40.1667 14.128L41.1001 14.487C41.2302 14.1487 41.2867 13.7927 41.2867 13.432H40.2867H39.2867C39.2867 13.5833 39.2633 13.6913 39.2334 13.769L40.1667 14.128ZM40.2867 13.432H41.2867C41.2867 12.5079 40.8239 11.7717 40.0853 11.2639L39.5187 12.088L38.9522 12.912C39.2376 13.1082 39.2867 13.2681 39.2867 13.432H40.2867ZM39.5187 12.088L40.1024 11.276C39.4604 10.8146 38.4582 10.3844 37.195 9.96331L36.8787 10.912L36.5625 11.8607C37.7953 12.2716 38.553 12.6254 38.9351 12.9L39.5187 12.088ZM36.8787 10.912L37.2115 9.969C36.6922 9.78571 36.1718 9.57913 35.6504 9.34907L35.2467 10.264L34.8431 11.1789C35.4096 11.4289 35.9772 11.6543 36.5459 11.855L36.8787 10.912ZM35.2467 10.264L35.6725 9.35917C35.204 9.1387 34.7918 8.87391 34.4312 8.56675L33.7827 9.32799L33.1343 10.0892C33.6377 10.5181 34.2014 10.8773 34.8209 11.1688L35.2467 10.264ZM33.7827 9.32799L34.4471 8.58058C34.1097 8.28068 33.8329 7.92362 33.6157 7.50203L32.7267 7.95999L31.8377 8.41795C32.1646 9.05236 32.5918 9.6073 33.1184 10.0754L33.7827 9.32799ZM32.7267 7.95999L33.6212 7.51278C33.4344 7.13926 33.3187 6.64446 33.3187 5.99199H32.3187H31.3187C31.3187 6.87552 31.4751 7.69272 31.8323 8.4072L32.7267 7.95999ZM32.3187 5.99199H33.3187C33.3187 5.35107 33.4383 4.81252 33.6545 4.35608L32.7507 3.92799L31.847 3.4999C31.4872 4.25946 31.3187 5.09691 31.3187 5.99199H32.3187ZM32.7507 3.92799L33.6587 4.34705C33.8837 3.85958 34.1981 3.45326 34.608 3.11795L33.9747 2.34399L33.3415 1.57003C32.6953 2.09872 32.1938 2.7484 31.8428 3.50893L32.7507 3.92799ZM33.9747 2.34399L34.608 3.11795C35.0192 2.78151 35.5363 2.51018 36.1802 2.31838L35.8947 1.35999L35.6092 0.401606C34.7492 0.657801 33.9863 1.04247 33.3415 1.57003L33.9747 2.34399ZM35.8947 1.35999L36.1988 2.31265C36.8354 2.10946 37.5783 1.99999 38.4387 1.99999V0.99999V-9.53674e-06C37.4111 -9.53674e-06 36.458 0.130516 35.5907 0.407331L35.8947 1.35999ZM38.4387 0.99999V1.99999C39.4915 1.99999 40.3599 2.11328 41.0606 2.31936L41.3427 1.35999L41.6249 0.400625C40.6936 0.126703 39.6259 -9.53674e-06 38.4387 -9.53674e-06V0.99999ZM41.3427 1.35999L41.0606 2.31936C41.8339 2.54682 42.4341 2.78675 42.8799 3.02989L43.3587 2.15199L43.8376 1.2741C43.2273 0.941236 42.4835 0.653162 41.6249 0.400625L41.3427 1.35999ZM43.3587 2.15199L42.4196 1.80841L41.3396 4.76041L42.2787 5.10399L43.2178 5.44757L44.2978 2.49557L43.3587 2.15199ZM42.2787 5.10399L42.7381 4.21577C42.2132 3.94425 41.6361 3.71465 41.0109 3.52364L40.7187 4.47999L40.4265 5.43634C40.9534 5.59733 41.4163 5.78373 41.8193 5.99221L42.2787 5.10399ZM40.7187 4.47999L41.0431 3.53405C40.3492 3.29616 39.5529 3.19199 38.6787 3.19199V4.19199V5.19199C39.4045 5.19199 39.9682 5.27983 40.3944 5.42594L40.7187 4.47999ZM38.6787 4.19199V3.19199C37.7351 3.19199 36.8453 3.31796 36.1957 3.73372L36.7347 4.57599L37.2738 5.41826C37.4242 5.32202 37.8304 5.19199 38.6787 5.19199V4.19199ZM36.7347 4.57599L36.2047 3.72799C35.4858 4.17734 35.1587 4.90057 35.1587 5.70399H36.1587H37.1587C37.1587 5.57287 37.183 5.51307 37.1933 5.49277C37.201 5.47782 37.2147 5.45522 37.2647 5.42399L36.7347 4.57599ZM36.1587 5.70399H35.1587C35.1587 6.16961 35.2711 6.63462 35.5525 7.0412L36.3747 6.47199L37.1969 5.90278C37.1904 5.89336 37.1587 5.84637 37.1587 5.70399H36.1587ZM36.3747 6.47199L35.5525 7.0412C35.7793 7.36881 36.0743 7.64246 36.4082 7.87203L36.9747 7.04799L37.5413 6.22395C37.3632 6.10152 37.2581 5.99118 37.1969 5.90278L36.3747 6.47199ZM36.9747 7.04799L36.4677 7.90993C36.7813 8.09441 37.1239 8.26502 37.4928 8.42314L37.8867 7.50399L38.2806 6.58485C37.9776 6.45496 37.7121 6.32157 37.4817 6.18606L36.9747 7.04799ZM37.8867 7.50399L37.545 8.44378C37.9026 8.57383 38.2915 8.71157 38.7116 8.85698L39.0387 7.91199L39.3658 6.967C38.9539 6.82441 38.5749 6.69016 38.2285 6.5642L37.8867 7.50399ZM39.0387 7.91199L38.6914 8.84974C39.5305 9.1605 40.2477 9.4665 40.8475 9.76642L41.2947 8.87199L41.7419 7.97756C41.0618 7.63748 40.275 7.30348 39.386 6.97424L39.0387 7.91199ZM41.2947 8.87199L40.8657 9.77527C41.4229 10.04 41.851 10.3385 42.1716 10.6591L42.8787 9.95199L43.5858 9.24488C43.0744 8.73349 42.4465 8.31202 41.7238 7.96871L41.2947 8.87199ZM42.8787 9.95199L42.1851 10.6723C42.5094 10.9846 42.7458 11.3455 42.9013 11.7642L43.8387 11.416L44.7762 11.0678C44.5156 10.3665 44.1121 9.75141 43.5724 9.23167L42.8787 9.95199ZM43.8387 11.416L42.9013 11.7642C43.0565 12.1821 43.1507 12.737 43.1507 13.456H44.1507H45.1507C45.1507 12.575 45.0369 11.7699 44.7762 11.0678L43.8387 11.416ZM44.1507 13.456H43.1507C43.1507 14.7436 42.7159 15.6465 41.8968 16.2969L42.5187 17.08L43.1406 17.8631C44.4976 16.7855 45.1507 15.2724 45.1507 13.456H44.1507ZM42.5187 17.08L41.904 16.2913C41.0685 16.9425 39.6904 17.352 37.5987 17.352V18.352V19.352C39.8911 19.352 41.793 18.9135 43.1335 17.8687L42.5187 17.08ZM37.5987 18.352V17.352C36.9048 17.352 36.2956 17.3066 35.7668 17.2209L35.6067 18.208L35.4467 19.1951C36.1019 19.3013 36.8207 19.352 37.5987 19.352V18.352ZM35.6067 18.208L35.7406 17.217C35.1831 17.1417 34.7005 17.0456 34.2887 16.932L34.0227 17.896L33.7568 18.86C34.273 19.0024 34.8464 19.1143 35.4728 19.199L35.6067 18.208ZM34.0227 17.896L34.2974 16.9345C33.8796 16.8151 33.529 16.6924 33.2406 16.5688L32.8467 17.488L32.4528 18.4071C32.8364 18.5715 33.2698 18.7209 33.748 18.8575L34.0227 17.896ZM32.8467 17.488L33.2571 16.5761C32.9567 16.4409 32.7151 16.3193 32.5269 16.2117L32.0307 17.08L31.5346 17.9482C31.7943 18.0967 32.0967 18.2471 32.4364 18.3999L32.8467 17.488ZM32.0307 17.08L32.9732 17.4144L34.0292 14.4384L33.0867 14.104L32.1443 13.7696L31.0883 16.7456L32.0307 17.08ZM33.0867 14.104L32.6059 14.9808C33.176 15.2934 33.8496 15.5651 34.6137 15.8028L34.9107 14.848L35.2078 13.8931C34.5319 13.6828 33.9894 13.4585 33.5676 13.2272L33.0867 14.104ZM34.9107 14.848L34.6388 15.8103C35.4897 16.0508 36.483 16.16 37.5987 16.16V15.16V14.16C36.6025 14.16 35.8038 14.0612 35.1827 13.8857L34.9107 14.848ZM54.0635 15.04L54.2951 16.0128L54.3109 16.009L54.3266 16.0048L54.0635 15.04ZM54.9035 14.68L55.4727 15.5022L55.4933 15.4879L55.5132 15.4726L54.9035 14.68ZM55.3355 14.128L56.2688 14.487V14.487L55.3355 14.128ZM54.6875 12.088L54.1038 12.9L54.1123 12.9061L54.1209 12.912L54.6875 12.088ZM52.0475 10.912L51.7147 11.855L51.7229 11.8579L51.7312 11.8607L52.0475 10.912ZM50.4155 10.264L49.9897 11.1688L50.0007 11.174L50.0118 11.1789L50.4155 10.264ZM48.9515 9.32799L48.2871 10.0754L48.295 10.0824L48.303 10.0892L48.9515 9.32799ZM47.8955 7.95999L47.001 8.40724L47.0065 8.41795L47.8955 7.95999ZM47.9195 3.92799L48.8233 4.3561L48.8274 4.34705L47.9195 3.92799ZM49.1435 2.34399L48.5102 1.57003H48.5102L49.1435 2.34399ZM51.0635 1.35999L51.3489 2.31838L51.3583 2.3156L51.3675 2.31265L51.0635 1.35999ZM56.5115 1.35999L56.2293 2.31936V2.31936L56.5115 1.35999ZM58.5275 2.15199L59.4666 2.49557L59.7626 1.68659L59.0063 1.2741L58.5275 2.15199ZM57.4475 5.10399L56.9881 5.99221L57.9965 6.51382L58.3866 5.44757L57.4475 5.10399ZM55.8875 4.47999L55.5631 5.42594L55.5791 5.43141L55.5953 5.43634L55.8875 4.47999ZM51.9035 4.57599L52.4335 5.42404L52.4425 5.41826L51.9035 4.57599ZM51.5435 6.47199L52.3657 5.90278V5.90278L51.5435 6.47199ZM52.1435 7.04799L51.5769 7.87203L51.606 7.89203L51.6365 7.90993L52.1435 7.04799ZM53.0555 7.50399L52.6616 8.42314L52.6874 8.43419L52.7137 8.44378L53.0555 7.50399ZM54.2075 7.91199L54.5548 6.97424L54.5447 6.97051L54.5346 6.967L54.2075 7.91199ZM56.4635 8.87199L56.0163 9.76642L56.0253 9.77094L56.0344 9.77527L56.4635 8.87199ZM58.0475 9.95199L57.3404 10.6591L57.347 10.6658L57.3538 10.6723L58.0475 9.95199ZM57.6875 17.08L58.3022 17.8688L58.3094 17.8631L57.6875 17.08ZM50.7755 18.208L50.9355 17.2209L50.9225 17.2188L50.9094 17.217L50.7755 18.208ZM49.1915 17.896L48.9167 18.8576L48.9255 18.86L49.1915 17.896ZM48.0155 17.488L47.6051 18.3999L47.6133 18.4036L47.6216 18.4071L48.0155 17.488ZM47.1995 17.08L46.257 16.7456L45.9775 17.5335L46.7033 17.9482L47.1995 17.08ZM48.2555 14.104L48.7363 13.2272L47.706 12.6622L47.313 13.7696L48.2555 14.104ZM50.0795 14.848L49.7824 15.8028L49.7949 15.8067L49.8075 15.8103L50.0795 14.848ZM52.7675 15.16V16.16C53.3371 16.16 53.8545 16.1177 54.2951 16.0128L54.0635 15.04L53.8319 14.0672C53.6004 14.1223 53.2539 14.16 52.7675 14.16V15.16ZM54.0635 15.04L54.3266 16.0048C54.7438 15.891 55.1401 15.7324 55.4727 15.5022L54.9035 14.68L54.3343 13.8578C54.2508 13.9156 54.0871 13.997 53.8004 14.0752L54.0635 15.04ZM54.9035 14.68L55.5132 15.4726C55.8407 15.2207 56.1119 14.8949 56.2688 14.487L55.3355 14.128L54.4021 13.769C54.399 13.7771 54.3823 13.8193 54.2938 13.8874L54.9035 14.68ZM55.3355 14.128L56.2688 14.487C56.3989 14.1487 56.4555 13.7927 56.4555 13.432H55.4555H54.4555C54.4555 13.5833 54.432 13.6913 54.4021 13.769L55.3355 14.128ZM55.4555 13.432H56.4555C56.4555 12.5079 55.9926 11.7717 55.254 11.2639L54.6875 12.088L54.1209 12.912C54.4063 13.1082 54.4555 13.2681 54.4555 13.432H55.4555ZM54.6875 12.088L55.2711 11.276C54.6292 10.8146 53.6269 10.3844 52.3637 9.96331L52.0475 10.912L51.7312 11.8607C52.964 12.2716 53.7218 12.6254 54.1038 12.9L54.6875 12.088ZM52.0475 10.912L52.3803 9.969C51.861 9.78571 51.3406 9.57913 50.8191 9.34907L50.4155 10.264L50.0118 11.1789C50.5784 11.4289 51.146 11.6543 51.7147 11.855L52.0475 10.912ZM50.4155 10.264L50.8413 9.35917C50.3728 9.1387 49.9605 8.87391 49.5999 8.56675L48.9515 9.32799L48.303 10.0892C48.8064 10.5181 49.3702 10.8773 49.9897 11.1688L50.4155 10.264ZM48.9515 9.32799L49.6158 8.58058C49.2784 8.28068 49.0016 7.92362 48.7844 7.50203L47.8955 7.95999L47.0065 8.41795C47.3333 9.05236 47.7605 9.6073 48.2871 10.0754L48.9515 9.32799ZM47.8955 7.95999L48.7899 7.51278C48.6031 7.13926 48.4875 6.64446 48.4875 5.99199H47.4875H46.4875C46.4875 6.87552 46.6438 7.69272 47.001 8.4072L47.8955 7.95999ZM47.4875 5.99199H48.4875C48.4875 5.35107 48.607 4.81252 48.8232 4.35608L47.9195 3.92799L47.0157 3.4999C46.6559 4.25946 46.4875 5.09691 46.4875 5.99199H47.4875ZM47.9195 3.92799L48.8274 4.34705C49.0524 3.85958 49.3669 3.45326 49.7767 3.11795L49.1435 2.34399L48.5102 1.57003C47.8641 2.09872 47.3625 2.7484 47.0115 3.50893L47.9195 3.92799ZM49.1435 2.34399L49.7767 3.11795C50.1879 2.78151 50.705 2.51018 51.3489 2.31838L51.0635 1.35999L50.778 0.401606C49.9179 0.657801 49.155 1.04247 48.5102 1.57003L49.1435 2.34399ZM51.0635 1.35999L51.3675 2.31265C52.0042 2.10946 52.7471 1.99999 53.6075 1.99999V0.99999V-9.53674e-06C52.5799 -9.53674e-06 51.6268 0.130516 50.7594 0.407331L51.0635 1.35999ZM53.6075 0.99999V1.99999C54.6603 1.99999 55.5286 2.11328 56.2293 2.31936L56.5115 1.35999L56.7936 0.400625C55.8623 0.126703 54.7947 -9.53674e-06 53.6075 -9.53674e-06V0.99999ZM56.5115 1.35999L56.2293 2.31936C57.0027 2.54682 57.6029 2.78675 58.0486 3.02989L58.5275 2.15199L59.0063 1.2741C58.3961 0.941236 57.6523 0.653162 56.7936 0.400625L56.5115 1.35999ZM58.5275 2.15199L57.5884 1.80841L56.5084 4.76041L57.4475 5.10399L58.3866 5.44757L59.4666 2.49557L58.5275 2.15199ZM57.4475 5.10399L57.9069 4.21577C57.3819 3.94425 56.8048 3.71465 56.1797 3.52364L55.8875 4.47999L55.5953 5.43634C56.1221 5.59733 56.585 5.78373 56.9881 5.99221L57.4475 5.10399ZM55.8875 4.47999L56.2118 3.53405C55.518 3.29616 54.7217 3.19199 53.8475 3.19199V4.19199V5.19199C54.5733 5.19199 55.137 5.27983 55.5631 5.42594L55.8875 4.47999ZM53.8475 4.19199V3.19199C52.9038 3.19199 52.014 3.31796 51.3644 3.73372L51.9035 4.57599L52.4425 5.41826C52.5929 5.32202 52.9991 5.19199 53.8475 5.19199V4.19199ZM51.9035 4.57599L51.3735 3.72799C50.6545 4.17734 50.3275 4.90057 50.3275 5.70399H51.3275H52.3275C52.3275 5.57287 52.3517 5.51307 52.3621 5.49277C52.3697 5.47782 52.3835 5.45522 52.4335 5.42399L51.9035 4.57599ZM51.3275 5.70399H50.3275C50.3275 6.16961 50.4398 6.63462 50.7213 7.0412L51.5435 6.47199L52.3657 5.90278C52.3591 5.89336 52.3275 5.84637 52.3275 5.70399H51.3275ZM51.5435 6.47199L50.7213 7.0412C50.9481 7.36881 51.243 7.64246 51.5769 7.87203L52.1435 7.04799L52.71 6.22395C52.5319 6.10152 52.4269 5.99118 52.3657 5.90278L51.5435 6.47199ZM52.1435 7.04799L51.6365 7.90993C51.9501 8.09441 52.2926 8.26502 52.6616 8.42314L53.0555 7.50399L53.4494 6.58485C53.1463 6.45496 52.8809 6.32157 52.6505 6.18606L52.1435 7.04799ZM53.0555 7.50399L52.7137 8.44378C53.0713 8.57383 53.4603 8.71157 53.8804 8.85698L54.2075 7.91199L54.5346 6.967C54.1227 6.82441 53.7436 6.69016 53.3972 6.5642L53.0555 7.50399ZM54.2075 7.91199L53.8602 8.84974C54.6992 9.1605 55.4164 9.4665 56.0163 9.76642L56.4635 8.87199L56.9107 7.97756C56.2305 7.63748 55.4437 7.30348 54.5548 6.97424L54.2075 7.91199ZM56.4635 8.87199L56.0344 9.77527C56.5917 10.04 57.0198 10.3385 57.3404 10.6591L58.0475 9.95199L58.7546 9.24488C58.2432 8.73349 57.6153 8.31202 56.8925 7.96871L56.4635 8.87199ZM58.0475 9.95199L57.3538 10.6723C57.6781 10.9846 57.9146 11.3455 58.07 11.7642L59.0075 11.416L59.9449 11.0678C59.6844 10.3665 59.2808 9.75141 58.7411 9.23167L58.0475 9.95199ZM59.0075 11.416L58.07 11.7642C58.2253 12.1821 58.3195 12.737 58.3195 13.456H59.3195H60.3195C60.3195 12.575 60.2057 11.7699 59.9449 11.0678L59.0075 11.416ZM59.3195 13.456H58.3195C58.3195 14.7436 57.8846 15.6465 57.0656 16.2969L57.6875 17.08L58.3094 17.8631C59.6663 16.7855 60.3195 15.2724 60.3195 13.456H59.3195ZM57.6875 17.08L57.0727 16.2913C56.2372 16.9425 54.8591 17.352 52.7675 17.352V18.352V19.352C55.0598 19.352 56.9617 18.9135 58.3022 17.8687L57.6875 17.08ZM52.7675 18.352V17.352C52.0735 17.352 51.4643 17.3066 50.9355 17.2209L50.7755 18.208L50.6154 19.1951C51.2706 19.3013 51.9894 19.352 52.7675 19.352V18.352ZM50.7755 18.208L50.9094 17.217C50.3518 17.1417 49.8692 17.0456 49.4574 16.932L49.1915 17.896L48.9255 18.86C49.4417 19.0024 50.0151 19.1143 50.6416 19.199L50.7755 18.208ZM49.1915 17.896L49.4662 16.9345C49.0484 16.8151 48.6978 16.6924 48.4094 16.5688L48.0155 17.488L47.6216 18.4071C48.0052 18.5715 48.4386 18.7209 48.9168 18.8575L49.1915 17.896ZM48.0155 17.488L48.4258 16.5761C48.1255 16.4409 47.8839 16.3193 47.6956 16.2117L47.1995 17.08L46.7033 17.9482C46.9631 18.0967 47.2655 18.2471 47.6051 18.3999L48.0155 17.488ZM47.1995 17.08L48.1419 17.4144L49.1979 14.4384L48.2555 14.104L47.313 13.7696L46.257 16.7456L47.1995 17.08ZM48.2555 14.104L47.7746 14.9808C48.3448 15.2934 49.0183 15.5651 49.7824 15.8028L50.0795 14.848L50.3765 13.8931C49.7006 13.6828 49.1582 13.4585 48.7363 13.2272L48.2555 14.104ZM50.0795 14.848L49.8075 15.8103C50.6584 16.0508 51.6517 16.16 52.7675 16.16V15.16V14.16C51.7712 14.16 50.9725 14.0612 50.3514 13.8857L50.0795 14.848Z" fill="#3B5EDA" mask="url(#path-1-outside-1_33_121)"/>
<defs>
<linearGradient id="paint0_linear_33_121" x1="26.7899" y1="-4.98401" x2="27.3558" y2="32.0073" gradientUnits="userSpaceOnUse">
<stop stop-color="#78C7FF"/>
<stop offset="1" stop-color="#75A3F2"/>
</linearGradient>
</defs>
</svg>
