<svg width="110" height="20" viewBox="0 0 110 20" fill="none" xmlns="http://www.w3.org/2000/svg">
<mask id="path-1-outside-1_33_119" maskUnits="userSpaceOnUse" x="-0.177979" y="-0.984009" width="110" height="21" fill="black">
<rect fill="white" x="-0.177979" y="-0.984009" width="110" height="21"/>
<path d="M5.99199 1.19199C8.47199 1.19199 10.376 1.63199 11.704 2.51199C13.032 3.37599 13.696 4.79999 13.696 6.78399C13.696 8.78399 13.024 10.232 11.68 11.128C10.336 12.008 8.41599 12.448 5.91999 12.448H4.74399V18.016H0.999991V1.62399C1.81599 1.46399 2.67999 1.35199 3.59199 1.28799C4.50399 1.22399 5.30399 1.19199 5.99199 1.19199ZM6.23199 4.38399C5.95999 4.38399 5.68799 4.39199 5.41599 4.40799C5.15999 4.42399 4.93599 4.43999 4.74399 4.45599V9.25599H5.91999C7.21599 9.25599 8.19199 9.07999 8.84799 8.72799C9.50399 8.37599 9.83199 7.71999 9.83199 6.75999C9.83199 6.29599 9.74399 5.91199 9.56799 5.60799C9.40799 5.30399 9.16799 5.06399 8.84799 4.88799C8.54399 4.69599 8.16799 4.56799 7.71999 4.50399C7.27199 4.42399 6.77599 4.38399 6.23199 4.38399ZM17.1653 18.016V1.38399H28.3973V4.52799H20.9093V7.79199H27.5573V10.864H20.9093V14.872H28.9493V18.016H17.1653ZM37.312 1.19199C39.808 1.19199 41.72 1.63999 43.048 2.53599C44.376 3.41599 45.04 4.79199 45.04 6.66399C45.04 7.83199 44.768 8.78399 44.224 9.51999C43.696 10.24 42.928 10.808 41.92 11.224C42.256 11.64 42.608 12.12 42.976 12.664C43.344 13.192 43.704 13.752 44.056 14.344C44.424 14.92 44.776 15.528 45.112 16.168C45.448 16.792 45.76 17.408 46.048 18.016H41.848C41.544 17.472 41.232 16.92 40.912 16.36C40.608 15.8 40.288 15.256 39.952 14.728C39.632 14.2 39.312 13.704 38.992 13.24C38.672 12.76 38.352 12.328 38.032 11.944H36.184V18.016H32.44V1.62399C33.256 1.46399 34.096 1.35199 34.96 1.28799C35.84 1.22399 36.624 1.19199 37.312 1.19199ZM37.528 4.38399C37.256 4.38399 37.008 4.39199 36.784 4.40799C36.576 4.42399 36.376 4.43999 36.184 4.45599V8.96799H37.24C38.648 8.96799 39.656 8.79199 40.264 8.43999C40.872 8.08799 41.176 7.48799 41.176 6.63999C41.176 5.82399 40.864 5.24799 40.24 4.91199C39.632 4.55999 38.728 4.38399 37.528 4.38399ZM49.1678 18.016V1.38399H60.3038V4.52799H52.9118V8.00799H59.4878V11.152H52.9118V18.016H49.1678ZM63.6691 18.016V1.38399H74.9011V4.52799H67.4131V7.79199H74.0611V10.864H67.4131V14.872H75.4531V18.016H63.6691ZM86.5277 18.352C83.8237 18.352 81.7597 17.6 80.3357 16.096C78.9277 14.592 78.2237 12.456 78.2237 9.68799C78.2237 8.31199 78.4397 7.08799 78.8717 6.01599C79.3037 4.92799 79.8957 4.01599 80.6477 3.27999C81.3997 2.52799 82.2957 1.95999 83.3357 1.57599C84.3757 1.19199 85.5037 0.99999 86.7197 0.99999C87.4237 0.99999 88.0637 1.05599 88.6397 1.16799C89.2157 1.26399 89.7197 1.38399 90.1517 1.52799C90.5837 1.65599 90.9437 1.79199 91.2317 1.93599C91.5197 2.07999 91.7277 2.19199 91.8557 2.27199L90.7757 5.29599C90.2637 5.02399 89.6637 4.79199 88.9757 4.59999C88.3037 4.40799 87.5357 4.31199 86.6717 4.31199C86.0957 4.31199 85.5277 4.40799 84.9677 4.59999C84.4237 4.79199 83.9357 5.10399 83.5037 5.53599C83.0877 5.95199 82.7517 6.49599 82.4957 7.16799C82.2397 7.83999 82.1117 8.65599 82.1117 9.61599C82.1117 10.384 82.1917 11.104 82.3517 11.776C82.5277 12.432 82.7997 13 83.1677 13.48C83.5517 13.96 84.0477 14.344 84.6557 14.632C85.2637 14.904 85.9997 15.04 86.8637 15.04C87.4077 15.04 87.8957 15.008 88.3277 14.944C88.7597 14.88 89.1437 14.808 89.4797 14.728C89.8157 14.632 90.1117 14.528 90.3677 14.416C90.6237 14.304 90.8557 14.2 91.0637 14.104L92.0957 17.104C91.5677 17.424 90.8237 17.712 89.8637 17.968C88.9037 18.224 87.7917 18.352 86.5277 18.352ZM108.078 1.38399V4.57599H103.062V18.016H99.3179V4.57599H94.3019V1.38399H108.078Z"/>
</mask>
<path d="M5.99199 1.19199C8.47199 1.19199 10.376 1.63199 11.704 2.51199C13.032 3.37599 13.696 4.79999 13.696 6.78399C13.696 8.78399 13.024 10.232 11.68 11.128C10.336 12.008 8.41599 12.448 5.91999 12.448H4.74399V18.016H0.999991V1.62399C1.81599 1.46399 2.67999 1.35199 3.59199 1.28799C4.50399 1.22399 5.30399 1.19199 5.99199 1.19199ZM6.23199 4.38399C5.95999 4.38399 5.68799 4.39199 5.41599 4.40799C5.15999 4.42399 4.93599 4.43999 4.74399 4.45599V9.25599H5.91999C7.21599 9.25599 8.19199 9.07999 8.84799 8.72799C9.50399 8.37599 9.83199 7.71999 9.83199 6.75999C9.83199 6.29599 9.74399 5.91199 9.56799 5.60799C9.40799 5.30399 9.16799 5.06399 8.84799 4.88799C8.54399 4.69599 8.16799 4.56799 7.71999 4.50399C7.27199 4.42399 6.77599 4.38399 6.23199 4.38399ZM17.1653 18.016V1.38399H28.3973V4.52799H20.9093V7.79199H27.5573V10.864H20.9093V14.872H28.9493V18.016H17.1653ZM37.312 1.19199C39.808 1.19199 41.72 1.63999 43.048 2.53599C44.376 3.41599 45.04 4.79199 45.04 6.66399C45.04 7.83199 44.768 8.78399 44.224 9.51999C43.696 10.24 42.928 10.808 41.92 11.224C42.256 11.64 42.608 12.12 42.976 12.664C43.344 13.192 43.704 13.752 44.056 14.344C44.424 14.92 44.776 15.528 45.112 16.168C45.448 16.792 45.76 17.408 46.048 18.016H41.848C41.544 17.472 41.232 16.92 40.912 16.36C40.608 15.8 40.288 15.256 39.952 14.728C39.632 14.2 39.312 13.704 38.992 13.24C38.672 12.76 38.352 12.328 38.032 11.944H36.184V18.016H32.44V1.62399C33.256 1.46399 34.096 1.35199 34.96 1.28799C35.84 1.22399 36.624 1.19199 37.312 1.19199ZM37.528 4.38399C37.256 4.38399 37.008 4.39199 36.784 4.40799C36.576 4.42399 36.376 4.43999 36.184 4.45599V8.96799H37.24C38.648 8.96799 39.656 8.79199 40.264 8.43999C40.872 8.08799 41.176 7.48799 41.176 6.63999C41.176 5.82399 40.864 5.24799 40.24 4.91199C39.632 4.55999 38.728 4.38399 37.528 4.38399ZM49.1678 18.016V1.38399H60.3038V4.52799H52.9118V8.00799H59.4878V11.152H52.9118V18.016H49.1678ZM63.6691 18.016V1.38399H74.9011V4.52799H67.4131V7.79199H74.0611V10.864H67.4131V14.872H75.4531V18.016H63.6691ZM86.5277 18.352C83.8237 18.352 81.7597 17.6 80.3357 16.096C78.9277 14.592 78.2237 12.456 78.2237 9.68799C78.2237 8.31199 78.4397 7.08799 78.8717 6.01599C79.3037 4.92799 79.8957 4.01599 80.6477 3.27999C81.3997 2.52799 82.2957 1.95999 83.3357 1.57599C84.3757 1.19199 85.5037 0.99999 86.7197 0.99999C87.4237 0.99999 88.0637 1.05599 88.6397 1.16799C89.2157 1.26399 89.7197 1.38399 90.1517 1.52799C90.5837 1.65599 90.9437 1.79199 91.2317 1.93599C91.5197 2.07999 91.7277 2.19199 91.8557 2.27199L90.7757 5.29599C90.2637 5.02399 89.6637 4.79199 88.9757 4.59999C88.3037 4.40799 87.5357 4.31199 86.6717 4.31199C86.0957 4.31199 85.5277 4.40799 84.9677 4.59999C84.4237 4.79199 83.9357 5.10399 83.5037 5.53599C83.0877 5.95199 82.7517 6.49599 82.4957 7.16799C82.2397 7.83999 82.1117 8.65599 82.1117 9.61599C82.1117 10.384 82.1917 11.104 82.3517 11.776C82.5277 12.432 82.7997 13 83.1677 13.48C83.5517 13.96 84.0477 14.344 84.6557 14.632C85.2637 14.904 85.9997 15.04 86.8637 15.04C87.4077 15.04 87.8957 15.008 88.3277 14.944C88.7597 14.88 89.1437 14.808 89.4797 14.728C89.8157 14.632 90.1117 14.528 90.3677 14.416C90.6237 14.304 90.8557 14.2 91.0637 14.104L92.0957 17.104C91.5677 17.424 90.8237 17.712 89.8637 17.968C88.9037 18.224 87.7917 18.352 86.5277 18.352ZM108.078 1.38399V4.57599H103.062V18.016H99.3179V4.57599H94.3019V1.38399H108.078Z" fill="url(#paint0_linear_33_119)"/>
<path d="M11.704 2.51199L11.1516 3.34561L11.1586 3.3502L11.704 2.51199ZM11.68 11.128L12.2278 11.9646L12.2347 11.96L11.68 11.128ZM4.74399 12.448V11.448H3.74399V12.448H4.74399ZM4.74399 18.016V19.016H5.74399V18.016H4.74399ZM0.99999 18.016H-9.53674e-06V19.016H0.99999V18.016ZM0.99999 1.62399L0.807576 0.642677L-9.53674e-06 0.801027V1.62399H0.99999ZM5.41599 4.40799L5.35727 3.40971L5.35361 3.40994L5.41599 4.40799ZM4.74399 4.45599L4.66094 3.45945L3.74399 3.53586V4.45599H4.74399ZM4.74399 9.25599H3.74399V10.256H4.74399V9.25599ZM8.84799 8.72799L8.37517 7.84683H8.37517L8.84799 8.72799ZM9.56799 5.60799L8.68307 6.07374L8.69246 6.09158L8.70256 6.10903L9.56799 5.60799ZM8.84799 4.88799L8.314 5.73348L8.33957 5.74963L8.36607 5.7642L8.84799 4.88799ZM7.71999 4.50399L7.5442 5.48842L7.56134 5.49148L7.57857 5.49394L7.71999 4.50399ZM5.99199 1.19199V2.19199C8.37658 2.19199 10.0551 2.61899 11.1516 3.34558L11.704 2.51199L12.2564 1.6784C10.6969 0.644995 8.5674 0.19199 5.99199 0.19199V1.19199ZM11.704 2.51199L11.1586 3.3502C12.1303 3.98234 12.696 5.04119 12.696 6.78399H13.696H14.696C14.696 4.5588 13.9337 2.76964 12.2493 1.67378L11.704 2.51199ZM13.696 6.78399H12.696C12.696 8.54019 12.1234 9.63057 11.1253 10.2959L11.68 11.128L12.2347 11.96C13.9246 10.8334 14.696 9.02779 14.696 6.78399H13.696ZM11.68 11.128L11.1322 10.2914C10.018 11.0209 8.32091 11.448 5.91999 11.448V12.448V13.448C8.51108 13.448 10.654 12.9951 12.2278 11.9646L11.68 11.128ZM5.91999 12.448V11.448H4.74399V12.448V13.448H5.91999V12.448ZM4.74399 12.448H3.74399V18.016H4.74399H5.74399V12.448H4.74399ZM4.74399 18.016V17.016H0.99999V18.016V19.016H4.74399V18.016ZM0.99999 18.016H1.99999V1.62399H0.99999H-9.53674e-06V18.016H0.99999ZM0.99999 1.62399L1.1924 2.6053C1.96422 2.45397 2.7871 2.34693 3.66199 2.28554L3.59199 1.28799L3.52199 0.290443C2.57289 0.357048 1.66776 0.474014 0.807576 0.642677L0.99999 1.62399ZM3.59199 1.28799L3.66199 2.28554C4.55775 2.22268 5.33348 2.19199 5.99199 2.19199V1.19199V0.19199C5.2745 0.19199 4.45023 0.225304 3.52199 0.290443L3.59199 1.28799ZM6.23199 4.38399V3.38399C5.94037 3.38399 5.64879 3.39257 5.35727 3.40972L5.41599 4.40799L5.47471 5.40627C5.72719 5.39141 5.97961 5.38399 6.23199 5.38399V4.38399ZM5.41599 4.40799L5.35361 3.40994C5.09282 3.42624 4.86164 3.44272 4.66094 3.45945L4.74399 4.45599L4.82704 5.45254C5.01034 5.43726 5.22716 5.42174 5.47837 5.40604L5.41599 4.40799ZM4.74399 4.45599H3.74399V9.25599H4.74399H5.74399V4.45599H4.74399ZM4.74399 9.25599V10.256H5.91999V9.25599V8.25599H4.74399V9.25599ZM5.91999 9.25599V10.256C7.27522 10.256 8.44839 10.0773 9.32081 9.60915L8.84799 8.72799L8.37517 7.84683C7.93559 8.08271 7.15676 8.25599 5.91999 8.25599V9.25599ZM8.84799 8.72799L9.32081 9.60915C10.3982 9.03104 10.832 7.96379 10.832 6.75999H9.83199H8.83199C8.83199 7.47619 8.60979 7.72094 8.37517 7.84683L8.84799 8.72799ZM9.83199 6.75999H10.832C10.832 6.17483 10.7215 5.6045 10.4334 5.10695L9.56799 5.60799L8.70256 6.10903C8.76651 6.21948 8.83199 6.41716 8.83199 6.75999H9.83199ZM9.56799 5.60799L10.4529 5.14224C10.1958 4.65376 9.81017 4.27592 9.32991 4.01178L8.84799 4.88799L8.36607 5.7642C8.52581 5.85206 8.62017 5.95422 8.68307 6.07374L9.56799 5.60799ZM8.84799 4.88799L9.38198 4.0425C8.93216 3.7584 8.41405 3.59299 7.86141 3.51404L7.71999 4.50399L7.57857 5.49394C7.92193 5.54299 8.15582 5.63358 8.314 5.73348L8.84799 4.88799ZM7.71999 4.50399L7.89578 3.51956C7.37983 3.42743 6.82391 3.38399 6.23199 3.38399V4.38399V5.38399C6.72807 5.38399 7.16415 5.42055 7.5442 5.48842L7.71999 4.50399ZM17.1653 18.016H16.1653V19.016H17.1653V18.016ZM17.1653 1.38399V0.383991H16.1653V1.38399H17.1653ZM28.3973 1.38399H29.3973V0.383991H28.3973V1.38399ZM28.3973 4.52799V5.52799H29.3973V4.52799H28.3973ZM20.9093 4.52799V3.52799H19.9093V4.52799H20.9093ZM20.9093 7.79199H19.9093V8.79199H20.9093V7.79199ZM27.5573 7.79199H28.5573V6.79199H27.5573V7.79199ZM27.5573 10.864V11.864H28.5573V10.864H27.5573ZM20.9093 10.864V9.86399H19.9093V10.864H20.9093ZM20.9093 14.872H19.9093V15.872H20.9093V14.872ZM28.9493 14.872H29.9493V13.872H28.9493V14.872ZM28.9493 18.016V19.016H29.9493V18.016H28.9493ZM17.1653 18.016H18.1653V1.38399H17.1653H16.1653V18.016H17.1653ZM17.1653 1.38399V2.38399H28.3973V1.38399V0.383991H17.1653V1.38399ZM28.3973 1.38399H27.3973V4.52799H28.3973H29.3973V1.38399H28.3973ZM28.3973 4.52799V3.52799H20.9093V4.52799V5.52799H28.3973V4.52799ZM20.9093 4.52799H19.9093V7.79199H20.9093H21.9093V4.52799H20.9093ZM20.9093 7.79199V8.79199H27.5573V7.79199V6.79199H20.9093V7.79199ZM27.5573 7.79199H26.5573V10.864H27.5573H28.5573V7.79199H27.5573ZM27.5573 10.864V9.86399H20.9093V10.864V11.864H27.5573V10.864ZM20.9093 10.864H19.9093V14.872H20.9093H21.9093V10.864H20.9093ZM20.9093 14.872V15.872H28.9493V14.872V13.872H20.9093V14.872ZM28.9493 14.872H27.9493V18.016H28.9493H29.9493V14.872H28.9493ZM28.9493 18.016V17.016H17.1653V18.016V19.016H28.9493V18.016ZM43.048 2.53599L42.4887 3.36498L42.4956 3.36958L43.048 2.53599ZM44.224 9.51999L43.4198 8.9256L43.4176 8.92863L44.224 9.51999ZM41.92 11.224L41.5385 10.2996L40.3006 10.8105L41.1421 11.8523L41.92 11.224ZM42.976 12.664L42.1476 13.2244L42.1556 13.2358L42.976 12.664ZM44.056 14.344L43.1965 14.8551L43.2047 14.8689L43.2133 14.8824L44.056 14.344ZM45.112 16.168L44.2265 16.6329L44.2315 16.6421L45.112 16.168ZM46.048 18.016V19.016H47.6282L46.9517 17.5879L46.048 18.016ZM41.848 18.016L40.975 18.5038L41.2613 19.016H41.848V18.016ZM40.912 16.36L40.0331 16.8371L40.0383 16.8467L40.0437 16.8561L40.912 16.36ZM39.952 14.728L39.0968 15.2463L39.1025 15.2556L39.1083 15.2649L39.952 14.728ZM38.992 13.24L38.1599 13.7947L38.1643 13.8012L38.1688 13.8077L38.992 13.24ZM38.032 11.944L38.8002 11.3038L38.5004 10.944H38.032V11.944ZM36.184 11.944V10.944H35.184V11.944H36.184ZM36.184 18.016V19.016H37.184V18.016H36.184ZM32.44 18.016H31.44V19.016H32.44V18.016ZM32.44 1.62399L32.2476 0.642677L31.44 0.801027V1.62399H32.44ZM34.96 1.28799L34.8875 0.290625L34.8861 0.290722L34.96 1.28799ZM36.784 4.40799L36.7127 3.41052L36.7073 3.41094L36.784 4.40799ZM36.184 4.45599L36.1009 3.45945L35.184 3.53586V4.45599H36.184ZM36.184 8.96799H35.184V9.96799H36.184V8.96799ZM40.264 8.43999L39.763 7.57456V7.57456L40.264 8.43999ZM40.24 4.91199L39.739 5.77742L39.7523 5.78515L39.7659 5.79246L40.24 4.91199ZM37.312 1.19199V2.19199C39.7116 2.19199 41.3945 2.62668 42.4887 3.36495L43.048 2.53599L43.6073 1.70703C42.0455 0.653297 39.9044 0.19199 37.312 0.19199V1.19199ZM43.048 2.53599L42.4956 3.36958C43.4918 4.0297 44.04 5.05935 44.04 6.66399H45.04H46.04C46.04 4.52463 45.2602 2.80228 43.6004 1.7024L43.048 2.53599ZM45.04 6.66399H44.04C44.04 7.67749 43.8053 8.40404 43.4198 8.9256L44.224 9.51999L45.0282 10.1144C45.7307 9.16395 46.04 7.98649 46.04 6.66399H45.04ZM44.224 9.51999L43.4176 8.92863C43.0197 9.47114 42.4145 9.93808 41.5385 10.2996L41.92 11.224L42.3015 12.1484C43.4414 11.6779 44.3722 11.0088 45.0304 10.1114L44.224 9.51999ZM41.92 11.224L41.1421 11.8523C41.4569 12.2421 41.7921 12.6986 42.1477 13.2243L42.976 12.664L43.8043 12.1037C43.4239 11.5413 43.0551 11.0379 42.6979 10.5957L41.92 11.224ZM42.976 12.664L42.1556 13.2358C42.5089 13.7427 42.8559 14.2823 43.1965 14.8551L44.056 14.344L44.9155 13.8329C44.5521 13.2216 44.1791 12.6413 43.7964 12.0922L42.976 12.664ZM44.056 14.344L43.2133 14.8824C43.5652 15.4332 43.903 16.0165 44.2266 16.6328L45.112 16.168L45.9974 15.7032C45.649 15.0395 45.2828 14.4068 44.8987 13.8056L44.056 14.344ZM45.112 16.168L44.2315 16.6421C44.5598 17.2518 44.864 17.8524 45.1443 18.4441L46.048 18.016L46.9517 17.5879C46.656 16.9636 46.3362 16.3322 45.9925 15.6939L45.112 16.168ZM46.048 18.016V17.016H41.848V18.016V19.016H46.048V18.016ZM41.848 18.016L42.7209 17.5282C42.4153 16.9813 42.1018 16.4265 41.7802 15.8639L40.912 16.36L40.0437 16.8561C40.3622 17.4135 40.6727 17.9627 40.975 18.5038L41.848 18.016ZM40.912 16.36L41.7908 15.8829C41.476 15.3029 41.1443 14.739 40.7957 14.1911L39.952 14.728L39.1083 15.2649C39.4317 15.773 39.74 16.297 40.0331 16.8371L40.912 16.36ZM39.952 14.728L40.8072 14.2097C40.478 13.6665 40.1473 13.1539 39.8152 12.6723L38.992 13.24L38.1688 13.8077C38.4766 14.2541 38.786 14.7335 39.0968 15.2463L39.952 14.728ZM38.992 13.24L39.824 12.6853C39.4872 12.1801 39.1461 11.7189 38.8002 11.3038L38.032 11.944L37.2638 12.5842C37.5578 12.9371 37.8568 13.3399 38.1599 13.7947L38.992 13.24ZM38.032 11.944V10.944H36.184V11.944V12.944H38.032V11.944ZM36.184 11.944H35.184V18.016H36.184H37.184V11.944H36.184ZM36.184 18.016V17.016H32.44V18.016V19.016H36.184V18.016ZM32.44 18.016H33.44V1.62399H32.44H31.44V18.016H32.44ZM32.44 1.62399L32.6324 2.6053C33.4076 2.4533 34.208 2.34643 35.0339 2.28526L34.96 1.28799L34.8861 0.290722C33.984 0.357548 33.1043 0.474686 32.2476 0.642677L32.44 1.62399ZM34.96 1.28799L35.0325 2.28536C35.8947 2.22265 36.6538 2.19199 37.312 2.19199V1.19199V0.19199C36.5942 0.19199 35.7852 0.22533 34.8875 0.290625L34.96 1.28799ZM37.528 4.38399V3.38399C37.237 3.38399 36.9648 3.39253 36.7127 3.41053L36.784 4.40799L36.8552 5.40545C37.0512 5.39145 37.275 5.38399 37.528 5.38399V4.38399ZM36.784 4.40799L36.7073 3.41094C36.4973 3.42709 36.2952 3.44325 36.1009 3.45945L36.184 4.45599L36.267 5.45254C36.4568 5.43673 36.6546 5.42089 36.8607 5.40504L36.784 4.40799ZM36.184 4.45599H35.184V8.96799H36.184H37.184V4.45599H36.184ZM36.184 8.96799V9.96799H37.24V8.96799V7.96799H36.184V8.96799ZM37.24 8.96799V9.96799C38.6799 9.96799 39.9157 9.79711 40.765 9.30542L40.264 8.43999L39.763 7.57456C39.3962 7.78687 38.6161 7.96799 37.24 7.96799V8.96799ZM40.264 8.43999L40.765 9.30542C41.7504 8.73493 42.176 7.75781 42.176 6.63999H41.176H40.176C40.176 7.21817 39.9936 7.44105 39.763 7.57456L40.264 8.43999ZM41.176 6.63999H42.176C42.176 5.52362 41.7174 4.57176 40.7141 4.03152L40.24 4.91199L39.7659 5.79246C40.0106 5.92422 40.176 6.12436 40.176 6.63999H41.176ZM40.24 4.91199L40.741 4.04657C39.908 3.56428 38.7946 3.38399 37.528 3.38399V4.38399V5.38399C38.6614 5.38399 39.356 5.5557 39.739 5.77742L40.24 4.91199ZM49.1678 18.016H48.1678V19.016H49.1678V18.016ZM49.1678 1.38399V0.383991H48.1678V1.38399H49.1678ZM60.3038 1.38399H61.3038V0.383991H60.3038V1.38399ZM60.3038 4.52799V5.52799H61.3038V4.52799H60.3038ZM52.9118 4.52799V3.52799H51.9118V4.52799H52.9118ZM52.9118 8.00799H51.9118V9.00799H52.9118V8.00799ZM59.4878 8.00799H60.4878V7.00799H59.4878V8.00799ZM59.4878 11.152V12.152H60.4878V11.152H59.4878ZM52.9118 11.152V10.152H51.9118V11.152H52.9118ZM52.9118 18.016V19.016H53.9118V18.016H52.9118ZM49.1678 18.016H50.1678V1.38399H49.1678H48.1678V18.016H49.1678ZM49.1678 1.38399V2.38399H60.3038V1.38399V0.383991H49.1678V1.38399ZM60.3038 1.38399H59.3038V4.52799H60.3038H61.3038V1.38399H60.3038ZM60.3038 4.52799V3.52799H52.9118V4.52799V5.52799H60.3038V4.52799ZM52.9118 4.52799H51.9118V8.00799H52.9118H53.9118V4.52799H52.9118ZM52.9118 8.00799V9.00799H59.4878V8.00799V7.00799H52.9118V8.00799ZM59.4878 8.00799H58.4878V11.152H59.4878H60.4878V8.00799H59.4878ZM59.4878 11.152V10.152H52.9118V11.152V12.152H59.4878V11.152ZM52.9118 11.152H51.9118V18.016H52.9118H53.9118V11.152H52.9118ZM52.9118 18.016V17.016H49.1678V18.016V19.016H52.9118V18.016ZM63.6691 18.016H62.6691V19.016H63.6691V18.016ZM63.6691 1.38399V0.383991H62.6691V1.38399H63.6691ZM74.9011 1.38399H75.9011V0.383991H74.9011V1.38399ZM74.9011 4.52799V5.52799H75.9011V4.52799H74.9011ZM67.4131 4.52799V3.52799H66.4131V4.52799H67.4131ZM67.4131 7.79199H66.4131V8.79199H67.4131V7.79199ZM74.0611 7.79199H75.0611V6.79199H74.0611V7.79199ZM74.0611 10.864V11.864H75.0611V10.864H74.0611ZM67.4131 10.864V9.86399H66.4131V10.864H67.4131ZM67.4131 14.872H66.4131V15.872H67.4131V14.872ZM75.4531 14.872H76.4531V13.872H75.4531V14.872ZM75.4531 18.016V19.016H76.4531V18.016H75.4531ZM63.6691 18.016H64.6691V1.38399H63.6691H62.6691V18.016H63.6691ZM63.6691 1.38399V2.38399H74.9011V1.38399V0.383991H63.6691V1.38399ZM74.9011 1.38399H73.9011V4.52799H74.9011H75.9011V1.38399H74.9011ZM74.9011 4.52799V3.52799H67.4131V4.52799V5.52799H74.9011V4.52799ZM67.4131 4.52799H66.4131V7.79199H67.4131H68.4131V4.52799H67.4131ZM67.4131 7.79199V8.79199H74.0611V7.79199V6.79199H67.4131V7.79199ZM74.0611 7.79199H73.0611V10.864H74.0611H75.0611V7.79199H74.0611ZM74.0611 10.864V9.86399H67.4131V10.864V11.864H74.0611V10.864ZM67.4131 10.864H66.4131V14.872H67.4131H68.4131V10.864H67.4131ZM67.4131 14.872V15.872H75.4531V14.872V13.872H67.4131V14.872ZM75.4531 14.872H74.4531V18.016H75.4531H76.4531V14.872H75.4531ZM75.4531 18.016V17.016H63.6691V18.016V19.016H75.4531V18.016ZM80.3357 16.096L79.6057 16.7794L79.6096 16.7835L80.3357 16.096ZM78.8717 6.01599L79.7993 6.38977L79.8012 6.38502L78.8717 6.01599ZM80.6477 3.27999L81.3472 3.9947L81.3549 3.9871L80.6477 3.27999ZM83.3357 1.57599L82.9894 0.637894H82.9894L83.3357 1.57599ZM88.6397 1.16799L88.4489 2.14961L88.4621 2.15217L88.4753 2.15438L88.6397 1.16799ZM90.1517 1.52799L89.8355 2.47667L89.8515 2.482L89.8677 2.48679L90.1517 1.52799ZM91.8557 2.27199L92.7975 2.60833L93.0681 1.85049L92.3857 1.42399L91.8557 2.27199ZM90.7757 5.29599L90.3066 6.17911L91.3283 6.72192L91.7175 5.63233L90.7757 5.29599ZM88.9757 4.59999L88.701 5.56153L88.7069 5.56319L88.9757 4.59999ZM84.9677 4.59999L84.6434 3.65401L84.6349 3.657L84.9677 4.59999ZM83.5037 5.53599L82.7966 4.82888V4.82888L83.5037 5.53599ZM82.3517 11.776L81.3789 12.0076L81.3822 12.0214L81.3859 12.0351L82.3517 11.776ZM83.1677 13.48L82.3741 14.0884L82.3804 14.0966L82.3869 14.1047L83.1677 13.48ZM84.6557 14.632L84.2277 15.5357L84.2375 15.5404L84.2474 15.5448L84.6557 14.632ZM88.3277 14.944L88.1812 13.9548V13.9548L88.3277 14.944ZM89.4797 14.728L89.7114 15.7008L89.733 15.6956L89.7545 15.6895L89.4797 14.728ZM90.3677 14.416L90.7686 15.3321V15.3321L90.3677 14.416ZM91.0637 14.104L92.0094 13.7787L91.6494 12.7323L90.6447 13.196L91.0637 14.104ZM92.0957 17.104L92.614 17.9592L93.3037 17.5412L93.0414 16.7787L92.0957 17.104ZM89.8637 17.968L90.1214 18.9342L89.8637 17.968ZM86.5277 18.352V17.352C84.0103 17.352 82.244 16.657 81.0619 15.4085L80.3357 16.096L79.6096 16.7835C81.2755 18.543 83.6372 19.352 86.5277 19.352V18.352ZM80.3357 16.096L81.0658 15.4126C79.8837 14.1499 79.2237 12.2911 79.2237 9.68799H78.2237H77.2237C77.2237 12.6209 77.9718 15.034 79.6057 16.7794L80.3357 16.096ZM78.2237 9.68799H79.2237C79.2237 8.41617 79.4233 7.32264 79.7993 6.38977L78.8717 6.01599L77.9442 5.64221C77.4562 6.85334 77.2237 8.20781 77.2237 9.68799H78.2237ZM78.8717 6.01599L79.8012 6.38502C80.1874 5.41236 80.7059 4.62231 81.3472 3.99466L80.6477 3.27999L79.9483 2.56532C79.0856 3.40967 78.4201 4.44363 77.9423 5.64696L78.8717 6.01599ZM80.6477 3.27999L81.3549 3.9871C82.0004 3.3416 82.7717 2.85023 83.6821 2.51409L83.3357 1.57599L82.9894 0.637894C81.8197 1.06975 80.7991 1.71438 79.9406 2.57288L80.6477 3.27999ZM83.3357 1.57599L83.6821 2.51409C84.601 2.17481 85.6105 1.99999 86.7197 1.99999V0.99999V-9.53674e-06C85.397 -9.53674e-06 84.1505 0.209166 82.9894 0.637894L83.3357 1.57599ZM86.7197 0.99999V1.99999C87.3719 1.99999 87.9467 2.05197 88.4489 2.14961L88.6397 1.16799L88.8306 0.186375C88.1807 0.0600128 87.4756 -9.53674e-06 86.7197 -9.53674e-06V0.99999ZM88.6397 1.16799L88.4753 2.15438C89.0134 2.24406 89.4646 2.35304 89.8355 2.47667L90.1517 1.52799L90.468 0.579308C89.9749 0.41494 89.4181 0.283916 88.8041 0.181597L88.6397 1.16799ZM90.1517 1.52799L89.8677 2.48679C90.2639 2.60418 90.565 2.72065 90.7845 2.83042L91.2317 1.93599L91.679 1.04156C91.3225 0.863333 90.9036 0.707798 90.4358 0.569193L90.1517 1.52799ZM91.2317 1.93599L90.7845 2.83042C91.0684 2.97237 91.2405 3.06672 91.3257 3.11999L91.8557 2.27199L92.3857 1.42399C92.215 1.31726 91.971 1.18761 91.679 1.04156L91.2317 1.93599ZM91.8557 2.27199L90.914 1.93565L89.834 4.95965L90.7757 5.29599L91.7175 5.63233L92.7975 2.60833L91.8557 2.27199ZM90.7757 5.29599L91.2449 4.41288C90.6565 4.1003 89.9867 3.84391 89.2445 3.63679L88.9757 4.59999L88.7069 5.56319C89.3408 5.74008 89.871 5.94768 90.3066 6.17911L90.7757 5.29599ZM88.9757 4.59999L89.2505 3.63847C88.471 3.41576 87.6077 3.31199 86.6717 3.31199V4.31199V5.31199C87.4638 5.31199 88.1365 5.40022 88.701 5.56151L88.9757 4.59999ZM86.6717 4.31199V3.31199C85.9823 3.31199 85.3049 3.42726 84.6434 3.65405L84.9677 4.59999L85.2921 5.54594C85.7506 5.38872 86.2092 5.31199 86.6717 5.31199V4.31199ZM84.9677 4.59999L84.6349 3.657C83.9418 3.90161 83.3279 4.29767 82.7966 4.82888L83.5037 5.53599L84.2108 6.2431C84.5436 5.91031 84.9056 5.68237 85.3006 5.54298L84.9677 4.59999ZM83.5037 5.53599L82.7966 4.82888C82.2613 5.36418 81.8565 6.03686 81.5613 6.812L82.4957 7.16799L83.4302 7.52399C83.6469 6.95512 83.9141 6.5398 84.2109 6.2431L83.5037 5.53599ZM82.4957 7.16799L81.5613 6.812C81.2501 7.62873 81.1117 8.57267 81.1117 9.61599H82.1117H83.1117C83.1117 8.73931 83.2294 8.05126 83.4302 7.52399L82.4957 7.16799ZM82.1117 9.61599H81.1117C81.1117 10.4534 81.199 11.2518 81.3789 12.0076L82.3517 11.776L83.3245 11.5444C83.1845 10.9562 83.1117 10.3146 83.1117 9.61599H82.1117ZM82.3517 11.776L81.3859 12.0351C81.5917 12.8022 81.9172 13.4924 82.3741 14.0884L83.1677 13.48L83.9613 12.8716C83.6823 12.5076 83.4638 12.0618 83.3176 11.5169L82.3517 11.776ZM83.1677 13.48L82.3869 14.1047C82.8745 14.7142 83.4956 15.1889 84.2277 15.5357L84.6557 14.632L85.0838 13.7283C84.5999 13.499 84.229 13.2058 83.9486 12.8553L83.1677 13.48ZM84.6557 14.632L84.2474 15.5448C85.016 15.8887 85.8991 16.04 86.8637 16.04V15.04V14.04C86.1004 14.04 85.5115 13.9193 85.0641 13.7192L84.6557 14.632ZM86.8637 15.04V16.04C87.4454 16.04 87.9837 16.0059 88.4743 15.9332L88.3277 14.944L88.1812 13.9548C87.8078 14.0101 87.3701 14.04 86.8637 14.04V15.04ZM88.3277 14.944L88.4743 15.9332C88.9278 15.866 89.3411 15.789 89.7114 15.7008L89.4797 14.728L89.2481 13.7552C88.9464 13.827 88.5917 13.894 88.1812 13.9548L88.3277 14.944ZM89.4797 14.728L89.7545 15.6895C90.1233 15.5841 90.4629 15.4659 90.7686 15.3321L90.3677 14.416L89.9669 13.4998C89.7605 13.5901 89.5082 13.6799 89.205 13.7665L89.4797 14.728ZM90.3677 14.416L90.7686 15.3321C91.0294 15.218 91.2676 15.1113 91.4828 15.012L91.0637 14.104L90.6447 13.196C90.4439 13.2887 90.2181 13.3899 89.9669 13.4998L90.3677 14.416ZM91.0637 14.104L90.1181 14.4293L91.1501 17.4293L92.0957 17.104L93.0414 16.7787L92.0094 13.7787L91.0637 14.104ZM92.0957 17.104L91.5774 16.2488C91.1646 16.499 90.5229 16.7573 89.6061 17.0018L89.8637 17.968L90.1214 18.9342C91.1246 18.6667 91.9709 18.349 92.614 17.9592L92.0957 17.104ZM89.8637 17.968L89.6061 17.0018C88.7493 17.2302 87.7271 17.352 86.5277 17.352V18.352V19.352C87.8564 19.352 89.0582 19.2178 90.1214 18.9342L89.8637 17.968ZM108.078 1.38399H109.078V0.383991H108.078V1.38399ZM108.078 4.57599V5.57599H109.078V4.57599H108.078ZM103.062 4.57599V3.57599H102.062V4.57599H103.062ZM103.062 18.016V19.016H104.062V18.016H103.062ZM99.3179 18.016H98.3179V19.016H99.3179V18.016ZM99.3179 4.57599H100.318V3.57599H99.3179V4.57599ZM94.3019 4.57599H93.3019V5.57599H94.3019V4.57599ZM94.3019 1.38399V0.383991H93.3019V1.38399H94.3019ZM108.078 1.38399H107.078V4.57599H108.078H109.078V1.38399H108.078ZM108.078 4.57599V3.57599H103.062V4.57599V5.57599H108.078V4.57599ZM103.062 4.57599H102.062V18.016H103.062H104.062V4.57599H103.062ZM103.062 18.016V17.016H99.3179V18.016V19.016H103.062V18.016ZM99.3179 18.016H100.318V4.57599H99.3179H98.3179V18.016H99.3179ZM99.3179 4.57599V3.57599H94.3019V4.57599V5.57599H99.3179V4.57599ZM94.3019 4.57599H95.3019V1.38399H94.3019H93.3019V4.57599H94.3019ZM94.3019 1.38399V2.38399H108.078V1.38399V0.383991H94.3019V1.38399Z" fill="url(#paint1_linear_33_119)" mask="url(#path-1-outside-1_33_119)"/>
<defs>
<linearGradient id="paint0_linear_33_119" x1="20.0956" y1="-11.484" x2="79.3035" y2="31.578" gradientUnits="userSpaceOnUse">
<stop stop-color="#FFBD52"/>
<stop offset="0.302885" stop-color="#FF66FC"/>
<stop offset="0.663462" stop-color="#A743E3"/>
<stop offset="1" stop-color="#186DFA"/>
</linearGradient>
<linearGradient id="paint1_linear_33_119" x1="45.5201" y1="-4.98401" x2="75.9278" y2="28.6403" gradientUnits="userSpaceOnUse">
<stop stop-color="#F4FFCF"/>
<stop offset="1" stop-color="#D8FFEB"/>
</linearGradient>
</defs>
</svg>
