<svg width="454" height="178" viewBox="0 0 454 178" fill="none" xmlns="http://www.w3.org/2000/svg">
<g filter="url(#filter0_d_13_114)">
<path d="M182.428 76.1632L181.858 105.123L186.646 105.58C186.646 106.644 186.323 107.784 185.677 109H172.565L172.394 107.005C174.447 106.321 176.195 105.865 177.639 105.637C177.563 103.166 177.43 98.0734 177.24 90.3583C177.088 82.6432 176.955 76.6763 176.841 72.4577C175.397 72.2296 173.687 71.7736 171.71 71.0895L171.881 69.0942H183.169L203.977 102.33L203.008 72.4577C201.602 72.1916 199.91 71.7356 197.934 71.0895L198.105 69.0942H212.357C213.003 70.3104 213.326 71.4505 213.326 72.5147C211.426 72.6667 209.906 72.7427 208.766 72.7427L208.196 109H202.666L182.428 76.1632ZM229.982 106.264C233.174 106.264 235.321 105.275 236.424 103.299C237.564 101.285 238.134 98.4345 238.134 94.7479C238.134 88.8951 236.842 85.2275 234.257 83.7453C233.193 83.1372 231.692 82.8332 229.754 82.8332C227.853 82.8332 226.048 83.2322 224.338 84.0304C222.818 86.9568 222.057 90.3583 222.057 94.2348C222.057 97.9594 222.552 100.829 223.54 102.843C224.68 105.123 226.827 106.264 229.982 106.264ZM216.813 94.7479C216.813 89.9212 217.915 86.1587 220.119 83.4603C222.324 80.7239 225.725 79.3557 230.324 79.3557C234.922 79.3557 238.248 80.6099 240.3 83.1182C242.352 85.5886 243.379 89.2561 243.379 94.1208C243.379 98.9855 242.276 102.805 240.072 105.58C237.906 108.354 234.599 109.741 230.153 109.741C225.706 109.741 222.362 108.449 220.119 105.865C217.915 103.28 216.813 99.5746 216.813 94.7479ZM251.707 105.465L251.251 83.9734H246.861L246.69 81.9781C247.07 81.712 248.172 81.218 249.996 80.4958L254.671 73.1988C255.431 73.2748 256.02 73.4648 256.438 73.7689L256.381 80.0398C259.232 80.0398 261.569 80.2298 263.393 80.6099C263.393 81.636 263.07 82.7572 262.424 83.9734H256.267C256.191 88.534 256.115 95.451 256.039 104.724C258.168 104.838 260.296 105.218 262.424 105.865L262.367 107.86C261.835 108.202 260.467 108.601 258.263 109.057C256.096 109.513 254.31 109.741 252.904 109.741C252.714 109.437 252.467 108.791 252.163 107.803C251.859 106.777 251.707 105.998 251.707 105.465ZM281.787 105.808C283.46 105.808 286.082 105.009 289.655 103.413C290.377 104.401 290.757 105.275 290.795 106.036C288.857 107.176 286.956 108.069 285.094 108.715C283.232 109.361 281.902 109.684 281.103 109.684C276.695 109.684 273.331 108.373 271.013 105.751C268.695 103.09 267.535 99.3846 267.535 94.6339C267.535 89.8832 268.657 86.1587 270.899 83.4603C273.179 80.7239 276.581 79.3557 281.103 79.3557C284.6 79.3557 287.26 80.6099 289.085 83.1182C290.947 85.6266 291.878 88.9901 291.878 93.2087C291.574 93.7408 291.327 94.1018 291.137 94.2919L272.78 94.0068C272.818 97.8454 273.483 100.772 274.775 102.786C276.106 104.8 278.443 105.808 281.787 105.808ZM286.69 90.7573C286.69 88.249 286.234 86.3107 285.322 84.9425C284.41 83.5363 282.89 82.8332 280.761 82.8332C278.633 82.8332 276.733 83.2322 275.061 84.0304C273.92 86.3107 273.198 88.648 272.894 91.0424C275.897 91.0044 280.495 90.9094 286.69 90.7573ZM327.137 109.741C315.963 109.741 310.376 102.729 310.376 88.705C310.376 82.0541 311.725 76.9993 314.424 73.5408C317.16 70.0823 321.512 68.3531 327.479 68.3531C332.267 68.3531 336.524 69.6833 340.249 72.3437C340.249 74.472 339.983 77.1704 339.451 80.4388C338.918 80.5529 337.816 80.6099 336.144 80.6099L334.434 73.5408C331.735 73.0468 329.569 72.7997 327.935 72.7997C324.932 72.7997 322.291 73.2178 320.011 74.0539L318.928 74.453C318.699 74.833 318.414 75.4031 318.072 76.1632C317.73 76.8853 317.274 78.4245 316.704 80.7809C316.172 83.1372 315.906 85.5506 315.906 88.0209C315.906 93.3797 316.78 97.6363 318.528 100.791C320.315 103.945 323.146 105.522 327.023 105.522C329.797 105.522 331.887 105.237 333.294 104.667C333.674 104.477 334.225 104.192 334.947 103.812L336.144 96.9712L339.451 97.1423C340.021 101.057 340.306 104.23 340.306 106.663C339.508 107.271 337.778 107.936 335.118 108.658C332.495 109.38 329.835 109.741 327.137 109.741ZM362.472 84.1444C362.282 83.9544 361.864 83.8593 361.217 83.8593C360.571 83.8593 359.602 84.0874 358.31 84.5434C357.056 84.9995 355.916 85.5316 354.89 86.1397C354.661 94.5769 354.509 100.905 354.433 105.123L359.222 105.58C359.222 106.644 358.899 107.784 358.253 109H345.141L344.97 107.005C346.718 106.397 348.429 105.941 350.101 105.637C349.873 95.9831 349.683 88.8381 349.531 84.2014C347.44 84.0874 345.768 83.8593 344.514 83.5173L344.742 80.5529C346.756 79.9828 349.74 79.6977 353.692 79.6977C354.3 80.6479 354.68 81.864 354.833 83.3463C359.203 80.6859 361.807 79.3557 362.643 79.3557C363.479 79.3557 364.448 79.5267 365.55 79.8688C366.652 80.1728 367.469 80.5148 368.001 80.8949C368.001 84.6955 367.64 87.7929 366.918 90.1873C366.386 90.3393 365.759 90.4153 365.037 90.4153C364.353 90.4153 363.878 90.3963 363.612 90.3583L362.472 84.1444ZM393.497 90.3583L393.212 105.066C394.846 105.18 396.48 105.446 398.114 105.865L398 107.86C397.392 108.164 396.29 108.506 394.694 108.886C393.136 109.228 391.596 109.399 390.076 109.399C389.392 108.031 389.012 106.72 388.936 105.465C384.603 108.316 381.563 109.741 379.815 109.741C377.116 109.741 374.95 109.019 373.316 107.575C371.681 106.131 370.864 104.116 370.864 101.532C370.864 95.565 374.513 92.4866 381.81 92.2966C386.067 92.1825 388.214 92.1255 388.252 92.1255L388.195 90.1873C388.119 87.5649 387.625 85.6836 386.713 84.5434C385.8 83.3653 384.166 82.7762 381.81 82.7762C380.822 82.7762 379.758 83.0042 378.617 83.4603L377.249 89.1611C377.059 89.1991 376.736 89.2181 376.28 89.2181L373.943 89.0471C373.335 87.4129 373.012 85.1515 372.974 82.2631C373.696 81.883 375.349 81.313 377.933 80.5529C380.518 79.7547 382.171 79.3557 382.893 79.3557C386.77 79.3557 389.506 80.2108 391.102 81.9211C392.698 83.6313 393.497 86.4437 393.497 90.3583ZM381.069 105.865C382.171 105.865 384.717 104.629 388.708 102.159L388.423 95.033C385.838 95.261 383.672 95.47 381.924 95.6601C380.176 95.8501 378.769 96.3632 377.705 97.1993C376.641 97.9974 376.109 99.2706 376.109 101.019C376.109 104.249 377.762 105.865 381.069 105.865ZM420.351 75.5361L419.439 75.4791H419.211L417.444 69.8923C416.608 69.7403 415.866 69.6643 415.22 69.6643C413.358 69.6643 412.047 70.3864 411.287 71.8306C410.565 73.2748 410.204 75.8022 410.204 79.4127V80.0968H411.059C413.681 80.0968 415.695 80.2488 417.102 80.5529C417.14 80.5529 417.216 80.5719 417.33 80.6099C417.292 81.712 416.969 82.8332 416.361 83.9734H409.862V105.123H410.717C412.199 105.123 413.51 105.199 414.65 105.351C415.79 105.503 416.399 105.618 416.475 105.694C416.475 106.682 416.151 107.784 415.505 109H400.569L400.398 107.005C402.146 106.397 403.743 105.941 405.187 105.637V83.9734H400.797L400.626 81.9781C401.994 81.446 403.515 81.0279 405.187 80.7239V78.3865C405.187 74.0919 405.985 70.9565 407.581 68.9802C408.227 68.2201 409.139 67.593 410.318 67.0989C411.496 66.5668 412.864 66.3008 414.422 66.3008C417.463 66.3008 420.351 66.9659 423.087 68.2961C423.087 70.6524 422.859 73.0088 422.403 75.3651C421.985 75.4791 421.301 75.5361 420.351 75.5361ZM426.517 105.465L426.061 83.9734H421.672L421.501 81.9781C421.881 81.712 422.983 81.218 424.807 80.4958L429.482 73.1988C430.242 73.2748 430.831 73.4648 431.249 73.7689L431.192 80.0398C434.042 80.0398 436.38 80.2298 438.204 80.6099C438.204 81.636 437.881 82.7572 437.235 83.9734H431.078C431.002 88.534 430.926 95.451 430.85 104.724C432.978 104.838 435.107 105.218 437.235 105.865L437.178 107.86C436.646 108.202 435.278 108.601 433.073 109.057C430.907 109.513 429.121 109.741 427.715 109.741C427.524 109.437 427.277 108.791 426.973 107.803C426.669 106.777 426.517 105.998 426.517 105.465Z" fill="url(#paint0_linear_13_114)"/>
</g>
<g opacity="0.75">
<g filter="url(#filter1_f_13_114)">
<path d="M10.3593 45.9932C17.1202 47.9859 31.0222 54.8944 32.5432 66.5865C34.0643 78.2786 37.0866 122.306 35.6466 137.038C35.6136 141.919 36.913 133.166 35.6466 137.038C34.985 139.061 42.9024 150.623 47.7157 156.643C49.4896 149.934 48.0034 125.789 45.7337 101.77C61.7759 137.222 95.6652 162.306 140.736 151.259C100.747 140.213 65.3395 110.296 50.8152 54.4896C44.4081 43.0009 26.9398 36.248 10.3593 45.9932Z" fill="#0E2576"/>
<ellipse cx="26.0704" cy="153.911" rx="22.0936" ry="19.8842" transform="rotate(-9.86952 26.0704 153.911)" fill="#0E2576"/>
<path d="M156.307 136.294C149.547 134.302 135.645 127.393 134.123 115.701C132.602 104.009 129.58 59.9816 131.02 45.2492C131.053 40.3687 129.754 49.1212 131.02 45.2492C131.682 43.2263 123.764 31.6646 118.951 25.6444C117.177 32.3537 118.663 56.4986 120.933 80.5177C104.891 45.0652 71.0015 19.9813 25.9306 31.0281C65.92 42.0748 101.327 71.991 115.851 127.798C122.259 139.287 139.727 146.04 156.307 136.294Z" fill="#0E2576"/>
<ellipse cx="140.596" cy="28.3768" rx="22.0936" ry="19.8842" transform="rotate(170.13 140.596 28.3768)" fill="#0E2576"/>
<rect x="73.7925" y="91.1649" width="13.2561" height="13.2561" rx="1" transform="rotate(-45 73.7925 91.1649)" fill="#0E2576"/>
</g>
<g filter="url(#filter2_f_13_114)">
<path d="M10.3593 42.9932C17.1202 44.9859 31.0222 51.8944 32.5432 63.5865C34.0643 75.2786 37.0866 119.306 35.6466 134.038C35.6136 138.919 36.913 130.166 35.6466 134.038C34.985 136.061 42.9024 147.623 47.7157 153.643C49.4896 146.934 48.0034 122.789 45.7337 98.7698C61.7759 134.222 95.6652 159.306 140.736 148.259C100.747 137.213 65.3395 107.296 50.8152 51.4896C44.4081 40.0009 26.9398 33.248 10.3593 42.9932Z" fill="#0E2576"/>
<ellipse cx="26.0704" cy="150.911" rx="22.0936" ry="19.8842" transform="rotate(-9.86952 26.0704 150.911)" fill="#0E2576"/>
<path d="M156.307 133.294C149.547 131.302 135.645 124.393 134.123 112.701C132.602 101.009 129.58 56.9816 131.02 42.2492C131.053 37.3687 129.754 46.1212 131.02 42.2492C131.682 40.2263 123.764 28.6646 118.951 22.6444C117.177 29.3537 118.663 53.4986 120.933 77.5177C104.891 42.0652 71.0015 16.9813 25.9306 28.0281C65.92 39.0748 101.327 68.991 115.851 124.798C122.259 136.287 139.727 143.04 156.307 133.294Z" fill="#0E2576"/>
<ellipse cx="140.596" cy="25.3768" rx="22.0936" ry="19.8842" transform="rotate(170.13 140.596 25.3768)" fill="#0E2576"/>
<rect x="73.7925" y="88.1649" width="13.2561" height="13.2561" rx="1" transform="rotate(-45 73.7925 88.1649)" fill="#0E2576"/>
</g>
</g>
<path d="M11.3594 40.9932C18.1202 42.9859 32.0222 49.8944 33.5433 61.5865C35.0643 73.2786 38.0866 117.306 36.6467 132.038C36.6136 136.919 37.9131 128.166 36.6467 132.038C35.985 134.061 43.9024 145.623 48.7157 151.643C50.4897 144.934 49.0034 120.789 46.7338 96.7698C62.7759 132.222 96.6652 157.306 141.736 146.259C101.747 135.213 66.3396 105.296 51.8153 49.4896C45.4081 38.0009 27.9399 31.248 11.3594 40.9932Z" fill="url(#paint1_linear_13_114)"/>
<ellipse cx="27.0705" cy="148.911" rx="22.0936" ry="19.8842" transform="rotate(-9.86952 27.0705 148.911)" fill="url(#paint2_linear_13_114)"/>
<path d="M157.307 131.294C150.547 129.302 136.645 122.393 135.123 110.701C133.602 99.0089 130.58 54.9816 132.02 40.2492C132.053 35.3687 130.754 44.1212 132.02 40.2492C132.682 38.2263 124.764 26.6646 119.951 20.6444C118.177 27.3537 119.663 51.4986 121.933 75.5177C105.891 40.0652 72.0015 14.9813 26.9306 26.0281C66.92 37.0748 102.327 66.991 116.851 122.798C123.259 134.287 140.727 141.04 157.307 131.294Z" fill="url(#paint3_linear_13_114)"/>
<ellipse cx="141.596" cy="23.3768" rx="22.0936" ry="19.8842" transform="rotate(170.13 141.596 23.3768)" fill="url(#paint4_linear_13_114)"/>
<rect x="74.7926" y="86.1649" width="13.2561" height="13.2561" rx="1" transform="rotate(-45 74.7926 86.1649)" fill="url(#paint5_linear_13_114)"/>
<defs>
<filter id="filter0_d_13_114" x="171.21" y="65.8008" width="271.494" height="48.4403" filterUnits="userSpaceOnUse" color-interpolation-filters="sRGB">
<feFlood flood-opacity="0" result="BackgroundImageFix"/>
<feColorMatrix in="SourceAlpha" type="matrix" values="0 0 0 0 0 0 0 0 0 0 0 0 0 0 0 0 0 0 127 0" result="hardAlpha"/>
<feMorphology radius="1" operator="dilate" in="SourceAlpha" result="effect1_dropShadow_13_114"/>
<feOffset dx="2" dy="2"/>
<feGaussianBlur stdDeviation="0.75"/>
<feComposite in2="hardAlpha" operator="out"/>
<feColorMatrix type="matrix" values="0 0 0 0 0.054902 0 0 0 0 0.145098 0 0 0 0 0.462745 0 0 0 0.8 0"/>
<feBlend mode="normal" in2="BackgroundImageFix" result="effect1_dropShadow_13_114"/>
<feBlend mode="normal" in="SourceGraphic" in2="effect1_dropShadow_13_114" result="shape"/>
</filter>
<filter id="filter1_f_13_114" x="0.0354309" y="4.42053" width="166.596" height="173.446" filterUnits="userSpaceOnUse" color-interpolation-filters="sRGB">
<feFlood flood-opacity="0" result="BackgroundImageFix"/>
<feBlend mode="normal" in="SourceGraphic" in2="BackgroundImageFix" result="shape"/>
<feGaussianBlur stdDeviation="2" result="effect1_foregroundBlur_13_114"/>
</filter>
<filter id="filter2_f_13_114" x="0.0354309" y="1.42053" width="166.596" height="173.446" filterUnits="userSpaceOnUse" color-interpolation-filters="sRGB">
<feFlood flood-opacity="0" result="BackgroundImageFix"/>
<feBlend mode="normal" in="SourceGraphic" in2="BackgroundImageFix" result="shape"/>
<feGaussianBlur stdDeviation="2" result="effect1_foregroundBlur_13_114"/>
</filter>
<linearGradient id="paint0_linear_13_114" x1="300.259" y1="47.2286" x2="300.526" y2="124.124" gradientUnits="userSpaceOnUse">
<stop stop-color="#78C7FF"/>
<stop offset="0.514423" stop-color="#75A3F2"/>
<stop offset="1" stop-color="#274CCE"/>
</linearGradient>
<linearGradient id="paint1_linear_13_114" x1="75.7518" y1="49.6262" x2="72.1102" y2="171.191" gradientUnits="userSpaceOnUse">
<stop stop-color="#78C7FF"/>
<stop offset="0.514423" stop-color="#75A3F2"/>
<stop offset="1" stop-color="#274CCE"/>
</linearGradient>
<linearGradient id="paint2_linear_13_114" x1="25.4695" y1="132.104" x2="28.6899" y2="174.799" gradientUnits="userSpaceOnUse">
<stop stop-color="#78C7FF"/>
<stop offset="0.514423" stop-color="#75A3F2"/>
<stop offset="1" stop-color="#274CCE"/>
</linearGradient>
<linearGradient id="paint3_linear_13_114" x1="92.9149" y1="122.661" x2="96.5566" y2="1.09638" gradientUnits="userSpaceOnUse">
<stop stop-color="#78C7FF"/>
<stop offset="0.514423" stop-color="#75A3F2"/>
<stop offset="1" stop-color="#274CCE"/>
</linearGradient>
<linearGradient id="paint4_linear_13_114" x1="139.995" y1="6.57027" x2="143.216" y2="49.2648" gradientUnits="userSpaceOnUse">
<stop stop-color="#78C7FF"/>
<stop offset="0.514423" stop-color="#75A3F2"/>
<stop offset="1" stop-color="#274CCE"/>
</linearGradient>
<linearGradient id="paint5_linear_13_114" x1="80.9403" y1="87.1908" x2="82.1315" y2="101.403" gradientUnits="userSpaceOnUse">
<stop stop-color="#78C7FF"/>
<stop offset="0.514423" stop-color="#75A3F2"/>
<stop offset="1" stop-color="#274CCE"/>
</linearGradient>
</defs>
</svg>
