<svg width="24" height="24" viewBox="0 0 24 24" fill="none" xmlns="http://www.w3.org/2000/svg">
<path d="M22.8996 3.05774C22.5928 2.77505 22.2327 2.55625 21.8404 2.41411C21.4482 2.27196 21.0315 2.20931 20.6148 2.2298H18.9036C18.7236 1.69244 18.4059 1.21167 17.982 0.835497C17.6704 0.552631 17.3061 0.333921 16.91 0.191861C16.5138 0.0497999 16.0936 -0.0128283 15.6732 0.00755324H8.3748C7.9408 -0.0221318 7.50527 0.0358779 7.09417 0.178124C6.68307 0.320369 6.30483 0.543938 5.982 0.835497C5.56267 1.21046 5.25253 1.69181 5.0844 2.2286H3.3972C2.97467 2.2046 2.55161 2.2655 2.153 2.4077C1.75439 2.54991 1.38832 2.77053 1.0764 3.05655C0.753456 3.34845 0.491933 3.70179 0.307116 4.09592C0.122299 4.49005 0.0178928 4.91705 0 5.35199C0.0164867 6.90285 0.428264 8.42388 1.1964 9.77129C1.96952 11.1486 3.05551 12.3249 4.3668 13.2055L5.3844 13.8894L6.15 14.3574C6.78239 15.3438 7.63884 16.1669 8.6496 16.7596V18.8715H8.184C7.3272 18.8715 6.504 19.2146 5.8992 19.8218C5.29258 20.4302 4.95245 21.2546 4.9536 22.1136V22.5108C4.95244 22.7065 4.98989 22.9005 5.06381 23.0817C5.13774 23.2629 5.24668 23.4277 5.3844 23.5667C5.664 23.8451 6.0432 24.0011 6.4368 23.9999H17.5632C17.858 24.0031 18.1469 23.9171 18.3921 23.7533C18.6373 23.5895 18.8273 23.3555 18.9372 23.082C19.0116 22.902 19.0488 22.7064 19.0464 22.5108V22.1148C19.0464 21.2545 18.7068 20.4302 18.1008 19.823C17.4952 19.2167 16.6741 18.875 15.8172 18.8727H15.3492V16.7476C16.3648 16.1565 17.2259 15.3333 17.862 14.3454L18.6516 13.8654L19.6212 13.2055C20.9353 12.3196 22.025 11.1396 22.8036 9.75929C23.5749 8.39533 23.9866 6.85764 24 5.29079C23.9376 4.43167 23.5429 3.63067 22.8996 3.05774ZM2.7636 8.90375C2.17111 7.83791 1.85432 6.64095 1.842 5.42158C1.85987 5.13175 1.96354 4.85378 2.13983 4.62302C2.31611 4.39226 2.55705 4.21914 2.832 4.12567C3.0132 4.06568 3.2064 4.03928 3.3972 4.05368H4.9644V10.4648C4.9748 10.8072 5.0028 11.1472 5.0484 11.4848C4.11181 10.7973 3.33284 9.91653 2.7636 8.90375ZM15.4332 7.44105C15.3942 7.64236 15.2941 7.82674 15.1464 7.96901L14.3568 8.73696L14.5488 9.84088C14.579 10.0364 14.556 10.2365 14.4823 10.4202C14.4087 10.6038 14.287 10.7643 14.13 10.8848C13.9616 10.9954 13.768 11.0619 13.5672 11.078H13.4952C13.3198 11.0754 13.1476 11.0301 12.9936 10.946L12.012 10.43L11.0184 10.946C10.8444 11.0448 10.6438 11.0868 10.4448 11.066C10.2456 11.0556 10.0537 10.9878 9.89228 10.8707C9.73085 10.7536 9.60682 10.5922 9.5352 10.406C9.46091 10.2194 9.44014 10.0158 9.4752 9.81808L9.6552 8.71296L8.8656 7.94501C8.72021 7.80566 8.61989 7.62594 8.5776 7.42905C8.51323 7.23383 8.51323 7.02311 8.5776 6.82789C8.63212 6.64096 8.74581 6.47675 8.9016 6.35992C9.05185 6.22448 9.23898 6.13677 9.4392 6.10794L10.5168 5.95195L11.0304 4.93082C11.111 4.75392 11.2454 4.60695 11.4144 4.51085C11.5833 4.40629 11.778 4.35091 11.9766 4.35091C12.1752 4.35091 12.3699 4.40629 12.5388 4.51085C12.7137 4.60826 12.8523 4.75986 12.9336 4.94282L13.4352 5.95075L14.5488 6.10674C14.7427 6.14193 14.9236 6.22837 15.0728 6.35708C15.222 6.48579 15.334 6.65208 15.3972 6.83869C15.4724 7.02187 15.485 7.22474 15.4332 7.41585V7.44105ZM21.2604 8.90495C20.6814 9.91142 19.9041 10.7899 18.9756 11.4872C19.0212 11.1392 19.0492 10.7908 19.0596 10.442V4.05368H20.6616C20.8515 4.0405 21.042 4.06674 21.2213 4.13076C21.4006 4.19477 21.5646 4.29517 21.7032 4.42565C21.9756 4.66564 22.1472 5.00161 22.182 5.36279C22.1746 6.60183 21.8578 7.81939 21.2604 8.90495Z" fill="#C5CBE4"/>
</svg>
