<svg width="15" height="17" viewBox="0 0 15 17" fill="none" xmlns="http://www.w3.org/2000/svg">
<path d="M14.2009 2.12554V4.95406C14.2009 5.28515 14.0967 5.60784 13.9031 5.87645C13.7096 6.14506 13.4364 6.34599 13.1223 6.45077L9.46695 7.66976V13.0183C9.46689 13.8098 9.20235 14.5786 8.71534 15.2026C8.22834 15.8265 7.54681 16.2699 6.77901 16.4621C6.01121 16.6544 5.20117 16.5846 4.47758 16.2638C3.75398 15.9431 3.15833 15.3897 2.78523 14.6916C2.41214 13.9936 2.283 13.1909 2.41833 12.411C2.55366 11.6311 2.9457 10.9189 3.53218 10.3873C4.11865 9.85578 4.86592 9.53545 5.65529 9.47722C6.44466 9.41899 7.23085 9.62619 7.88897 10.0659V4.2921C7.88896 3.79535 8.04524 3.31119 8.33567 2.90819C8.62609 2.50519 9.03595 2.20378 9.50719 2.04664L12.6434 1.00202C12.8214 0.942748 13.0109 0.926621 13.1963 0.954967C13.3817 0.983312 13.5577 1.05532 13.7098 1.16505C13.8619 1.27478 13.9858 1.41909 14.0711 1.58608C14.1565 1.75308 14.201 1.93798 14.2009 2.12554ZM3.15504 0C3.31961 6.56654e-05 3.48005 0.0515953 3.61389 0.147375C3.74773 0.243154 3.84826 0.378389 3.90142 0.534146L4.00399 0.832384C4.12076 1.17461 4.31438 1.48554 4.57 1.74129C4.82562 1.99705 5.13645 2.19084 5.47861 2.30779L5.77685 2.40957C5.93243 2.46289 6.06747 2.56349 6.16307 2.69731C6.25868 2.83114 6.31007 2.99149 6.31007 3.15596C6.31007 3.32042 6.25868 3.48078 6.16307 3.6146C6.06747 3.74842 5.93243 3.84903 5.77685 3.90234L5.47861 4.00491C5.13638 4.12168 4.82546 4.3153 4.5697 4.57092C4.31394 4.82654 4.12015 5.13736 4.0032 5.47953L3.90142 5.77777C3.84811 5.93335 3.7475 6.06839 3.61368 6.16399C3.47986 6.2596 3.3195 6.31099 3.15504 6.31099C2.99057 6.31099 2.83022 6.2596 2.69639 6.16399C2.56257 6.06839 2.46197 5.93335 2.40865 5.77777L2.30608 5.47953C2.18932 5.1373 1.99569 4.82638 1.74007 4.57062C1.48445 4.31486 1.17363 4.12107 0.831463 4.00412L0.533225 3.90234C0.377641 3.84903 0.242606 3.74842 0.147001 3.6146C0.0513955 3.48078 0 3.32042 0 3.15596C0 2.99149 0.0513955 2.83114 0.147001 2.69731C0.242606 2.56349 0.377641 2.46289 0.533225 2.40957L0.831463 2.307C1.17369 2.19024 1.48462 1.99661 1.74037 1.74099C1.99613 1.48537 2.18992 1.17455 2.30687 0.832384L2.40865 0.534146C2.46181 0.378389 2.56235 0.243154 2.69618 0.147375C2.83002 0.0515953 2.99046 6.56654e-05 3.15504 0Z" fill="url(#paint0_linear_15_19)"/>
<defs>
<linearGradient id="paint0_linear_15_19" x1="7.10044" y1="0" x2="7.10044" y2="16.5685" gradientUnits="userSpaceOnUse">
<stop stop-color="#C9593D"/>
<stop offset="1" stop-color="#8441AC"/>
</linearGradient>
</defs>
</svg>
