<svg width="26" height="26" viewBox="0 0 26 26" fill="none" xmlns="http://www.w3.org/2000/svg">
<path fill-rule="evenodd" clip-rule="evenodd" d="M13 1.42835e-10C14.7072 -8.0023e-06 16.3976 0.33624 17.9749 0.989546C19.5521 1.64285 20.9852 2.60042 22.1924 3.80758C23.3995 5.01474 24.3571 6.44785 25.0104 8.02508C25.6637 9.60231 26 11.2928 26 13C26 20.1797 20.1797 26 13 26C5.82032 26 0 20.1797 0 13C0 5.82032 5.82032 1.42835e-10 13 1.42835e-10ZM14.3 14.3H11.7C8.48158 14.3 5.71849 16.2492 4.52674 19.0317C6.41239 21.6758 9.50484 23.4 13 23.4C16.4951 23.4 19.5876 21.6758 21.4733 19.0315C20.2815 16.2492 17.5184 14.3 14.3 14.3ZM13 3.9C10.8461 3.9 9.09997 5.6461 9.09997 7.79999C9.09997 9.95389 10.8461 11.7 13 11.7C15.1539 11.7 16.9 9.95389 16.9 7.79999C16.9 5.6461 15.1539 3.9 13 3.9Z" fill="#4F8BFB"/>
</svg>
