<svg width="17" height="30" viewBox="0 0 17 30" fill="none" xmlns="http://www.w3.org/2000/svg">
<mask id="path-1-outside-1_33_135" maskUnits="userSpaceOnUse" x="-0.928223" y="-0.166016" width="18" height="30" fill="black">
<rect fill="white" x="-0.928223" y="-0.166016" width="18" height="30"/>
<path d="M1.93295 6.97198C2.66762 6.66798 3.42762 6.32598 4.21295 5.94598C5.02362 5.54065 5.80895 5.10998 6.56895 4.65398C7.32895 4.17265 8.05095 3.67865 8.73495 3.17198C9.44428 2.63998 10.0776 2.08265 10.635 1.49998H14.587V27.834H8.92495V8.87198C8.16495 9.37865 7.31628 9.84732 6.37895 10.278C5.44162 10.6833 4.52962 11.038 3.64295 11.342L1.93295 6.97198Z"/>
</mask>
<path d="M1.93295 6.97198C2.66762 6.66798 3.42762 6.32598 4.21295 5.94598C5.02362 5.54065 5.80895 5.10998 6.56895 4.65398C7.32895 4.17265 8.05095 3.67865 8.73495 3.17198C9.44428 2.63998 10.0776 2.08265 10.635 1.49998H14.587V27.834H8.92495V8.87198C8.16495 9.37865 7.31628 9.84732 6.37895 10.278C5.44162 10.6833 4.52962 11.038 3.64295 11.342L1.93295 6.97198Z" fill="url(#paint0_linear_33_135)"/>
<path d="M1.93295 6.97198L1.35942 5.58596L-3.66569e-05 6.14849L0.536085 7.51858L1.93295 6.97198ZM4.21295 5.94598L4.86629 7.29622L4.87506 7.29198L4.88377 7.28762L4.21295 5.94598ZM6.56895 4.65398L7.34069 5.94022L7.35623 5.9309L7.37153 5.92121L6.56895 4.65398ZM8.73495 3.17198L9.62781 4.37734L9.63495 4.37198L8.73495 3.17198ZM10.635 1.49998V-1.71661e-05H9.99402L9.55099 0.46315L10.635 1.49998ZM14.587 1.49998H16.087V-1.71661e-05H14.587V1.49998ZM14.587 27.834V29.334H16.087V27.834H14.587ZM8.92495 27.834H7.42495V29.334H8.92495V27.834ZM8.92495 8.87198H10.4249V6.06921L8.0929 7.62391L8.92495 8.87198ZM6.37895 10.278L6.97432 11.6548L6.98984 11.6481L7.0052 11.641L6.37895 10.278ZM3.64295 11.342L2.24609 11.8886L2.76983 13.2271L4.12944 12.7609L3.64295 11.342ZM1.93295 6.97198L2.50648 8.35801C3.27053 8.04185 4.0572 7.68772 4.86629 7.29622L4.21295 5.94598L3.55961 4.59574C2.79803 4.96425 2.0647 5.29412 1.35942 5.58596L1.93295 6.97198ZM4.21295 5.94598L4.88377 7.28762C5.728 6.86551 6.54704 6.41641 7.34069 5.94022L6.56895 4.65398L5.79721 3.36774C5.07086 3.80355 4.31923 4.21579 3.54213 4.60434L4.21295 5.94598ZM6.56895 4.65398L7.37153 5.92121C8.16063 5.42145 8.91287 4.90689 9.62779 4.37732L8.73495 3.17198L7.84211 1.96665C7.18903 2.45041 6.49727 2.92385 5.76637 3.38675L6.56895 4.65398ZM8.73495 3.17198L9.63495 4.37198C10.4035 3.79553 11.0995 3.18434 11.7189 2.53682L10.635 1.49998L9.55099 0.46315C9.05569 0.980957 8.48502 1.48443 7.83495 1.97198L8.73495 3.17198ZM10.635 1.49998V2.99998H14.587V1.49998V-1.71661e-05H10.635V1.49998ZM14.587 1.49998H13.087V27.834H14.587H16.087V1.49998H14.587ZM14.587 27.834V26.334H8.92495V27.834V29.334H14.587V27.834ZM8.92495 27.834H10.4249V8.87198H8.92495H7.42495V27.834H8.92495ZM8.92495 8.87198L8.0929 7.62391C7.40613 8.08176 6.62752 8.51303 5.7527 8.91497L6.37895 10.278L7.0052 11.641C8.00505 11.1816 8.92377 10.6755 9.757 10.1201L8.92495 8.87198ZM6.37895 10.278L5.78358 8.9012C4.87885 9.29243 4.00321 9.63275 3.15646 9.92307L3.64295 11.342L4.12944 12.7609C5.05602 12.4432 6.00438 12.0742 6.97432 11.6548L6.37895 10.278ZM3.64295 11.342L5.03981 10.7954L3.32981 6.42538L1.93295 6.97198L0.536085 7.51858L2.24609 11.8886L3.64295 11.342Z" fill="#A83BF0" mask="url(#path-1-outside-1_33_135)"/>
<defs>
<linearGradient id="paint0_linear_33_135" x1="8.93385" y1="-8.16602" x2="11.1099" y2="48.0419" gradientUnits="userSpaceOnUse">
<stop stop-color="#ECB4FF"/>
<stop offset="0.480769" stop-color="#D596FF"/>
<stop offset="1" stop-color="#A15BEB"/>
</linearGradient>
</defs>
</svg>
