<svg width="22" height="30" viewBox="0 0 22 30" fill="none" xmlns="http://www.w3.org/2000/svg">
<mask id="path-1-outside-1_33_134" maskUnits="userSpaceOnUse" x="-0.546875" y="-0.557983" width="23" height="31" fill="black">
<rect fill="white" x="-0.546875" y="-0.557983" width="23" height="31"/>
<path d="M19.5023 9.02402C19.5023 9.98668 19.3123 10.9113 18.9323 11.798C18.5523 12.6847 18.0583 13.546 17.4503 14.382C16.8423 15.1927 16.1583 15.978 15.3983 16.738C14.6383 17.498 13.891 18.22 13.1563 18.904C12.7763 19.2587 12.3583 19.664 11.9023 20.12C11.4716 20.5507 11.0536 20.994 10.6483 21.45C10.243 21.906 9.87563 22.3367 9.5463 22.742C9.2423 23.122 9.0523 23.4387 8.9763 23.692H20.3003V28.442H2.7443C2.69363 28.1633 2.6683 27.8087 2.6683 27.378C2.6683 26.9473 2.6683 26.6433 2.6683 26.466C2.6683 25.25 2.8583 24.1353 3.2383 23.122C3.64363 22.1087 4.16296 21.1713 4.7963 20.31C5.42963 19.4233 6.13896 18.6 6.9243 17.84C7.73496 17.08 8.53296 16.32 9.3183 15.56C9.9263 14.9773 10.4963 14.4327 11.0283 13.926C11.5603 13.394 12.029 12.8873 12.4343 12.406C12.8396 11.8993 13.1563 11.4053 13.3843 10.924C13.6123 10.4173 13.7263 9.91068 13.7263 9.40401C13.7263 8.28935 13.4096 7.50402 12.7763 7.04802C12.143 6.59202 11.3576 6.36402 10.4203 6.36402C9.7363 6.36402 9.0903 6.47802 8.4823 6.70602C7.89963 6.90868 7.35496 7.16202 6.8483 7.46601C6.36696 7.74468 5.94896 8.03602 5.5943 8.34001C5.23963 8.61868 4.97363 8.84668 4.7963 9.02402L1.9843 5.07202C3.09896 4.03335 4.39096 3.18468 5.8603 2.52602C7.35496 1.84201 8.95096 1.50001 10.6483 1.50001C12.1936 1.50001 13.5236 1.67735 14.6383 2.03201C15.753 2.38668 16.665 2.89335 17.3743 3.55202C18.109 4.18535 18.641 4.97068 18.9703 5.90801C19.325 6.82001 19.5023 7.85868 19.5023 9.02402Z"/>
</mask>
<path d="M19.5023 9.02402C19.5023 9.98668 19.3123 10.9113 18.9323 11.798C18.5523 12.6847 18.0583 13.546 17.4503 14.382C16.8423 15.1927 16.1583 15.978 15.3983 16.738C14.6383 17.498 13.891 18.22 13.1563 18.904C12.7763 19.2587 12.3583 19.664 11.9023 20.12C11.4716 20.5507 11.0536 20.994 10.6483 21.45C10.243 21.906 9.87563 22.3367 9.5463 22.742C9.2423 23.122 9.0523 23.4387 8.9763 23.692H20.3003V28.442H2.7443C2.69363 28.1633 2.6683 27.8087 2.6683 27.378C2.6683 26.9473 2.6683 26.6433 2.6683 26.466C2.6683 25.25 2.8583 24.1353 3.2383 23.122C3.64363 22.1087 4.16296 21.1713 4.7963 20.31C5.42963 19.4233 6.13896 18.6 6.9243 17.84C7.73496 17.08 8.53296 16.32 9.3183 15.56C9.9263 14.9773 10.4963 14.4327 11.0283 13.926C11.5603 13.394 12.029 12.8873 12.4343 12.406C12.8396 11.8993 13.1563 11.4053 13.3843 10.924C13.6123 10.4173 13.7263 9.91068 13.7263 9.40401C13.7263 8.28935 13.4096 7.50402 12.7763 7.04802C12.143 6.59202 11.3576 6.36402 10.4203 6.36402C9.7363 6.36402 9.0903 6.47802 8.4823 6.70602C7.89963 6.90868 7.35496 7.16202 6.8483 7.46601C6.36696 7.74468 5.94896 8.03602 5.5943 8.34001C5.23963 8.61868 4.97363 8.84668 4.7963 9.02402L1.9843 5.07202C3.09896 4.03335 4.39096 3.18468 5.8603 2.52602C7.35496 1.84201 8.95096 1.50001 10.6483 1.50001C12.1936 1.50001 13.5236 1.67735 14.6383 2.03201C15.753 2.38668 16.665 2.89335 17.3743 3.55202C18.109 4.18535 18.641 4.97068 18.9703 5.90801C19.325 6.82001 19.5023 7.85868 19.5023 9.02402Z" fill="url(#paint0_linear_33_134)"/>
<path d="M18.9323 11.798L20.311 12.3889V12.3889L18.9323 11.798ZM17.4503 14.382L18.6503 15.282L18.6569 15.2732L18.6634 15.2643L17.4503 14.382ZM13.1563 18.904L12.1342 17.8062L12.1328 17.8074L13.1563 18.904ZM11.9023 20.12L10.8416 19.0594V19.0594L11.9023 20.12ZM10.6483 21.45L9.52718 20.4535V20.4535L10.6483 21.45ZM9.5463 22.742L8.38209 21.7961L8.37499 21.805L9.5463 22.742ZM8.9763 23.692L7.53956 23.261L6.96025 25.192H8.9763V23.692ZM20.3003 23.692H21.8003V22.192H20.3003V23.692ZM20.3003 28.442V29.942H21.8003V28.442H20.3003ZM2.7443 28.442L1.26849 28.7103L1.49243 29.942H2.7443V28.442ZM3.2383 23.122L1.84558 22.5649L1.83953 22.5801L1.8338 22.5953L3.2383 23.122ZM4.7963 20.31L6.00477 21.1986L6.01089 21.1903L6.0169 21.1819L4.7963 20.31ZM6.9243 17.84L5.89839 16.7457L5.88971 16.7538L5.88117 16.7621L6.9243 17.84ZM9.3183 15.56L8.28043 14.477L8.27517 14.4821L9.3183 15.56ZM11.0283 13.926L12.0628 15.0122L12.076 14.9996L12.089 14.9867L11.0283 13.926ZM12.4343 12.406L13.5817 13.3722L13.5938 13.3578L13.6056 13.3431L12.4343 12.406ZM13.3843 10.924L14.7399 11.5661L14.7462 11.5529L14.7522 11.5396L13.3843 10.924ZM8.4823 6.70602L8.97508 8.12276L8.9921 8.11684L9.00898 8.11051L8.4823 6.70602ZM6.8483 7.46601L7.59985 8.76415L7.60999 8.75828L7.62004 8.75225L6.8483 7.46601ZM5.5943 8.34002L6.52103 9.51949L6.54619 9.49972L6.57048 9.4789L5.5943 8.34002ZM4.7963 9.02402L3.57411 9.89365L4.60257 11.3391L5.85696 10.0847L4.7963 9.02402ZM1.9843 5.07202L0.961708 3.9746L7.15256e-05 4.87068L0.762111 5.94165L1.9843 5.07202ZM5.8603 2.52601L6.4739 3.89482L6.48448 3.88998L5.8603 2.52601ZM14.6383 2.03201L15.0931 0.602627V0.602625L14.6383 2.03201ZM17.3743 3.55202L16.3536 4.65121L16.3739 4.67005L16.3949 4.68813L17.3743 3.55202ZM18.9703 5.90801L17.5551 6.40524L17.5633 6.42861L17.5723 6.45168L18.9703 5.90801ZM19.5023 9.02402H18.0023C18.0023 9.78311 17.8537 10.5068 17.5536 11.2071L18.9323 11.798L20.311 12.3889C20.7709 11.3159 21.0023 10.1903 21.0023 9.02402H19.5023ZM18.9323 11.798L17.5536 11.2071C17.2208 11.9837 16.784 12.748 16.2372 13.4998L17.4503 14.382L18.6634 15.2643C19.3326 14.3441 19.8838 13.3856 20.311 12.3889L18.9323 11.798ZM17.4503 14.382L16.2503 13.482C15.6874 14.2326 15.0505 14.9645 14.3376 15.6774L15.3983 16.738L16.459 17.7987C17.2661 16.9915 17.9972 16.1528 18.6503 15.282L17.4503 14.382ZM15.3983 16.738L14.3376 15.6774C13.5894 16.4256 12.8549 17.1352 12.1342 17.8062L13.1563 18.904L14.1784 20.0019C14.927 19.3049 15.6872 18.5704 16.459 17.7987L15.3983 16.738ZM13.1563 18.904L12.1328 17.8074C11.7377 18.1763 11.3071 18.5939 10.8416 19.0594L11.9023 20.12L12.963 21.1807C13.4095 20.7341 13.8149 20.3411 14.1798 20.0006L13.1563 18.904ZM11.9023 20.12L10.8416 19.0594C10.3902 19.5108 9.952 19.9755 9.52718 20.4535L10.6483 21.45L11.7694 22.4466C12.1553 22.0125 12.5531 21.5905 12.963 21.1807L11.9023 20.12ZM10.6483 21.45L9.52718 20.4535C9.1095 20.9234 8.72752 21.371 8.38213 21.7961L9.5463 22.742L10.7105 23.6879C11.0237 23.3023 11.3764 22.8887 11.7694 22.4466L10.6483 21.45ZM9.5463 22.742L8.37499 21.805C8.03459 22.2305 7.69938 22.7283 7.53956 23.261L8.9763 23.692L10.413 24.123C10.4042 24.1524 10.4079 24.1264 10.462 24.0363C10.5136 23.9503 10.5952 23.832 10.7176 23.6791L9.5463 22.742ZM8.9763 23.692V25.192H20.3003V23.692V22.192H8.9763V23.692ZM20.3003 23.692H18.8003V28.442H20.3003H21.8003V23.692H20.3003ZM20.3003 28.442V26.942H2.7443V28.442V29.942H20.3003V28.442ZM2.7443 28.442L4.2201 28.1737C4.19153 28.0165 4.1683 27.7599 4.1683 27.378H2.6683H1.1683C1.1683 27.8574 1.19573 28.3102 1.26849 28.7103L2.7443 28.442ZM2.6683 27.378H4.1683C4.1683 27.3772 4.1683 27.3763 4.1683 27.3755C4.1683 27.3747 4.1683 27.3738 4.1683 27.373C4.1683 27.3721 4.1683 27.3713 4.1683 27.3705C4.1683 27.3696 4.1683 27.3688 4.1683 27.3679C4.1683 27.3671 4.1683 27.3663 4.1683 27.3654C4.1683 27.3646 4.1683 27.3638 4.1683 27.3629C4.1683 27.3621 4.1683 27.3613 4.1683 27.3604C4.1683 27.3596 4.1683 27.3588 4.1683 27.3579C4.1683 27.3571 4.1683 27.3563 4.1683 27.3554C4.1683 27.3546 4.1683 27.3538 4.1683 27.3529C4.1683 27.3521 4.1683 27.3513 4.1683 27.3504C4.1683 27.3496 4.1683 27.3488 4.1683 27.3479C4.1683 27.3471 4.1683 27.3463 4.1683 27.3455C4.1683 27.3446 4.1683 27.3438 4.1683 27.343C4.1683 27.3421 4.1683 27.3413 4.1683 27.3405C4.1683 27.3397 4.1683 27.3388 4.1683 27.338C4.1683 27.3372 4.1683 27.3364 4.1683 27.3355C4.1683 27.3347 4.1683 27.3339 4.1683 27.3331C4.1683 27.3322 4.1683 27.3314 4.1683 27.3306C4.1683 27.3298 4.1683 27.3289 4.1683 27.3281C4.1683 27.3273 4.1683 27.3265 4.1683 27.3257C4.1683 27.3248 4.1683 27.324 4.1683 27.3232C4.1683 27.3224 4.1683 27.3216 4.1683 27.3207C4.1683 27.3199 4.1683 27.3191 4.1683 27.3183C4.1683 27.3175 4.1683 27.3167 4.1683 27.3158C4.1683 27.315 4.1683 27.3142 4.1683 27.3134C4.1683 27.3126 4.1683 27.3118 4.1683 27.3109C4.1683 27.3101 4.1683 27.3093 4.1683 27.3085C4.1683 27.3077 4.1683 27.3069 4.1683 27.3061C4.1683 27.3052 4.1683 27.3044 4.1683 27.3036C4.1683 27.3028 4.1683 27.302 4.1683 27.3012C4.1683 27.3004 4.1683 27.2996 4.1683 27.2988C4.1683 27.2979 4.1683 27.2971 4.1683 27.2963C4.1683 27.2955 4.1683 27.2947 4.1683 27.2939C4.1683 27.2931 4.1683 27.2923 4.1683 27.2915C4.1683 27.2907 4.1683 27.2899 4.1683 27.2891C4.1683 27.2882 4.1683 27.2874 4.1683 27.2866C4.1683 27.2858 4.1683 27.285 4.1683 27.2842C4.1683 27.2834 4.1683 27.2826 4.1683 27.2818C4.1683 27.281 4.1683 27.2802 4.1683 27.2794C4.1683 27.2786 4.1683 27.2778 4.1683 27.277C4.1683 27.2762 4.1683 27.2754 4.1683 27.2746C4.1683 27.2738 4.1683 27.273 4.1683 27.2722C4.1683 27.2714 4.1683 27.2706 4.1683 27.2698C4.1683 27.269 4.1683 27.2682 4.1683 27.2674C4.1683 27.2666 4.1683 27.2658 4.1683 27.265C4.1683 27.2642 4.1683 27.2634 4.1683 27.2626C4.1683 27.2618 4.1683 27.261 4.1683 27.2602C4.1683 27.2594 4.1683 27.2586 4.1683 27.2578C4.1683 27.2571 4.1683 27.2563 4.1683 27.2555C4.1683 27.2547 4.1683 27.2539 4.1683 27.2531C4.1683 27.2523 4.1683 27.2515 4.1683 27.2507C4.1683 27.2499 4.1683 27.2491 4.1683 27.2483C4.1683 27.2476 4.1683 27.2468 4.1683 27.246C4.1683 27.2452 4.1683 27.2444 4.1683 27.2436C4.1683 27.2428 4.1683 27.242 4.1683 27.2412C4.1683 27.2405 4.1683 27.2397 4.1683 27.2389C4.1683 27.2381 4.1683 27.2373 4.1683 27.2365C4.1683 27.2357 4.1683 27.235 4.1683 27.2342C4.1683 27.2334 4.1683 27.2326 4.1683 27.2318C4.1683 27.231 4.1683 27.2303 4.1683 27.2295C4.1683 27.2287 4.1683 27.2279 4.1683 27.2271C4.1683 27.2264 4.1683 27.2256 4.1683 27.2248C4.1683 27.224 4.1683 27.2232 4.1683 27.2225C4.1683 27.2217 4.1683 27.2209 4.1683 27.2201C4.1683 27.2193 4.1683 27.2186 4.1683 27.2178C4.1683 27.217 4.1683 27.2162 4.1683 27.2155C4.1683 27.2147 4.1683 27.2139 4.1683 27.2131C4.1683 27.2123 4.1683 27.2116 4.1683 27.2108C4.1683 27.21 4.1683 27.2093 4.1683 27.2085C4.1683 27.2077 4.1683 27.2069 4.1683 27.2062C4.1683 27.2054 4.1683 27.2046 4.1683 27.2038C4.1683 27.2031 4.1683 27.2023 4.1683 27.2015C4.1683 27.2008 4.1683 27.2 4.1683 27.1992C4.1683 27.1985 4.1683 27.1977 4.1683 27.1969C4.1683 27.1961 4.1683 27.1954 4.1683 27.1946C4.1683 27.1938 4.1683 27.1931 4.1683 27.1923C4.1683 27.1915 4.1683 27.1908 4.1683 27.19C4.1683 27.1892 4.1683 27.1885 4.1683 27.1877C4.1683 27.1869 4.1683 27.1862 4.1683 27.1854C4.1683 27.1847 4.1683 27.1839 4.1683 27.1831C4.1683 27.1824 4.1683 27.1816 4.1683 27.1808C4.1683 27.1801 4.1683 27.1793 4.1683 27.1786C4.1683 27.1778 4.1683 27.177 4.1683 27.1763C4.1683 27.1755 4.1683 27.1748 4.1683 27.174C4.1683 27.1732 4.1683 27.1725 4.1683 27.1717C4.1683 27.171 4.1683 27.1702 4.1683 27.1694C4.1683 27.1687 4.1683 27.1679 4.1683 27.1672C4.1683 27.1664 4.1683 27.1657 4.1683 27.1649C4.1683 27.1642 4.1683 27.1634 4.1683 27.1626C4.1683 27.1619 4.1683 27.1611 4.1683 27.1604C4.1683 27.1596 4.1683 27.1589 4.1683 27.1581C4.1683 27.1574 4.1683 27.1566 4.1683 27.1559C4.1683 27.1551 4.1683 27.1544 4.1683 27.1536C4.1683 27.1529 4.1683 27.1521 4.1683 27.1514C4.1683 27.1506 4.1683 27.1499 4.1683 27.1491C4.1683 27.1484 4.1683 27.1476 4.1683 27.1469C4.1683 27.1461 4.1683 27.1454 4.1683 27.1446C4.1683 27.1439 4.1683 27.1432 4.1683 27.1424C4.1683 27.1417 4.1683 27.1409 4.1683 27.1402C4.1683 27.1394 4.1683 27.1387 4.1683 27.1379C4.1683 27.1372 4.1683 27.1365 4.1683 27.1357C4.1683 27.135 4.1683 27.1342 4.1683 27.1335C4.1683 27.1327 4.1683 27.132 4.1683 27.1313C4.1683 27.1305 4.1683 27.1298 4.1683 27.129C4.1683 27.1283 4.1683 27.1276 4.1683 27.1268C4.1683 27.1261 4.1683 27.1253 4.1683 27.1246C4.1683 27.1239 4.1683 27.1231 4.1683 27.1224C4.1683 27.1217 4.1683 27.1209 4.1683 27.1202C4.1683 27.1194 4.1683 27.1187 4.1683 27.118C4.1683 27.1172 4.1683 27.1165 4.1683 27.1158C4.1683 27.115 4.1683 27.1143 4.1683 27.1136C4.1683 27.1128 4.1683 27.1121 4.1683 27.1114C4.1683 27.1106 4.1683 27.1099 4.1683 27.1092C4.1683 27.1085 4.1683 27.1077 4.1683 27.107C4.1683 27.1063 4.1683 27.1055 4.1683 27.1048C4.1683 27.1041 4.1683 27.1033 4.1683 27.1026C4.1683 27.1019 4.1683 27.1012 4.1683 27.1004C4.1683 27.0997 4.1683 27.099 4.1683 27.0983C4.1683 27.0975 4.1683 27.0968 4.1683 27.0961C4.1683 27.0954 4.1683 27.0946 4.1683 27.0939C4.1683 27.0932 4.1683 27.0925 4.1683 27.0917C4.1683 27.091 4.1683 27.0903 4.1683 27.0896C4.1683 27.0888 4.1683 27.0881 4.1683 27.0874C4.1683 27.0867 4.1683 27.086 4.1683 27.0852C4.1683 27.0845 4.1683 27.0838 4.1683 27.0831C4.1683 27.0824 4.1683 27.0816 4.1683 27.0809C4.1683 27.0802 4.1683 27.0795 4.1683 27.0788C4.1683 27.078 4.1683 27.0773 4.1683 27.0766C4.1683 27.0759 4.1683 27.0752 4.1683 27.0745C4.1683 27.0738 4.1683 27.073 4.1683 27.0723C4.1683 27.0716 4.1683 27.0709 4.1683 27.0702C4.1683 27.0695 4.1683 27.0688 4.1683 27.068C4.1683 27.0673 4.1683 27.0666 4.1683 27.0659C4.1683 27.0652 4.1683 27.0645 4.1683 27.0638C4.1683 27.0631 4.1683 27.0624 4.1683 27.0616C4.1683 27.0609 4.1683 27.0602 4.1683 27.0595C4.1683 27.0588 4.1683 27.0581 4.1683 27.0574C4.1683 27.0567 4.1683 27.056 4.1683 27.0553C4.1683 27.0546 4.1683 27.0539 4.1683 27.0531C4.1683 27.0524 4.1683 27.0517 4.1683 27.051C4.1683 27.0503 4.1683 27.0496 4.1683 27.0489C4.1683 27.0482 4.1683 27.0475 4.1683 27.0468C4.1683 27.0461 4.1683 27.0454 4.1683 27.0447C4.1683 27.044 4.1683 27.0433 4.1683 27.0426C4.1683 27.0419 4.1683 27.0412 4.1683 27.0405C4.1683 27.0398 4.1683 27.0391 4.1683 27.0384C4.1683 27.0377 4.1683 27.037 4.1683 27.0363C4.1683 27.0356 4.1683 27.0349 4.1683 27.0342C4.1683 27.0335 4.1683 27.0328 4.1683 27.0321C4.1683 27.0314 4.1683 27.0307 4.1683 27.03C4.1683 27.0293 4.1683 27.0286 4.1683 27.0279C4.1683 27.0273 4.1683 27.0266 4.1683 27.0259C4.1683 27.0252 4.1683 27.0245 4.1683 27.0238C4.1683 27.0231 4.1683 27.0224 4.1683 27.0217C4.1683 27.021 4.1683 27.0203 4.1683 27.0196C4.1683 27.0189 4.1683 27.0183 4.1683 27.0176C4.1683 27.0169 4.1683 27.0162 4.1683 27.0155C4.1683 27.0148 4.1683 27.0141 4.1683 27.0134C4.1683 27.0127 4.1683 27.0121 4.1683 27.0114C4.1683 27.0107 4.1683 27.01 4.1683 27.0093C4.1683 27.0086 4.1683 27.0079 4.1683 27.0073C4.1683 27.0066 4.1683 27.0059 4.1683 27.0052C4.1683 27.0045 4.1683 27.0038 4.1683 27.0032C4.1683 27.0025 4.1683 27.0018 4.1683 27.0011C4.1683 27.0004 4.1683 26.9998 4.1683 26.9991C4.1683 26.9984 4.1683 26.9977 4.1683 26.997C4.1683 26.9963 4.1683 26.9957 4.1683 26.995C4.1683 26.9943 4.1683 26.9936 4.1683 26.993C4.1683 26.9923 4.1683 26.9916 4.1683 26.9909C4.1683 26.9902 4.1683 26.9896 4.1683 26.9889C4.1683 26.9882 4.1683 26.9875 4.1683 26.9869C4.1683 26.9862 4.1683 26.9855 4.1683 26.9848C4.1683 26.9842 4.1683 26.9835 4.1683 26.9828C4.1683 26.9822 4.1683 26.9815 4.1683 26.9808C4.1683 26.9801 4.1683 26.9795 4.1683 26.9788C4.1683 26.9781 4.1683 26.9775 4.1683 26.9768C4.1683 26.9761 4.1683 26.9754 4.1683 26.9748C4.1683 26.9741 4.1683 26.9734 4.1683 26.9728C4.1683 26.9721 4.1683 26.9714 4.1683 26.9708C4.1683 26.9701 4.1683 26.9694 4.1683 26.9688C4.1683 26.9681 4.1683 26.9674 4.1683 26.9668C4.1683 26.9661 4.1683 26.9654 4.1683 26.9648C4.1683 26.9641 4.1683 26.9634 4.1683 26.9628C4.1683 26.9621 4.1683 26.9615 4.1683 26.9608C4.1683 26.9601 4.1683 26.9595 4.1683 26.9588C4.1683 26.9581 4.1683 26.9575 4.1683 26.9568C4.1683 26.9562 4.1683 26.9555 4.1683 26.9548C4.1683 26.9542 4.1683 26.9535 4.1683 26.9529C4.1683 26.9522 4.1683 26.9515 4.1683 26.9509C4.1683 26.9502 4.1683 26.9496 4.1683 26.9489C4.1683 26.9483 4.1683 26.9476 4.1683 26.947C4.1683 26.9463 4.1683 26.9456 4.1683 26.945C4.1683 26.9443 4.1683 26.9437 4.1683 26.943C4.1683 26.9424 4.1683 26.9417 4.1683 26.9411C4.1683 26.9404 4.1683 26.9398 4.1683 26.9391C4.1683 26.9385 4.1683 26.9378 4.1683 26.9372C4.1683 26.9365 4.1683 26.9359 4.1683 26.9352C4.1683 26.9346 4.1683 26.9339 4.1683 26.9333C4.1683 26.9326 4.1683 26.932 4.1683 26.9313C4.1683 26.9307 4.1683 26.93 4.1683 26.9294C4.1683 26.9287 4.1683 26.9281 4.1683 26.9274C4.1683 26.9268 4.1683 26.9261 4.1683 26.9255C4.1683 26.9249 4.1683 26.9242 4.1683 26.9236C4.1683 26.9229 4.1683 26.9223 4.1683 26.9216C4.1683 26.921 4.1683 26.9203 4.1683 26.9197C4.1683 26.9191 4.1683 26.9184 4.1683 26.9178C4.1683 26.9171 4.1683 26.9165 4.1683 26.9159C4.1683 26.9152 4.1683 26.9146 4.1683 26.9139C4.1683 26.9133 4.1683 26.9127 4.1683 26.912C4.1683 26.9114 4.1683 26.9107 4.1683 26.9101C4.1683 26.9095 4.1683 26.9088 4.1683 26.9082C4.1683 26.9076 4.1683 26.9069 4.1683 26.9063C4.1683 26.9057 4.1683 26.905 4.1683 26.9044C4.1683 26.9038 4.1683 26.9031 4.1683 26.9025C4.1683 26.9019 4.1683 26.9012 4.1683 26.9006C4.1683 26.9 4.1683 26.8993 4.1683 26.8987C4.1683 26.8981 4.1683 26.8974 4.1683 26.8968C4.1683 26.8962 4.1683 26.8955 4.1683 26.8949C4.1683 26.8943 4.1683 26.8937 4.1683 26.893C4.1683 26.8924 4.1683 26.8918 4.1683 26.8911C4.1683 26.8905 4.1683 26.8899 4.1683 26.8893C4.1683 26.8886 4.1683 26.888 4.1683 26.8874C4.1683 26.8867 4.1683 26.8861 4.1683 26.8855C4.1683 26.8849 4.1683 26.8843 4.1683 26.8836C4.1683 26.883 4.1683 26.8824 4.1683 26.8818C4.1683 26.8811 4.1683 26.8805 4.1683 26.8799C4.1683 26.8793 4.1683 26.8787 4.1683 26.878C4.1683 26.8774 4.1683 26.8768 4.1683 26.8762C4.1683 26.8755 4.1683 26.8749 4.1683 26.8743C4.1683 26.8737 4.1683 26.8731 4.1683 26.8725C4.1683 26.8718 4.1683 26.8712 4.1683 26.8706C4.1683 26.87 4.1683 26.8694 4.1683 26.8688C4.1683 26.8681 4.1683 26.8675 4.1683 26.8669C4.1683 26.8663 4.1683 26.8657 4.1683 26.8651C4.1683 26.8644 4.1683 26.8638 4.1683 26.8632C4.1683 26.8626 4.1683 26.862 4.1683 26.8614C4.1683 26.8608 4.1683 26.8602 4.1683 26.8596C4.1683 26.8589 4.1683 26.8583 4.1683 26.8577C4.1683 26.8571 4.1683 26.8565 4.1683 26.8559C4.1683 26.8553 4.1683 26.8547 4.1683 26.8541C4.1683 26.8535 4.1683 26.8528 4.1683 26.8522C4.1683 26.8516 4.1683 26.851 4.1683 26.8504C4.1683 26.8498 4.1683 26.8492 4.1683 26.8486C4.1683 26.848 4.1683 26.8474 4.1683 26.8468C4.1683 26.8462 4.1683 26.8456 4.1683 26.845C4.1683 26.8444 4.1683 26.8438 4.1683 26.8432C4.1683 26.8426 4.1683 26.842 4.1683 26.8414C4.1683 26.8408 4.1683 26.8402 4.1683 26.8396C4.1683 26.839 4.1683 26.8384 4.1683 26.8378C4.1683 26.8372 4.1683 26.8366 4.1683 26.836C4.1683 26.8354 4.1683 26.8348 4.1683 26.8342C4.1683 26.8336 4.1683 26.833 4.1683 26.8324C4.1683 26.8318 4.1683 26.8312 4.1683 26.8306C4.1683 26.83 4.1683 26.8294 4.1683 26.8288C4.1683 26.8282 4.1683 26.8276 4.1683 26.827C4.1683 26.8264 4.1683 26.8258 4.1683 26.8252C4.1683 26.8246 4.1683 26.8241 4.1683 26.8235C4.1683 26.8229 4.1683 26.8223 4.1683 26.8217C4.1683 26.8211 4.1683 26.8205 4.1683 26.8199C4.1683 26.8193 4.1683 26.8187 4.1683 26.8181C4.1683 26.8176 4.1683 26.817 4.1683 26.8164C4.1683 26.8158 4.1683 26.8152 4.1683 26.8146C4.1683 26.814 4.1683 26.8134 4.1683 26.8129C4.1683 26.8123 4.1683 26.8117 4.1683 26.8111C4.1683 26.8105 4.1683 26.8099 4.1683 26.8093C4.1683 26.8088 4.1683 26.8082 4.1683 26.8076C4.1683 26.807 4.1683 26.8064 4.1683 26.8059C4.1683 26.8053 4.1683 26.8047 4.1683 26.8041C4.1683 26.8035 4.1683 26.8029 4.1683 26.8024C4.1683 26.8018 4.1683 26.8012 4.1683 26.8006C4.1683 26.8 4.1683 26.7995 4.1683 26.7989C4.1683 26.7983 4.1683 26.7977 4.1683 26.7972C4.1683 26.7966 4.1683 26.796 4.1683 26.7954C4.1683 26.7948 4.1683 26.7943 4.1683 26.7937C4.1683 26.7931 4.1683 26.7925 4.1683 26.792C4.1683 26.7914 4.1683 26.7908 4.1683 26.7902C4.1683 26.7897 4.1683 26.7891 4.1683 26.7885C4.1683 26.788 4.1683 26.7874 4.1683 26.7868C4.1683 26.7862 4.1683 26.7857 4.1683 26.7851C4.1683 26.7845 4.1683 26.784 4.1683 26.7834C4.1683 26.7828 4.1683 26.7823 4.1683 26.7817C4.1683 26.7811 4.1683 26.7805 4.1683 26.78C4.1683 26.7794 4.1683 26.7788 4.1683 26.7783C4.1683 26.7777 4.1683 26.7771 4.1683 26.7766C4.1683 26.776 4.1683 26.7754 4.1683 26.7749C4.1683 26.7743 4.1683 26.7738 4.1683 26.7732C4.1683 26.7726 4.1683 26.7721 4.1683 26.7715C4.1683 26.7709 4.1683 26.7704 4.1683 26.7698C4.1683 26.7693 4.1683 26.7687 4.1683 26.7681C4.1683 26.7676 4.1683 26.767 4.1683 26.7664C4.1683 26.7659 4.1683 26.7653 4.1683 26.7648C4.1683 26.7642 4.1683 26.7637 4.1683 26.7631C4.1683 26.7625 4.1683 26.762 4.1683 26.7614C4.1683 26.7609 4.1683 26.7603 4.1683 26.7598C4.1683 26.7592 4.1683 26.7586 4.1683 26.7581C4.1683 26.7575 4.1683 26.757 4.1683 26.7564C4.1683 26.7559 4.1683 26.7553 4.1683 26.7548C4.1683 26.7542 4.1683 26.7537 4.1683 26.7531C4.1683 26.7526 4.1683 26.752 4.1683 26.7514C4.1683 26.7509 4.1683 26.7503 4.1683 26.7498C4.1683 26.7492 4.1683 26.7487 4.1683 26.7481C4.1683 26.7476 4.1683 26.747 4.1683 26.7465C4.1683 26.746 4.1683 26.7454 4.1683 26.7449C4.1683 26.7443 4.1683 26.7438 4.1683 26.7432C4.1683 26.7427 4.1683 26.7421 4.1683 26.7416C4.1683 26.741 4.1683 26.7405 4.1683 26.7399C4.1683 26.7394 4.1683 26.7389 4.1683 26.7383C4.1683 26.7378 4.1683 26.7372 4.1683 26.7367C4.1683 26.7361 4.1683 26.7356 4.1683 26.7351C4.1683 26.7345 4.1683 26.734 4.1683 26.7334C4.1683 26.7329 4.1683 26.7324 4.1683 26.7318C4.1683 26.7313 4.1683 26.7307 4.1683 26.7302C4.1683 26.7297 4.1683 26.7291 4.1683 26.7286C4.1683 26.728 4.1683 26.7275 4.1683 26.727C4.1683 26.7264 4.1683 26.7259 4.1683 26.7254C4.1683 26.7248 4.1683 26.7243 4.1683 26.7238C4.1683 26.7232 4.1683 26.7227 4.1683 26.7222C4.1683 26.7216 4.1683 26.7211 4.1683 26.7206C4.1683 26.72 4.1683 26.7195 4.1683 26.719C4.1683 26.7184 4.1683 26.7179 4.1683 26.7174C4.1683 26.7168 4.1683 26.7163 4.1683 26.7158C4.1683 26.7152 4.1683 26.7147 4.1683 26.7142C4.1683 26.7136 4.1683 26.7131 4.1683 26.7126C4.1683 26.7121 4.1683 26.7115 4.1683 26.711C4.1683 26.7105 4.1683 26.71 4.1683 26.7094C4.1683 26.7089 4.1683 26.7084 4.1683 26.7079C4.1683 26.7073 4.1683 26.7068 4.1683 26.7063C4.1683 26.7058 4.1683 26.7052 4.1683 26.7047C4.1683 26.7042 4.1683 26.7037 4.1683 26.7031C4.1683 26.7026 4.1683 26.7021 4.1683 26.7016C4.1683 26.7011 4.1683 26.7005 4.1683 26.7C4.1683 26.6995 4.1683 26.699 4.1683 26.6985C4.1683 26.6979 4.1683 26.6974 4.1683 26.6969C4.1683 26.6964 4.1683 26.6959 4.1683 26.6953C4.1683 26.6948 4.1683 26.6943 4.1683 26.6938C4.1683 26.6933 4.1683 26.6928 4.1683 26.6922C4.1683 26.6917 4.1683 26.6912 4.1683 26.6907C4.1683 26.6902 4.1683 26.6897 4.1683 26.6892C4.1683 26.6886 4.1683 26.6881 4.1683 26.6876C4.1683 26.6871 4.1683 26.6866 4.1683 26.6861C4.1683 26.6856 4.1683 26.6851 4.1683 26.6846C4.1683 26.684 4.1683 26.6835 4.1683 26.683C4.1683 26.6825 4.1683 26.682 4.1683 26.6815C4.1683 26.681 4.1683 26.6805 4.1683 26.68C4.1683 26.6795 4.1683 26.679 4.1683 26.6784C4.1683 26.6779 4.1683 26.6774 4.1683 26.6769C4.1683 26.6764 4.1683 26.6759 4.1683 26.6754C4.1683 26.6749 4.1683 26.6744 4.1683 26.6739C4.1683 26.6734 4.1683 26.6729 4.1683 26.6724C4.1683 26.6719 4.1683 26.6714 4.1683 26.6709C4.1683 26.6704 4.1683 26.6699 4.1683 26.6694C4.1683 26.6689 4.1683 26.6684 4.1683 26.6679C4.1683 26.6674 4.1683 26.6669 4.1683 26.6664C4.1683 26.6659 4.1683 26.6654 4.1683 26.6649C4.1683 26.6644 4.1683 26.6639 4.1683 26.6634C4.1683 26.6629 4.1683 26.6624 4.1683 26.6619C4.1683 26.6614 4.1683 26.6609 4.1683 26.6604C4.1683 26.6599 4.1683 26.6594 4.1683 26.6589C4.1683 26.6584 4.1683 26.6579 4.1683 26.6574C4.1683 26.657 4.1683 26.6565 4.1683 26.656C4.1683 26.6555 4.1683 26.655 4.1683 26.6545C4.1683 26.654 4.1683 26.6535 4.1683 26.653C4.1683 26.6525 4.1683 26.652 4.1683 26.6516C4.1683 26.6511 4.1683 26.6506 4.1683 26.6501C4.1683 26.6496 4.1683 26.6491 4.1683 26.6486C4.1683 26.6481 4.1683 26.6476 4.1683 26.6472C4.1683 26.6467 4.1683 26.6462 4.1683 26.6457C4.1683 26.6452 4.1683 26.6447 4.1683 26.6442C4.1683 26.6438 4.1683 26.6433 4.1683 26.6428C4.1683 26.6423 4.1683 26.6418 4.1683 26.6413C4.1683 26.6409 4.1683 26.6404 4.1683 26.6399C4.1683 26.6394 4.1683 26.6389 4.1683 26.6385C4.1683 26.638 4.1683 26.6375 4.1683 26.637C4.1683 26.6365 4.1683 26.6361 4.1683 26.6356C4.1683 26.6351 4.1683 26.6346 4.1683 26.6341C4.1683 26.6337 4.1683 26.6332 4.1683 26.6327C4.1683 26.6322 4.1683 26.6318 4.1683 26.6313C4.1683 26.6308 4.1683 26.6303 4.1683 26.6299C4.1683 26.6294 4.1683 26.6289 4.1683 26.6284C4.1683 26.628 4.1683 26.6275 4.1683 26.627C4.1683 26.6265 4.1683 26.6261 4.1683 26.6256C4.1683 26.6251 4.1683 26.6246 4.1683 26.6242C4.1683 26.6237 4.1683 26.6232 4.1683 26.6228C4.1683 26.6223 4.1683 26.6218 4.1683 26.6214C4.1683 26.6209 4.1683 26.6204 4.1683 26.62C4.1683 26.6195 4.1683 26.619 4.1683 26.6185C4.1683 26.6181 4.1683 26.6176 4.1683 26.6171C4.1683 26.6167 4.1683 26.6162 4.1683 26.6158C4.1683 26.6153 4.1683 26.6148 4.1683 26.6144C4.1683 26.6139 4.1683 26.6134 4.1683 26.613C4.1683 26.6125 4.1683 26.612 4.1683 26.6116C4.1683 26.6111 4.1683 26.6107 4.1683 26.6102C4.1683 26.6097 4.1683 26.6093 4.1683 26.6088C4.1683 26.6083 4.1683 26.6079 4.1683 26.6074C4.1683 26.607 4.1683 26.6065 4.1683 26.6061C4.1683 26.6056 4.1683 26.6051 4.1683 26.6047C4.1683 26.6042 4.1683 26.6038 4.1683 26.6033C4.1683 26.6029 4.1683 26.6024 4.1683 26.6019C4.1683 26.6015 4.1683 26.601 4.1683 26.6006C4.1683 26.6001 4.1683 26.5997 4.1683 26.5992C4.1683 26.5988 4.1683 26.5983 4.1683 26.5979C4.1683 26.5974 4.1683 26.5969 4.1683 26.5965C4.1683 26.596 4.1683 26.5956 4.1683 26.5951C4.1683 26.5947 4.1683 26.5942 4.1683 26.5938C4.1683 26.5933 4.1683 26.5929 4.1683 26.5924C4.1683 26.592 4.1683 26.5915 4.1683 26.5911C4.1683 26.5907 4.1683 26.5902 4.1683 26.5898C4.1683 26.5893 4.1683 26.5889 4.1683 26.5884C4.1683 26.588 4.1683 26.5875 4.1683 26.5871C4.1683 26.5866 4.1683 26.5862 4.1683 26.5858C4.1683 26.5853 4.1683 26.5849 4.1683 26.5844C4.1683 26.584 4.1683 26.5835 4.1683 26.5831C4.1683 26.5826 4.1683 26.5822 4.1683 26.5818C4.1683 26.5813 4.1683 26.5809 4.1683 26.5804C4.1683 26.58 4.1683 26.5796 4.1683 26.5791C4.1683 26.5787 4.1683 26.5782 4.1683 26.5778C4.1683 26.5774 4.1683 26.5769 4.1683 26.5765C4.1683 26.5761 4.1683 26.5756 4.1683 26.5752C4.1683 26.5747 4.1683 26.5743 4.1683 26.5739C4.1683 26.5734 4.1683 26.573 4.1683 26.5726C4.1683 26.5721 4.1683 26.5717 4.1683 26.5713C4.1683 26.5708 4.1683 26.5704 4.1683 26.57C4.1683 26.5695 4.1683 26.5691 4.1683 26.5687C4.1683 26.5682 4.1683 26.5678 4.1683 26.5674C4.1683 26.567 4.1683 26.5665 4.1683 26.5661C4.1683 26.5657 4.1683 26.5652 4.1683 26.5648C4.1683 26.5644 4.1683 26.564 4.1683 26.5635C4.1683 26.5631 4.1683 26.5627 4.1683 26.5622C4.1683 26.5618 4.1683 26.5614 4.1683 26.561C4.1683 26.5605 4.1683 26.5601 4.1683 26.5597C4.1683 26.5593 4.1683 26.5588 4.1683 26.5584C4.1683 26.558 4.1683 26.5576 4.1683 26.5571C4.1683 26.5567 4.1683 26.5563 4.1683 26.5559C4.1683 26.5555 4.1683 26.555 4.1683 26.5546C4.1683 26.5542 4.1683 26.5538 4.1683 26.5534C4.1683 26.5529 4.1683 26.5525 4.1683 26.5521C4.1683 26.5517 4.1683 26.5513 4.1683 26.5508C4.1683 26.5504 4.1683 26.55 4.1683 26.5496C4.1683 26.5492 4.1683 26.5488 4.1683 26.5483C4.1683 26.5479 4.1683 26.5475 4.1683 26.5471C4.1683 26.5467 4.1683 26.5463 4.1683 26.5459C4.1683 26.5454 4.1683 26.545 4.1683 26.5446C4.1683 26.5442 4.1683 26.5438 4.1683 26.5434C4.1683 26.543 4.1683 26.5426 4.1683 26.5421C4.1683 26.5417 4.1683 26.5413 4.1683 26.5409C4.1683 26.5405 4.1683 26.5401 4.1683 26.5397C4.1683 26.5393 4.1683 26.5389 4.1683 26.5385C4.1683 26.538 4.1683 26.5376 4.1683 26.5372C4.1683 26.5368 4.1683 26.5364 4.1683 26.536C4.1683 26.5356 4.1683 26.5352 4.1683 26.5348C4.1683 26.5344 4.1683 26.534 4.1683 26.5336C4.1683 26.5332 4.1683 26.5328 4.1683 26.5324C4.1683 26.532 4.1683 26.5316 4.1683 26.5312C4.1683 26.5308 4.1683 26.5304 4.1683 26.53C4.1683 26.5296 4.1683 26.5292 4.1683 26.5288C4.1683 26.5284 4.1683 26.528 4.1683 26.5275C4.1683 26.5271 4.1683 26.5268 4.1683 26.5264C4.1683 26.526 4.1683 26.5256 4.1683 26.5252C4.1683 26.5248 4.1683 26.5244 4.1683 26.524C4.1683 26.5236 4.1683 26.5232 4.1683 26.5228C4.1683 26.5224 4.1683 26.522 4.1683 26.5216C4.1683 26.5212 4.1683 26.5208 4.1683 26.5204C4.1683 26.52 4.1683 26.5196 4.1683 26.5192C4.1683 26.5188 4.1683 26.5184 4.1683 26.5181C4.1683 26.5177 4.1683 26.5173 4.1683 26.5169C4.1683 26.5165 4.1683 26.5161 4.1683 26.5157C4.1683 26.5153 4.1683 26.5149 4.1683 26.5145C4.1683 26.5142 4.1683 26.5138 4.1683 26.5134C4.1683 26.513 4.1683 26.5126 4.1683 26.5122C4.1683 26.5118 4.1683 26.5114 4.1683 26.5111C4.1683 26.5107 4.1683 26.5103 4.1683 26.5099C4.1683 26.5095 4.1683 26.5091 4.1683 26.5087C4.1683 26.5084 4.1683 26.508 4.1683 26.5076C4.1683 26.5072 4.1683 26.5068 4.1683 26.5064C4.1683 26.5061 4.1683 26.5057 4.1683 26.5053C4.1683 26.5049 4.1683 26.5045 4.1683 26.5042C4.1683 26.5038 4.1683 26.5034 4.1683 26.503C4.1683 26.5026 4.1683 26.5023 4.1683 26.5019C4.1683 26.5015 4.1683 26.5011 4.1683 26.5008C4.1683 26.5004 4.1683 26.5 4.1683 26.4996C4.1683 26.4992 4.1683 26.4989 4.1683 26.4985C4.1683 26.4981 4.1683 26.4977 4.1683 26.4974C4.1683 26.497 4.1683 26.4966 4.1683 26.4962C4.1683 26.4959 4.1683 26.4955 4.1683 26.4951C4.1683 26.4948 4.1683 26.4944 4.1683 26.494C4.1683 26.4936 4.1683 26.4933 4.1683 26.4929C4.1683 26.4925 4.1683 26.4922 4.1683 26.4918C4.1683 26.4914 4.1683 26.4911 4.1683 26.4907C4.1683 26.4903 4.1683 26.4899 4.1683 26.4896C4.1683 26.4892 4.1683 26.4888 4.1683 26.4885C4.1683 26.4881 4.1683 26.4877 4.1683 26.4874C4.1683 26.487 4.1683 26.4866 4.1683 26.4863C4.1683 26.4859 4.1683 26.4856 4.1683 26.4852C4.1683 26.4848 4.1683 26.4845 4.1683 26.4841C4.1683 26.4837 4.1683 26.4834 4.1683 26.483C4.1683 26.4827 4.1683 26.4823 4.1683 26.4819C4.1683 26.4816 4.1683 26.4812 4.1683 26.4808C4.1683 26.4805 4.1683 26.4801 4.1683 26.4798C4.1683 26.4794 4.1683 26.4791 4.1683 26.4787C4.1683 26.4783 4.1683 26.478 4.1683 26.4776C4.1683 26.4773 4.1683 26.4769 4.1683 26.4766C4.1683 26.4762 4.1683 26.4758 4.1683 26.4755C4.1683 26.4751 4.1683 26.4748 4.1683 26.4744C4.1683 26.4741 4.1683 26.4737 4.1683 26.4734C4.1683 26.473 4.1683 26.4727 4.1683 26.4723C4.1683 26.472 4.1683 26.4716 4.1683 26.4712C4.1683 26.4709 4.1683 26.4705 4.1683 26.4702C4.1683 26.4698 4.1683 26.4695 4.1683 26.4691C4.1683 26.4688 4.1683 26.4684 4.1683 26.4681C4.1683 26.4678 4.1683 26.4674 4.1683 26.4671C4.1683 26.4667 4.1683 26.4664 4.1683 26.466H2.6683H1.1683C1.1683 26.4664 1.1683 26.4667 1.1683 26.4671C1.1683 26.4674 1.1683 26.4678 1.1683 26.4681C1.1683 26.4684 1.1683 26.4688 1.1683 26.4691C1.1683 26.4695 1.1683 26.4698 1.1683 26.4702C1.1683 26.4705 1.1683 26.4709 1.1683 26.4712C1.1683 26.4716 1.1683 26.472 1.1683 26.4723C1.1683 26.4727 1.1683 26.473 1.1683 26.4734C1.1683 26.4737 1.1683 26.4741 1.1683 26.4744C1.1683 26.4748 1.1683 26.4751 1.1683 26.4755C1.1683 26.4758 1.1683 26.4762 1.1683 26.4766C1.1683 26.4769 1.1683 26.4773 1.1683 26.4776C1.1683 26.478 1.1683 26.4783 1.1683 26.4787C1.1683 26.4791 1.1683 26.4794 1.1683 26.4798C1.1683 26.4801 1.1683 26.4805 1.1683 26.4808C1.1683 26.4812 1.1683 26.4816 1.1683 26.4819C1.1683 26.4823 1.1683 26.4827 1.1683 26.483C1.1683 26.4834 1.1683 26.4837 1.1683 26.4841C1.1683 26.4845 1.1683 26.4848 1.1683 26.4852C1.1683 26.4856 1.1683 26.4859 1.1683 26.4863C1.1683 26.4866 1.1683 26.487 1.1683 26.4874C1.1683 26.4877 1.1683 26.4881 1.1683 26.4885C1.1683 26.4888 1.1683 26.4892 1.1683 26.4896C1.1683 26.4899 1.1683 26.4903 1.1683 26.4907C1.1683 26.4911 1.1683 26.4914 1.1683 26.4918C1.1683 26.4922 1.1683 26.4925 1.1683 26.4929C1.1683 26.4933 1.1683 26.4936 1.1683 26.494C1.1683 26.4944 1.1683 26.4948 1.1683 26.4951C1.1683 26.4955 1.1683 26.4959 1.1683 26.4962C1.1683 26.4966 1.1683 26.497 1.1683 26.4974C1.1683 26.4977 1.1683 26.4981 1.1683 26.4985C1.1683 26.4989 1.1683 26.4992 1.1683 26.4996C1.1683 26.5 1.1683 26.5004 1.1683 26.5008C1.1683 26.5011 1.1683 26.5015 1.1683 26.5019C1.1683 26.5023 1.1683 26.5026 1.1683 26.503C1.1683 26.5034 1.1683 26.5038 1.1683 26.5042C1.1683 26.5045 1.1683 26.5049 1.1683 26.5053C1.1683 26.5057 1.1683 26.5061 1.1683 26.5064C1.1683 26.5068 1.1683 26.5072 1.1683 26.5076C1.1683 26.508 1.1683 26.5084 1.1683 26.5087C1.1683 26.5091 1.1683 26.5095 1.1683 26.5099C1.1683 26.5103 1.1683 26.5107 1.1683 26.5111C1.1683 26.5114 1.1683 26.5118 1.1683 26.5122C1.1683 26.5126 1.1683 26.513 1.1683 26.5134C1.1683 26.5138 1.1683 26.5142 1.1683 26.5145C1.1683 26.5149 1.1683 26.5153 1.1683 26.5157C1.1683 26.5161 1.1683 26.5165 1.1683 26.5169C1.1683 26.5173 1.1683 26.5177 1.1683 26.5181C1.1683 26.5184 1.1683 26.5188 1.1683 26.5192C1.1683 26.5196 1.1683 26.52 1.1683 26.5204C1.1683 26.5208 1.1683 26.5212 1.1683 26.5216C1.1683 26.522 1.1683 26.5224 1.1683 26.5228C1.1683 26.5232 1.1683 26.5236 1.1683 26.524C1.1683 26.5244 1.1683 26.5248 1.1683 26.5252C1.1683 26.5256 1.1683 26.526 1.1683 26.5264C1.1683 26.5268 1.1683 26.5271 1.1683 26.5275C1.1683 26.528 1.1683 26.5284 1.1683 26.5288C1.1683 26.5292 1.1683 26.5296 1.1683 26.53C1.1683 26.5304 1.1683 26.5308 1.1683 26.5312C1.1683 26.5316 1.1683 26.532 1.1683 26.5324C1.1683 26.5328 1.1683 26.5332 1.1683 26.5336C1.1683 26.534 1.1683 26.5344 1.1683 26.5348C1.1683 26.5352 1.1683 26.5356 1.1683 26.536C1.1683 26.5364 1.1683 26.5368 1.1683 26.5372C1.1683 26.5376 1.1683 26.538 1.1683 26.5385C1.1683 26.5389 1.1683 26.5393 1.1683 26.5397C1.1683 26.5401 1.1683 26.5405 1.1683 26.5409C1.1683 26.5413 1.1683 26.5417 1.1683 26.5421C1.1683 26.5426 1.1683 26.543 1.1683 26.5434C1.1683 26.5438 1.1683 26.5442 1.1683 26.5446C1.1683 26.545 1.1683 26.5454 1.1683 26.5459C1.1683 26.5463 1.1683 26.5467 1.1683 26.5471C1.1683 26.5475 1.1683 26.5479 1.1683 26.5483C1.1683 26.5488 1.1683 26.5492 1.1683 26.5496C1.1683 26.55 1.1683 26.5504 1.1683 26.5508C1.1683 26.5513 1.1683 26.5517 1.1683 26.5521C1.1683 26.5525 1.1683 26.5529 1.1683 26.5534C1.1683 26.5538 1.1683 26.5542 1.1683 26.5546C1.1683 26.555 1.1683 26.5555 1.1683 26.5559C1.1683 26.5563 1.1683 26.5567 1.1683 26.5571C1.1683 26.5576 1.1683 26.558 1.1683 26.5584C1.1683 26.5588 1.1683 26.5593 1.1683 26.5597C1.1683 26.5601 1.1683 26.5605 1.1683 26.561C1.1683 26.5614 1.1683 26.5618 1.1683 26.5622C1.1683 26.5627 1.1683 26.5631 1.1683 26.5635C1.1683 26.564 1.1683 26.5644 1.1683 26.5648C1.1683 26.5652 1.1683 26.5657 1.1683 26.5661C1.1683 26.5665 1.1683 26.567 1.1683 26.5674C1.1683 26.5678 1.1683 26.5682 1.1683 26.5687C1.1683 26.5691 1.1683 26.5695 1.1683 26.57C1.1683 26.5704 1.1683 26.5708 1.1683 26.5713C1.1683 26.5717 1.1683 26.5721 1.1683 26.5726C1.1683 26.573 1.1683 26.5734 1.1683 26.5739C1.1683 26.5743 1.1683 26.5747 1.1683 26.5752C1.1683 26.5756 1.1683 26.5761 1.1683 26.5765C1.1683 26.5769 1.1683 26.5774 1.1683 26.5778C1.1683 26.5782 1.1683 26.5787 1.1683 26.5791C1.1683 26.5796 1.1683 26.58 1.1683 26.5804C1.1683 26.5809 1.1683 26.5813 1.1683 26.5818C1.1683 26.5822 1.1683 26.5826 1.1683 26.5831C1.1683 26.5835 1.1683 26.584 1.1683 26.5844C1.1683 26.5849 1.1683 26.5853 1.1683 26.5858C1.1683 26.5862 1.1683 26.5866 1.1683 26.5871C1.1683 26.5875 1.1683 26.588 1.1683 26.5884C1.1683 26.5889 1.1683 26.5893 1.1683 26.5898C1.1683 26.5902 1.1683 26.5907 1.1683 26.5911C1.1683 26.5915 1.1683 26.592 1.1683 26.5924C1.1683 26.5929 1.1683 26.5933 1.1683 26.5938C1.1683 26.5942 1.1683 26.5947 1.1683 26.5951C1.1683 26.5956 1.1683 26.596 1.1683 26.5965C1.1683 26.5969 1.1683 26.5974 1.1683 26.5979C1.1683 26.5983 1.1683 26.5988 1.1683 26.5992C1.1683 26.5997 1.1683 26.6001 1.1683 26.6006C1.1683 26.601 1.1683 26.6015 1.1683 26.6019C1.1683 26.6024 1.1683 26.6029 1.1683 26.6033C1.1683 26.6038 1.1683 26.6042 1.1683 26.6047C1.1683 26.6051 1.1683 26.6056 1.1683 26.6061C1.1683 26.6065 1.1683 26.607 1.1683 26.6074C1.1683 26.6079 1.1683 26.6083 1.1683 26.6088C1.1683 26.6093 1.1683 26.6097 1.1683 26.6102C1.1683 26.6107 1.1683 26.6111 1.1683 26.6116C1.1683 26.612 1.1683 26.6125 1.1683 26.613C1.1683 26.6134 1.1683 26.6139 1.1683 26.6144C1.1683 26.6148 1.1683 26.6153 1.1683 26.6158C1.1683 26.6162 1.1683 26.6167 1.1683 26.6171C1.1683 26.6176 1.1683 26.6181 1.1683 26.6185C1.1683 26.619 1.1683 26.6195 1.1683 26.62C1.1683 26.6204 1.1683 26.6209 1.1683 26.6214C1.1683 26.6218 1.1683 26.6223 1.1683 26.6228C1.1683 26.6232 1.1683 26.6237 1.1683 26.6242C1.1683 26.6246 1.1683 26.6251 1.1683 26.6256C1.1683 26.6261 1.1683 26.6265 1.1683 26.627C1.1683 26.6275 1.1683 26.628 1.1683 26.6284C1.1683 26.6289 1.1683 26.6294 1.1683 26.6299C1.1683 26.6303 1.1683 26.6308 1.1683 26.6313C1.1683 26.6318 1.1683 26.6322 1.1683 26.6327C1.1683 26.6332 1.1683 26.6337 1.1683 26.6341C1.1683 26.6346 1.1683 26.6351 1.1683 26.6356C1.1683 26.6361 1.1683 26.6365 1.1683 26.637C1.1683 26.6375 1.1683 26.638 1.1683 26.6385C1.1683 26.6389 1.1683 26.6394 1.1683 26.6399C1.1683 26.6404 1.1683 26.6409 1.1683 26.6413C1.1683 26.6418 1.1683 26.6423 1.1683 26.6428C1.1683 26.6433 1.1683 26.6438 1.1683 26.6442C1.1683 26.6447 1.1683 26.6452 1.1683 26.6457C1.1683 26.6462 1.1683 26.6467 1.1683 26.6472C1.1683 26.6476 1.1683 26.6481 1.1683 26.6486C1.1683 26.6491 1.1683 26.6496 1.1683 26.6501C1.1683 26.6506 1.1683 26.6511 1.1683 26.6516C1.1683 26.652 1.1683 26.6525 1.1683 26.653C1.1683 26.6535 1.1683 26.654 1.1683 26.6545C1.1683 26.655 1.1683 26.6555 1.1683 26.656C1.1683 26.6565 1.1683 26.657 1.1683 26.6574C1.1683 26.6579 1.1683 26.6584 1.1683 26.6589C1.1683 26.6594 1.1683 26.6599 1.1683 26.6604C1.1683 26.6609 1.1683 26.6614 1.1683 26.6619C1.1683 26.6624 1.1683 26.6629 1.1683 26.6634C1.1683 26.6639 1.1683 26.6644 1.1683 26.6649C1.1683 26.6654 1.1683 26.6659 1.1683 26.6664C1.1683 26.6669 1.1683 26.6674 1.1683 26.6679C1.1683 26.6684 1.1683 26.6689 1.1683 26.6694C1.1683 26.6699 1.1683 26.6704 1.1683 26.6709C1.1683 26.6714 1.1683 26.6719 1.1683 26.6724C1.1683 26.6729 1.1683 26.6734 1.1683 26.6739C1.1683 26.6744 1.1683 26.6749 1.1683 26.6754C1.1683 26.6759 1.1683 26.6764 1.1683 26.6769C1.1683 26.6774 1.1683 26.6779 1.1683 26.6784C1.1683 26.679 1.1683 26.6795 1.1683 26.68C1.1683 26.6805 1.1683 26.681 1.1683 26.6815C1.1683 26.682 1.1683 26.6825 1.1683 26.683C1.1683 26.6835 1.1683 26.684 1.1683 26.6846C1.1683 26.6851 1.1683 26.6856 1.1683 26.6861C1.1683 26.6866 1.1683 26.6871 1.1683 26.6876C1.1683 26.6881 1.1683 26.6886 1.1683 26.6892C1.1683 26.6897 1.1683 26.6902 1.1683 26.6907C1.1683 26.6912 1.1683 26.6917 1.1683 26.6922C1.1683 26.6928 1.1683 26.6933 1.1683 26.6938C1.1683 26.6943 1.1683 26.6948 1.1683 26.6953C1.1683 26.6959 1.1683 26.6964 1.1683 26.6969C1.1683 26.6974 1.1683 26.6979 1.1683 26.6985C1.1683 26.699 1.1683 26.6995 1.1683 26.7C1.1683 26.7005 1.1683 26.7011 1.1683 26.7016C1.1683 26.7021 1.1683 26.7026 1.1683 26.7031C1.1683 26.7037 1.1683 26.7042 1.1683 26.7047C1.1683 26.7052 1.1683 26.7058 1.1683 26.7063C1.1683 26.7068 1.1683 26.7073 1.1683 26.7079C1.1683 26.7084 1.1683 26.7089 1.1683 26.7094C1.1683 26.71 1.1683 26.7105 1.1683 26.711C1.1683 26.7115 1.1683 26.7121 1.1683 26.7126C1.1683 26.7131 1.1683 26.7136 1.1683 26.7142C1.1683 26.7147 1.1683 26.7152 1.1683 26.7158C1.1683 26.7163 1.1683 26.7168 1.1683 26.7174C1.1683 26.7179 1.1683 26.7184 1.1683 26.719C1.1683 26.7195 1.1683 26.72 1.1683 26.7206C1.1683 26.7211 1.1683 26.7216 1.1683 26.7222C1.1683 26.7227 1.1683 26.7232 1.1683 26.7238C1.1683 26.7243 1.1683 26.7248 1.1683 26.7254C1.1683 26.7259 1.1683 26.7264 1.1683 26.727C1.1683 26.7275 1.1683 26.728 1.1683 26.7286C1.1683 26.7291 1.1683 26.7297 1.1683 26.7302C1.1683 26.7307 1.1683 26.7313 1.1683 26.7318C1.1683 26.7324 1.1683 26.7329 1.1683 26.7334C1.1683 26.734 1.1683 26.7345 1.1683 26.7351C1.1683 26.7356 1.1683 26.7361 1.1683 26.7367C1.1683 26.7372 1.1683 26.7378 1.1683 26.7383C1.1683 26.7389 1.1683 26.7394 1.1683 26.7399C1.1683 26.7405 1.1683 26.741 1.1683 26.7416C1.1683 26.7421 1.1683 26.7427 1.1683 26.7432C1.1683 26.7438 1.1683 26.7443 1.1683 26.7449C1.1683 26.7454 1.1683 26.746 1.1683 26.7465C1.1683 26.747 1.1683 26.7476 1.1683 26.7481C1.1683 26.7487 1.1683 26.7492 1.1683 26.7498C1.1683 26.7503 1.1683 26.7509 1.1683 26.7514C1.1683 26.752 1.1683 26.7526 1.1683 26.7531C1.1683 26.7537 1.1683 26.7542 1.1683 26.7548C1.1683 26.7553 1.1683 26.7559 1.1683 26.7564C1.1683 26.757 1.1683 26.7575 1.1683 26.7581C1.1683 26.7586 1.1683 26.7592 1.1683 26.7598C1.1683 26.7603 1.1683 26.7609 1.1683 26.7614C1.1683 26.762 1.1683 26.7625 1.1683 26.7631C1.1683 26.7637 1.1683 26.7642 1.1683 26.7648C1.1683 26.7653 1.1683 26.7659 1.1683 26.7664C1.1683 26.767 1.1683 26.7676 1.1683 26.7681C1.1683 26.7687 1.1683 26.7693 1.1683 26.7698C1.1683 26.7704 1.1683 26.7709 1.1683 26.7715C1.1683 26.7721 1.1683 26.7726 1.1683 26.7732C1.1683 26.7738 1.1683 26.7743 1.1683 26.7749C1.1683 26.7754 1.1683 26.776 1.1683 26.7766C1.1683 26.7771 1.1683 26.7777 1.1683 26.7783C1.1683 26.7788 1.1683 26.7794 1.1683 26.78C1.1683 26.7805 1.1683 26.7811 1.1683 26.7817C1.1683 26.7823 1.1683 26.7828 1.1683 26.7834C1.1683 26.784 1.1683 26.7845 1.1683 26.7851C1.1683 26.7857 1.1683 26.7862 1.1683 26.7868C1.1683 26.7874 1.1683 26.788 1.1683 26.7885C1.1683 26.7891 1.1683 26.7897 1.1683 26.7902C1.1683 26.7908 1.1683 26.7914 1.1683 26.792C1.1683 26.7925 1.1683 26.7931 1.1683 26.7937C1.1683 26.7943 1.1683 26.7948 1.1683 26.7954C1.1683 26.796 1.1683 26.7966 1.1683 26.7972C1.1683 26.7977 1.1683 26.7983 1.1683 26.7989C1.1683 26.7995 1.1683 26.8 1.1683 26.8006C1.1683 26.8012 1.1683 26.8018 1.1683 26.8024C1.1683 26.8029 1.1683 26.8035 1.1683 26.8041C1.1683 26.8047 1.1683 26.8053 1.1683 26.8059C1.1683 26.8064 1.1683 26.807 1.1683 26.8076C1.1683 26.8082 1.1683 26.8088 1.1683 26.8093C1.1683 26.8099 1.1683 26.8105 1.1683 26.8111C1.1683 26.8117 1.1683 26.8123 1.1683 26.8129C1.1683 26.8134 1.1683 26.814 1.1683 26.8146C1.1683 26.8152 1.1683 26.8158 1.1683 26.8164C1.1683 26.817 1.1683 26.8176 1.1683 26.8181C1.1683 26.8187 1.1683 26.8193 1.1683 26.8199C1.1683 26.8205 1.1683 26.8211 1.1683 26.8217C1.1683 26.8223 1.1683 26.8229 1.1683 26.8235C1.1683 26.8241 1.1683 26.8246 1.1683 26.8252C1.1683 26.8258 1.1683 26.8264 1.1683 26.827C1.1683 26.8276 1.1683 26.8282 1.1683 26.8288C1.1683 26.8294 1.1683 26.83 1.1683 26.8306C1.1683 26.8312 1.1683 26.8318 1.1683 26.8324C1.1683 26.833 1.1683 26.8336 1.1683 26.8342C1.1683 26.8348 1.1683 26.8354 1.1683 26.836C1.1683 26.8366 1.1683 26.8372 1.1683 26.8378C1.1683 26.8384 1.1683 26.839 1.1683 26.8396C1.1683 26.8402 1.1683 26.8408 1.1683 26.8414C1.1683 26.842 1.1683 26.8426 1.1683 26.8432C1.1683 26.8438 1.1683 26.8444 1.1683 26.845C1.1683 26.8456 1.1683 26.8462 1.1683 26.8468C1.1683 26.8474 1.1683 26.848 1.1683 26.8486C1.1683 26.8492 1.1683 26.8498 1.1683 26.8504C1.1683 26.851 1.1683 26.8516 1.1683 26.8522C1.1683 26.8528 1.1683 26.8535 1.1683 26.8541C1.1683 26.8547 1.1683 26.8553 1.1683 26.8559C1.1683 26.8565 1.1683 26.8571 1.1683 26.8577C1.1683 26.8583 1.1683 26.8589 1.1683 26.8596C1.1683 26.8602 1.1683 26.8608 1.1683 26.8614C1.1683 26.862 1.1683 26.8626 1.1683 26.8632C1.1683 26.8638 1.1683 26.8644 1.1683 26.8651C1.1683 26.8657 1.1683 26.8663 1.1683 26.8669C1.1683 26.8675 1.1683 26.8681 1.1683 26.8688C1.1683 26.8694 1.1683 26.87 1.1683 26.8706C1.1683 26.8712 1.1683 26.8718 1.1683 26.8725C1.1683 26.8731 1.1683 26.8737 1.1683 26.8743C1.1683 26.8749 1.1683 26.8755 1.1683 26.8762C1.1683 26.8768 1.1683 26.8774 1.1683 26.878C1.1683 26.8787 1.1683 26.8793 1.1683 26.8799C1.1683 26.8805 1.1683 26.8811 1.1683 26.8818C1.1683 26.8824 1.1683 26.883 1.1683 26.8836C1.1683 26.8843 1.1683 26.8849 1.1683 26.8855C1.1683 26.8861 1.1683 26.8867 1.1683 26.8874C1.1683 26.888 1.1683 26.8886 1.1683 26.8893C1.1683 26.8899 1.1683 26.8905 1.1683 26.8911C1.1683 26.8918 1.1683 26.8924 1.1683 26.893C1.1683 26.8937 1.1683 26.8943 1.1683 26.8949C1.1683 26.8955 1.1683 26.8962 1.1683 26.8968C1.1683 26.8974 1.1683 26.8981 1.1683 26.8987C1.1683 26.8993 1.1683 26.9 1.1683 26.9006C1.1683 26.9012 1.1683 26.9019 1.1683 26.9025C1.1683 26.9031 1.1683 26.9038 1.1683 26.9044C1.1683 26.905 1.1683 26.9057 1.1683 26.9063C1.1683 26.9069 1.1683 26.9076 1.1683 26.9082C1.1683 26.9088 1.1683 26.9095 1.1683 26.9101C1.1683 26.9107 1.1683 26.9114 1.1683 26.912C1.1683 26.9127 1.1683 26.9133 1.1683 26.9139C1.1683 26.9146 1.1683 26.9152 1.1683 26.9159C1.1683 26.9165 1.1683 26.9171 1.1683 26.9178C1.1683 26.9184 1.1683 26.9191 1.1683 26.9197C1.1683 26.9203 1.1683 26.921 1.1683 26.9216C1.1683 26.9223 1.1683 26.9229 1.1683 26.9236C1.1683 26.9242 1.1683 26.9249 1.1683 26.9255C1.1683 26.9261 1.1683 26.9268 1.1683 26.9274C1.1683 26.9281 1.1683 26.9287 1.1683 26.9294C1.1683 26.93 1.1683 26.9307 1.1683 26.9313C1.1683 26.932 1.1683 26.9326 1.1683 26.9333C1.1683 26.9339 1.1683 26.9346 1.1683 26.9352C1.1683 26.9359 1.1683 26.9365 1.1683 26.9372C1.1683 26.9378 1.1683 26.9385 1.1683 26.9391C1.1683 26.9398 1.1683 26.9404 1.1683 26.9411C1.1683 26.9417 1.1683 26.9424 1.1683 26.943C1.1683 26.9437 1.1683 26.9443 1.1683 26.945C1.1683 26.9456 1.1683 26.9463 1.1683 26.947C1.1683 26.9476 1.1683 26.9483 1.1683 26.9489C1.1683 26.9496 1.1683 26.9502 1.1683 26.9509C1.1683 26.9515 1.1683 26.9522 1.1683 26.9529C1.1683 26.9535 1.1683 26.9542 1.1683 26.9548C1.1683 26.9555 1.1683 26.9562 1.1683 26.9568C1.1683 26.9575 1.1683 26.9581 1.1683 26.9588C1.1683 26.9595 1.1683 26.9601 1.1683 26.9608C1.1683 26.9615 1.1683 26.9621 1.1683 26.9628C1.1683 26.9634 1.1683 26.9641 1.1683 26.9648C1.1683 26.9654 1.1683 26.9661 1.1683 26.9668C1.1683 26.9674 1.1683 26.9681 1.1683 26.9688C1.1683 26.9694 1.1683 26.9701 1.1683 26.9708C1.1683 26.9714 1.1683 26.9721 1.1683 26.9728C1.1683 26.9734 1.1683 26.9741 1.1683 26.9748C1.1683 26.9754 1.1683 26.9761 1.1683 26.9768C1.1683 26.9775 1.1683 26.9781 1.1683 26.9788C1.1683 26.9795 1.1683 26.9801 1.1683 26.9808C1.1683 26.9815 1.1683 26.9822 1.1683 26.9828C1.1683 26.9835 1.1683 26.9842 1.1683 26.9848C1.1683 26.9855 1.1683 26.9862 1.1683 26.9869C1.1683 26.9875 1.1683 26.9882 1.1683 26.9889C1.1683 26.9896 1.1683 26.9902 1.1683 26.9909C1.1683 26.9916 1.1683 26.9923 1.1683 26.993C1.1683 26.9936 1.1683 26.9943 1.1683 26.995C1.1683 26.9957 1.1683 26.9963 1.1683 26.997C1.1683 26.9977 1.1683 26.9984 1.1683 26.9991C1.1683 26.9998 1.1683 27.0004 1.1683 27.0011C1.1683 27.0018 1.1683 27.0025 1.1683 27.0032C1.1683 27.0038 1.1683 27.0045 1.1683 27.0052C1.1683 27.0059 1.1683 27.0066 1.1683 27.0073C1.1683 27.0079 1.1683 27.0086 1.1683 27.0093C1.1683 27.01 1.1683 27.0107 1.1683 27.0114C1.1683 27.0121 1.1683 27.0127 1.1683 27.0134C1.1683 27.0141 1.1683 27.0148 1.1683 27.0155C1.1683 27.0162 1.1683 27.0169 1.1683 27.0176C1.1683 27.0183 1.1683 27.0189 1.1683 27.0196C1.1683 27.0203 1.1683 27.021 1.1683 27.0217C1.1683 27.0224 1.1683 27.0231 1.1683 27.0238C1.1683 27.0245 1.1683 27.0252 1.1683 27.0259C1.1683 27.0266 1.1683 27.0273 1.1683 27.0279C1.1683 27.0286 1.1683 27.0293 1.1683 27.03C1.1683 27.0307 1.1683 27.0314 1.1683 27.0321C1.1683 27.0328 1.1683 27.0335 1.1683 27.0342C1.1683 27.0349 1.1683 27.0356 1.1683 27.0363C1.1683 27.037 1.1683 27.0377 1.1683 27.0384C1.1683 27.0391 1.1683 27.0398 1.1683 27.0405C1.1683 27.0412 1.1683 27.0419 1.1683 27.0426C1.1683 27.0433 1.1683 27.044 1.1683 27.0447C1.1683 27.0454 1.1683 27.0461 1.1683 27.0468C1.1683 27.0475 1.1683 27.0482 1.1683 27.0489C1.1683 27.0496 1.1683 27.0503 1.1683 27.051C1.1683 27.0517 1.1683 27.0524 1.1683 27.0531C1.1683 27.0539 1.1683 27.0546 1.1683 27.0553C1.1683 27.056 1.1683 27.0567 1.1683 27.0574C1.1683 27.0581 1.1683 27.0588 1.1683 27.0595C1.1683 27.0602 1.1683 27.0609 1.1683 27.0616C1.1683 27.0624 1.1683 27.0631 1.1683 27.0638C1.1683 27.0645 1.1683 27.0652 1.1683 27.0659C1.1683 27.0666 1.1683 27.0673 1.1683 27.068C1.1683 27.0688 1.1683 27.0695 1.1683 27.0702C1.1683 27.0709 1.1683 27.0716 1.1683 27.0723C1.1683 27.073 1.1683 27.0738 1.1683 27.0745C1.1683 27.0752 1.1683 27.0759 1.1683 27.0766C1.1683 27.0773 1.1683 27.078 1.1683 27.0788C1.1683 27.0795 1.1683 27.0802 1.1683 27.0809C1.1683 27.0816 1.1683 27.0824 1.1683 27.0831C1.1683 27.0838 1.1683 27.0845 1.1683 27.0852C1.1683 27.086 1.1683 27.0867 1.1683 27.0874C1.1683 27.0881 1.1683 27.0888 1.1683 27.0896C1.1683 27.0903 1.1683 27.091 1.1683 27.0917C1.1683 27.0925 1.1683 27.0932 1.1683 27.0939C1.1683 27.0946 1.1683 27.0954 1.1683 27.0961C1.1683 27.0968 1.1683 27.0975 1.1683 27.0983C1.1683 27.099 1.1683 27.0997 1.1683 27.1004C1.1683 27.1012 1.1683 27.1019 1.1683 27.1026C1.1683 27.1033 1.1683 27.1041 1.1683 27.1048C1.1683 27.1055 1.1683 27.1063 1.1683 27.107C1.1683 27.1077 1.1683 27.1085 1.1683 27.1092C1.1683 27.1099 1.1683 27.1106 1.1683 27.1114C1.1683 27.1121 1.1683 27.1128 1.1683 27.1136C1.1683 27.1143 1.1683 27.115 1.1683 27.1158C1.1683 27.1165 1.1683 27.1172 1.1683 27.118C1.1683 27.1187 1.1683 27.1194 1.1683 27.1202C1.1683 27.1209 1.1683 27.1217 1.1683 27.1224C1.1683 27.1231 1.1683 27.1239 1.1683 27.1246C1.1683 27.1253 1.1683 27.1261 1.1683 27.1268C1.1683 27.1276 1.1683 27.1283 1.1683 27.129C1.1683 27.1298 1.1683 27.1305 1.1683 27.1313C1.1683 27.132 1.1683 27.1327 1.1683 27.1335C1.1683 27.1342 1.1683 27.135 1.1683 27.1357C1.1683 27.1365 1.1683 27.1372 1.1683 27.1379C1.1683 27.1387 1.1683 27.1394 1.1683 27.1402C1.1683 27.1409 1.1683 27.1417 1.1683 27.1424C1.1683 27.1432 1.1683 27.1439 1.1683 27.1446C1.1683 27.1454 1.1683 27.1461 1.1683 27.1469C1.1683 27.1476 1.1683 27.1484 1.1683 27.1491C1.1683 27.1499 1.1683 27.1506 1.1683 27.1514C1.1683 27.1521 1.1683 27.1529 1.1683 27.1536C1.1683 27.1544 1.1683 27.1551 1.1683 27.1559C1.1683 27.1566 1.1683 27.1574 1.1683 27.1581C1.1683 27.1589 1.1683 27.1596 1.1683 27.1604C1.1683 27.1611 1.1683 27.1619 1.1683 27.1626C1.1683 27.1634 1.1683 27.1642 1.1683 27.1649C1.1683 27.1657 1.1683 27.1664 1.1683 27.1672C1.1683 27.1679 1.1683 27.1687 1.1683 27.1694C1.1683 27.1702 1.1683 27.171 1.1683 27.1717C1.1683 27.1725 1.1683 27.1732 1.1683 27.174C1.1683 27.1748 1.1683 27.1755 1.1683 27.1763C1.1683 27.177 1.1683 27.1778 1.1683 27.1786C1.1683 27.1793 1.1683 27.1801 1.1683 27.1808C1.1683 27.1816 1.1683 27.1824 1.1683 27.1831C1.1683 27.1839 1.1683 27.1847 1.1683 27.1854C1.1683 27.1862 1.1683 27.1869 1.1683 27.1877C1.1683 27.1885 1.1683 27.1892 1.1683 27.19C1.1683 27.1908 1.1683 27.1915 1.1683 27.1923C1.1683 27.1931 1.1683 27.1938 1.1683 27.1946C1.1683 27.1954 1.1683 27.1961 1.1683 27.1969C1.1683 27.1977 1.1683 27.1985 1.1683 27.1992C1.1683 27.2 1.1683 27.2008 1.1683 27.2015C1.1683 27.2023 1.1683 27.2031 1.1683 27.2038C1.1683 27.2046 1.1683 27.2054 1.1683 27.2062C1.1683 27.2069 1.1683 27.2077 1.1683 27.2085C1.1683 27.2093 1.1683 27.21 1.1683 27.2108C1.1683 27.2116 1.1683 27.2123 1.1683 27.2131C1.1683 27.2139 1.1683 27.2147 1.1683 27.2155C1.1683 27.2162 1.1683 27.217 1.1683 27.2178C1.1683 27.2186 1.1683 27.2193 1.1683 27.2201C1.1683 27.2209 1.1683 27.2217 1.1683 27.2225C1.1683 27.2232 1.1683 27.224 1.1683 27.2248C1.1683 27.2256 1.1683 27.2264 1.1683 27.2271C1.1683 27.2279 1.1683 27.2287 1.1683 27.2295C1.1683 27.2303 1.1683 27.231 1.1683 27.2318C1.1683 27.2326 1.1683 27.2334 1.1683 27.2342C1.1683 27.235 1.1683 27.2357 1.1683 27.2365C1.1683 27.2373 1.1683 27.2381 1.1683 27.2389C1.1683 27.2397 1.1683 27.2405 1.1683 27.2412C1.1683 27.242 1.1683 27.2428 1.1683 27.2436C1.1683 27.2444 1.1683 27.2452 1.1683 27.246C1.1683 27.2468 1.1683 27.2476 1.1683 27.2483C1.1683 27.2491 1.1683 27.2499 1.1683 27.2507C1.1683 27.2515 1.1683 27.2523 1.1683 27.2531C1.1683 27.2539 1.1683 27.2547 1.1683 27.2555C1.1683 27.2563 1.1683 27.2571 1.1683 27.2578C1.1683 27.2586 1.1683 27.2594 1.1683 27.2602C1.1683 27.261 1.1683 27.2618 1.1683 27.2626C1.1683 27.2634 1.1683 27.2642 1.1683 27.265C1.1683 27.2658 1.1683 27.2666 1.1683 27.2674C1.1683 27.2682 1.1683 27.269 1.1683 27.2698C1.1683 27.2706 1.1683 27.2714 1.1683 27.2722C1.1683 27.273 1.1683 27.2738 1.1683 27.2746C1.1683 27.2754 1.1683 27.2762 1.1683 27.277C1.1683 27.2778 1.1683 27.2786 1.1683 27.2794C1.1683 27.2802 1.1683 27.281 1.1683 27.2818C1.1683 27.2826 1.1683 27.2834 1.1683 27.2842C1.1683 27.285 1.1683 27.2858 1.1683 27.2866C1.1683 27.2874 1.1683 27.2882 1.1683 27.2891C1.1683 27.2899 1.1683 27.2907 1.1683 27.2915C1.1683 27.2923 1.1683 27.2931 1.1683 27.2939C1.1683 27.2947 1.1683 27.2955 1.1683 27.2963C1.1683 27.2971 1.1683 27.2979 1.1683 27.2988C1.1683 27.2996 1.1683 27.3004 1.1683 27.3012C1.1683 27.302 1.1683 27.3028 1.1683 27.3036C1.1683 27.3044 1.1683 27.3052 1.1683 27.3061C1.1683 27.3069 1.1683 27.3077 1.1683 27.3085C1.1683 27.3093 1.1683 27.3101 1.1683 27.3109C1.1683 27.3118 1.1683 27.3126 1.1683 27.3134C1.1683 27.3142 1.1683 27.315 1.1683 27.3158C1.1683 27.3167 1.1683 27.3175 1.1683 27.3183C1.1683 27.3191 1.1683 27.3199 1.1683 27.3207C1.1683 27.3216 1.1683 27.3224 1.1683 27.3232C1.1683 27.324 1.1683 27.3248 1.1683 27.3257C1.1683 27.3265 1.1683 27.3273 1.1683 27.3281C1.1683 27.3289 1.1683 27.3298 1.1683 27.3306C1.1683 27.3314 1.1683 27.3322 1.1683 27.3331C1.1683 27.3339 1.1683 27.3347 1.1683 27.3355C1.1683 27.3364 1.1683 27.3372 1.1683 27.338C1.1683 27.3388 1.1683 27.3397 1.1683 27.3405C1.1683 27.3413 1.1683 27.3421 1.1683 27.343C1.1683 27.3438 1.1683 27.3446 1.1683 27.3455C1.1683 27.3463 1.1683 27.3471 1.1683 27.3479C1.1683 27.3488 1.1683 27.3496 1.1683 27.3504C1.1683 27.3513 1.1683 27.3521 1.1683 27.3529C1.1683 27.3538 1.1683 27.3546 1.1683 27.3554C1.1683 27.3563 1.1683 27.3571 1.1683 27.3579C1.1683 27.3588 1.1683 27.3596 1.1683 27.3604C1.1683 27.3613 1.1683 27.3621 1.1683 27.3629C1.1683 27.3638 1.1683 27.3646 1.1683 27.3654C1.1683 27.3663 1.1683 27.3671 1.1683 27.3679C1.1683 27.3688 1.1683 27.3696 1.1683 27.3705C1.1683 27.3713 1.1683 27.3721 1.1683 27.373C1.1683 27.3738 1.1683 27.3747 1.1683 27.3755C1.1683 27.3763 1.1683 27.3772 1.1683 27.378H2.6683ZM2.6683 26.466H4.1683C4.1683 25.4078 4.33326 24.4741 4.64279 23.6487L3.2383 23.122L1.8338 22.5953C1.38333 23.7966 1.1683 25.0922 1.1683 26.466H2.6683ZM3.2383 23.122L4.63101 23.6791C4.99019 22.7811 5.44819 21.9556 6.00477 21.1986L4.7963 20.31L3.58782 19.4214C2.87773 20.3871 2.29707 21.4362 1.84558 22.5649L3.2383 23.122ZM4.7963 20.31L6.0169 21.1819C6.59728 20.3693 7.24717 19.6149 7.96743 18.9179L6.9243 17.84L5.88117 16.7621C5.03075 17.5851 4.26198 18.4774 3.5757 19.4382L4.7963 20.31ZM6.9243 17.84L7.95021 18.9343C8.76656 18.169 9.5703 17.4035 10.3614 16.6379L9.3183 15.56L8.27517 14.4821C7.49562 15.2365 6.70337 15.991 5.89839 16.7457L6.9243 17.84ZM9.3183 15.56L10.3562 16.643C10.9632 16.0613 11.5321 15.5177 12.0628 15.0122L11.0283 13.926L9.99381 12.8398C9.46054 13.3477 8.8894 13.8934 8.28044 14.477L9.3183 15.56ZM11.0283 13.926L12.089 14.9867C12.6456 14.4301 13.1441 13.8918 13.5817 13.3722L12.4343 12.406L11.2869 11.4398C10.9138 11.8829 10.475 12.358 9.96764 12.8654L11.0283 13.926ZM12.4343 12.406L13.6056 13.3431C14.0684 12.7645 14.4527 12.1725 14.7399 11.5661L13.3843 10.924L12.0287 10.2819C11.8599 10.6382 11.6108 11.0342 11.263 11.469L12.4343 12.406ZM13.3843 10.924L14.7522 11.5396C15.0588 10.8582 15.2263 10.1427 15.2263 9.40401H13.7263H12.2263C12.2263 9.67871 12.1658 9.97646 12.0164 10.3085L13.3843 10.924ZM13.7263 9.40401H15.2263C15.2263 8.02691 14.8272 6.67635 13.6528 5.83072L12.7763 7.04802L11.8998 8.26532C11.992 8.33168 12.2263 8.55179 12.2263 9.40401H13.7263ZM12.7763 7.04802L13.6528 5.83072C12.7162 5.1564 11.6075 4.86402 10.4203 4.86402V6.36402V7.86402C11.1078 7.86402 11.5697 8.02763 11.8998 8.26532L12.7763 7.04802ZM10.4203 6.36402V4.86402C9.56613 4.86402 8.74088 5.00705 7.95561 5.30152L8.4823 6.70602L9.00898 8.11051C9.43971 7.94899 9.90646 7.86402 10.4203 7.86402V6.36402ZM8.4823 6.70602L7.98952 5.28927C7.3139 5.52427 6.67528 5.82054 6.07656 6.17978L6.8483 7.46601L7.62004 8.75225C8.03465 8.50349 8.48536 8.2931 8.97508 8.12276L8.4823 6.70602ZM6.8483 7.46601L6.09674 6.16788C5.55036 6.48421 5.05431 6.82724 4.61811 7.20113L5.5943 8.34002L6.57048 9.4789C6.84361 9.24479 7.18357 9.00516 7.59985 8.76415L6.8483 7.46601ZM5.5943 8.34002L4.66756 7.16054C4.29663 7.45198 3.97593 7.72307 3.73564 7.96335L4.7963 9.02402L5.85696 10.0847C5.97134 9.9703 6.18263 9.78538 6.52103 9.51949L5.5943 8.34002ZM4.7963 9.02402L6.01848 8.15438L3.20648 4.20238L1.9843 5.07202L0.762111 5.94165L3.57411 9.89365L4.7963 9.02402ZM1.9843 5.07202L3.00689 6.16943C3.99434 5.2493 5.14626 4.48992 6.47388 3.89478L5.8603 2.52601L5.24671 1.15725C3.63567 1.87944 2.20359 2.81739 0.961708 3.9746L1.9843 5.07202ZM5.8603 2.52601L6.48448 3.88998C7.77682 3.29857 9.15917 3.00002 10.6483 3.00002V1.50002V1.52588e-05C8.74276 1.52588e-05 6.93311 0.38546 5.23611 1.16205L5.8603 2.52601ZM10.6483 1.50002V3.00002C12.0858 3.00002 13.2544 3.1658 14.1835 3.4614L14.6383 2.03201L15.0931 0.602625C13.7928 0.1889 12.3015 1.52588e-05 10.6483 1.52588e-05V1.50002ZM14.6383 2.03201L14.1835 3.4614C15.1307 3.76278 15.8365 4.17101 16.3536 4.65121L17.3743 3.55202L18.395 2.45283C17.4934 1.61568 16.3752 1.01058 15.0931 0.602627L14.6383 2.03201ZM17.3743 3.55202L16.3949 4.68813C16.926 5.14596 17.3105 5.70902 17.5551 6.40524L18.9703 5.90801L20.3855 5.41079C19.9714 4.23234 19.292 3.22474 18.3537 2.4159L17.3743 3.55202ZM18.9703 5.90801L17.5723 6.45168C17.848 7.16071 18.0023 8.00995 18.0023 9.02402H19.5023H21.0023C21.0023 7.70741 20.8019 6.47932 20.3683 5.36435L18.9703 5.90801Z" fill="#9428F3" mask="url(#path-1-outside-1_33_134)"/>
<defs>
<linearGradient id="paint0_linear_33_134" x1="10.3152" y1="-7.55798" x2="12.7663" y2="41.5418" gradientUnits="userSpaceOnUse">
<stop stop-color="#B5BCFF"/>
<stop offset="0.658906" stop-color="#AD7EFF"/>
<stop offset="1" stop-color="#5593FF"/>
</linearGradient>
</defs>
</svg>
