<svg width="22" height="31" viewBox="0 0 22 31" fill="none" xmlns="http://www.w3.org/2000/svg">
<mask id="path-1-outside-1_33_133" maskUnits="userSpaceOnUse" x="-0.449951" y="-0.557983" width="22" height="32" fill="black">
<rect fill="white" x="-0.449951" y="-0.557983" width="22" height="32"/>
<path d="M9.41522 29.012C8.73122 29.012 8.00922 28.9613 7.24922 28.86C6.48922 28.784 5.75455 28.67 5.04522 28.518C4.33589 28.366 3.68989 28.2013 3.10722 28.024C2.52455 27.8467 2.06855 27.682 1.73922 27.53L2.84122 22.818C3.49989 23.0967 4.33589 23.4007 5.34922 23.73C6.38789 24.034 7.66722 24.186 9.18722 24.186C10.9352 24.186 12.2146 23.8567 13.0252 23.198C13.8359 22.5393 14.2412 21.6527 14.2412 20.538C14.2412 19.854 14.0892 19.284 13.7852 18.828C13.5066 18.3467 13.1139 17.9667 12.6072 17.688C12.1006 17.384 11.4926 17.1813 10.7832 17.08C10.0992 16.9533 9.36455 16.89 8.57922 16.89H6.37522V12.33H8.88322C9.44055 12.33 9.97255 12.2793 10.4792 12.178C11.0112 12.0767 11.4799 11.912 11.8852 11.684C12.2906 11.4307 12.6072 11.1013 12.8352 10.696C13.0886 10.2653 13.2152 9.73335 13.2152 9.10002C13.2152 8.61868 13.1139 8.20068 12.9112 7.84601C12.7086 7.49135 12.4426 7.20002 12.1132 6.97202C11.8092 6.74402 11.4419 6.57935 11.0112 6.47802C10.6059 6.35135 10.1879 6.28802 9.75722 6.28802C8.66789 6.28802 7.65455 6.45268 6.71722 6.78201C5.80522 7.11135 4.96922 7.51668 4.20922 7.99801L2.19522 3.85602C2.60055 3.60268 3.06922 3.33668 3.60122 3.05801C4.15855 2.77935 4.76655 2.52602 5.42522 2.29802C6.08389 2.07002 6.78055 1.88002 7.51522 1.72802C8.27522 1.57602 9.07322 1.50001 9.90922 1.50001C11.4546 1.50001 12.7846 1.69002 13.8992 2.07002C15.0392 2.42468 15.9766 2.94402 16.7112 3.62801C17.4459 4.28668 17.9906 5.07202 18.3452 5.98402C18.6999 6.87068 18.8772 7.84602 18.8772 8.91002C18.8772 9.94868 18.5859 10.962 18.0032 11.95C17.4206 12.9127 16.6352 13.6473 15.6472 14.154C17.0152 14.7113 18.0666 15.5473 18.8012 16.662C19.5612 17.7513 19.9412 19.0687 19.9412 20.614C19.9412 21.83 19.7386 22.9573 19.3332 23.996C18.9279 25.0093 18.2946 25.896 17.4332 26.656C16.5719 27.3907 15.4699 27.9733 14.1272 28.404C12.8099 28.8093 11.2392 29.012 9.41522 29.012Z"/>
</mask>
<path d="M9.41522 29.012C8.73122 29.012 8.00922 28.9613 7.24922 28.86C6.48922 28.784 5.75455 28.67 5.04522 28.518C4.33589 28.366 3.68989 28.2013 3.10722 28.024C2.52455 27.8467 2.06855 27.682 1.73922 27.53L2.84122 22.818C3.49989 23.0967 4.33589 23.4007 5.34922 23.73C6.38789 24.034 7.66722 24.186 9.18722 24.186C10.9352 24.186 12.2146 23.8567 13.0252 23.198C13.8359 22.5393 14.2412 21.6527 14.2412 20.538C14.2412 19.854 14.0892 19.284 13.7852 18.828C13.5066 18.3467 13.1139 17.9667 12.6072 17.688C12.1006 17.384 11.4926 17.1813 10.7832 17.08C10.0992 16.9533 9.36455 16.89 8.57922 16.89H6.37522V12.33H8.88322C9.44055 12.33 9.97255 12.2793 10.4792 12.178C11.0112 12.0767 11.4799 11.912 11.8852 11.684C12.2906 11.4307 12.6072 11.1013 12.8352 10.696C13.0886 10.2653 13.2152 9.73335 13.2152 9.10002C13.2152 8.61868 13.1139 8.20068 12.9112 7.84601C12.7086 7.49135 12.4426 7.20002 12.1132 6.97202C11.8092 6.74402 11.4419 6.57935 11.0112 6.47802C10.6059 6.35135 10.1879 6.28802 9.75722 6.28802C8.66789 6.28802 7.65455 6.45268 6.71722 6.78201C5.80522 7.11135 4.96922 7.51668 4.20922 7.99801L2.19522 3.85602C2.60055 3.60268 3.06922 3.33668 3.60122 3.05801C4.15855 2.77935 4.76655 2.52602 5.42522 2.29802C6.08389 2.07002 6.78055 1.88002 7.51522 1.72802C8.27522 1.57602 9.07322 1.50001 9.90922 1.50001C11.4546 1.50001 12.7846 1.69002 13.8992 2.07002C15.0392 2.42468 15.9766 2.94402 16.7112 3.62801C17.4459 4.28668 17.9906 5.07202 18.3452 5.98402C18.6999 6.87068 18.8772 7.84602 18.8772 8.91002C18.8772 9.94868 18.5859 10.962 18.0032 11.95C17.4206 12.9127 16.6352 13.6473 15.6472 14.154C17.0152 14.7113 18.0666 15.5473 18.8012 16.662C19.5612 17.7513 19.9412 19.0687 19.9412 20.614C19.9412 21.83 19.7386 22.9573 19.3332 23.996C18.9279 25.0093 18.2946 25.896 17.4332 26.656C16.5719 27.3907 15.4699 27.9733 14.1272 28.404C12.8099 28.8093 11.2392 29.012 9.41522 29.012Z" fill="url(#paint0_linear_33_133)"/>
<path d="M7.24922 28.86L7.44747 27.3732L7.42302 27.3699L7.39848 27.3675L7.24922 28.86ZM5.04522 28.518L5.35951 27.0513V27.0513L5.04522 28.518ZM3.10722 28.024L3.54396 26.589V26.589L3.10722 28.024ZM1.73922 27.53L0.278633 27.1884L9.86457e-05 28.3794L1.11063 28.892L1.73922 27.53ZM2.84122 22.818L3.42568 21.4366L1.78606 20.7429L1.38063 22.4764L2.84122 22.818ZM5.34922 23.73L4.88559 25.1566L4.90664 25.1634L4.92787 25.1696L5.34922 23.73ZM13.0252 23.198L12.0793 22.0338V22.0338L13.0252 23.198ZM13.7852 18.828L12.4871 19.5796L12.5108 19.6206L12.5371 19.6601L13.7852 18.828ZM12.6072 17.688L11.8355 18.9743L11.8596 18.9888L11.8843 19.0023L12.6072 17.688ZM10.7832 17.08L10.5101 18.5549L10.5405 18.5606L10.5711 18.5649L10.7832 17.08ZM6.37522 16.89H4.87522V18.39H6.37522V16.89ZM6.37522 12.33V10.83H4.87522V12.33H6.37522ZM10.4792 12.178L10.1985 10.7044L10.185 10.7071L10.4792 12.178ZM11.8852 11.684L12.6206 12.9914L12.6508 12.9744L12.6802 12.956L11.8852 11.684ZM12.8352 10.696L11.5423 9.93549L11.535 9.94798L11.5279 9.96062L12.8352 10.696ZM12.9112 7.84601L14.2136 7.10181L14.2136 7.1018L12.9112 7.84601ZM12.1132 6.97202L11.2132 8.17202L11.236 8.1891L11.2594 8.20531L12.1132 6.97202ZM11.0112 6.47802L10.5638 7.90974L10.6152 7.9258L10.6677 7.93814L11.0112 6.47802ZM6.71722 6.78201L6.21997 5.36677L6.20775 5.37118L6.71722 6.78201ZM4.20922 7.99801L2.86024 8.65394L3.59407 10.1631L5.0118 9.26524L4.20922 7.99801ZM2.19522 3.85602L1.40022 2.58402L0.256408 3.2989L0.846237 4.51194L2.19522 3.85602ZM3.60122 3.05802L2.9304 1.71637L2.91774 1.7227L2.90521 1.72927L3.60122 3.05802ZM5.42522 2.29802L4.93456 0.880537L5.42522 2.29802ZM7.51522 1.72802L7.22104 0.257113L7.21131 0.259125L7.51522 1.72802ZM13.8992 2.07002L13.4152 3.48978L13.4343 3.4963L13.4536 3.5023L13.8992 2.07002ZM16.7112 3.62801L15.6891 4.72586L15.6994 4.73546L15.7099 4.74487L16.7112 3.62801ZM18.3452 5.98402L16.9472 6.52769L16.9498 6.53441L16.9525 6.5411L18.3452 5.98402ZM18.0032 11.95L19.2865 12.7267L19.2909 12.7194L19.2953 12.712L18.0032 11.95ZM15.6472 14.154L14.9627 12.8193L12.0552 14.3103L15.0813 15.5432L15.6472 14.154ZM18.8012 16.662L17.5488 17.4875L17.5597 17.504L17.571 17.5203L18.8012 16.662ZM19.3332 23.996L20.726 24.5531L20.7306 24.5413L19.3332 23.996ZM17.4332 26.656L18.4066 27.7973L18.4162 27.7891L18.4257 27.7808L17.4332 26.656ZM14.1272 28.404L14.5684 29.8377L14.5769 29.8351L14.5854 29.8323L14.1272 28.404ZM9.41522 29.012V27.512C8.80489 27.512 8.14948 27.4668 7.44747 27.3732L7.24922 28.86L7.05098 30.3469C7.86896 30.4559 8.65755 30.512 9.41522 30.512V29.012ZM7.24922 28.86L7.39848 27.3675C6.69103 27.2967 6.01158 27.191 5.35951 27.0513L5.04522 28.518L4.73093 29.9847C5.49753 30.149 6.28741 30.2713 7.09997 30.3526L7.24922 28.86ZM5.04522 28.518L5.35951 27.0513C4.68391 26.9065 4.07954 26.752 3.54396 26.589L3.10722 28.024L2.67048 29.459C3.30024 29.6507 3.98787 29.8255 4.73093 29.9847L5.04522 28.518ZM3.10722 28.024L3.54396 26.589C2.98927 26.4202 2.6073 26.2786 2.36781 26.1681L1.73922 27.53L1.11063 28.892C1.5298 29.0854 2.05984 29.2732 2.67048 29.459L3.10722 28.024ZM1.73922 27.53L3.19981 27.8716L4.30181 23.1596L2.84122 22.818L1.38063 22.4764L0.278633 27.1884L1.73922 27.53ZM2.84122 22.818L2.25676 24.1995C2.96911 24.5008 3.84905 24.8197 4.88559 25.1566L5.34922 23.73L5.81285 22.3035C4.82272 21.9817 4.03066 21.6925 3.42568 21.4366L2.84122 22.818ZM5.34922 23.73L4.92787 25.1696C6.14622 25.5262 7.57741 25.686 9.18722 25.686V24.186V22.686C7.75703 22.686 6.62956 22.5418 5.77057 22.2904L5.34922 23.73ZM9.18722 24.186V25.686C11.0669 25.686 12.7648 25.3423 13.9711 24.3622L13.0252 23.198L12.0793 22.0338C11.6643 22.371 10.8035 22.686 9.18722 22.686V24.186ZM13.0252 23.198L13.9711 24.3622C15.1585 23.3974 15.7412 22.0696 15.7412 20.538H14.2412H12.7412C12.7412 21.2358 12.5133 21.6813 12.0793 22.0338L13.0252 23.198ZM14.2412 20.538H15.7412C15.7412 19.6315 15.5381 18.7532 15.0333 17.996L13.7852 18.828L12.5371 19.6601C12.6403 19.8148 12.7412 20.0765 12.7412 20.538H14.2412ZM13.7852 18.828L15.0834 18.0765C14.6622 17.349 14.0663 16.7786 13.3301 16.3737L12.6072 17.688L11.8843 19.0023C12.1615 19.1548 12.3509 19.3444 12.4871 19.5796L13.7852 18.828ZM12.6072 17.688L13.379 16.4018C12.6685 15.9755 11.8615 15.7188 10.9954 15.5951L10.7832 17.08L10.5711 18.5649C11.1236 18.6439 11.5326 18.7925 11.8355 18.9743L12.6072 17.688ZM10.7832 17.08L11.0564 15.6051C10.2716 15.4598 9.44467 15.39 8.57922 15.39V16.89V18.39C9.28444 18.39 9.92682 18.4469 10.5101 18.5549L10.7832 17.08ZM8.57922 16.89V15.39H6.37522V16.89V18.39H8.57922V16.89ZM6.37522 16.89H7.87522V12.33H6.37522H4.87522V16.89H6.37522ZM6.37522 12.33V13.83H8.88322V12.33V10.83H6.37522V12.33ZM8.88322 12.33V13.83C9.53166 13.83 10.1626 13.771 10.7734 13.6489L10.4792 12.178L10.185 10.7071C9.78248 10.7877 9.34945 10.83 8.88322 10.83V12.33ZM10.4792 12.178L10.7599 13.6515C11.4258 13.5247 12.0526 13.3109 12.6206 12.9914L11.8852 11.684L11.1498 10.3767C10.9072 10.5131 10.5967 10.6287 10.1986 10.7045L10.4792 12.178ZM11.8852 11.684L12.6802 12.956C13.2924 12.5734 13.7879 12.0619 14.1426 11.4314L12.8352 10.696L11.5279 9.96062C11.4265 10.1408 11.2887 10.288 11.0902 10.412L11.8852 11.684ZM12.8352 10.696L14.1281 11.4565C14.5488 10.7414 14.7152 9.9303 14.7152 9.10002H13.2152H11.7152C11.7152 9.5364 11.6283 9.78933 11.5423 9.93549L12.8352 10.696ZM13.2152 9.10002H14.7152C14.7152 8.40446 14.5672 7.72058 14.2136 7.10181L12.9112 7.84601L11.6089 8.59022C11.6606 8.68079 11.7152 8.8329 11.7152 9.10002H13.2152ZM12.9112 7.84601L14.2136 7.1018C13.9021 6.55665 13.4843 6.0968 12.967 5.73873L12.1132 6.97202L11.2594 8.20531C11.4009 8.30323 11.515 8.42605 11.6089 8.59022L12.9112 7.84601ZM12.1132 6.97202L13.0132 5.77202C12.5187 5.40113 11.9541 5.15891 11.3548 5.01789L11.0112 6.47802L10.6677 7.93814C10.9297 7.99979 11.0997 8.0869 11.2132 8.17202L12.1132 6.97202ZM11.0112 6.47802L11.4586 5.0463C10.9064 4.87373 10.3374 4.78802 9.75722 4.78802V6.28802V7.78802C10.0383 7.78802 10.3054 7.82897 10.5638 7.90974L11.0112 6.47802ZM9.75722 6.28802V4.78802C8.51483 4.78802 7.33177 4.9762 6.21999 5.36682L6.71722 6.78201L7.21445 8.1972C7.97734 7.92916 8.82094 7.78802 9.75722 7.78802V6.28802ZM6.71722 6.78201L6.20775 5.37118C5.20102 5.73473 4.26567 6.18674 3.40664 6.73079L4.20922 7.99801L5.0118 9.26524C5.67277 8.84663 6.40942 8.48797 7.22669 8.19284L6.71722 6.78201ZM4.20922 7.99801L5.55821 7.34209L3.5442 3.20009L2.19522 3.85602L0.846237 4.51194L2.86024 8.65394L4.20922 7.99801ZM2.19522 3.85602L2.99022 5.12801C3.35636 4.89917 3.79083 4.65202 4.29723 4.38676L3.60122 3.05802L2.90521 1.72927C2.34761 2.02135 1.84474 2.30619 1.40022 2.58402L2.19522 3.85602ZM3.60122 3.05802L4.27204 4.39966C4.76467 4.15334 5.31174 3.92462 5.91589 3.71549L5.42522 2.29802L4.93456 0.880537C4.22137 1.12741 3.55244 1.40535 2.9304 1.71637L3.60122 3.05802ZM5.42522 2.29802L5.91589 3.71549C6.50905 3.51017 7.143 3.33679 7.81913 3.19691L7.51522 1.72802L7.21131 0.259125C6.41811 0.423237 5.65872 0.629862 4.93456 0.880537L5.42522 2.29802ZM7.51522 1.72802L7.8094 3.19889C8.46529 3.06771 9.16433 3.00002 9.90922 3.00002V1.50002V1.52588e-05C8.98211 1.52588e-05 8.08515 0.0843239 7.22104 0.257145L7.51522 1.72802ZM9.90922 1.50002V3.00002C11.3383 3.00002 12.4964 3.17656 13.4152 3.48978L13.8992 2.07002L14.3832 0.650251C13.0727 0.203472 11.5708 1.52588e-05 9.90922 1.52588e-05V1.50002ZM13.8992 2.07002L13.4536 3.5023C14.4191 3.80266 15.1474 4.22152 15.6891 4.72586L16.7112 3.62801L17.7333 2.53017C16.8057 1.66651 15.6594 1.0467 14.3448 0.637732L13.8992 2.07002ZM16.7112 3.62801L15.7099 4.74487C16.2707 5.24764 16.6787 5.83714 16.9472 6.52769L18.3452 5.98402L19.7432 5.44035C19.3024 4.30689 18.6211 3.32572 17.7125 2.51116L16.7112 3.62801ZM18.3452 5.98402L16.9525 6.5411C17.2286 7.23145 17.3772 8.01509 17.3772 8.91002H18.8772H20.3772C20.3772 7.67694 20.1711 6.50991 19.7379 5.42693L18.3452 5.98402ZM18.8772 8.91002H17.3772C17.3772 9.65332 17.1723 10.4061 16.7112 11.188L18.0032 11.95L19.2953 12.712C19.9995 11.5179 20.3772 10.244 20.3772 8.91002H18.8772ZM18.0032 11.95L16.72 11.1733C16.2793 11.9014 15.6998 12.4413 14.9627 12.8193L15.6472 14.154L16.3317 15.4887C17.5707 14.8534 18.5618 13.9239 19.2865 12.7267L18.0032 11.95ZM15.6472 14.154L15.0813 15.5432C16.1999 15.9989 16.9984 16.6524 17.5488 17.4875L18.8012 16.662L20.0537 15.8365C19.1347 14.4423 17.8305 13.4238 16.2132 12.7649L15.6472 14.154ZM18.8012 16.662L17.571 17.5203C18.128 18.3186 18.4412 19.324 18.4412 20.614H19.9412H21.4412C21.4412 18.8134 20.9945 17.1841 20.0314 15.8037L18.8012 16.662ZM19.9412 20.614H18.4412C18.4412 21.6604 18.2675 22.601 17.9359 23.4507L19.3332 23.996L20.7306 24.5413C21.2097 23.3137 21.4412 21.9996 21.4412 20.614H19.9412ZM19.3332 23.996L17.9405 23.4389C17.6269 24.2229 17.1356 24.9182 16.4408 25.5313L17.4332 26.656L18.4257 27.7808C19.4535 26.8739 20.2288 25.7958 20.7259 24.5531L19.3332 23.996ZM17.4332 26.656L16.4598 25.5148C15.7817 26.0932 14.8676 26.5913 13.6691 26.9757L14.1272 28.404L14.5854 29.8323C16.0722 29.3554 17.3621 28.6882 18.4066 27.7973L17.4332 26.656ZM14.1272 28.404L13.6861 26.9703C12.5493 27.3201 11.135 27.512 9.41522 27.512V29.012V30.512C11.3435 30.512 13.0705 30.2986 14.5684 29.8377L14.1272 28.404Z" fill="#3B5EDA" mask="url(#path-1-outside-1_33_133)"/>
<defs>
<linearGradient id="paint0_linear_33_133" x1="10.4121" y1="-7.55798" x2="12.5882" y2="48.6499" gradientUnits="userSpaceOnUse">
<stop stop-color="#B4E0FF"/>
<stop offset="0.355769" stop-color="#78C7FF"/>
<stop offset="1" stop-color="#5086E4"/>
</linearGradient>
</defs>
</svg>
