<svg width="100" height="24" viewBox="0 0 100 24" fill="none" xmlns="http://www.w3.org/2000/svg">
<mask id="path-1-outside-1_33_136" maskUnits="userSpaceOnUse" x="-0.0842285" y="-0.72998" width="100" height="25" fill="black">
<rect fill="white" x="-0.0842285" y="-0.72998" width="100" height="25"/>
<path d="M8.18206 18.7C8.84206 18.7 9.38206 18.65 9.80206 18.55C10.2421 18.43 10.5921 18.28 10.8521 18.1C11.1121 17.9 11.2921 17.67 11.3921 17.41C11.4921 17.15 11.5421 16.86 11.5421 16.54C11.5421 15.86 11.2221 15.3 10.5821 14.86C9.94206 14.4 8.84206 13.91 7.28206 13.39C6.60206 13.15 5.92206 12.88 5.24206 12.58C4.56206 12.26 3.95206 11.87 3.41206 11.41C2.87206 10.93 2.43206 10.36 2.09206 9.70002C1.75206 9.02002 1.58206 8.20002 1.58206 7.24002C1.58206 6.28002 1.76206 5.42002 2.12206 4.66002C2.48206 3.88002 2.99206 3.22002 3.65206 2.68002C4.31206 2.14002 5.11206 1.73002 6.05206 1.45002C6.99206 1.15002 8.05206 1.00002 9.23206 1.00002C10.6321 1.00002 11.8421 1.15002 12.8621 1.45002C13.8821 1.75002 14.7221 2.08002 15.3821 2.44002L14.0321 6.13002C13.4521 5.83002 12.8021 5.57002 12.0821 5.35002C11.3821 5.11002 10.5321 4.99002 9.53206 4.99002C8.41206 4.99002 7.60206 5.15002 7.10206 5.47002C6.62206 5.77002 6.38206 6.24002 6.38206 6.88002C6.38206 7.26002 6.47206 7.58002 6.65206 7.84002C6.83206 8.10002 7.08206 8.34002 7.40206 8.56002C7.74206 8.76002 8.12206 8.95002 8.54206 9.13002C8.98206 9.29002 9.46206 9.46002 9.98206 9.64002C11.0621 10.04 12.0021 10.44 12.8021 10.84C13.6021 11.22 14.2621 11.67 14.7821 12.19C15.3221 12.71 15.7221 13.32 15.9821 14.02C16.2421 14.72 16.3721 15.57 16.3721 16.57C16.3721 18.51 15.6921 20.02 14.3321 21.1C12.9721 22.16 10.9221 22.69 8.18206 22.69C7.26206 22.69 6.43206 22.63 5.69206 22.51C4.95206 22.41 4.29206 22.28 3.71206 22.12C3.15206 21.96 2.66206 21.79 2.24206 21.61C1.84206 21.43 1.50206 21.26 1.22206 21.1L2.54206 17.38C3.16206 17.72 3.92206 18.03 4.82206 18.31C5.74206 18.57 6.86206 18.7 8.18206 18.7ZM36.3071 1.48002V5.47002H30.0371V22.27H25.3571V5.47002H19.0871V1.48002H36.3071ZM52.2739 22.27C52.0539 21.55 51.8039 20.81 51.5239 20.05C51.2639 19.29 51.0039 18.53 50.7439 17.77H42.6439C42.3839 18.53 42.1139 19.29 41.8339 20.05C41.5739 20.81 41.3339 21.55 41.1139 22.27H36.2539C37.0339 20.03 37.7739 17.96 38.4739 16.06C39.1739 14.16 39.8539 12.37 40.5139 10.69C41.1939 9.01002 41.8539 7.42002 42.4939 5.92002C43.1539 4.40002 43.8339 2.92002 44.5339 1.48002H49.0039C49.6839 2.92002 50.3539 4.40002 51.0139 5.92002C51.6739 7.42002 52.3339 9.01002 52.9939 10.69C53.6739 12.37 54.3639 14.16 55.0639 16.06C55.7639 17.96 56.5039 20.03 57.2839 22.27H52.2739ZM46.6639 6.19002C46.5639 6.49002 46.4139 6.90002 46.2139 7.42002C46.0139 7.94002 45.7839 8.54002 45.5239 9.22002C45.2639 9.90002 44.9739 10.65 44.6539 11.47C44.3539 12.29 44.0439 13.15 43.7239 14.05H49.6339C49.3139 13.15 49.0039 12.29 48.7039 11.47C48.4039 10.65 48.1139 9.90002 47.8339 9.22002C47.5739 8.54002 47.3439 7.94002 47.1439 7.42002C46.9439 6.90002 46.7839 6.49002 46.6639 6.19002ZM67.565 1.24002C70.685 1.24002 73.075 1.80002 74.735 2.92002C76.395 4.02002 77.225 5.74002 77.225 8.08002C77.225 9.54002 76.885 10.73 76.205 11.65C75.545 12.55 74.585 13.26 73.325 13.78C73.745 14.3 74.185 14.9 74.645 15.58C75.105 16.24 75.555 16.94 75.995 17.68C76.455 18.4 76.895 19.16 77.315 19.96C77.735 20.74 78.125 21.51 78.485 22.27H73.235C72.855 21.59 72.465 20.9 72.065 20.2C71.685 19.5 71.285 18.82 70.865 18.16C70.465 17.5 70.065 16.88 69.665 16.3C69.265 15.7 68.865 15.16 68.465 14.68H66.155V22.27H61.475V1.78002C62.495 1.58002 63.545 1.44002 64.625 1.36002C65.725 1.28002 66.705 1.24002 67.565 1.24002ZM67.835 5.23002C67.495 5.23002 67.185 5.24002 66.905 5.26002C66.645 5.28002 66.395 5.30002 66.155 5.32002V10.96H67.475C69.235 10.96 70.495 10.74 71.255 10.3C72.015 9.86002 72.395 9.11002 72.395 8.05002C72.395 7.03002 72.005 6.31002 71.225 5.89002C70.465 5.45002 69.335 5.23002 67.835 5.23002ZM98.1117 1.48002V5.47002H91.8417V22.27H87.1617V5.47002H80.8917V1.48002H98.1117Z"/>
</mask>
<path d="M8.18206 18.7C8.84206 18.7 9.38206 18.65 9.80206 18.55C10.2421 18.43 10.5921 18.28 10.8521 18.1C11.1121 17.9 11.2921 17.67 11.3921 17.41C11.4921 17.15 11.5421 16.86 11.5421 16.54C11.5421 15.86 11.2221 15.3 10.5821 14.86C9.94206 14.4 8.84206 13.91 7.28206 13.39C6.60206 13.15 5.92206 12.88 5.24206 12.58C4.56206 12.26 3.95206 11.87 3.41206 11.41C2.87206 10.93 2.43206 10.36 2.09206 9.70002C1.75206 9.02002 1.58206 8.20002 1.58206 7.24002C1.58206 6.28002 1.76206 5.42002 2.12206 4.66002C2.48206 3.88002 2.99206 3.22002 3.65206 2.68002C4.31206 2.14002 5.11206 1.73002 6.05206 1.45002C6.99206 1.15002 8.05206 1.00002 9.23206 1.00002C10.6321 1.00002 11.8421 1.15002 12.8621 1.45002C13.8821 1.75002 14.7221 2.08002 15.3821 2.44002L14.0321 6.13002C13.4521 5.83002 12.8021 5.57002 12.0821 5.35002C11.3821 5.11002 10.5321 4.99002 9.53206 4.99002C8.41206 4.99002 7.60206 5.15002 7.10206 5.47002C6.62206 5.77002 6.38206 6.24002 6.38206 6.88002C6.38206 7.26002 6.47206 7.58002 6.65206 7.84002C6.83206 8.10002 7.08206 8.34002 7.40206 8.56002C7.74206 8.76002 8.12206 8.95002 8.54206 9.13002C8.98206 9.29002 9.46206 9.46002 9.98206 9.64002C11.0621 10.04 12.0021 10.44 12.8021 10.84C13.6021 11.22 14.2621 11.67 14.7821 12.19C15.3221 12.71 15.7221 13.32 15.9821 14.02C16.2421 14.72 16.3721 15.57 16.3721 16.57C16.3721 18.51 15.6921 20.02 14.3321 21.1C12.9721 22.16 10.9221 22.69 8.18206 22.69C7.26206 22.69 6.43206 22.63 5.69206 22.51C4.95206 22.41 4.29206 22.28 3.71206 22.12C3.15206 21.96 2.66206 21.79 2.24206 21.61C1.84206 21.43 1.50206 21.26 1.22206 21.1L2.54206 17.38C3.16206 17.72 3.92206 18.03 4.82206 18.31C5.74206 18.57 6.86206 18.7 8.18206 18.7ZM36.3071 1.48002V5.47002H30.0371V22.27H25.3571V5.47002H19.0871V1.48002H36.3071ZM52.2739 22.27C52.0539 21.55 51.8039 20.81 51.5239 20.05C51.2639 19.29 51.0039 18.53 50.7439 17.77H42.6439C42.3839 18.53 42.1139 19.29 41.8339 20.05C41.5739 20.81 41.3339 21.55 41.1139 22.27H36.2539C37.0339 20.03 37.7739 17.96 38.4739 16.06C39.1739 14.16 39.8539 12.37 40.5139 10.69C41.1939 9.01002 41.8539 7.42002 42.4939 5.92002C43.1539 4.40002 43.8339 2.92002 44.5339 1.48002H49.0039C49.6839 2.92002 50.3539 4.40002 51.0139 5.92002C51.6739 7.42002 52.3339 9.01002 52.9939 10.69C53.6739 12.37 54.3639 14.16 55.0639 16.06C55.7639 17.96 56.5039 20.03 57.2839 22.27H52.2739ZM46.6639 6.19002C46.5639 6.49002 46.4139 6.90002 46.2139 7.42002C46.0139 7.94002 45.7839 8.54002 45.5239 9.22002C45.2639 9.90002 44.9739 10.65 44.6539 11.47C44.3539 12.29 44.0439 13.15 43.7239 14.05H49.6339C49.3139 13.15 49.0039 12.29 48.7039 11.47C48.4039 10.65 48.1139 9.90002 47.8339 9.22002C47.5739 8.54002 47.3439 7.94002 47.1439 7.42002C46.9439 6.90002 46.7839 6.49002 46.6639 6.19002ZM67.565 1.24002C70.685 1.24002 73.075 1.80002 74.735 2.92002C76.395 4.02002 77.225 5.74002 77.225 8.08002C77.225 9.54002 76.885 10.73 76.205 11.65C75.545 12.55 74.585 13.26 73.325 13.78C73.745 14.3 74.185 14.9 74.645 15.58C75.105 16.24 75.555 16.94 75.995 17.68C76.455 18.4 76.895 19.16 77.315 19.96C77.735 20.74 78.125 21.51 78.485 22.27H73.235C72.855 21.59 72.465 20.9 72.065 20.2C71.685 19.5 71.285 18.82 70.865 18.16C70.465 17.5 70.065 16.88 69.665 16.3C69.265 15.7 68.865 15.16 68.465 14.68H66.155V22.27H61.475V1.78002C62.495 1.58002 63.545 1.44002 64.625 1.36002C65.725 1.28002 66.705 1.24002 67.565 1.24002ZM67.835 5.23002C67.495 5.23002 67.185 5.24002 66.905 5.26002C66.645 5.28002 66.395 5.30002 66.155 5.32002V10.96H67.475C69.235 10.96 70.495 10.74 71.255 10.3C72.015 9.86002 72.395 9.11002 72.395 8.05002C72.395 7.03002 72.005 6.31002 71.225 5.89002C70.465 5.45002 69.335 5.23002 67.835 5.23002ZM98.1117 1.48002V5.47002H91.8417V22.27H87.1617V5.47002H80.8917V1.48002H98.1117Z" fill="url(#paint0_linear_33_136)"/>
<path d="M9.80206 18.55L10.0337 19.5228L10.0495 19.5191L10.0652 19.5148L9.80206 18.55ZM10.8521 18.1L11.4213 18.9222L11.4419 18.9079L11.4618 18.8926L10.8521 18.1ZM11.3921 17.41L12.3254 17.769V17.769L11.3921 17.41ZM10.5821 14.86L9.99842 15.672L10.0069 15.6781L10.0155 15.6841L10.5821 14.86ZM7.28206 13.39L6.94924 14.333L6.95751 14.3359L6.96583 14.3387L7.28206 13.39ZM5.24206 12.58L4.81626 13.4848L4.82728 13.49L4.83842 13.4949L5.24206 12.58ZM3.41206 11.41L2.7477 12.1574L2.75557 12.1644L2.76359 12.1713L3.41206 11.41ZM2.09206 9.70002L1.19757 10.1473L1.20309 10.158L2.09206 9.70002ZM2.12206 4.66002L3.02584 5.08813L3.03002 5.07908L2.12206 4.66002ZM3.65206 2.68002L3.01882 1.90606L3.01882 1.90606L3.65206 2.68002ZM6.05206 1.45002L6.33754 2.40841L6.34685 2.40563L6.3561 2.40268L6.05206 1.45002ZM12.8621 1.45002L12.5799 2.40938L12.5799 2.40939L12.8621 1.45002ZM15.3821 2.44002L16.3212 2.7836L16.6172 1.97462L15.8609 1.56212L15.3821 2.44002ZM14.0321 6.13002L13.5726 7.01824L14.5811 7.53985L14.9712 6.4736L14.0321 6.13002ZM12.0821 5.35002L11.7577 6.29597L11.7737 6.30144L11.7898 6.30637L12.0821 5.35002ZM7.10206 5.47002L7.63209 6.31807L7.64112 6.31229L7.10206 5.47002ZM6.65206 7.84002L7.47425 7.27081H7.47425L6.65206 7.84002ZM7.40206 8.56002L6.83553 9.38406L6.86462 9.40406L6.89504 9.42195L7.40206 8.56002ZM8.54206 9.13002L8.14814 10.0492L8.17394 10.0602L8.20032 10.0698L8.54206 9.13002ZM9.98206 9.64002L10.3294 8.70227L10.3193 8.69854L10.3092 8.69503L9.98206 9.64002ZM12.8021 10.84L12.3548 11.7344L12.3639 11.739L12.373 11.7433L12.8021 10.84ZM14.7821 12.19L14.075 12.8971L14.0816 12.9038L14.0884 12.9103L14.7821 12.19ZM15.9821 14.02L15.0446 14.3682L15.9821 14.02ZM14.3321 21.1L14.9468 21.8888L14.9539 21.8831L14.3321 21.1ZM5.69206 22.51L5.85213 21.5229L5.83908 21.5208L5.82598 21.519L5.69206 22.51ZM3.71206 22.12L3.43733 23.0816L3.44613 23.084L3.71206 22.12ZM2.24206 21.61L1.8317 22.5219L1.83989 22.5256L1.84814 22.5292L2.24206 21.61ZM1.22206 21.1L0.279633 20.7656L6.3546e-05 21.5535L0.725922 21.9683L1.22206 21.1ZM2.54206 17.38L3.02289 16.5032L1.99258 15.9382L1.59963 17.0456L2.54206 17.38ZM4.82206 18.31L4.52499 19.2649L4.5375 19.2688L4.5501 19.2723L4.82206 18.31ZM8.18206 18.7V19.7C8.88368 19.7 9.5091 19.6477 10.0337 19.5228L9.80206 18.55L9.57044 17.5772C9.25502 17.6523 8.80045 17.7 8.18206 17.7V18.7ZM9.80206 18.55L10.0652 19.5148C10.5704 19.377 11.0367 19.1885 11.4213 18.9222L10.8521 18.1L10.2829 17.2778C10.1474 17.3716 9.91369 17.4831 9.53894 17.5853L9.80206 18.55ZM10.8521 18.1L11.4618 18.8926C11.8413 18.6007 12.1485 18.2289 12.3254 17.769L11.3921 17.41L10.4587 17.051C10.4356 17.1111 10.3828 17.1993 10.2424 17.3074L10.8521 18.1ZM11.3921 17.41L12.3254 17.769C12.4755 17.3787 12.5421 16.9647 12.5421 16.54H11.5421H10.5421C10.5421 16.7553 10.5086 16.9213 10.4587 17.051L11.3921 17.41ZM11.5421 16.54H12.5421C12.5421 15.4799 12.0152 14.6318 11.1486 14.036L10.5821 14.86L10.0155 15.6841C10.4289 15.9683 10.5421 16.2401 10.5421 16.54H11.5421ZM10.5821 14.86L11.1657 14.048C10.3958 13.4946 9.17349 12.9664 7.59829 12.4413L7.28206 13.39L6.96583 14.3387C8.51063 14.8536 9.48835 15.3054 9.99842 15.672L10.5821 14.86ZM7.28206 13.39L7.61488 12.447C6.95956 12.2157 6.30317 11.9552 5.6457 11.6651L5.24206 12.58L4.83842 13.4949C5.54095 13.8049 6.24457 14.0843 6.94924 14.333L7.28206 13.39ZM5.24206 12.58L5.66786 11.6752C5.06336 11.3907 4.52911 11.0479 4.06053 10.6488L3.41206 11.41L2.76359 12.1713C3.37501 12.6921 4.06076 13.1293 4.81626 13.4848L5.24206 12.58ZM3.41206 11.41L4.07642 10.6626C3.63103 10.2667 3.26622 9.79565 2.98104 9.24206L2.09206 9.70002L1.20309 10.158C1.59791 10.9244 2.11309 11.5933 2.7477 12.1574L3.41206 11.41ZM2.09206 9.70002L2.98649 9.2528C2.73173 8.74329 2.58206 8.08449 2.58206 7.24002H1.58206H0.582061C0.582061 8.31555 0.772393 9.29675 1.19763 10.1472L2.09206 9.70002ZM1.58206 7.24002H2.58206C2.58206 6.4071 2.73759 5.69655 3.0258 5.08811L2.12206 4.66002L1.21832 4.23193C0.786532 5.14349 0.582061 6.15294 0.582061 7.24002H1.58206ZM2.12206 4.66002L3.03002 5.07908C3.32701 4.43561 3.74348 3.89728 4.2853 3.45398L3.65206 2.68002L3.01882 1.90606C2.24064 2.54275 1.63712 3.32443 1.2141 4.24096L2.12206 4.66002ZM3.65206 2.68002L4.2853 3.45398C4.8285 3.00954 5.50562 2.65621 6.33754 2.40841L6.05206 1.45002L5.76658 0.491634C4.7185 0.803829 3.79562 1.2705 3.01882 1.90606L3.65206 2.68002ZM6.05206 1.45002L6.3561 2.40268C7.18075 2.13949 8.13567 2.00002 9.23206 2.00002V1.00002V1.71661e-05C7.96846 1.71661e-05 6.80338 0.160543 5.74802 0.49736L6.05206 1.45002ZM9.23206 1.00002V2.00002C10.5649 2.00002 11.6752 2.14331 12.5799 2.40938L12.8621 1.45002L13.1442 0.490654C12.0089 0.156731 10.6992 1.71661e-05 9.23206 1.71661e-05V1.00002ZM12.8621 1.45002L12.5799 2.40939C13.5573 2.69685 14.3254 3.00277 14.9032 3.31791L15.3821 2.44002L15.8609 1.56212C15.1187 1.15726 14.2068 0.80319 13.1442 0.490654L12.8621 1.45002ZM15.3821 2.44002L14.4429 2.09644L13.0929 5.78644L14.0321 6.13002L14.9712 6.4736L16.3212 2.7836L15.3821 2.44002ZM14.0321 6.13002L14.4915 5.2418C13.8505 4.91027 13.1434 4.62868 12.3743 4.39367L12.0821 5.35002L11.7898 6.30637C12.4607 6.51136 13.0536 6.74976 13.5726 7.01824L14.0321 6.13002ZM12.0821 5.35002L12.4064 4.40407C11.5725 4.11819 10.6062 3.99002 9.53206 3.99002V4.99002V5.99002C10.4579 5.99002 11.1916 6.10185 11.7577 6.29597L12.0821 5.35002ZM9.53206 4.99002V3.99002C8.36442 3.99002 7.31262 4.14799 6.56301 4.62775L7.10206 5.47002L7.64112 6.31229C7.8915 6.15204 8.4597 5.99002 9.53206 5.99002V4.99002ZM7.10206 5.47002L6.57206 4.62202C5.75711 5.13136 5.38206 5.9486 5.38206 6.88002H6.38206H7.38206C7.38206 6.53144 7.48701 6.40868 7.63206 6.31802L7.10206 5.47002ZM6.38206 6.88002H5.38206C5.38206 7.42164 5.51239 7.95065 5.82987 8.40923L6.65206 7.84002L7.47425 7.27081C7.43173 7.20939 7.38206 7.0984 7.38206 6.88002H6.38206ZM6.65206 7.84002L5.82987 8.40923C6.09267 8.78883 6.4376 9.11049 6.83553 9.38406L7.40206 8.56002L7.96859 7.73598C7.72652 7.56955 7.57145 7.4112 7.47425 7.27081L6.65206 7.84002ZM7.40206 8.56002L6.89504 9.42195C7.27666 9.64644 7.6952 9.85505 8.14814 10.0492L8.54206 9.13002L8.93598 8.21087C8.54892 8.04499 8.20746 7.8736 7.90908 7.69808L7.40206 8.56002ZM8.54206 9.13002L8.20032 10.0698C8.64593 10.2319 9.13088 10.4036 9.65495 10.585L9.98206 9.64002L10.3092 8.69503C9.79324 8.51644 9.31819 8.34818 8.88381 8.19023L8.54206 9.13002ZM9.98206 9.64002L9.63475 10.5778C10.6898 10.9685 11.595 11.3545 12.3548 11.7344L12.8021 10.84L13.2493 9.94559C12.4091 9.52551 11.4343 9.11151 10.3294 8.70227L9.98206 9.64002ZM12.8021 10.84L12.373 11.7433C13.0903 12.084 13.6504 12.4725 14.075 12.8971L14.7821 12.19L15.4892 11.4829C14.8738 10.8675 14.1139 10.356 13.2311 9.93674L12.8021 10.84ZM14.7821 12.19L14.0884 12.9103C14.5207 13.3266 14.8371 13.8096 15.0446 14.3682L15.9821 14.02L16.9195 13.6718C16.607 12.8305 16.1234 12.0934 15.4757 11.4697L14.7821 12.19ZM15.9821 14.02L15.0446 14.3682C15.2519 14.9261 15.3721 15.651 15.3721 16.57H16.3721H17.3721C17.3721 15.489 17.2323 14.5139 16.9195 13.6718L15.9821 14.02ZM16.3721 16.57H15.3721C15.3721 18.2456 14.8012 19.4505 13.7102 20.3169L14.3321 21.1L14.9539 21.8831C16.5829 20.5895 17.3721 18.7744 17.3721 16.57H16.3721ZM14.3321 21.1L13.7173 20.3113C12.6098 21.1745 10.8217 21.69 8.18206 21.69V22.69V23.69C11.0224 23.69 13.3343 23.1456 14.9468 21.8887L14.3321 21.1ZM8.18206 22.69V21.69C7.30412 21.69 6.52891 21.6327 5.85213 21.5229L5.69206 22.51L5.53199 23.4971C6.33521 23.6274 7.22 23.69 8.18206 23.69V22.69ZM5.69206 22.51L5.82598 21.519C5.1204 21.4237 4.50579 21.3016 3.97799 21.156L3.71206 22.12L3.44613 23.084C4.07833 23.2584 4.78372 23.3964 5.55814 23.501L5.69206 22.51ZM3.71206 22.12L3.98678 21.1585C3.45695 21.0071 3.00835 20.8505 2.63598 20.6909L2.24206 21.61L1.84814 22.5292C2.31577 22.7296 2.84717 22.9129 3.43734 23.0815L3.71206 22.12ZM2.24206 21.61L2.65243 20.6981C2.27207 20.5269 1.96245 20.3714 1.7182 20.2318L1.22206 21.1L0.725922 21.9683C1.04167 22.1487 1.41205 22.3331 1.8317 22.5219L2.24206 21.61ZM1.22206 21.1L2.16449 21.4344L3.48449 17.7144L2.54206 17.38L1.59963 17.0456L0.279633 20.7656L1.22206 21.1ZM2.54206 17.38L2.06123 18.2568C2.75535 18.6375 3.58092 18.9712 4.52499 19.2649L4.82206 18.31L5.11913 17.3552C4.26321 17.0889 3.56877 16.8026 3.02289 16.5032L2.54206 17.38ZM4.82206 18.31L4.5501 19.2723C5.585 19.5648 6.80232 19.7 8.18206 19.7V18.7V17.7C6.92181 17.7 5.89912 17.5752 5.09402 17.3477L4.82206 18.31ZM36.3071 1.48002H37.3071V0.480019H36.3071V1.48002ZM36.3071 5.47002V6.47002H37.3071V5.47002H36.3071ZM30.0371 5.47002V4.47002H29.0371V5.47002H30.0371ZM30.0371 22.27V23.27H31.0371V22.27H30.0371ZM25.3571 22.27H24.3571V23.27H25.3571V22.27ZM25.3571 5.47002H26.3571V4.47002H25.3571V5.47002ZM19.0871 5.47002H18.0871V6.47002H19.0871V5.47002ZM19.0871 1.48002V0.480019H18.0871V1.48002H19.0871ZM36.3071 1.48002H35.3071V5.47002H36.3071H37.3071V1.48002H36.3071ZM36.3071 5.47002V4.47002H30.0371V5.47002V6.47002H36.3071V5.47002ZM30.0371 5.47002H29.0371V22.27H30.0371H31.0371V5.47002H30.0371ZM30.0371 22.27V21.27H25.3571V22.27V23.27H30.0371V22.27ZM25.3571 22.27H26.3571V5.47002H25.3571H24.3571V22.27H25.3571ZM25.3571 5.47002V4.47002H19.0871V5.47002V6.47002H25.3571V5.47002ZM19.0871 5.47002H20.0871V1.48002H19.0871H18.0871V5.47002H19.0871ZM19.0871 1.48002V2.48002H36.3071V1.48002V0.480019H19.0871V1.48002ZM52.2739 22.27L51.3175 22.5622L51.5338 23.27H52.2739V22.27ZM51.5239 20.05L50.5777 20.3737L50.5815 20.3848L50.5855 20.3957L51.5239 20.05ZM50.7439 17.77L51.69 17.4463L51.4587 16.77H50.7439V17.77ZM42.6439 17.77V16.77H41.9291L41.6977 17.4463L42.6439 17.77ZM41.8339 20.05L40.8955 19.7043L40.8915 19.7153L40.8877 19.7263L41.8339 20.05ZM41.1139 22.27V23.27H41.8539L42.0702 22.5622L41.1139 22.27ZM36.2539 22.27L35.3095 21.9412L34.8468 23.27H36.2539V22.27ZM38.4739 16.06L39.4122 16.4057L38.4739 16.06ZM40.5139 10.69L39.5869 10.3148L39.5831 10.3244L40.5139 10.69ZM42.4939 5.92002L41.5766 5.52173L41.5741 5.52758L42.4939 5.92002ZM44.5339 1.48002V0.480019H43.9081L43.6345 1.04283L44.5339 1.48002ZM49.0039 1.48002L49.9081 1.05301L49.6375 0.480019H49.0039V1.48002ZM51.0139 5.92002L50.0966 6.31831L50.0985 6.32276L51.0139 5.92002ZM52.9939 10.69L52.0631 11.0557L52.0669 11.0652L52.9939 10.69ZM55.0639 16.06L54.1255 16.4057V16.4057L55.0639 16.06ZM57.2839 22.27V23.27H58.691L58.2282 21.9412L57.2839 22.27ZM46.6639 6.19002L47.5923 5.81863L46.5785 3.28394L45.7152 5.87379L46.6639 6.19002ZM46.2139 7.42002L45.2805 7.06104V7.06104L46.2139 7.42002ZM45.5239 9.22002L44.5898 8.86288V8.86288L45.5239 9.22002ZM44.6539 11.47L43.7223 11.1065L43.7184 11.1164L43.7147 11.1264L44.6539 11.47ZM43.7239 14.05L42.7816 13.715L42.307 15.05H43.7239V14.05ZM49.6339 14.05V15.05H51.0507L50.5761 13.715L49.6339 14.05ZM48.7039 11.47L47.7647 11.8136V11.8136L48.7039 11.47ZM47.8339 9.22002L46.8998 9.57716L46.9043 9.58902L46.9092 9.60077L47.8339 9.22002ZM47.1439 7.42002L48.0772 7.06104V7.06104L47.1439 7.42002ZM52.2739 22.27L53.2302 21.9778C53.0043 21.2385 52.7482 20.4807 52.4622 19.7043L51.5239 20.05L50.5855 20.3957C50.8595 21.1394 51.1034 21.8615 51.3175 22.5622L52.2739 22.27ZM51.5239 20.05L52.47 19.7263C52.4695 19.7248 52.469 19.7234 52.4685 19.7219C52.468 19.7204 52.4675 19.7189 52.467 19.7174C52.4665 19.7159 52.466 19.7145 52.4655 19.713C52.4649 19.7115 52.4644 19.71 52.4639 19.7085C52.4634 19.707 52.4629 19.7056 52.4624 19.7041C52.4619 19.7026 52.4614 19.7011 52.4609 19.6996C52.4604 19.6981 52.4599 19.6966 52.4594 19.6952C52.4589 19.6937 52.4583 19.6922 52.4578 19.6907C52.4573 19.6892 52.4568 19.6877 52.4563 19.6863C52.4558 19.6848 52.4553 19.6833 52.4548 19.6818C52.4543 19.6803 52.4538 19.6788 52.4533 19.6773C52.4528 19.6759 52.4522 19.6744 52.4517 19.6729C52.4512 19.6714 52.4507 19.6699 52.4502 19.6684C52.4497 19.667 52.4492 19.6655 52.4487 19.664C52.4482 19.6625 52.4477 19.661 52.4472 19.6595C52.4467 19.6581 52.4462 19.6566 52.4456 19.6551C52.4451 19.6536 52.4446 19.6521 52.4441 19.6506C52.4436 19.6491 52.4431 19.6477 52.4426 19.6462C52.4421 19.6447 52.4416 19.6432 52.4411 19.6417C52.4406 19.6402 52.4401 19.6388 52.4396 19.6373C52.439 19.6358 52.4385 19.6343 52.438 19.6328C52.4375 19.6313 52.437 19.6298 52.4365 19.6284C52.436 19.6269 52.4355 19.6254 52.435 19.6239C52.4345 19.6224 52.434 19.6209 52.4335 19.6195C52.433 19.618 52.4324 19.6165 52.4319 19.615C52.4314 19.6135 52.4309 19.612 52.4304 19.6105C52.4299 19.6091 52.4294 19.6076 52.4289 19.6061C52.4284 19.6046 52.4279 19.6031 52.4274 19.6016C52.4269 19.6002 52.4264 19.5987 52.4258 19.5972C52.4253 19.5957 52.4248 19.5942 52.4243 19.5927C52.4238 19.5913 52.4233 19.5898 52.4228 19.5883C52.4223 19.5868 52.4218 19.5853 52.4213 19.5838C52.4208 19.5823 52.4203 19.5809 52.4198 19.5794C52.4192 19.5779 52.4187 19.5764 52.4182 19.5749C52.4177 19.5734 52.4172 19.572 52.4167 19.5705C52.4162 19.569 52.4157 19.5675 52.4152 19.566C52.4147 19.5645 52.4142 19.563 52.4137 19.5616C52.4131 19.5601 52.4126 19.5586 52.4121 19.5571C52.4116 19.5556 52.4111 19.5541 52.4106 19.5527C52.4101 19.5512 52.4096 19.5497 52.4091 19.5482C52.4086 19.5467 52.4081 19.5452 52.4076 19.5438C52.4071 19.5423 52.4065 19.5408 52.406 19.5393C52.4055 19.5378 52.405 19.5363 52.4045 19.5348C52.404 19.5334 52.4035 19.5319 52.403 19.5304C52.4025 19.5289 52.402 19.5274 52.4015 19.5259C52.401 19.5245 52.4005 19.523 52.3999 19.5215C52.3994 19.52 52.3989 19.5185 52.3984 19.517C52.3979 19.5156 52.3974 19.5141 52.3969 19.5126C52.3964 19.5111 52.3959 19.5096 52.3954 19.5081C52.3949 19.5066 52.3944 19.5052 52.3939 19.5037C52.3933 19.5022 52.3928 19.5007 52.3923 19.4992C52.3918 19.4977 52.3913 19.4963 52.3908 19.4948C52.3903 19.4933 52.3898 19.4918 52.3893 19.4903C52.3888 19.4888 52.3883 19.4873 52.3878 19.4859C52.3872 19.4844 52.3867 19.4829 52.3862 19.4814C52.3857 19.4799 52.3852 19.4784 52.3847 19.477C52.3842 19.4755 52.3837 19.474 52.3832 19.4725C52.3827 19.471 52.3822 19.4695 52.3817 19.4681C52.3812 19.4666 52.3806 19.4651 52.3801 19.4636C52.3796 19.4621 52.3791 19.4606 52.3786 19.4591C52.3781 19.4577 52.3776 19.4562 52.3771 19.4547C52.3766 19.4532 52.3761 19.4517 52.3756 19.4502C52.3751 19.4488 52.3746 19.4473 52.374 19.4458C52.3735 19.4443 52.373 19.4428 52.3725 19.4413C52.372 19.4398 52.3715 19.4384 52.371 19.4369C52.3705 19.4354 52.37 19.4339 52.3695 19.4324C52.369 19.4309 52.3685 19.4295 52.368 19.428C52.3674 19.4265 52.3669 19.425 52.3664 19.4235C52.3659 19.422 52.3654 19.4206 52.3649 19.4191C52.3644 19.4176 52.3639 19.4161 52.3634 19.4146C52.3629 19.4131 52.3624 19.4116 52.3619 19.4102C52.3614 19.4087 52.3608 19.4072 52.3603 19.4057C52.3598 19.4042 52.3593 19.4027 52.3588 19.4013C52.3583 19.3998 52.3578 19.3983 52.3573 19.3968C52.3568 19.3953 52.3563 19.3938 52.3558 19.3923C52.3553 19.3909 52.3548 19.3894 52.3542 19.3879C52.3537 19.3864 52.3532 19.3849 52.3527 19.3834C52.3522 19.382 52.3517 19.3805 52.3512 19.379C52.3507 19.3775 52.3502 19.376 52.3497 19.3745C52.3492 19.3731 52.3487 19.3716 52.3481 19.3701C52.3476 19.3686 52.3471 19.3671 52.3466 19.3656C52.3461 19.3641 52.3456 19.3627 52.3451 19.3612C52.3446 19.3597 52.3441 19.3582 52.3436 19.3567C52.3431 19.3552 52.3426 19.3538 52.3421 19.3523C52.3415 19.3508 52.341 19.3493 52.3405 19.3478C52.34 19.3463 52.3395 19.3448 52.339 19.3434C52.3385 19.3419 52.338 19.3404 52.3375 19.3389C52.337 19.3374 52.3365 19.3359 52.336 19.3345C52.3355 19.333 52.3349 19.3315 52.3344 19.33C52.3339 19.3285 52.3334 19.327 52.3329 19.3256C52.3324 19.3241 52.3319 19.3226 52.3314 19.3211C52.3309 19.3196 52.3304 19.3181 52.3299 19.3166C52.3294 19.3152 52.3288 19.3137 52.3283 19.3122C52.3278 19.3107 52.3273 19.3092 52.3268 19.3077C52.3263 19.3063 52.3258 19.3048 52.3253 19.3033C52.3248 19.3018 52.3243 19.3003 52.3238 19.2988C52.3233 19.2973 52.3228 19.2959 52.3223 19.2944C52.3217 19.2929 52.3212 19.2914 52.3207 19.2899C52.3202 19.2884 52.3197 19.287 52.3192 19.2855C52.3187 19.284 52.3182 19.2825 52.3177 19.281C52.3172 19.2795 52.3167 19.278 52.3162 19.2766C52.3156 19.2751 52.3151 19.2736 52.3146 19.2721C52.3141 19.2706 52.3136 19.2691 52.3131 19.2677C52.3126 19.2662 52.3121 19.2647 52.3116 19.2632C52.3111 19.2617 52.3106 19.2602 52.3101 19.2588C52.3096 19.2573 52.309 19.2558 52.3085 19.2543C52.308 19.2528 52.3075 19.2513 52.307 19.2498C52.3065 19.2484 52.306 19.2469 52.3055 19.2454C52.305 19.2439 52.3045 19.2424 52.304 19.2409C52.3035 19.2395 52.303 19.238 52.3024 19.2365C52.3019 19.235 52.3014 19.2335 52.3009 19.232C52.3004 19.2306 52.2999 19.2291 52.2994 19.2276C52.2989 19.2261 52.2984 19.2246 52.2979 19.2231C52.2974 19.2216 52.2969 19.2202 52.2963 19.2187C52.2958 19.2172 52.2953 19.2157 52.2948 19.2142C52.2943 19.2127 52.2938 19.2113 52.2933 19.2098C52.2928 19.2083 52.2923 19.2068 52.2918 19.2053C52.2913 19.2038 52.2908 19.2023 52.2903 19.2009C52.2897 19.1994 52.2892 19.1979 52.2887 19.1964C52.2882 19.1949 52.2877 19.1934 52.2872 19.192C52.2867 19.1905 52.2862 19.189 52.2857 19.1875C52.2852 19.186 52.2847 19.1845 52.2842 19.1831C52.2837 19.1816 52.2831 19.1801 52.2826 19.1786C52.2821 19.1771 52.2816 19.1756 52.2811 19.1741C52.2806 19.1727 52.2801 19.1712 52.2796 19.1697C52.2791 19.1682 52.2786 19.1667 52.2781 19.1652C52.2776 19.1638 52.2771 19.1623 52.2765 19.1608C52.276 19.1593 52.2755 19.1578 52.275 19.1563C52.2745 19.1548 52.274 19.1534 52.2735 19.1519C52.273 19.1504 52.2725 19.1489 52.272 19.1474C52.2715 19.1459 52.271 19.1445 52.2705 19.143C52.2699 19.1415 52.2694 19.14 52.2689 19.1385C52.2684 19.137 52.2679 19.1355 52.2674 19.1341C52.2669 19.1326 52.2664 19.1311 52.2659 19.1296C52.2654 19.1281 52.2649 19.1266 52.2644 19.1252C52.2639 19.1237 52.2633 19.1222 52.2628 19.1207C52.2623 19.1192 52.2618 19.1177 52.2613 19.1163C52.2608 19.1148 52.2603 19.1133 52.2598 19.1118C52.2593 19.1103 52.2588 19.1088 52.2583 19.1073C52.2578 19.1059 52.2572 19.1044 52.2567 19.1029C52.2562 19.1014 52.2557 19.0999 52.2552 19.0984C52.2547 19.097 52.2542 19.0955 52.2537 19.094C52.2532 19.0925 52.2527 19.091 52.2522 19.0895C52.2517 19.0881 52.2512 19.0866 52.2506 19.0851C52.2501 19.0836 52.2496 19.0821 52.2491 19.0806C52.2486 19.0791 52.2481 19.0777 52.2476 19.0762C52.2471 19.0747 52.2466 19.0732 52.2461 19.0717C52.2456 19.0702 52.2451 19.0688 52.2446 19.0673C52.244 19.0658 52.2435 19.0643 52.243 19.0628C52.2425 19.0613 52.242 19.0598 52.2415 19.0584C52.241 19.0569 52.2405 19.0554 52.24 19.0539C52.2395 19.0524 52.239 19.0509 52.2385 19.0495C52.238 19.048 52.2374 19.0465 52.2369 19.045C52.2364 19.0435 52.2359 19.042 52.2354 19.0406C52.2349 19.0391 52.2344 19.0376 52.2339 19.0361C52.2334 19.0346 52.2329 19.0331 52.2324 19.0316C52.2319 19.0302 52.2313 19.0287 52.2308 19.0272C52.2303 19.0257 52.2298 19.0242 52.2293 19.0227C52.2288 19.0213 52.2283 19.0198 52.2278 19.0183C52.2273 19.0168 52.2268 19.0153 52.2263 19.0138C52.2258 19.0123 52.2253 19.0109 52.2247 19.0094C52.2242 19.0079 52.2237 19.0064 52.2232 19.0049C52.2227 19.0034 52.2222 19.002 52.2217 19.0005C52.2212 18.999 52.2207 18.9975 52.2202 18.996C52.2197 18.9945 52.2192 18.993 52.2187 18.9916C52.2181 18.9901 52.2176 18.9886 52.2171 18.9871C52.2166 18.9856 52.2161 18.9841 52.2156 18.9827C52.2151 18.9812 52.2146 18.9797 52.2141 18.9782C52.2136 18.9767 52.2131 18.9752 52.2126 18.9738C52.2121 18.9723 52.2115 18.9708 52.211 18.9693C52.2105 18.9678 52.21 18.9663 52.2095 18.9648C52.209 18.9634 52.2085 18.9619 52.208 18.9604C52.2075 18.9589 52.207 18.9574 52.2065 18.9559C52.206 18.9545 52.2055 18.953 52.2049 18.9515C52.2044 18.95 52.2039 18.9485 52.2034 18.947C52.2029 18.9456 52.2024 18.9441 52.2019 18.9426C52.2014 18.9411 52.2009 18.9396 52.2004 18.9381C52.1999 18.9366 52.1994 18.9352 52.1989 18.9337C52.1983 18.9322 52.1978 18.9307 52.1973 18.9292C52.1968 18.9277 52.1963 18.9263 52.1958 18.9248C52.1953 18.9233 52.1948 18.9218 52.1943 18.9203C52.1938 18.9188 52.1933 18.9173 52.1928 18.9159C52.1922 18.9144 52.1917 18.9129 52.1912 18.9114C52.1907 18.9099 52.1902 18.9084 52.1897 18.907C52.1892 18.9055 52.1887 18.904 52.1882 18.9025C52.1877 18.901 52.1872 18.8995 52.1867 18.8981C52.1862 18.8966 52.1856 18.8951 52.1851 18.8936C52.1846 18.8921 52.1841 18.8906 52.1836 18.8891C52.1831 18.8877 52.1826 18.8862 52.1821 18.8847C52.1816 18.8832 52.1811 18.8817 52.1806 18.8802C52.1801 18.8788 52.1796 18.8773 52.179 18.8758C52.1785 18.8743 52.178 18.8728 52.1775 18.8713C52.177 18.8698 52.1765 18.8684 52.176 18.8669C52.1755 18.8654 52.175 18.8639 52.1745 18.8624C52.174 18.8609 52.1735 18.8595 52.173 18.858C52.1724 18.8565 52.1719 18.855 52.1714 18.8535C52.1709 18.852 52.1704 18.8505 52.1699 18.8491C52.1694 18.8476 52.1689 18.8461 52.1684 18.8446C52.1679 18.8431 52.1674 18.8416 52.1669 18.8402C52.1664 18.8387 52.1658 18.8372 52.1653 18.8357C52.1648 18.8342 52.1643 18.8327 52.1638 18.8313C52.1633 18.8298 52.1628 18.8283 52.1623 18.8268C52.1618 18.8253 52.1613 18.8238 52.1608 18.8223C52.1603 18.8209 52.1598 18.8194 52.1592 18.8179C52.1587 18.8164 52.1582 18.8149 52.1577 18.8134C52.1572 18.812 52.1567 18.8105 52.1562 18.809C52.1557 18.8075 52.1552 18.806 52.1547 18.8045C52.1542 18.8031 52.1537 18.8016 52.1531 18.8001C52.1526 18.7986 52.1521 18.7971 52.1516 18.7956C52.1511 18.7941 52.1506 18.7927 52.1501 18.7912C52.1496 18.7897 52.1491 18.7882 52.1486 18.7867C52.1481 18.7852 52.1476 18.7838 52.1471 18.7823C52.1465 18.7808 52.146 18.7793 52.1455 18.7778C52.145 18.7763 52.1445 18.7748 52.144 18.7734C52.1435 18.7719 52.143 18.7704 52.1425 18.7689C52.142 18.7674 52.1415 18.7659 52.141 18.7645C52.1404 18.763 52.1399 18.7615 52.1394 18.76C52.1389 18.7585 52.1384 18.757 52.1379 18.7556C52.1374 18.7541 52.1369 18.7526 52.1364 18.7511C52.1359 18.7496 52.1354 18.7481 52.1349 18.7466C52.1344 18.7452 52.1339 18.7437 52.1333 18.7422C52.1328 18.7407 52.1323 18.7392 52.1318 18.7377C52.1313 18.7363 52.1308 18.7348 52.1303 18.7333C52.1298 18.7318 52.1293 18.7303 52.1288 18.7288C52.1283 18.7273 52.1278 18.7259 52.1273 18.7244C52.1267 18.7229 52.1262 18.7214 52.1257 18.7199C52.1252 18.7184 52.1247 18.717 52.1242 18.7155C52.1237 18.714 52.1232 18.7125 52.1227 18.711C52.1222 18.7095 52.1217 18.708 52.1212 18.7066C52.1206 18.7051 52.1201 18.7036 52.1196 18.7021C52.1191 18.7006 52.1186 18.6991 52.1181 18.6977C52.1176 18.6962 52.1171 18.6947 52.1166 18.6932C52.1161 18.6917 52.1156 18.6902 52.1151 18.6888C52.1146 18.6873 52.114 18.6858 52.1135 18.6843C52.113 18.6828 52.1125 18.6813 52.112 18.6798C52.1115 18.6784 52.111 18.6769 52.1105 18.6754C52.11 18.6739 52.1095 18.6724 52.109 18.6709C52.1085 18.6695 52.108 18.668 52.1074 18.6665C52.1069 18.665 52.1064 18.6635 52.1059 18.662C52.1054 18.6606 52.1049 18.6591 52.1044 18.6576C52.1039 18.6561 52.1034 18.6546 52.1029 18.6531C52.1024 18.6516 52.1019 18.6502 52.1013 18.6487C52.1008 18.6472 52.1003 18.6457 52.0998 18.6442C52.0993 18.6427 52.0988 18.6413 52.0983 18.6398C52.0978 18.6383 52.0973 18.6368 52.0968 18.6353C52.0963 18.6338 52.0958 18.6323 52.0953 18.6309C52.0947 18.6294 52.0942 18.6279 52.0937 18.6264C52.0932 18.6249 52.0927 18.6234 52.0922 18.622C52.0917 18.6205 52.0912 18.619 52.0907 18.6175C52.0902 18.616 52.0897 18.6145 52.0892 18.6131C52.0887 18.6116 52.0882 18.6101 52.0876 18.6086C52.0871 18.6071 52.0866 18.6056 52.0861 18.6041C52.0856 18.6027 52.0851 18.6012 52.0846 18.5997C52.0841 18.5982 52.0836 18.5967 52.0831 18.5952C52.0826 18.5938 52.0821 18.5923 52.0815 18.5908C52.081 18.5893 52.0805 18.5878 52.08 18.5863C52.0795 18.5848 52.079 18.5834 52.0785 18.5819C52.078 18.5804 52.0775 18.5789 52.077 18.5774C52.0765 18.5759 52.076 18.5745 52.0755 18.573C52.0749 18.5715 52.0744 18.57 52.0739 18.5685C52.0734 18.567 52.0729 18.5655 52.0724 18.5641C52.0719 18.5626 52.0714 18.5611 52.0709 18.5596C52.0704 18.5581 52.0699 18.5566 52.0694 18.5552C52.0689 18.5537 52.0683 18.5522 52.0678 18.5507C52.0673 18.5492 52.0668 18.5477 52.0663 18.5463C52.0658 18.5448 52.0653 18.5433 52.0648 18.5418C52.0643 18.5403 52.0638 18.5388 52.0633 18.5373C52.0628 18.5359 52.0622 18.5344 52.0617 18.5329C52.0612 18.5314 52.0607 18.5299 52.0602 18.5284C52.0597 18.527 52.0592 18.5255 52.0587 18.524C52.0582 18.5225 52.0577 18.521 52.0572 18.5195C52.0567 18.5181 52.0562 18.5166 52.0556 18.5151C52.0551 18.5136 52.0546 18.5121 52.0541 18.5106C52.0536 18.5091 52.0531 18.5077 52.0526 18.5062C52.0521 18.5047 52.0516 18.5032 52.0511 18.5017C52.0506 18.5002 52.0501 18.4988 52.0496 18.4973C52.049 18.4958 52.0485 18.4943 52.048 18.4928C52.0475 18.4913 52.047 18.4898 52.0465 18.4884C52.046 18.4869 52.0455 18.4854 52.045 18.4839C52.0445 18.4824 52.044 18.4809 52.0435 18.4795C52.043 18.478 52.0424 18.4765 52.0419 18.475C52.0414 18.4735 52.0409 18.472 52.0404 18.4706C52.0399 18.4691 52.0394 18.4676 52.0389 18.4661C52.0384 18.4646 52.0379 18.4631 52.0374 18.4616C52.0369 18.4602 52.0364 18.4587 52.0358 18.4572C52.0353 18.4557 52.0348 18.4542 52.0343 18.4527C52.0338 18.4513 52.0333 18.4498 52.0328 18.4483C52.0323 18.4468 52.0318 18.4453 52.0313 18.4438C52.0308 18.4423 52.0303 18.4409 52.0297 18.4394C52.0292 18.4379 52.0287 18.4364 52.0282 18.4349C52.0277 18.4334 52.0272 18.432 52.0267 18.4305C52.0262 18.429 52.0257 18.4275 52.0252 18.426C52.0247 18.4245 52.0242 18.423 52.0237 18.4216C52.0231 18.4201 52.0226 18.4186 52.0221 18.4171C52.0216 18.4156 52.0211 18.4141 52.0206 18.4127C52.0201 18.4112 52.0196 18.4097 52.0191 18.4082C52.0186 18.4067 52.0181 18.4052 52.0176 18.4038C52.0171 18.4023 52.0165 18.4008 52.016 18.3993C52.0155 18.3978 52.015 18.3963 52.0145 18.3948C52.014 18.3934 52.0135 18.3919 52.013 18.3904C52.0125 18.3889 52.012 18.3874 52.0115 18.3859C52.011 18.3845 52.0105 18.383 52.0099 18.3815C52.0094 18.38 52.0089 18.3785 52.0084 18.377C52.0079 18.3755 52.0074 18.3741 52.0069 18.3726C52.0064 18.3711 52.0059 18.3696 52.0054 18.3681C52.0049 18.3666 52.0044 18.3652 52.0039 18.3637C52.0033 18.3622 52.0028 18.3607 52.0023 18.3592C52.0018 18.3577 52.0013 18.3563 52.0008 18.3548C52.0003 18.3533 51.9998 18.3518 51.9993 18.3503C51.9988 18.3488 51.9983 18.3473 51.9978 18.3459C51.9972 18.3444 51.9967 18.3429 51.9962 18.3414C51.9957 18.3399 51.9952 18.3384 51.9947 18.337C51.9942 18.3355 51.9937 18.334 51.9932 18.3325C51.9927 18.331 51.9922 18.3295 51.9917 18.3281C51.9912 18.3266 51.9906 18.3251 51.9901 18.3236C51.9896 18.3221 51.9891 18.3206 51.9886 18.3191C51.9881 18.3177 51.9876 18.3162 51.9871 18.3147C51.9866 18.3132 51.9861 18.3117 51.9856 18.3102C51.9851 18.3088 51.9846 18.3073 51.984 18.3058C51.9835 18.3043 51.983 18.3028 51.9825 18.3013C51.982 18.2998 51.9815 18.2984 51.981 18.2969C51.9805 18.2954 51.98 18.2939 51.9795 18.2924C51.979 18.2909 51.9785 18.2895 51.978 18.288C51.9774 18.2865 51.9769 18.285 51.9764 18.2835C51.9759 18.282 51.9754 18.2806 51.9749 18.2791C51.9744 18.2776 51.9739 18.2761 51.9734 18.2746C51.9729 18.2731 51.9724 18.2716 51.9719 18.2702C51.9714 18.2687 51.9708 18.2672 51.9703 18.2657C51.9698 18.2642 51.9693 18.2627 51.9688 18.2613C51.9683 18.2598 51.9678 18.2583 51.9673 18.2568C51.9668 18.2553 51.9663 18.2538 51.9658 18.2523C51.9653 18.2509 51.9647 18.2494 51.9642 18.2479C51.9637 18.2464 51.9632 18.2449 51.9627 18.2434C51.9622 18.242 51.9617 18.2405 51.9612 18.239C51.9607 18.2375 51.9602 18.236 51.9597 18.2345C51.9592 18.2331 51.9587 18.2316 51.9581 18.2301C51.9576 18.2286 51.9571 18.2271 51.9566 18.2256C51.9561 18.2241 51.9556 18.2227 51.9551 18.2212C51.9546 18.2197 51.9541 18.2182 51.9536 18.2167C51.9531 18.2152 51.9526 18.2138 51.9521 18.2123C51.9515 18.2108 51.951 18.2093 51.9505 18.2078C51.95 18.2063 51.9495 18.2048 51.949 18.2034C51.9485 18.2019 51.948 18.2004 51.9475 18.1989C51.947 18.1974 51.9465 18.1959 51.946 18.1945C51.9454 18.193 51.9449 18.1915 51.9444 18.19C51.9439 18.1885 51.9434 18.187 51.9429 18.1856C51.9424 18.1841 51.9419 18.1826 51.9414 18.1811C51.9409 18.1796 51.9404 18.1781 51.9399 18.1766C51.9394 18.1752 51.9389 18.1737 51.9383 18.1722C51.9378 18.1707 51.9373 18.1692 51.9368 18.1677C51.9363 18.1663 51.9358 18.1648 51.9353 18.1633C51.9348 18.1618 51.9343 18.1603 51.9338 18.1588C51.9333 18.1573 51.9328 18.1559 51.9323 18.1544C51.9317 18.1529 51.9312 18.1514 51.9307 18.1499C51.9302 18.1484 51.9297 18.147 51.9292 18.1455C51.9287 18.144 51.9282 18.1425 51.9277 18.141C51.9272 18.1395 51.9267 18.1381 51.9262 18.1366C51.9256 18.1351 51.9251 18.1336 51.9246 18.1321C51.9241 18.1306 51.9236 18.1291 51.9231 18.1277C51.9226 18.1262 51.9221 18.1247 51.9216 18.1232C51.9211 18.1217 51.9206 18.1202 51.9201 18.1188C51.9196 18.1173 51.919 18.1158 51.9185 18.1143C51.918 18.1128 51.9175 18.1113 51.917 18.1098C51.9165 18.1084 51.916 18.1069 51.9155 18.1054C51.915 18.1039 51.9145 18.1024 51.914 18.1009C51.9135 18.0995 51.913 18.098 51.9124 18.0965C51.9119 18.095 51.9114 18.0935 51.9109 18.092C51.9104 18.0905 51.9099 18.0891 51.9094 18.0876C51.9089 18.0861 51.9084 18.0846 51.9079 18.0831C51.9074 18.0816 51.9069 18.0802 51.9063 18.0787C51.9058 18.0772 51.9053 18.0757 51.9048 18.0742C51.9043 18.0727 51.9038 18.0713 51.9033 18.0698C51.9028 18.0683 51.9023 18.0668 51.9018 18.0653C51.9013 18.0638 51.9008 18.0623 51.9003 18.0609C51.8997 18.0594 51.8992 18.0579 51.8987 18.0564C51.8982 18.0549 51.8977 18.0534 51.8972 18.052C51.8967 18.0505 51.8962 18.049 51.8957 18.0475C51.8952 18.046 51.8947 18.0445 51.8942 18.0431C51.8937 18.0416 51.8931 18.0401 51.8926 18.0386C51.8921 18.0371 51.8916 18.0356 51.8911 18.0341C51.8906 18.0327 51.8901 18.0312 51.8896 18.0297C51.8891 18.0282 51.8886 18.0267 51.8881 18.0252C51.8876 18.0238 51.8871 18.0223 51.8865 18.0208C51.886 18.0193 51.8855 18.0178 51.885 18.0163C51.8845 18.0148 51.884 18.0134 51.8835 18.0119C51.883 18.0104 51.8825 18.0089 51.882 18.0074C51.8815 18.0059 51.881 18.0045 51.8805 18.003C51.8799 18.0015 51.8794 18 51.8789 17.9985C51.8784 17.997 51.8779 17.9956 51.8774 17.9941C51.8769 17.9926 51.8764 17.9911 51.8759 17.9896C51.8754 17.9881 51.8749 17.9866 51.8744 17.9852C51.8739 17.9837 51.8733 17.9822 51.8728 17.9807C51.8723 17.9792 51.8718 17.9777 51.8713 17.9763C51.8708 17.9748 51.8703 17.9733 51.8698 17.9718C51.8693 17.9703 51.8688 17.9688 51.8683 17.9673C51.8678 17.9659 51.8672 17.9644 51.8667 17.9629C51.8662 17.9614 51.8657 17.9599 51.8652 17.9584C51.8647 17.957 51.8642 17.9555 51.8637 17.954C51.8632 17.9525 51.8627 17.951 51.8622 17.9495C51.8617 17.948 51.8612 17.9466 51.8606 17.9451C51.8601 17.9436 51.8596 17.9421 51.8591 17.9406C51.8586 17.9391 51.8581 17.9377 51.8576 17.9362C51.8571 17.9347 51.8566 17.9332 51.8561 17.9317C51.8556 17.9302 51.8551 17.9288 51.8546 17.9273C51.854 17.9258 51.8535 17.9243 51.853 17.9228C51.8525 17.9213 51.852 17.9198 51.8515 17.9184C51.851 17.9169 51.8505 17.9154 51.85 17.9139C51.8495 17.9124 51.849 17.9109 51.8485 17.9095C51.848 17.908 51.8474 17.9065 51.8469 17.905C51.8464 17.9035 51.8459 17.902 51.8454 17.9006C51.8449 17.8991 51.8444 17.8976 51.8439 17.8961C51.8434 17.8946 51.8429 17.8931 51.8424 17.8916C51.8419 17.8902 51.8414 17.8887 51.8408 17.8872C51.8403 17.8857 51.8398 17.8842 51.8393 17.8827C51.8388 17.8813 51.8383 17.8798 51.8378 17.8783C51.8373 17.8768 51.8368 17.8753 51.8363 17.8738C51.8358 17.8723 51.8353 17.8709 51.8347 17.8694C51.8342 17.8679 51.8337 17.8664 51.8332 17.8649C51.8327 17.8634 51.8322 17.862 51.8317 17.8605C51.8312 17.859 51.8307 17.8575 51.8302 17.856C51.8297 17.8545 51.8292 17.8531 51.8287 17.8516C51.8281 17.8501 51.8276 17.8486 51.8271 17.8471C51.8266 17.8456 51.8261 17.8441 51.8256 17.8427C51.8251 17.8412 51.8246 17.8397 51.8241 17.8382C51.8236 17.8367 51.8231 17.8352 51.8226 17.8338C51.8221 17.8323 51.8215 17.8308 51.821 17.8293C51.8205 17.8278 51.82 17.8263 51.8195 17.8248C51.819 17.8234 51.8185 17.8219 51.818 17.8204C51.8175 17.8189 51.817 17.8174 51.8165 17.8159C51.816 17.8145 51.8155 17.813 51.8149 17.8115C51.8144 17.81 51.8139 17.8085 51.8134 17.807C51.8129 17.8055 51.8124 17.8041 51.8119 17.8026C51.8114 17.8011 51.8109 17.7996 51.8104 17.7981C51.8099 17.7966 51.8094 17.7952 51.8088 17.7937C51.8083 17.7922 51.8078 17.7907 51.8073 17.7892C51.8068 17.7877 51.8063 17.7863 51.8058 17.7848C51.8053 17.7833 51.8048 17.7818 51.8043 17.7803C51.8038 17.7788 51.8033 17.7773 51.8028 17.7759C51.8022 17.7744 51.8017 17.7729 51.8012 17.7714C51.8007 17.7699 51.8002 17.7684 51.7997 17.767C51.7992 17.7655 51.7987 17.764 51.7982 17.7625C51.7977 17.761 51.7972 17.7595 51.7967 17.7581C51.7962 17.7566 51.7956 17.7551 51.7951 17.7536C51.7946 17.7521 51.7941 17.7506 51.7936 17.7491C51.7931 17.7477 51.7926 17.7462 51.7921 17.7447C51.7916 17.7432 51.7911 17.7417 51.7906 17.7402C51.7901 17.7388 51.7896 17.7373 51.789 17.7358C51.7885 17.7343 51.788 17.7328 51.7875 17.7313C51.787 17.7298 51.7865 17.7284 51.786 17.7269C51.7855 17.7254 51.785 17.7239 51.7845 17.7224C51.784 17.7209 51.7835 17.7195 51.783 17.718C51.7824 17.7165 51.7819 17.715 51.7814 17.7135C51.7809 17.712 51.7804 17.7106 51.7799 17.7091C51.7794 17.7076 51.7789 17.7061 51.7784 17.7046C51.7779 17.7031 51.7774 17.7016 51.7769 17.7002C51.7764 17.6987 51.7758 17.6972 51.7753 17.6957C51.7748 17.6942 51.7743 17.6927 51.7738 17.6913C51.7733 17.6898 51.7728 17.6883 51.7723 17.6868C51.7718 17.6853 51.7713 17.6838 51.7708 17.6823C51.7703 17.6809 51.7697 17.6794 51.7692 17.6779C51.7687 17.6764 51.7682 17.6749 51.7677 17.6734C51.7672 17.672 51.7667 17.6705 51.7662 17.669C51.7657 17.6675 51.7652 17.666 51.7647 17.6645C51.7642 17.663 51.7637 17.6616 51.7631 17.6601C51.7626 17.6586 51.7621 17.6571 51.7616 17.6556C51.7611 17.6541 51.7606 17.6527 51.7601 17.6512C51.7596 17.6497 51.7591 17.6482 51.7586 17.6467C51.7581 17.6452 51.7576 17.6438 51.7571 17.6423C51.7565 17.6408 51.756 17.6393 51.7555 17.6378C51.755 17.6363 51.7545 17.6348 51.754 17.6334C51.7535 17.6319 51.753 17.6304 51.7525 17.6289C51.752 17.6274 51.7515 17.6259 51.751 17.6245C51.7505 17.623 51.7499 17.6215 51.7494 17.62C51.7489 17.6185 51.7484 17.617 51.7479 17.6156C51.7474 17.6141 51.7469 17.6126 51.7464 17.6111C51.7459 17.6096 51.7454 17.6081 51.7449 17.6066C51.7444 17.6052 51.7439 17.6037 51.7433 17.6022C51.7428 17.6007 51.7423 17.5992 51.7418 17.5977C51.7413 17.5963 51.7408 17.5948 51.7403 17.5933C51.7398 17.5918 51.7393 17.5903 51.7388 17.5888C51.7383 17.5873 51.7378 17.5859 51.7372 17.5844C51.7367 17.5829 51.7362 17.5814 51.7357 17.5799C51.7352 17.5784 51.7347 17.577 51.7342 17.5755C51.7337 17.574 51.7332 17.5725 51.7327 17.571C51.7322 17.5695 51.7317 17.5681 51.7312 17.5666C51.7306 17.5651 51.7301 17.5636 51.7296 17.5621C51.7291 17.5606 51.7286 17.5591 51.7281 17.5577C51.7276 17.5562 51.7271 17.5547 51.7266 17.5532C51.7261 17.5517 51.7256 17.5502 51.7251 17.5488C51.7246 17.5473 51.724 17.5458 51.7235 17.5443C51.723 17.5428 51.7225 17.5413 51.722 17.5398C51.7215 17.5384 51.721 17.5369 51.7205 17.5354C51.72 17.5339 51.7195 17.5324 51.719 17.5309C51.7185 17.5295 51.718 17.528 51.7174 17.5265C51.7169 17.525 51.7164 17.5235 51.7159 17.522C51.7154 17.5205 51.7149 17.5191 51.7144 17.5176C51.7139 17.5161 51.7134 17.5146 51.7129 17.5131C51.7124 17.5116 51.7119 17.5102 51.7113 17.5087C51.7108 17.5072 51.7103 17.5057 51.7098 17.5042C51.7093 17.5027 51.7088 17.5013 51.7083 17.4998C51.7078 17.4983 51.7073 17.4968 51.7068 17.4953C51.7063 17.4938 51.7058 17.4923 51.7053 17.4909C51.7048 17.4894 51.7042 17.4879 51.7037 17.4864C51.7032 17.4849 51.7027 17.4834 51.7022 17.482C51.7017 17.4805 51.7012 17.479 51.7007 17.4775C51.7002 17.476 51.6997 17.4745 51.6992 17.473C51.6987 17.4716 51.6981 17.4701 51.6976 17.4686C51.6971 17.4671 51.6966 17.4656 51.6961 17.4641C51.6956 17.4627 51.6951 17.4612 51.6946 17.4597C51.6941 17.4582 51.6936 17.4567 51.6931 17.4552C51.6926 17.4538 51.6921 17.4523 51.6915 17.4508C51.691 17.4493 51.6905 17.4478 51.69 17.4463L50.7439 17.77L49.7977 18.0937C49.7982 18.0952 49.7987 18.0967 49.7992 18.0982C49.7997 18.0996 49.8002 18.1011 49.8007 18.1026C49.8013 18.1041 49.8018 18.1056 49.8023 18.1071C49.8028 18.1086 49.8033 18.11 49.8038 18.1115C49.8043 18.113 49.8048 18.1145 49.8053 18.116C49.8058 18.1175 49.8063 18.1189 49.8068 18.1204C49.8073 18.1219 49.8078 18.1234 49.8084 18.1249C49.8089 18.1264 49.8094 18.1278 49.8099 18.1293C49.8104 18.1308 49.8109 18.1323 49.8114 18.1338C49.8119 18.1353 49.8124 18.1368 49.8129 18.1382C49.8134 18.1397 49.8139 18.1412 49.8145 18.1427C49.815 18.1442 49.8155 18.1457 49.816 18.1471C49.8165 18.1486 49.817 18.1501 49.8175 18.1516C49.818 18.1531 49.8185 18.1546 49.819 18.1561C49.8195 18.1575 49.82 18.159 49.8205 18.1605C49.8211 18.162 49.8216 18.1635 49.8221 18.165C49.8226 18.1664 49.8231 18.1679 49.8236 18.1694C49.8241 18.1709 49.8246 18.1724 49.8251 18.1739C49.8256 18.1753 49.8261 18.1768 49.8266 18.1783C49.8271 18.1798 49.8277 18.1813 49.8282 18.1828C49.8287 18.1843 49.8292 18.1857 49.8297 18.1872C49.8302 18.1887 49.8307 18.1902 49.8312 18.1917C49.8317 18.1932 49.8322 18.1946 49.8327 18.1961C49.8332 18.1976 49.8337 18.1991 49.8343 18.2006C49.8348 18.2021 49.8353 18.2036 49.8358 18.205C49.8363 18.2065 49.8368 18.208 49.8373 18.2095C49.8378 18.211 49.8383 18.2125 49.8388 18.2139C49.8393 18.2154 49.8398 18.2169 49.8404 18.2184C49.8409 18.2199 49.8414 18.2214 49.8419 18.2228C49.8424 18.2243 49.8429 18.2258 49.8434 18.2273C49.8439 18.2288 49.8444 18.2303 49.8449 18.2318C49.8454 18.2332 49.8459 18.2347 49.8464 18.2362C49.847 18.2377 49.8475 18.2392 49.848 18.2407C49.8485 18.2421 49.849 18.2436 49.8495 18.2451C49.85 18.2466 49.8505 18.2481 49.851 18.2496C49.8515 18.2511 49.852 18.2525 49.8525 18.254C49.853 18.2555 49.8536 18.257 49.8541 18.2585C49.8546 18.26 49.8551 18.2614 49.8556 18.2629C49.8561 18.2644 49.8566 18.2659 49.8571 18.2674C49.8576 18.2689 49.8581 18.2703 49.8586 18.2718C49.8591 18.2733 49.8596 18.2748 49.8602 18.2763C49.8607 18.2778 49.8612 18.2793 49.8617 18.2807C49.8622 18.2822 49.8627 18.2837 49.8632 18.2852C49.8637 18.2867 49.8642 18.2882 49.8647 18.2896C49.8652 18.2911 49.8657 18.2926 49.8662 18.2941C49.8668 18.2956 49.8673 18.2971 49.8678 18.2986C49.8683 18.3 49.8688 18.3015 49.8693 18.303C49.8698 18.3045 49.8703 18.306 49.8708 18.3075C49.8713 18.3089 49.8718 18.3104 49.8723 18.3119C49.8728 18.3134 49.8734 18.3149 49.8739 18.3164C49.8744 18.3178 49.8749 18.3193 49.8754 18.3208C49.8759 18.3223 49.8764 18.3238 49.8769 18.3253C49.8774 18.3268 49.8779 18.3282 49.8784 18.3297C49.8789 18.3312 49.8795 18.3327 49.88 18.3342C49.8805 18.3357 49.881 18.3371 49.8815 18.3386C49.882 18.3401 49.8825 18.3416 49.883 18.3431C49.8835 18.3446 49.884 18.3461 49.8845 18.3475C49.885 18.349 49.8855 18.3505 49.8861 18.352C49.8866 18.3535 49.8871 18.355 49.8876 18.3564C49.8881 18.3579 49.8886 18.3594 49.8891 18.3609C49.8896 18.3624 49.8901 18.3639 49.8906 18.3653C49.8911 18.3668 49.8916 18.3683 49.8921 18.3698C49.8927 18.3713 49.8932 18.3728 49.8937 18.3743C49.8942 18.3757 49.8947 18.3772 49.8952 18.3787C49.8957 18.3802 49.8962 18.3817 49.8967 18.3832C49.8972 18.3846 49.8977 18.3861 49.8982 18.3876C49.8988 18.3891 49.8993 18.3906 49.8998 18.3921C49.9003 18.3936 49.9008 18.395 49.9013 18.3965C49.9018 18.398 49.9023 18.3995 49.9028 18.401C49.9033 18.4025 49.9038 18.4039 49.9043 18.4054C49.9048 18.4069 49.9053 18.4084 49.9059 18.4099C49.9064 18.4114 49.9069 18.4128 49.9074 18.4143C49.9079 18.4158 49.9084 18.4173 49.9089 18.4188C49.9094 18.4203 49.9099 18.4218 49.9104 18.4232C49.9109 18.4247 49.9114 18.4262 49.912 18.4277C49.9125 18.4292 49.913 18.4307 49.9135 18.4321C49.914 18.4336 49.9145 18.4351 49.915 18.4366C49.9155 18.4381 49.916 18.4396 49.9165 18.4411C49.917 18.4425 49.9175 18.444 49.918 18.4455C49.9186 18.447 49.9191 18.4485 49.9196 18.45C49.9201 18.4514 49.9206 18.4529 49.9211 18.4544C49.9216 18.4559 49.9221 18.4574 49.9226 18.4589C49.9231 18.4603 49.9236 18.4618 49.9241 18.4633C49.9246 18.4648 49.9252 18.4663 49.9257 18.4678C49.9262 18.4693 49.9267 18.4707 49.9272 18.4722C49.9277 18.4737 49.9282 18.4752 49.9287 18.4767C49.9292 18.4782 49.9297 18.4796 49.9302 18.4811C49.9307 18.4826 49.9313 18.4841 49.9318 18.4856C49.9323 18.4871 49.9328 18.4886 49.9333 18.49C49.9338 18.4915 49.9343 18.493 49.9348 18.4945C49.9353 18.496 49.9358 18.4975 49.9363 18.4989C49.9368 18.5004 49.9373 18.5019 49.9379 18.5034C49.9384 18.5049 49.9389 18.5064 49.9394 18.5078C49.9399 18.5093 49.9404 18.5108 49.9409 18.5123C49.9414 18.5138 49.9419 18.5153 49.9424 18.5168C49.9429 18.5182 49.9434 18.5197 49.9439 18.5212C49.9445 18.5227 49.945 18.5242 49.9455 18.5257C49.946 18.5271 49.9465 18.5286 49.947 18.5301C49.9475 18.5316 49.948 18.5331 49.9485 18.5346C49.949 18.5361 49.9495 18.5375 49.95 18.539C49.9505 18.5405 49.9511 18.542 49.9516 18.5435C49.9521 18.545 49.9526 18.5464 49.9531 18.5479C49.9536 18.5494 49.9541 18.5509 49.9546 18.5524C49.9551 18.5539 49.9556 18.5553 49.9561 18.5568C49.9566 18.5583 49.9571 18.5598 49.9577 18.5613C49.9582 18.5628 49.9587 18.5643 49.9592 18.5657C49.9597 18.5672 49.9602 18.5687 49.9607 18.5702C49.9612 18.5717 49.9617 18.5732 49.9622 18.5746C49.9627 18.5761 49.9632 18.5776 49.9637 18.5791C49.9643 18.5806 49.9648 18.5821 49.9653 18.5836C49.9658 18.585 49.9663 18.5865 49.9668 18.588C49.9673 18.5895 49.9678 18.591 49.9683 18.5925C49.9688 18.5939 49.9693 18.5954 49.9698 18.5969C49.9704 18.5984 49.9709 18.5999 49.9714 18.6014C49.9719 18.6028 49.9724 18.6043 49.9729 18.6058C49.9734 18.6073 49.9739 18.6088 49.9744 18.6103C49.9749 18.6118 49.9754 18.6132 49.9759 18.6147C49.9764 18.6162 49.977 18.6177 49.9775 18.6192C49.978 18.6207 49.9785 18.6221 49.979 18.6236C49.9795 18.6251 49.98 18.6266 49.9805 18.6281C49.981 18.6296 49.9815 18.6311 49.982 18.6325C49.9825 18.634 49.983 18.6355 49.9836 18.637C49.9841 18.6385 49.9846 18.64 49.9851 18.6414C49.9856 18.6429 49.9861 18.6444 49.9866 18.6459C49.9871 18.6474 49.9876 18.6489 49.9881 18.6503C49.9886 18.6518 49.9891 18.6533 49.9896 18.6548C49.9902 18.6563 49.9907 18.6578 49.9912 18.6593C49.9917 18.6607 49.9922 18.6622 49.9927 18.6637C49.9932 18.6652 49.9937 18.6667 49.9942 18.6682C49.9947 18.6696 49.9952 18.6711 49.9957 18.6726C49.9963 18.6741 49.9968 18.6756 49.9973 18.6771C49.9978 18.6786 49.9983 18.68 49.9988 18.6815C49.9993 18.683 49.9998 18.6845 50.0003 18.686C50.0008 18.6875 50.0013 18.6889 50.0018 18.6904C50.0023 18.6919 50.0028 18.6934 50.0034 18.6949C50.0039 18.6964 50.0044 18.6978 50.0049 18.6993C50.0054 18.7008 50.0059 18.7023 50.0064 18.7038C50.0069 18.7053 50.0074 18.7068 50.0079 18.7082C50.0084 18.7097 50.0089 18.7112 50.0095 18.7127C50.01 18.7142 50.0105 18.7157 50.011 18.7171C50.0115 18.7186 50.012 18.7201 50.0125 18.7216C50.013 18.7231 50.0135 18.7246 50.014 18.7261C50.0145 18.7275 50.015 18.729 50.0155 18.7305C50.0161 18.732 50.0166 18.7335 50.0171 18.735C50.0176 18.7364 50.0181 18.7379 50.0186 18.7394C50.0191 18.7409 50.0196 18.7424 50.0201 18.7439C50.0206 18.7453 50.0211 18.7468 50.0216 18.7483C50.0221 18.7498 50.0227 18.7513 50.0232 18.7528C50.0237 18.7543 50.0242 18.7557 50.0247 18.7572C50.0252 18.7587 50.0257 18.7602 50.0262 18.7617C50.0267 18.7632 50.0272 18.7646 50.0277 18.7661C50.0282 18.7676 50.0287 18.7691 50.0293 18.7706C50.0298 18.7721 50.0303 18.7736 50.0308 18.775C50.0313 18.7765 50.0318 18.778 50.0323 18.7795C50.0328 18.781 50.0333 18.7825 50.0338 18.7839C50.0343 18.7854 50.0348 18.7869 50.0354 18.7884C50.0359 18.7899 50.0364 18.7914 50.0369 18.7928C50.0374 18.7943 50.0379 18.7958 50.0384 18.7973C50.0389 18.7988 50.0394 18.8003 50.0399 18.8018C50.0404 18.8032 50.0409 18.8047 50.0414 18.8062C50.042 18.8077 50.0425 18.8092 50.043 18.8107C50.0435 18.8121 50.044 18.8136 50.0445 18.8151C50.045 18.8166 50.0455 18.8181 50.046 18.8196C50.0465 18.8211 50.047 18.8225 50.0475 18.824C50.048 18.8255 50.0486 18.827 50.0491 18.8285C50.0496 18.83 50.0501 18.8314 50.0506 18.8329C50.0511 18.8344 50.0516 18.8359 50.0521 18.8374C50.0526 18.8389 50.0531 18.8403 50.0536 18.8418C50.0541 18.8433 50.0546 18.8448 50.0552 18.8463C50.0557 18.8478 50.0562 18.8493 50.0567 18.8507C50.0572 18.8522 50.0577 18.8537 50.0582 18.8552C50.0587 18.8567 50.0592 18.8582 50.0597 18.8596C50.0602 18.8611 50.0607 18.8626 50.0612 18.8641C50.0618 18.8656 50.0623 18.8671 50.0628 18.8686C50.0633 18.87 50.0638 18.8715 50.0643 18.873C50.0648 18.8745 50.0653 18.876 50.0658 18.8775C50.0663 18.8789 50.0668 18.8804 50.0673 18.8819C50.0679 18.8834 50.0684 18.8849 50.0689 18.8864C50.0694 18.8878 50.0699 18.8893 50.0704 18.8908C50.0709 18.8923 50.0714 18.8938 50.0719 18.8953C50.0724 18.8968 50.0729 18.8982 50.0734 18.8997C50.0739 18.9012 50.0745 18.9027 50.075 18.9042C50.0755 18.9057 50.076 18.9071 50.0765 18.9086C50.077 18.9101 50.0775 18.9116 50.078 18.9131C50.0785 18.9146 50.079 18.9161 50.0795 18.9175C50.08 18.919 50.0805 18.9205 50.0811 18.922C50.0816 18.9235 50.0821 18.925 50.0826 18.9264C50.0831 18.9279 50.0836 18.9294 50.0841 18.9309C50.0846 18.9324 50.0851 18.9339 50.0856 18.9353C50.0861 18.9368 50.0866 18.9383 50.0871 18.9398C50.0877 18.9413 50.0882 18.9428 50.0887 18.9443C50.0892 18.9457 50.0897 18.9472 50.0902 18.9487C50.0907 18.9502 50.0912 18.9517 50.0917 18.9532C50.0922 18.9546 50.0927 18.9561 50.0932 18.9576C50.0938 18.9591 50.0943 18.9606 50.0948 18.9621C50.0953 18.9636 50.0958 18.965 50.0963 18.9665C50.0968 18.968 50.0973 18.9695 50.0978 18.971C50.0983 18.9725 50.0988 18.9739 50.0993 18.9754C50.0998 18.9769 50.1003 18.9784 50.1009 18.9799C50.1014 18.9814 50.1019 18.9828 50.1024 18.9843C50.1029 18.9858 50.1034 18.9873 50.1039 18.9888C50.1044 18.9903 50.1049 18.9918 50.1054 18.9932C50.1059 18.9947 50.1064 18.9962 50.107 18.9977C50.1075 18.9992 50.108 19.0007 50.1085 19.0021C50.109 19.0036 50.1095 19.0051 50.11 19.0066C50.1105 19.0081 50.111 19.0096 50.1115 19.0111C50.112 19.0125 50.1125 19.014 50.113 19.0155C50.1136 19.017 50.1141 19.0185 50.1146 19.02C50.1151 19.0214 50.1156 19.0229 50.1161 19.0244C50.1166 19.0259 50.1171 19.0274 50.1176 19.0289C50.1181 19.0303 50.1186 19.0318 50.1191 19.0333C50.1196 19.0348 50.1202 19.0363 50.1207 19.0378C50.1212 19.0393 50.1217 19.0407 50.1222 19.0422C50.1227 19.0437 50.1232 19.0452 50.1237 19.0467C50.1242 19.0482 50.1247 19.0496 50.1252 19.0511C50.1257 19.0526 50.1263 19.0541 50.1268 19.0556C50.1273 19.0571 50.1278 19.0586 50.1283 19.06C50.1288 19.0615 50.1293 19.063 50.1298 19.0645C50.1303 19.066 50.1308 19.0675 50.1313 19.0689C50.1318 19.0704 50.1323 19.0719 50.1329 19.0734C50.1334 19.0749 50.1339 19.0764 50.1344 19.0778C50.1349 19.0793 50.1354 19.0808 50.1359 19.0823C50.1364 19.0838 50.1369 19.0853 50.1374 19.0868C50.1379 19.0882 50.1384 19.0897 50.1389 19.0912C50.1395 19.0927 50.14 19.0942 50.1405 19.0957C50.141 19.0971 50.1415 19.0986 50.142 19.1001C50.1425 19.1016 50.143 19.1031 50.1435 19.1046C50.144 19.1061 50.1445 19.1075 50.145 19.109C50.1455 19.1105 50.1461 19.112 50.1466 19.1135C50.1471 19.115 50.1476 19.1164 50.1481 19.1179C50.1486 19.1194 50.1491 19.1209 50.1496 19.1224C50.1501 19.1239 50.1506 19.1253 50.1511 19.1268C50.1516 19.1283 50.1521 19.1298 50.1527 19.1313C50.1532 19.1328 50.1537 19.1343 50.1542 19.1357C50.1547 19.1372 50.1552 19.1387 50.1557 19.1402C50.1562 19.1417 50.1567 19.1432 50.1572 19.1446C50.1577 19.1461 50.1582 19.1476 50.1587 19.1491C50.1593 19.1506 50.1598 19.1521 50.1603 19.1536C50.1608 19.155 50.1613 19.1565 50.1618 19.158C50.1623 19.1595 50.1628 19.161 50.1633 19.1625C50.1638 19.1639 50.1643 19.1654 50.1648 19.1669C50.1654 19.1684 50.1659 19.1699 50.1664 19.1714C50.1669 19.1728 50.1674 19.1743 50.1679 19.1758C50.1684 19.1773 50.1689 19.1788 50.1694 19.1803C50.1699 19.1818 50.1704 19.1832 50.1709 19.1847C50.1714 19.1862 50.172 19.1877 50.1725 19.1892C50.173 19.1907 50.1735 19.1921 50.174 19.1936C50.1745 19.1951 50.175 19.1966 50.1755 19.1981C50.176 19.1996 50.1765 19.2011 50.177 19.2025C50.1775 19.204 50.178 19.2055 50.1786 19.207C50.1791 19.2085 50.1796 19.21 50.1801 19.2114C50.1806 19.2129 50.1811 19.2144 50.1816 19.2159C50.1821 19.2174 50.1826 19.2189 50.1831 19.2203C50.1836 19.2218 50.1841 19.2233 50.1846 19.2248C50.1852 19.2263 50.1857 19.2278 50.1862 19.2293C50.1867 19.2307 50.1872 19.2322 50.1877 19.2337C50.1882 19.2352 50.1887 19.2367 50.1892 19.2382C50.1897 19.2396 50.1902 19.2411 50.1907 19.2426C50.1912 19.2441 50.1918 19.2456 50.1923 19.2471C50.1928 19.2486 50.1933 19.25 50.1938 19.2515C50.1943 19.253 50.1948 19.2545 50.1953 19.256C50.1958 19.2575 50.1963 19.2589 50.1968 19.2604C50.1973 19.2619 50.1979 19.2634 50.1984 19.2649C50.1989 19.2664 50.1994 19.2678 50.1999 19.2693C50.2004 19.2708 50.2009 19.2723 50.2014 19.2738C50.2019 19.2753 50.2024 19.2768 50.2029 19.2782C50.2034 19.2797 50.2039 19.2812 50.2045 19.2827C50.205 19.2842 50.2055 19.2857 50.206 19.2871C50.2065 19.2886 50.207 19.2901 50.2075 19.2916C50.208 19.2931 50.2085 19.2946 50.209 19.2961C50.2095 19.2975 50.21 19.299 50.2105 19.3005C50.2111 19.302 50.2116 19.3035 50.2121 19.305C50.2126 19.3064 50.2131 19.3079 50.2136 19.3094C50.2141 19.3109 50.2146 19.3124 50.2151 19.3139C50.2156 19.3153 50.2161 19.3168 50.2166 19.3183C50.2171 19.3198 50.2177 19.3213 50.2182 19.3228C50.2187 19.3243 50.2192 19.3257 50.2197 19.3272C50.2202 19.3287 50.2207 19.3302 50.2212 19.3317C50.2217 19.3332 50.2222 19.3346 50.2227 19.3361C50.2232 19.3376 50.2237 19.3391 50.2243 19.3406C50.2248 19.3421 50.2253 19.3436 50.2258 19.345C50.2263 19.3465 50.2268 19.348 50.2273 19.3495C50.2278 19.351 50.2283 19.3525 50.2288 19.3539C50.2293 19.3554 50.2298 19.3569 50.2304 19.3584C50.2309 19.3599 50.2314 19.3614 50.2319 19.3628C50.2324 19.3643 50.2329 19.3658 50.2334 19.3673C50.2339 19.3688 50.2344 19.3703 50.2349 19.3718C50.2354 19.3732 50.2359 19.3747 50.2364 19.3762C50.237 19.3777 50.2375 19.3792 50.238 19.3807C50.2385 19.3821 50.239 19.3836 50.2395 19.3851C50.24 19.3866 50.2405 19.3881 50.241 19.3896C50.2415 19.3911 50.242 19.3925 50.2425 19.394C50.243 19.3955 50.2436 19.397 50.2441 19.3985C50.2446 19.4 50.2451 19.4014 50.2456 19.4029C50.2461 19.4044 50.2466 19.4059 50.2471 19.4074C50.2476 19.4089 50.2481 19.4103 50.2486 19.4118C50.2491 19.4133 50.2496 19.4148 50.2502 19.4163C50.2507 19.4178 50.2512 19.4193 50.2517 19.4207C50.2522 19.4222 50.2527 19.4237 50.2532 19.4252C50.2537 19.4267 50.2542 19.4282 50.2547 19.4296C50.2552 19.4311 50.2557 19.4326 50.2562 19.4341C50.2568 19.4356 50.2573 19.4371 50.2578 19.4386C50.2583 19.44 50.2588 19.4415 50.2593 19.443C50.2598 19.4445 50.2603 19.446 50.2608 19.4475C50.2613 19.4489 50.2618 19.4504 50.2623 19.4519C50.2629 19.4534 50.2634 19.4549 50.2639 19.4564C50.2644 19.4578 50.2649 19.4593 50.2654 19.4608C50.2659 19.4623 50.2664 19.4638 50.2669 19.4653C50.2674 19.4668 50.2679 19.4682 50.2684 19.4697C50.2689 19.4712 50.2695 19.4727 50.27 19.4742C50.2705 19.4757 50.271 19.4771 50.2715 19.4786C50.272 19.4801 50.2725 19.4816 50.273 19.4831C50.2735 19.4846 50.274 19.4861 50.2745 19.4875C50.275 19.489 50.2755 19.4905 50.2761 19.492C50.2766 19.4935 50.2771 19.495 50.2776 19.4964C50.2781 19.4979 50.2786 19.4994 50.2791 19.5009C50.2796 19.5024 50.2801 19.5039 50.2806 19.5053C50.2811 19.5068 50.2816 19.5083 50.2822 19.5098C50.2827 19.5113 50.2832 19.5128 50.2837 19.5143C50.2842 19.5157 50.2847 19.5172 50.2852 19.5187C50.2857 19.5202 50.2862 19.5217 50.2867 19.5232C50.2872 19.5246 50.2877 19.5261 50.2882 19.5276C50.2887 19.5291 50.2893 19.5306 50.2898 19.5321C50.2903 19.5336 50.2908 19.535 50.2913 19.5365C50.2918 19.538 50.2923 19.5395 50.2928 19.541C50.2933 19.5425 50.2938 19.5439 50.2943 19.5454C50.2948 19.5469 50.2953 19.5484 50.2959 19.5499C50.2964 19.5514 50.2969 19.5528 50.2974 19.5543C50.2979 19.5558 50.2984 19.5573 50.2989 19.5588C50.2994 19.5603 50.2999 19.5618 50.3004 19.5632C50.3009 19.5647 50.3014 19.5662 50.302 19.5677C50.3025 19.5692 50.303 19.5707 50.3035 19.5721C50.304 19.5736 50.3045 19.5751 50.305 19.5766C50.3055 19.5781 50.306 19.5796 50.3065 19.5811C50.307 19.5825 50.3075 19.584 50.308 19.5855C50.3086 19.587 50.3091 19.5885 50.3096 19.59C50.3101 19.5914 50.3106 19.5929 50.3111 19.5944C50.3116 19.5959 50.3121 19.5974 50.3126 19.5989C50.3131 19.6003 50.3136 19.6018 50.3141 19.6033C50.3146 19.6048 50.3152 19.6063 50.3157 19.6078C50.3162 19.6093 50.3167 19.6107 50.3172 19.6122C50.3177 19.6137 50.3182 19.6152 50.3187 19.6167C50.3192 19.6182 50.3197 19.6196 50.3202 19.6211C50.3207 19.6226 50.3213 19.6241 50.3218 19.6256C50.3223 19.6271 50.3228 19.6286 50.3233 19.63C50.3238 19.6315 50.3243 19.633 50.3248 19.6345C50.3253 19.636 50.3258 19.6375 50.3263 19.6389C50.3268 19.6404 50.3273 19.6419 50.3279 19.6434C50.3284 19.6449 50.3289 19.6464 50.3294 19.6478C50.3299 19.6493 50.3304 19.6508 50.3309 19.6523C50.3314 19.6538 50.3319 19.6553 50.3324 19.6568C50.3329 19.6582 50.3334 19.6597 50.3339 19.6612C50.3345 19.6627 50.335 19.6642 50.3355 19.6657C50.336 19.6671 50.3365 19.6686 50.337 19.6701C50.3375 19.6716 50.338 19.6731 50.3385 19.6746C50.339 19.6761 50.3395 19.6775 50.34 19.679C50.3405 19.6805 50.3411 19.682 50.3416 19.6835C50.3421 19.685 50.3426 19.6864 50.3431 19.6879C50.3436 19.6894 50.3441 19.6909 50.3446 19.6924C50.3451 19.6939 50.3456 19.6953 50.3461 19.6968C50.3466 19.6983 50.3471 19.6998 50.3477 19.7013C50.3482 19.7028 50.3487 19.7043 50.3492 19.7057C50.3497 19.7072 50.3502 19.7087 50.3507 19.7102C50.3512 19.7117 50.3517 19.7132 50.3522 19.7146C50.3527 19.7161 50.3532 19.7176 50.3537 19.7191C50.3543 19.7206 50.3548 19.7221 50.3553 19.7236C50.3558 19.725 50.3563 19.7265 50.3568 19.728C50.3573 19.7295 50.3578 19.731 50.3583 19.7325C50.3588 19.7339 50.3593 19.7354 50.3598 19.7369C50.3604 19.7384 50.3609 19.7399 50.3614 19.7414C50.3619 19.7428 50.3624 19.7443 50.3629 19.7458C50.3634 19.7473 50.3639 19.7488 50.3644 19.7503C50.3649 19.7518 50.3654 19.7532 50.3659 19.7547C50.3664 19.7562 50.367 19.7577 50.3675 19.7592C50.368 19.7607 50.3685 19.7621 50.369 19.7636C50.3695 19.7651 50.37 19.7666 50.3705 19.7681C50.371 19.7696 50.3715 19.7711 50.372 19.7725C50.3725 19.774 50.373 19.7755 50.3736 19.777C50.3741 19.7785 50.3746 19.78 50.3751 19.7814C50.3756 19.7829 50.3761 19.7844 50.3766 19.7859C50.3771 19.7874 50.3776 19.7889 50.3781 19.7903C50.3786 19.7918 50.3791 19.7933 50.3796 19.7948C50.3802 19.7963 50.3807 19.7978 50.3812 19.7993C50.3817 19.8007 50.3822 19.8022 50.3827 19.8037C50.3832 19.8052 50.3837 19.8067 50.3842 19.8082C50.3847 19.8096 50.3852 19.8111 50.3857 19.8126C50.3862 19.8141 50.3868 19.8156 50.3873 19.8171C50.3878 19.8186 50.3883 19.82 50.3888 19.8215C50.3893 19.823 50.3898 19.8245 50.3903 19.826C50.3908 19.8275 50.3913 19.8289 50.3918 19.8304C50.3923 19.8319 50.3929 19.8334 50.3934 19.8349C50.3939 19.8364 50.3944 19.8378 50.3949 19.8393C50.3954 19.8408 50.3959 19.8423 50.3964 19.8438C50.3969 19.8453 50.3974 19.8468 50.3979 19.8482C50.3984 19.8497 50.3989 19.8512 50.3995 19.8527C50.4 19.8542 50.4005 19.8557 50.401 19.8571C50.4015 19.8586 50.402 19.8601 50.4025 19.8616C50.403 19.8631 50.4035 19.8646 50.404 19.8661C50.4045 19.8675 50.405 19.869 50.4055 19.8705C50.4061 19.872 50.4066 19.8735 50.4071 19.875C50.4076 19.8764 50.4081 19.8779 50.4086 19.8794C50.4091 19.8809 50.4096 19.8824 50.4101 19.8839C50.4106 19.8853 50.4111 19.8868 50.4116 19.8883C50.4121 19.8898 50.4127 19.8913 50.4132 19.8928C50.4137 19.8943 50.4142 19.8957 50.4147 19.8972C50.4152 19.8987 50.4157 19.9002 50.4162 19.9017C50.4167 19.9032 50.4172 19.9046 50.4177 19.9061C50.4182 19.9076 50.4188 19.9091 50.4193 19.9106C50.4198 19.9121 50.4203 19.9136 50.4208 19.915C50.4213 19.9165 50.4218 19.918 50.4223 19.9195C50.4228 19.921 50.4233 19.9225 50.4238 19.9239C50.4243 19.9254 50.4248 19.9269 50.4254 19.9284C50.4259 19.9299 50.4264 19.9314 50.4269 19.9328C50.4274 19.9343 50.4279 19.9358 50.4284 19.9373C50.4289 19.9388 50.4294 19.9403 50.4299 19.9418C50.4304 19.9432 50.4309 19.9447 50.4314 19.9462C50.432 19.9477 50.4325 19.9492 50.433 19.9507C50.4335 19.9521 50.434 19.9536 50.4345 19.9551C50.435 19.9566 50.4355 19.9581 50.436 19.9596C50.4365 19.9611 50.437 19.9625 50.4375 19.964C50.438 19.9655 50.4386 19.967 50.4391 19.9685C50.4396 19.97 50.4401 19.9714 50.4406 19.9729C50.4411 19.9744 50.4416 19.9759 50.4421 19.9774C50.4426 19.9789 50.4431 19.9803 50.4436 19.9818C50.4441 19.9833 50.4446 19.9848 50.4452 19.9863C50.4457 19.9878 50.4462 19.9893 50.4467 19.9907C50.4472 19.9922 50.4477 19.9937 50.4482 19.9952C50.4487 19.9967 50.4492 19.9982 50.4497 19.9996C50.4502 20.0011 50.4507 20.0026 50.4512 20.0041C50.4518 20.0056 50.4523 20.0071 50.4528 20.0086C50.4533 20.01 50.4538 20.0115 50.4543 20.013C50.4548 20.0145 50.4553 20.016 50.4558 20.0175C50.4563 20.0189 50.4568 20.0204 50.4573 20.0219C50.4579 20.0234 50.4584 20.0249 50.4589 20.0264C50.4594 20.0278 50.4599 20.0293 50.4604 20.0308C50.4609 20.0323 50.4614 20.0338 50.4619 20.0353C50.4624 20.0368 50.4629 20.0382 50.4634 20.0397C50.4639 20.0412 50.4645 20.0427 50.465 20.0442C50.4655 20.0457 50.466 20.0471 50.4665 20.0486C50.467 20.0501 50.4675 20.0516 50.468 20.0531C50.4685 20.0546 50.469 20.0561 50.4695 20.0575C50.47 20.059 50.4705 20.0605 50.4711 20.062C50.4716 20.0635 50.4721 20.065 50.4726 20.0664C50.4731 20.0679 50.4736 20.0694 50.4741 20.0709C50.4746 20.0724 50.4751 20.0739 50.4756 20.0753C50.4761 20.0768 50.4766 20.0783 50.4771 20.0798C50.4777 20.0813 50.4782 20.0828 50.4787 20.0843C50.4792 20.0857 50.4797 20.0872 50.4802 20.0887C50.4807 20.0902 50.4812 20.0917 50.4817 20.0932C50.4822 20.0946 50.4827 20.0961 50.4832 20.0976C50.4837 20.0991 50.4843 20.1006 50.4848 20.1021C50.4853 20.1036 50.4858 20.105 50.4863 20.1065C50.4868 20.108 50.4873 20.1095 50.4878 20.111C50.4883 20.1125 50.4888 20.1139 50.4893 20.1154C50.4898 20.1169 50.4904 20.1184 50.4909 20.1199C50.4914 20.1214 50.4919 20.1228 50.4924 20.1243C50.4929 20.1258 50.4934 20.1273 50.4939 20.1288C50.4944 20.1303 50.4949 20.1318 50.4954 20.1332C50.4959 20.1347 50.4964 20.1362 50.497 20.1377C50.4975 20.1392 50.498 20.1407 50.4985 20.1421C50.499 20.1436 50.4995 20.1451 50.5 20.1466C50.5005 20.1481 50.501 20.1496 50.5015 20.1511C50.502 20.1525 50.5025 20.154 50.503 20.1555C50.5036 20.157 50.5041 20.1585 50.5046 20.16C50.5051 20.1614 50.5056 20.1629 50.5061 20.1644C50.5066 20.1659 50.5071 20.1674 50.5076 20.1689C50.5081 20.1703 50.5086 20.1718 50.5091 20.1733C50.5096 20.1748 50.5102 20.1763 50.5107 20.1778C50.5112 20.1793 50.5117 20.1807 50.5122 20.1822C50.5127 20.1837 50.5132 20.1852 50.5137 20.1867C50.5142 20.1882 50.5147 20.1896 50.5152 20.1911C50.5157 20.1926 50.5163 20.1941 50.5168 20.1956C50.5173 20.1971 50.5178 20.1986 50.5183 20.2C50.5188 20.2015 50.5193 20.203 50.5198 20.2045C50.5203 20.206 50.5208 20.2075 50.5213 20.2089C50.5218 20.2104 50.5223 20.2119 50.5229 20.2134C50.5234 20.2149 50.5239 20.2164 50.5244 20.2178C50.5249 20.2193 50.5254 20.2208 50.5259 20.2223C50.5264 20.2238 50.5269 20.2253 50.5274 20.2268C50.5279 20.2282 50.5284 20.2297 50.5289 20.2312C50.5295 20.2327 50.53 20.2342 50.5305 20.2357C50.531 20.2371 50.5315 20.2386 50.532 20.2401C50.5325 20.2416 50.533 20.2431 50.5335 20.2446C50.534 20.2461 50.5345 20.2475 50.535 20.249C50.5355 20.2505 50.5361 20.252 50.5366 20.2535C50.5371 20.255 50.5376 20.2564 50.5381 20.2579C50.5386 20.2594 50.5391 20.2609 50.5396 20.2624C50.5401 20.2639 50.5406 20.2653 50.5411 20.2668C50.5416 20.2683 50.5421 20.2698 50.5427 20.2713C50.5432 20.2728 50.5437 20.2743 50.5442 20.2757C50.5447 20.2772 50.5452 20.2787 50.5457 20.2802C50.5462 20.2817 50.5467 20.2832 50.5472 20.2846C50.5477 20.2861 50.5482 20.2876 50.5488 20.2891C50.5493 20.2906 50.5498 20.2921 50.5503 20.2936C50.5508 20.295 50.5513 20.2965 50.5518 20.298C50.5523 20.2995 50.5528 20.301 50.5533 20.3025C50.5538 20.3039 50.5543 20.3054 50.5548 20.3069C50.5554 20.3084 50.5559 20.3099 50.5564 20.3114C50.5569 20.3128 50.5574 20.3143 50.5579 20.3158C50.5584 20.3173 50.5589 20.3188 50.5594 20.3203C50.5599 20.3218 50.5604 20.3232 50.5609 20.3247C50.5614 20.3262 50.562 20.3277 50.5625 20.3292C50.563 20.3307 50.5635 20.3321 50.564 20.3336C50.5645 20.3351 50.565 20.3366 50.5655 20.3381C50.566 20.3396 50.5665 20.3411 50.567 20.3425C50.5675 20.344 50.568 20.3455 50.5686 20.347C50.5691 20.3485 50.5696 20.35 50.5701 20.3514C50.5706 20.3529 50.5711 20.3544 50.5716 20.3559C50.5721 20.3574 50.5726 20.3589 50.5731 20.3603C50.5736 20.3618 50.5741 20.3633 50.5746 20.3648C50.5752 20.3663 50.5757 20.3678 50.5762 20.3693C50.5767 20.3707 50.5772 20.3722 50.5777 20.3737L51.5239 20.05ZM50.7439 17.77V16.77H42.6439V17.77V18.77H50.7439V17.77ZM42.6439 17.77L41.6977 17.4463C41.4402 18.1989 41.1728 18.9516 40.8955 19.7043L41.8339 20.05L42.7722 20.3957C43.0549 19.6285 43.3275 18.8611 43.59 18.0937L42.6439 17.77ZM41.8339 20.05L40.8877 19.7263C40.6244 20.4961 40.3809 21.2466 40.1575 21.9778L41.1139 22.27L42.0702 22.5622C42.2868 21.8535 42.5234 21.124 42.78 20.3737L41.8339 20.05ZM41.1139 22.27V21.27H36.2539V22.27V23.27H41.1139V22.27ZM36.2539 22.27L37.1982 22.5989C37.9766 20.3636 38.7146 18.2993 39.4122 16.4057L38.4739 16.06L37.5355 15.7143C36.8331 17.6208 36.0911 19.6965 35.3095 21.9412L36.2539 22.27ZM38.4739 16.06L39.4122 16.4057C40.11 14.5116 40.7875 12.7283 41.4446 11.0557L40.5139 10.69L39.5831 10.3244C38.9202 12.0117 38.2377 13.8084 37.5355 15.7143L38.4739 16.06ZM40.5139 10.69L41.4408 11.0652C42.1187 9.39036 42.7763 7.80614 43.4136 6.31246L42.4939 5.92002L41.5741 5.52758C40.9314 7.03389 40.269 8.62968 39.5869 10.3148L40.5139 10.69ZM42.4939 5.92002L43.4111 6.3183C44.0656 4.81095 44.7397 3.34393 45.4332 1.91721L44.5339 1.48002L43.6345 1.04283C42.928 2.4961 42.2421 3.98909 41.5766 5.52173L42.4939 5.92002ZM44.5339 1.48002V2.48002H49.0039V1.48002V0.480019H44.5339V1.48002ZM49.0039 1.48002L48.0996 1.90702C48.7749 3.33714 49.4406 4.80756 50.0966 6.3183L51.0139 5.92002L51.9311 5.52173C51.2671 3.99248 50.5928 2.50289 49.9081 1.05301L49.0039 1.48002ZM51.0139 5.92002L50.0985 6.32276C50.7526 7.80935 51.4075 9.3869 52.0631 11.0557L52.9939 10.69L53.9246 10.3244C53.2602 8.63313 52.5951 7.03069 51.9292 5.51728L51.0139 5.92002ZM52.9939 10.69L52.0669 11.0652C52.7425 12.7344 53.4287 14.5145 54.1255 16.4057L55.0639 16.06L56.0022 15.7143C55.299 13.8055 54.6052 12.0056 53.9208 10.3148L52.9939 10.69ZM55.0639 16.06L54.1255 16.4057C54.8231 18.2993 55.5611 20.3636 56.3395 22.5989L57.2839 22.27L58.2282 21.9412C57.4466 19.6965 56.7046 17.6208 56.0022 15.7143L55.0639 16.06ZM57.2839 22.27V21.27H52.2739V22.27V23.27H57.2839V22.27ZM46.6639 6.19002L45.7152 5.87379C45.6222 6.15259 45.4785 6.5463 45.2805 7.06104L46.2139 7.42002L47.1472 7.779C47.3492 7.25374 47.5055 6.82745 47.6125 6.50625L46.6639 6.19002ZM46.2139 7.42002L45.2805 7.06104C45.0802 7.58181 44.85 8.18244 44.5898 8.86288L45.5239 9.22002L46.4579 9.57716C46.7177 8.8976 46.9475 8.29823 47.1472 7.779L46.2139 7.42002ZM45.5239 9.22002L44.5898 8.86288C44.3308 9.54036 44.0416 10.2882 43.7223 11.1065L44.6539 11.47L45.5854 11.8336C45.9061 11.0119 46.1969 10.2597 46.4579 9.57716L45.5239 9.22002ZM44.6539 11.47L43.7147 11.1264C43.4136 11.9495 43.1026 12.8124 42.7816 13.715L43.7239 14.05L44.6661 14.385C44.9851 13.4876 45.2941 12.6305 45.593 11.8136L44.6539 11.47ZM43.7239 14.05V15.05H49.6339V14.05V13.05H43.7239V14.05ZM49.6339 14.05L50.5761 13.715C50.2551 12.8124 49.9441 11.9495 49.643 11.1264L48.7039 11.47L47.7647 11.8136C48.0636 12.6305 48.3726 13.4876 48.6916 14.385L49.6339 14.05ZM48.7039 11.47L49.643 11.1264C49.3392 10.2962 49.0444 9.53358 48.7585 8.83927L47.8339 9.22002L46.9092 9.60077C47.1833 10.2665 47.4685 11.0039 47.7647 11.8136L48.7039 11.47ZM47.8339 9.22002L48.7679 8.86288C48.5077 8.18244 48.2775 7.58181 48.0772 7.06104L47.1439 7.42002L46.2105 7.779C46.4102 8.29823 46.64 8.8976 46.8998 9.57716L47.8339 9.22002ZM47.1439 7.42002L48.0772 7.06104C47.8766 6.53939 47.7147 6.12466 47.5923 5.81863L46.6639 6.19002L45.7354 6.56141C45.853 6.85538 46.0111 7.26065 46.2105 7.779L47.1439 7.42002ZM74.735 2.92002L74.1756 3.74901L74.1826 3.75361L74.735 2.92002ZM76.205 11.65L75.4008 11.0556L75.3985 11.0587L76.205 11.65ZM73.325 13.78L72.9435 12.8556L71.7055 13.3665L72.547 14.4084L73.325 13.78ZM74.645 15.58L73.8166 16.1404L73.8246 16.1518L74.645 15.58ZM75.9949 17.68L75.1354 18.1911L75.1436 18.2049L75.1523 18.2184L75.9949 17.68ZM77.315 19.96L76.4295 20.4249L76.4345 20.4341L77.315 19.96ZM78.485 22.27V23.27H80.0652L79.3887 21.8419L78.485 22.27ZM73.235 22.27L72.362 22.7578L72.6482 23.27H73.235V22.27ZM72.0649 20.2L71.1861 20.6771L71.1913 20.6867L71.1967 20.6962L72.0649 20.2ZM70.865 18.16L70.0098 18.6783L70.0154 18.6877L70.0213 18.6969L70.865 18.16ZM69.6649 16.3L68.8329 16.8547L68.8373 16.8613L68.8417 16.8678L69.6649 16.3ZM68.465 14.68L69.2332 14.0398L68.9333 13.68H68.465V14.68ZM66.155 14.68V13.68H65.155V14.68H66.155ZM66.155 22.27V23.27H67.155V22.27H66.155ZM61.475 22.27H60.475V23.27H61.475V22.27ZM61.475 1.78002L61.2825 0.798704L60.475 0.957054V1.78002H61.475ZM64.625 1.36002L64.5524 0.362652L64.5511 0.362751L64.625 1.36002ZM66.905 5.26002L66.8337 4.26254L66.8283 4.26296L66.905 5.26002ZM66.155 5.32002L66.0719 4.32347L65.155 4.39989V5.32002H66.155ZM66.155 10.96H65.155V11.96H66.155V10.96ZM71.255 10.3L70.7539 9.43459V9.43459L71.255 10.3ZM71.225 5.89002L70.7239 6.75545L70.7373 6.76318L70.7509 6.77049L71.225 5.89002ZM67.5649 1.24002V2.24002C70.5886 2.24002 72.7494 2.78671 74.1757 3.74898L74.735 2.92002L75.2943 2.09105C73.4005 0.813326 70.7813 0.240019 67.5649 0.240019V1.24002ZM74.735 2.92002L74.1826 3.75361C75.5107 4.63373 76.225 6.00738 76.225 8.08002H77.225H78.225C78.225 5.47265 77.2792 3.40631 75.2873 2.08643L74.735 2.92002ZM77.225 8.08002H76.225C76.225 9.38552 75.9223 10.3501 75.4008 11.0556L76.205 11.65L77.0091 12.2444C77.8476 11.11 78.225 9.69452 78.225 8.08002H77.225ZM76.205 11.65L75.3985 11.0587C74.8687 11.7812 74.0715 12.3901 72.9435 12.8556L73.325 13.78L73.7064 14.7044C75.0984 14.1299 76.2212 13.3189 77.0114 12.2414L76.205 11.65ZM73.325 13.78L72.547 14.4084C72.9458 14.9021 73.3691 15.4787 73.8167 16.1403L74.645 15.58L75.4732 15.0197C75.0008 14.3214 74.5441 13.6979 74.1029 13.1517L73.325 13.78ZM74.645 15.58L73.8246 16.1518C74.2699 16.7907 74.7069 17.4704 75.1354 18.1911L75.9949 17.68L76.8545 17.1689C76.403 16.4097 75.94 15.6893 75.4653 15.0082L74.645 15.58ZM75.9949 17.68L75.1523 18.2184C75.5961 18.9132 76.022 19.6485 76.4296 20.4249L77.315 19.96L78.2003 19.4952C77.7679 18.6715 77.3138 17.8869 76.8376 17.1416L75.9949 17.68ZM77.315 19.96L76.4345 20.4341C76.8468 21.1998 77.229 21.9544 77.5812 22.6981L78.485 22.27L79.3887 21.8419C79.021 21.0656 78.6231 20.2803 78.1954 19.4859L77.315 19.96ZM78.485 22.27V21.27H73.235V22.27V23.27H78.485V22.27ZM73.235 22.27L74.1079 21.7822C73.7263 21.0993 73.3347 20.4065 72.9332 19.7039L72.0649 20.2L71.1967 20.6962C71.5952 21.3935 71.9836 22.0807 72.362 22.7578L73.235 22.27ZM72.0649 20.2L72.9438 19.7229C72.553 19.003 72.1413 18.303 71.7086 17.6231L70.865 18.16L70.0213 18.6969C70.4286 19.337 70.8169 19.9971 71.1861 20.6771L72.0649 20.2ZM70.865 18.16L71.7201 17.6417C71.3109 16.9665 70.9003 16.3299 70.4882 15.7323L69.6649 16.3L68.8417 16.8678C69.2296 17.4302 69.619 18.0335 70.0098 18.6783L70.865 18.16ZM69.6649 16.3L70.497 15.7453C70.0802 15.1201 69.6591 14.551 69.2332 14.0398L68.465 14.68L67.6967 15.3202C68.0708 15.7691 68.4497 16.2799 68.8329 16.8547L69.6649 16.3ZM68.465 14.68V13.68H66.155V14.68V15.68H68.465V14.68ZM66.155 14.68H65.155V22.27H66.155H67.155V14.68H66.155ZM66.155 22.27V21.27H61.475V22.27V23.27H66.155V22.27ZM61.475 22.27H62.475V1.78002H61.475H60.475V22.27H61.475ZM61.475 1.78002L61.6674 2.76133C62.6466 2.56932 63.657 2.43446 64.6988 2.35729L64.625 1.36002L64.5511 0.362751C63.4329 0.445576 62.3433 0.590714 61.2825 0.798704L61.475 1.78002ZM64.625 1.36002L64.6975 2.35738C65.7797 2.27868 66.7348 2.24002 67.5649 2.24002V1.24002V0.240019C66.6751 0.240019 65.6702 0.281359 64.5524 0.362654L64.625 1.36002ZM67.835 5.23002V4.23002C67.4759 4.23002 67.1417 4.24056 66.8337 4.26256L66.905 5.26002L66.9762 6.25748C67.2282 6.23948 67.514 6.23002 67.835 6.23002V5.23002ZM66.905 5.26002L66.8283 4.26296C66.5663 4.28311 66.3142 4.30328 66.0719 4.32347L66.155 5.32002L66.238 6.31656C66.4757 6.29675 66.7236 6.27692 66.9816 6.25707L66.905 5.26002ZM66.155 5.32002H65.155V10.96H66.155H67.155V5.32002H66.155ZM66.155 10.96V11.96H67.475V10.96V9.96002H66.155V10.96ZM67.475 10.96V11.96C69.2669 11.96 70.7547 11.7451 71.756 11.1654L71.255 10.3L70.7539 9.43459C70.2352 9.7349 69.203 9.96002 67.475 9.96002V10.96ZM71.255 10.3L71.756 11.1654C72.8934 10.507 73.395 9.37984 73.395 8.05002H72.395H71.395C71.395 8.8402 71.1365 9.21308 70.7539 9.43459L71.255 10.3ZM72.395 8.05002H73.395C73.395 6.72965 72.8584 5.63379 71.6991 5.00955L71.225 5.89002L70.7509 6.77049C71.1515 6.98625 71.395 7.33039 71.395 8.05002H72.395ZM71.225 5.89002L71.726 5.02459C70.741 4.45431 69.4016 4.23002 67.835 4.23002V5.23002V6.23002C69.2684 6.23002 70.1889 6.44573 70.7239 6.75545L71.225 5.89002ZM98.1117 1.48002H99.1117V0.480019H98.1117V1.48002ZM98.1117 5.47002V6.47002H99.1117V5.47002H98.1117ZM91.8418 5.47002V4.47002H90.8418V5.47002H91.8418ZM91.8418 22.27V23.27H92.8418V22.27H91.8418ZM87.1618 22.27H86.1618V23.27H87.1618V22.27ZM87.1618 5.47002H88.1618V4.47002H87.1618V5.47002ZM80.8917 5.47002H79.8917V6.47002H80.8917V5.47002ZM80.8917 1.48002V0.480019H79.8917V1.48002H80.8917ZM98.1117 1.48002H97.1117V5.47002H98.1117H99.1117V1.48002H98.1117ZM98.1117 5.47002V4.47002H91.8418V5.47002V6.47002H98.1117V5.47002ZM91.8418 5.47002H90.8418V22.27H91.8418H92.8418V5.47002H91.8418ZM91.8418 22.27V21.27H87.1618V22.27V23.27H91.8418V22.27ZM87.1618 22.27H88.1618V5.47002H87.1618H86.1618V22.27H87.1618ZM87.1618 5.47002V4.47002H80.8917V5.47002V6.47002H87.1618V5.47002ZM80.8917 5.47002H81.8917V1.48002H80.8917H79.8917V5.47002H80.8917ZM80.8917 1.48002V2.48002H98.1117V1.48002V0.480019H80.8917V1.48002Z" fill="url(#paint1_linear_33_136)" mask="url(#path-1-outside-1_33_136)"/>
<defs>
<linearGradient id="paint0_linear_33_136" x1="50.0586" y1="11.27" x2="52.1576" y2="25.1344" gradientUnits="userSpaceOnUse">
<stop stop-color="#DA89FF"/>
<stop offset="1" stop-color="#A743E3"/>
</linearGradient>
<linearGradient id="paint1_linear_33_136" x1="49.4158" y1="-5.72998" x2="49.4158" y2="28.27" gradientUnits="userSpaceOnUse">
<stop stop-color="#E666A8"/>
<stop offset="1" stop-color="#5E108D"/>
</linearGradient>
</defs>
</svg>
